<svg width="499" height="499" viewBox="0 0 499 499" fill="none" xmlns="http://www.w3.org/2000/svg">
<g clip-path="url(#clip0_299_579)">
<path d="M428.161 438.473V325.325" stroke="#1A2E35" stroke-linecap="round" stroke-linejoin="round"/>
<path d="M418.989 438.473V382.363" stroke="#1A2E35" stroke-linecap="round" stroke-linejoin="round"/>
<path d="M431.025 343.88C431.025 343.88 421.775 342.822 418.019 335.504C414.262 328.185 413.865 309.306 428.267 288.427C442.668 267.552 450.209 267.284 452.718 284.351C455.227 301.424 454.866 326.221 448.975 335.614C443.08 345.008 431.025 343.876 431.025 343.876V343.88Z" fill="white" stroke="#1A2E35" stroke-linecap="round" stroke-linejoin="round"/>
<path d="M434.306 304.464C436.01 298.647 438.043 293.412 440.414 289.873" stroke="#1A2E35" stroke-linecap="round" stroke-linejoin="round"/>
<path d="M427.181 342.573C427.181 342.573 429.085 324.318 433.22 308.405" stroke="#1A2E35" stroke-linecap="round" stroke-linejoin="round"/>
<path d="M436.533 380.603C436.533 380.603 430.6 376.001 431.076 369.385C431.552 362.768 439.176 349.582 457.846 341.219C476.513 332.856 481.826 335.827 476.406 348.644C470.991 361.461 460.365 378.408 452.367 382.419C444.369 386.429 436.533 380.603 436.533 380.603Z" fill="white" stroke="#1A2E35" stroke-linecap="round" stroke-linejoin="round"/>
<path d="M455.291 354.798C458.905 351.504 462.495 348.741 465.609 347.295" stroke="#1A2E35" stroke-linecap="round" stroke-linejoin="round"/>
<path d="M452.893 357.062C443.38 366.303 434.43 378.09 434.43 378.09C434.43 378.09 429.648 384.521 428.23 397.31" stroke="#1A2E35" stroke-linecap="round" stroke-linejoin="round"/>
<path d="M433.137 418.869C433.137 418.869 429.699 416.203 429.976 412.368C430.254 408.533 434.671 400.896 445.487 396.049C456.303 391.202 459.38 392.925 456.243 400.35C453.106 407.775 446.947 417.594 442.317 419.918C437.683 422.242 433.146 418.864 433.146 418.864L433.137 418.869Z" fill="white" stroke="#1A2E35" stroke-linecap="round" stroke-linejoin="round"/>
<path d="M444.004 403.917C446.097 402.009 448.176 400.41 449.983 399.57" stroke="#1A2E35" stroke-linecap="round" stroke-linejoin="round"/>
<path d="M442.613 405.23C437.101 410.585 431.917 417.413 431.917 417.413C431.917 417.413 429.145 421.138 428.322 428.549" stroke="#1A2E35" stroke-linecap="round" stroke-linejoin="round"/>
<path d="M419.775 365.305C419.775 365.305 425.707 360.703 425.231 354.087C424.755 347.47 417.132 334.284 398.461 325.921C379.794 317.558 374.481 320.529 379.901 333.346C385.316 346.163 395.943 363.11 403.941 367.121C411.938 371.131 419.775 365.305 419.775 365.305Z" fill="white" stroke="#1A2E35" stroke-linecap="round" stroke-linejoin="round"/>
<path d="M401.016 339.5C397.403 336.206 393.813 333.443 390.699 331.997" stroke="#1A2E35" stroke-linecap="round" stroke-linejoin="round"/>
<path d="M403.414 341.764C412.927 351.005 421.877 362.791 421.877 362.791C421.877 362.791 426.659 369.223 428.077 382.012" stroke="#1A2E35" stroke-linecap="round" stroke-linejoin="round"/>
<path d="M416.859 416.406C416.859 416.406 422.87 416.596 425.873 412.978C428.877 409.356 430.683 399.26 423.171 386.873C415.658 374.486 410.853 373.723 407.845 382.682C404.842 391.636 403.035 404.975 406.043 410.501C409.046 416.027 416.859 416.406 416.859 416.406Z" fill="white" stroke="#1A2E35" stroke-linecap="round" stroke-linejoin="round"/>
<path d="M417.802 407.207C417.889 408.436 417.954 409.67 417.986 410.889" stroke="#1A2E35" stroke-linecap="round" stroke-linejoin="round"/>
<path d="M413.191 382.137C413.191 382.137 416.337 392.805 417.543 404.324" stroke="#1A2E35" stroke-linecap="round" stroke-linejoin="round"/>
<path d="M28.9928 343.326H167.766V60.0879" stroke="#1A2E35" stroke-linecap="round" stroke-linejoin="round"/>
<path d="M315.035 343.326H176.263V60.0879" stroke="#1A2E35" stroke-linecap="round" stroke-linejoin="round"/>
<path d="M232.904 343.326H371.676V60.0879" stroke="#1A2E35" stroke-linecap="round" stroke-linejoin="round"/>
<path d="M343.354 126.594L294.854 180.19" stroke="#1A2E35" stroke-linecap="round" stroke-linejoin="round"/>
<path d="M316.449 168.061L302.995 182.93" stroke="#1A2E35" stroke-linecap="round" stroke-linejoin="round"/>
<path d="M209.538 112.511L183.341 141.462" stroke="#1A2E35" stroke-linecap="round" stroke-linejoin="round"/>
<path d="M216.617 105.469L234.317 85.9065" stroke="#1A2E35" stroke-linecap="round" stroke-linejoin="round"/>
<path d="M162.101 284.643L145.107 303.424" stroke="#1A2E35" stroke-linecap="round" stroke-linejoin="round"/>
<path d="M156.437 259.605L124.93 294.424" stroke="#1A2E35" stroke-linecap="round" stroke-linejoin="round"/>
<path d="M464.968 166.889C484.585 147.272 484.585 115.467 464.968 95.8498C445.351 76.2327 413.545 76.2327 393.928 95.8498C374.311 115.467 374.311 147.272 393.928 166.889C413.545 186.507 445.351 186.507 464.968 166.889Z" stroke="#1A2E35" stroke-linecap="round" stroke-linejoin="round"/>
<path d="M429.45 175.218C453.666 175.218 473.297 155.587 473.297 131.371C473.297 107.155 453.666 87.5237 429.45 87.5237C405.233 87.5237 385.602 107.155 385.602 131.371C385.602 155.587 405.233 175.218 429.45 175.218Z" stroke="#1A2E35" stroke-linecap="round" stroke-linejoin="round"/>
<path d="M429.449 134.365C431.103 134.365 432.444 133.025 432.444 131.371C432.444 129.717 431.103 128.377 429.449 128.377C427.796 128.377 426.456 129.717 426.456 131.371C426.456 133.025 427.796 134.365 429.449 134.365Z" stroke="#1A2E35" stroke-linecap="round" stroke-linejoin="round"/>
<path d="M429.45 134.37V149.099" stroke="#1A2E35" stroke-linecap="round" stroke-linejoin="round"/>
<path d="M426.456 131.371H390.703" stroke="#1A2E35" stroke-linecap="round" stroke-linejoin="round"/>
<path d="M335.587 335.776H389.299C389.299 335.776 360.264 407.272 365.707 439.212H311.27C311.27 439.212 321.43 357.552 335.587 335.776Z" fill="#1A2E35" stroke="#1A2E35" stroke-linecap="round" stroke-linejoin="round"/>
<path d="M289.115 233.144C289.115 233.144 289.651 242.824 307.666 248.47C325.681 254.116 343.963 248.47 354.179 256.537C364.395 264.604 364.127 276.973 360.634 283.155C357.136 289.337 351.49 295.523 368.16 302.782C384.831 310.041 374.883 331.281 367.892 339.08C360.902 346.879 348.801 350.64 335.36 347.951C321.915 345.262 306.053 312.73 288.847 295.519C271.641 278.313 269.539 246.548 280.512 237.441C291.485 228.334 289.115 233.139 289.115 233.139V233.144Z" fill="#1A2E35" stroke="#1A2E35" stroke-linecap="round" stroke-linejoin="round"/>
<path d="M286.347 198.343C286.347 198.343 293.768 195.109 295.671 201.388C297.575 207.667 298.143 224.79 298.143 224.79L294.147 223.838C294.147 223.838 295.098 204.428 290.723 201.388C286.347 198.343 282.924 205.195 282.924 205.195L286.347 198.343Z" fill="#A6A6A6" stroke="#1A2E35" stroke-linecap="round" stroke-linejoin="round"/>
<path d="M203.061 407.175L228.408 393.623C228.408 393.623 226.652 367.024 226.902 366.021C227.151 365.019 233.504 312.97 233.504 312.97L216.113 364.515L203.065 407.175H203.061Z" fill="#1A2E35" stroke="#1A2E35" stroke-linecap="round" stroke-linejoin="round"/>
<path d="M315.109 286.241C315.109 286.241 340.133 299.89 343.543 301.313C346.957 302.736 344.966 320.081 344.966 331.456C344.966 342.831 327.903 438.94 327.903 438.94H201.651C201.651 438.94 222.979 406.241 223.547 397.708C224.116 389.178 220.419 382.354 219.851 374.107C219.283 365.859 231.508 315.53 233.5 312.97C235.491 310.41 244.02 303.872 244.02 303.872L274.164 277.425L288.099 274.297L315.114 286.241H315.109Z" fill="#003659" stroke="#1A2E35" stroke-linecap="round" stroke-linejoin="round"/>
<path d="M231.457 406.948L227.248 415.621" stroke="#1A2E35" stroke-linecap="round" stroke-linejoin="round"/>
<path d="M235.491 382.068C235.491 382.068 229.235 386.332 232.363 388.606C235.491 390.879 236.914 395.716 236.914 395.716L232.917 403.525" stroke="#1A2E35" stroke-linecap="round" stroke-linejoin="round"/>
<path d="M264.96 402.758C266.655 402.887 268.439 402.984 270.31 403.035" stroke="#1A2E35" stroke-linecap="round" stroke-linejoin="round"/>
<path d="M238.046 395.716C238.046 395.716 244.847 400.263 259.683 402.212" stroke="#1A2E35" stroke-linecap="round" stroke-linejoin="round"/>
<path d="M221.08 213.946C221.08 213.946 217.273 215.466 217.273 220.415C217.273 225.363 221.27 235.066 221.27 235.066L223.552 234.304C223.552 234.304 219.366 224.217 219.939 220.604C220.512 216.991 223.935 216.039 223.935 216.039L223.173 213.567L221.08 213.946Z" fill="#A6A6A6" stroke="#1A2E35" stroke-linecap="round" stroke-linejoin="round"/>
<path d="M230.875 239.423C231.846 244.427 230.159 248.959 227.119 249.551C224.074 250.138 220.821 246.561 219.856 241.558C218.885 236.554 220.572 232.021 223.612 231.43C226.657 230.843 229.91 234.419 230.875 239.423Z" fill="white" stroke="#1A2E35" stroke-linecap="round" stroke-linejoin="round"/>
<path d="M240.13 237.81C242.029 244.21 239.811 250.507 235.177 251.884C230.543 253.261 225.248 249.186 223.349 242.791C221.45 236.392 223.668 230.094 228.302 228.718C232.936 227.341 238.231 231.416 240.13 237.81Z" fill="#1A2E35" stroke="#1A2E35" stroke-linecap="round" stroke-linejoin="round"/>
<path d="M257.304 272.685L261.809 287.318L247.005 305.966L244.547 320.372C244.547 320.372 242.089 361.489 243.494 367.814C244.898 374.139 244.898 375.895 244.898 375.895C244.898 375.895 275.471 340.401 290.584 318.612C305.698 296.822 309.209 283.469 309.209 283.469L294.452 275.388L287.424 242.708L257.313 272.68L257.304 272.685Z" fill="white" stroke="#1A2E35" stroke-linecap="round" stroke-linejoin="round"/>
<path d="M280.637 258.514L261.804 287.322L256.555 270.366L280.637 258.514Z" fill="#1A2E35" stroke="#1A2E35" stroke-linecap="round" stroke-linejoin="round"/>
<path d="M244.681 319.559L244.542 320.376C244.542 320.376 242.084 361.493 243.489 367.818C244.893 374.144 244.893 375.899 244.893 375.899C244.893 375.899 275.466 340.406 290.58 318.616C291.762 316.907 292.871 315.257 293.916 313.654C274.991 320.127 255.705 320.242 244.681 319.554V319.559Z" fill="white" stroke="#1A2E35" stroke-linecap="round" stroke-linejoin="round"/>
<path d="M237.256 182.935C237.256 182.935 223.178 191.496 221.653 204.438C220.128 217.379 225.46 231.268 227.553 236.785C229.646 242.302 236.877 263.805 240.684 267.991C244.492 272.177 256.856 278.456 258.949 279.597C261.042 280.739 264.849 280.36 268.083 278.077C271.317 275.795 284.638 259.619 286.731 255.816C288.824 252.009 289.203 243.637 289.203 243.637C289.203 243.637 288.824 226.893 288.062 216.049C287.299 205.205 287.872 194.74 278.927 185.605C269.982 176.471 246.012 176.281 237.256 182.939V182.935Z" fill="white" stroke="#1A2E35" stroke-linecap="round" stroke-linejoin="round"/>
<path d="M288.057 216.039C287.295 205.195 287.868 194.73 278.923 185.596C269.977 176.461 246.007 176.272 237.251 182.93C237.251 182.93 223.173 191.491 221.648 204.433C220.766 211.95 222.194 219.777 223.954 226.107C227.193 224.139 238.115 217.412 250.378 208.808C265.029 198.533 269.788 182.551 269.788 182.551C269.788 182.551 271.502 181.599 271.119 183.692C270.74 185.785 265.029 198.154 262.936 200.057L260.843 201.961C260.843 201.961 262.557 201.582 270.356 210.906C278.156 220.23 282.536 224.037 284.818 225.178C285.525 225.534 286.934 225.774 288.598 225.918C288.445 222.494 288.265 219.047 288.052 216.044L288.057 216.039Z" fill="#1A2E35" stroke="#1A2E35" stroke-linecap="round" stroke-linejoin="round"/>
<path d="M264.632 236.216C264.877 237.612 264.364 238.873 263.486 239.026C262.608 239.183 261.693 238.175 261.448 236.776C261.203 235.38 261.716 234.119 262.594 233.966C263.472 233.814 264.387 234.816 264.632 236.216Z" fill="#1A2E35" stroke="#1A2E35" stroke-linecap="round" stroke-linejoin="round"/>
<path d="M243.318 239.261C243.563 240.657 243.05 241.918 242.172 242.07C241.294 242.228 240.379 241.22 240.135 239.82C239.89 238.425 240.403 237.164 241.28 237.011C242.158 236.854 243.073 237.861 243.318 239.261Z" fill="#1A2E35" stroke="#1A2E35" stroke-linecap="round" stroke-linejoin="round"/>
<path d="M255.904 227.646C255.904 227.646 262.183 222.697 267.889 226.694" stroke="#1A2E35" stroke-linecap="round" stroke-linejoin="round"/>
<path d="M243.152 230.312C243.152 230.312 235.731 226.698 230.593 233.167" stroke="#1A2E35" stroke-linecap="round" stroke-linejoin="round"/>
<path d="M244.487 230.501C244.487 230.501 249.625 232.973 250.004 237.732" stroke="#1A2E35" stroke-linecap="round" stroke-linejoin="round"/>
<path d="M250.193 250.863C250.193 250.863 252.286 252.383 255.899 251.242" stroke="#1A2E35" stroke-linecap="round" stroke-linejoin="round"/>
<path d="M248.673 258.852C248.673 258.852 254.379 258.852 261.042 255.996C267.7 253.141 270.366 249.144 270.366 249.144" stroke="#1A2E35" stroke-linecap="round" stroke-linejoin="round"/>
<path d="M251.907 258.662C251.907 258.662 254 260.755 257.424 260.755C260.848 260.755 263.892 254.666 263.892 254.666C263.892 254.666 255.141 258.473 251.907 258.662Z" stroke="#1A2E35" stroke-linecap="round" stroke-linejoin="round"/>
<path d="M291.485 244.584C296.318 244.584 300.236 239.174 300.236 232.502C300.236 225.829 296.318 220.419 291.485 220.419C286.652 220.419 282.734 225.829 282.734 232.502C282.734 239.174 286.652 244.584 291.485 244.584Z" fill="#1A2E35" stroke="#1A2E35" stroke-linecap="round" stroke-linejoin="round"/>
<path d="M295.195 239.636C298.296 239.636 300.809 235.505 300.809 230.409C300.809 225.313 298.296 221.182 295.195 221.182C292.095 221.182 289.582 225.313 289.582 230.409C289.582 235.505 292.095 239.636 295.195 239.636Z" fill="white" stroke="#1A2E35" stroke-linecap="round" stroke-linejoin="round"/>
<path d="M227.114 245.392C227.114 245.392 227.17 265.158 232.308 266.873C237.445 268.587 251.524 265.158 251.524 265.158" stroke="#1A2E35" stroke-width="2" stroke-linecap="round" stroke-linejoin="round"/>
<path d="M258.755 265.066C258.755 266.591 256.879 267.824 254.569 267.824C252.258 267.824 250.382 266.591 250.382 265.066C250.382 263.541 252.258 262.308 254.569 262.308C256.879 262.308 258.755 263.541 258.755 265.066Z" fill="#1A2E35" stroke="#1A2E35" stroke-linecap="round" stroke-linejoin="round"/>
<path d="M259.947 288.233C259.947 288.233 253.977 298.753 249.708 330.033C245.443 361.313 248.285 367.569 248.285 367.569L242.315 371.265C242.315 371.265 229.803 369.842 234.068 340.272C238.333 310.701 240.606 305.864 240.606 305.864L259.942 288.233H259.947Z" fill="#5AE4A7" stroke="#1A2E35" stroke-linecap="round" stroke-linejoin="round"/>
<path d="M298.051 277.426C298.051 277.426 284.402 309.842 270.185 330.028C255.969 350.219 236.632 379.222 236.632 379.222C236.632 379.222 246.871 374.389 268.48 358.18C290.09 341.972 311.986 304.723 314.259 301.026C316.532 297.33 319.947 288.801 319.947 288.801L298.051 277.426Z" fill="#5AE4A7" stroke="#1A2E35" stroke-linecap="round" stroke-linejoin="round"/>
<path d="M179.931 421.475C179.931 421.475 175.861 424.09 169.461 426.71C163.062 429.329 162.475 428.858 164.518 431.071C166.56 433.284 177.311 429.325 180.222 428.165C183.128 427.001 188.654 425.259 188.654 425.259C188.654 425.259 195.345 429.038 199.415 430.203C203.486 431.367 208.43 429.621 208.43 429.621C208.43 429.621 208.721 424.968 205.232 422.353C201.744 419.738 194.18 413.629 191.565 413.921C188.95 414.212 179.936 421.479 179.936 421.479L179.931 421.475Z" fill="white" stroke="#1A2E35" stroke-linecap="round" stroke-linejoin="round"/>
<path d="M178.185 414.498C178.185 414.498 174.696 413.625 172.368 415.371C170.043 417.118 167.424 422.639 167.133 424.095C166.842 425.55 167.424 426.419 169.748 424.386C172.072 422.348 176.147 419.442 176.147 419.442L179.635 418.277L178.18 414.498H178.185Z" fill="white" stroke="#1A2E35" stroke-linecap="round" stroke-linejoin="round"/>
<path d="M187.199 411.878C187.199 411.878 180.222 409.554 178.767 411.587C177.311 413.625 172.368 425.254 173.823 426.128C175.278 427.001 177.311 425.254 179.931 421.475C182.546 417.695 184.002 415.658 184.002 415.658L187.49 415.076L187.199 411.878Z" fill="white" stroke="#1A2E35" stroke-linecap="round" stroke-linejoin="round"/>
<path d="M199.665 414.484C199.665 414.484 190.567 407.373 188.289 409.083C186.016 410.788 178.624 421.877 177.769 424.155C176.914 426.428 180.897 425.291 184.025 422.45C187.153 419.608 190.849 416.48 190.849 416.48L197.96 420.176L199.665 414.489V414.484Z" fill="white" stroke="#1A2E35" stroke-linecap="round" stroke-linejoin="round"/>
<path d="M232.363 419.885C232.363 419.885 220.419 419.317 215.586 417.612C210.754 415.907 201.083 412.211 198.242 412.493C195.4 412.779 184.593 423.3 182.32 425.573C180.047 427.846 180.273 428.461 182.551 428.743C184.824 429.029 190.285 425.287 192.845 423.295C195.405 421.304 197.964 420.167 197.964 420.167C197.964 420.167 201.947 425.855 204.789 428.415C207.63 430.974 214.454 432.966 217.014 432.679C219.574 432.393 221.847 431.824 221.847 431.824L231.513 431.538L232.368 419.881L232.363 419.885Z" fill="white" stroke="#1A2E35" stroke-linecap="round" stroke-linejoin="round"/>
<path d="M315.396 337.698C315.396 337.698 304.875 349.924 305.443 354.188C306.012 358.453 306.298 362.718 306.298 362.718L298.619 409.069C298.619 409.069 292.081 405.941 292.081 408.501V411.06L230.663 417.316L230.094 438.926L327.912 439.212C327.912 439.212 332.745 433.811 333.314 431.82C333.882 429.828 344.689 395.421 347.53 359.308C350.372 323.195 348.953 306.987 347.53 304.145C346.107 301.304 329.331 295.898 329.331 295.898" fill="#003659"/>
<path d="M315.396 337.698C315.396 337.698 304.875 349.924 305.443 354.188C306.012 358.453 306.298 362.718 306.298 362.718L298.619 409.069C298.619 409.069 292.081 405.941 292.081 408.501V411.06L230.663 417.316L230.094 438.926L327.912 439.212C327.912 439.212 332.745 433.811 333.314 431.82C333.882 429.828 344.689 395.421 347.53 359.308C350.372 323.195 348.953 306.987 347.53 304.145C346.107 301.304 329.331 295.898 329.331 295.898" stroke="#1A2E35" stroke-linecap="round" stroke-linejoin="round"/>
<path d="M300.892 408.797C300.892 408.797 309.99 414.766 315.396 416.189L300.892 408.797Z" fill="white"/>
<path d="M300.892 408.797C300.892 408.797 309.99 414.766 315.396 416.189" stroke="#1A2E35" stroke-linecap="round" stroke-linejoin="round"/>
<path d="M215.605 351.12L222.623 328.628C222.623 328.628 227.068 324.392 230.034 319.309C233.001 314.227 233.001 304.7 232.576 303.004C232.151 301.308 238.716 293.685 240.624 290.935C242.528 288.182 243.591 283.312 241.049 279.713C238.508 276.113 237.238 282.041 235.542 284.795C233.846 287.549 227.918 290.302 227.918 290.302L221.565 295.385C221.565 295.385 211.188 304.492 210.555 305.762C209.922 307.033 208.651 311.057 208.651 311.057L209.497 323.338L203.989 344.726L215.605 351.125V351.12Z" fill="white" stroke="#1A2E35" stroke-linecap="round" stroke-linejoin="round"/>
<path d="M217.333 287.969C217.333 287.969 222.415 279.921 223.899 277.379C225.382 274.838 227.71 264.673 229.193 265.311C230.677 265.944 232.16 269.335 231.735 273.78C231.31 278.225 226.019 288.39 226.019 288.39L217.338 287.965L217.333 287.969Z" stroke="#1A2E35" stroke-linecap="round" stroke-linejoin="round"/>
<path d="M205.047 338.373L209.492 323.338L207.589 299.197L213.517 287.761L229.822 285.645C229.822 285.645 239.774 290.94 240.62 290.94C241.465 290.94 240.62 293.269 238.716 293.694C236.812 294.119 233.209 293.061 233.209 293.061L239.349 297.085C239.349 297.085 238.924 298.989 237.445 299.414C235.962 299.839 233.001 299.839 233.001 299.839C233.001 299.839 238.296 303.226 237.025 303.863C235.754 304.496 234.271 304.709 233.001 304.709H228.976L225.802 304.284L220.932 306.187C220.932 306.187 224.319 314.869 224.106 319.106C223.894 323.343 218.599 326.092 218.599 326.092" fill="white"/>
<path d="M205.047 338.373L209.492 323.338L207.589 299.197L213.517 287.761L229.822 285.645C229.822 285.645 239.774 290.94 240.62 290.94C241.465 290.94 240.62 293.269 238.716 293.694C236.812 294.119 233.209 293.061 233.209 293.061L239.349 297.085C239.349 297.085 238.924 298.989 237.445 299.414C235.962 299.839 233.001 299.839 233.001 299.839C233.001 299.839 238.296 303.226 237.025 303.863C235.754 304.496 234.271 304.709 233.001 304.709H228.976L225.802 304.284L220.932 306.187C220.932 306.187 224.319 314.869 224.106 319.106C223.894 323.343 218.599 326.092 218.599 326.092" stroke="#1A2E35" stroke-linecap="round" stroke-linejoin="round"/>
<path d="M233.213 293.052C233.213 293.052 229.826 290.298 227.918 290.298C226.01 290.298 214.367 292.414 214.367 292.414" stroke="#1A2E35" stroke-linecap="round" stroke-linejoin="round"/>
<path d="M233.001 299.83C233.001 299.83 227.493 296.863 225.802 296.863C224.111 296.863 210.767 300.25 210.767 300.25" stroke="#1A2E35" stroke-linecap="round" stroke-linejoin="round"/>
<path d="M205.32 333.646L222.512 345.229C222.512 345.229 214.856 386.346 214.103 389.858C213.35 393.369 207.829 402.656 205.071 405.414C202.312 408.173 199.046 407.674 191.519 405.664C183.992 403.654 177.464 397.634 177.718 389.853C177.967 382.072 205.32 333.642 205.32 333.642V333.646Z" fill="#003659" stroke="#1A2E35" stroke-linecap="round" stroke-linejoin="round"/>
<path d="M116.452 433.284H111.453V434.823H116.452V433.284Z" fill="white" stroke="#1A2E35" stroke-linecap="round" stroke-linejoin="round"/>
<path d="M123.369 433.284H118.369V434.823H123.369V433.284Z" fill="white" stroke="#1A2E35" stroke-linecap="round" stroke-linejoin="round"/>
<path d="M130.29 433.284H125.291V434.823H130.29V433.284Z" fill="white" stroke="#1A2E35" stroke-linecap="round" stroke-linejoin="round"/>
<path d="M137.211 433.284H132.212V434.823H137.211V433.284Z" fill="white" stroke="#1A2E35" stroke-linecap="round" stroke-linejoin="round"/>
<path d="M144.128 433.284H139.129V434.823H144.128V433.284Z" fill="white" stroke="#1A2E35" stroke-linecap="round" stroke-linejoin="round"/>
<path d="M151.049 433.284H146.05V434.823H151.049V433.284Z" fill="white" stroke="#1A2E35" stroke-linecap="round" stroke-linejoin="round"/>
<path d="M157.966 433.284H152.967V434.823H157.966V433.284Z" fill="white" stroke="#1A2E35" stroke-linecap="round" stroke-linejoin="round"/>
<path d="M164.887 433.284H159.888V434.823H164.887V433.284Z" fill="white" stroke="#1A2E35" stroke-linecap="round" stroke-linejoin="round"/>
<path d="M171.808 433.284H166.809V434.823H171.808V433.284Z" fill="white" stroke="#1A2E35" stroke-linecap="round" stroke-linejoin="round"/>
<path d="M178.725 433.284H173.726V434.823H178.725V433.284Z" fill="white" stroke="#1A2E35" stroke-linecap="round" stroke-linejoin="round"/>
<path d="M185.646 433.284H180.647V434.823H185.646V433.284Z" fill="white" stroke="#1A2E35" stroke-linecap="round" stroke-linejoin="round"/>
<path d="M192.568 433.284H187.569V434.823H192.568V433.284Z" fill="white" stroke="#1A2E35" stroke-linecap="round" stroke-linejoin="round"/>
<path d="M199.484 433.284H194.485V434.823H199.484V433.284Z" fill="white" stroke="#1A2E35" stroke-linecap="round" stroke-linejoin="round"/>
<path d="M206.406 433.284H201.407V434.823H206.406V433.284Z" fill="white" stroke="#1A2E35" stroke-linecap="round" stroke-linejoin="round"/>
<path d="M213.327 433.284H208.328V434.823H213.327V433.284Z" fill="white" stroke="#1A2E35" stroke-linecap="round" stroke-linejoin="round"/>
<path d="M220.244 433.284H215.245V434.823H220.244V433.284Z" fill="white" stroke="#1A2E35" stroke-linecap="round" stroke-linejoin="round"/>
<path d="M232.294 434.495H108.579V438.852H232.294V434.495Z" fill="white" stroke="#1A2E35" stroke-linecap="round" stroke-linejoin="round"/>
<path d="M232.294 434.495H184.866V438.852H232.294V434.495Z" fill="white" stroke="#1A2E35" stroke-linecap="round" stroke-linejoin="round"/>
<path d="M147.187 396.386H49.9185L30.3836 292.955H127.652L147.187 396.386Z" fill="#1A2E35" stroke="white" stroke-linecap="round" stroke-linejoin="round"/>
<path d="M144.225 393.766H49.8723L31.3261 295.574H125.679L144.225 393.766Z" fill="#1A2E35" stroke="white" stroke-linecap="round" stroke-linejoin="round"/>
<path d="M126.058 385.949H55.9065L42.1193 312.947H112.27L126.058 385.949Z" fill="#1A2E35" stroke="white" stroke-linecap="round" stroke-linejoin="round"/>
<path d="M42.1193 312.947L31.3261 295.574" stroke="#1A2E35" stroke-linecap="round" stroke-linejoin="round"/>
<path d="M112.27 312.947L125.679 295.574" stroke="white" stroke-linecap="round" stroke-linejoin="round"/>
<path d="M126.058 385.949L144.225 393.766" stroke="white" stroke-linecap="round" stroke-linejoin="round"/>
<path d="M55.9065 385.949L49.8723 393.766" stroke="#1A2E35" stroke-linecap="round" stroke-linejoin="round"/>
<path d="M84.428 364.085H68.46L78.6249 355.015H94.5929L84.428 364.085Z" fill="#1A2E35" stroke="white" stroke-linecap="round" stroke-linejoin="round"/>
<path d="M137.414 433.405H78.9852V439.212H137.414V433.405Z" fill="#1A2E35" stroke="white" stroke-linecap="round" stroke-linejoin="round"/>
<path d="M104.028 439.212H88.0596L68.46 416.942H84.428L104.028 439.212Z" fill="#1A2E35" stroke="white" stroke-linecap="round" stroke-linejoin="round"/>
<path d="M84.428 364.45H68.46V416.711H84.428V364.45Z" fill="#1A2E35" stroke="white" stroke-linecap="round" stroke-linejoin="round"/>
<path d="M318.274 429.269C318.274 429.269 321.116 435.239 328.226 438.935L318.274 429.269Z" fill="white"/>
<path d="M318.274 429.269C318.274 429.269 321.116 435.239 328.226 438.935" stroke="#1A2E35" stroke-linecap="round" stroke-linejoin="round"/>
<path d="M18.1396 439.212H475.542" stroke="#1A2E35" stroke-linecap="round" stroke-linejoin="round"/>
</g>
<defs>
<clipPath id="clip0_299_579">
<rect width="499" height="499" fill="white"/>
</clipPath>
</defs>
</svg>
