<svg width="271" height="239" viewBox="0 0 271 239" fill="none" xmlns="http://www.w3.org/2000/svg">
<path d="M138.116 187.368C124.377 187.368 111.461 181.947 101.745 172.103C92.0301 162.259 86.6795 149.171 86.6795 135.25C86.6795 121.329 92.0301 108.241 101.745 98.3973C110.631 89.3936 122.424 84.0086 134.955 83.2305C147.374 82.4609 159.62 86.2488 169.434 93.8997C170.222 94.5128 170.37 95.6576 169.762 96.4551C169.157 97.2525 168.028 97.4026 167.241 96.7873C148.288 82.0128 121.224 83.8135 104.288 100.974C95.2523 110.13 90.2762 122.302 90.2762 135.25C90.2762 148.198 95.2523 160.37 104.288 169.524C113.324 178.68 125.337 183.722 138.116 183.722C150.895 183.722 162.908 178.68 171.944 169.524C181.519 159.821 186.601 146.393 185.888 132.68C185.835 131.674 186.597 130.817 187.589 130.763C188.584 130.712 189.428 131.481 189.481 132.487C190.246 147.229 184.782 161.667 174.487 172.098C164.772 181.942 151.855 187.364 138.116 187.364V187.368Z" fill="#003659"/>
<path d="M185.518 122.122C184.752 122.122 184.041 121.62 183.8 120.84C182.397 116.261 180.334 111.933 177.671 107.977C176.92 106.863 176.112 105.765 175.27 104.712C174.643 103.932 174.76 102.783 175.53 102.149C176.3 101.514 177.434 101.632 178.06 102.412C178.968 103.542 179.837 104.723 180.643 105.922C183.508 110.177 185.727 114.833 187.236 119.757C187.53 120.717 186.999 121.74 186.051 122.038C185.873 122.094 185.694 122.119 185.518 122.119V122.122Z" fill="#003659"/>
<path d="M147.871 225.046H128.335C124.157 225.046 120.759 221.601 120.759 217.369V204.2C114.232 202.522 108.02 199.917 102.255 196.444L93.0731 205.748C91.6429 207.197 89.7388 207.997 87.7162 207.997C85.6936 207.997 83.7895 207.197 82.3593 205.748L68.546 191.752C67.1158 190.303 66.3267 188.373 66.3267 186.324C66.3267 184.275 67.1158 182.345 68.546 180.896L77.7281 171.592C74.3007 165.751 71.7301 159.457 70.0735 152.843H57.0769C52.8984 152.843 49.5006 149.398 49.5006 145.167V125.372C49.5006 121.138 52.9005 117.695 57.0769 117.695H70.0735C71.7301 111.082 74.3007 104.788 77.7281 98.946L68.546 89.6422C65.5925 86.6496 65.5925 81.7791 68.546 78.7843L82.3593 64.7858C85.3128 61.7932 90.1196 61.7932 93.0753 64.7858L102.257 74.0895C108.023 70.6146 114.234 68.0121 120.761 66.3336V53.1647C120.761 48.9308 124.161 45.488 128.337 45.488H147.874C152.052 45.488 155.45 48.933 155.45 53.1647V66.3336C161.977 68.0121 168.188 70.6167 173.954 74.0895L183.136 64.7858C184.566 63.3366 186.47 62.537 188.493 62.537C190.515 62.537 192.419 63.3366 193.849 64.7858L207.663 78.7843C209.093 80.2334 209.882 82.1628 209.882 84.2122C209.882 86.2616 209.093 88.1909 207.663 89.6401L198.481 98.9438C201.91 104.785 204.479 111.079 206.135 117.693H219.132C223.31 117.693 226.708 121.138 226.708 125.369V145.165C226.708 149.398 223.308 152.841 219.132 152.841H206.135C204.479 159.455 201.908 165.749 198.481 171.59L207.663 180.894C209.093 182.343 209.882 184.272 209.882 186.322C209.882 188.371 209.095 190.301 207.663 191.75L193.849 205.746C190.896 208.739 186.089 208.739 183.134 205.746L173.951 196.442C168.186 199.917 161.975 202.52 155.448 204.198V217.367C155.448 221.601 152.048 225.044 147.871 225.044V225.046ZM101.982 192.32C102.31 192.32 102.638 192.41 102.932 192.596C109.106 196.492 115.844 199.317 122.964 200.993C123.778 201.184 124.356 201.922 124.356 202.768V217.369C124.356 219.592 126.141 221.402 128.335 221.402H147.871C150.065 221.402 151.851 219.592 151.851 217.369V202.768C151.851 201.922 152.429 201.186 153.243 200.993C160.36 199.317 167.101 196.492 173.272 192.596C173.983 192.148 174.904 192.256 175.494 192.854L185.677 203.171C187.227 204.745 189.754 204.745 191.306 203.171L205.122 189.175C206.673 187.602 206.673 185.044 205.122 183.473L194.939 173.155C194.349 172.555 194.243 171.622 194.685 170.904C198.529 164.649 201.318 157.821 202.972 150.607C203.161 149.782 203.888 149.197 204.724 149.197H219.134C221.328 149.197 223.114 147.388 223.114 145.165V125.369C223.114 123.146 221.328 121.337 219.134 121.337H204.724C203.888 121.337 203.163 120.752 202.972 119.927C201.318 112.715 198.529 105.885 194.685 99.6298C194.243 98.9095 194.349 97.977 194.939 97.3789L205.122 87.0612C205.873 86.3002 206.288 85.2862 206.288 84.21C206.288 83.1339 205.873 82.1199 205.122 81.3589L191.306 67.3604C190.555 66.5994 189.555 66.1792 188.493 66.1792C187.43 66.1792 186.43 66.5994 185.679 67.3604L175.496 77.6781C174.904 78.2784 173.983 78.3834 173.274 77.9354C167.101 74.0402 160.362 71.2148 153.245 69.5384C152.431 69.3476 151.853 68.6102 151.853 67.7634V53.1626C151.853 50.9395 150.068 49.1302 147.874 49.1302H128.337C126.143 49.1302 124.358 50.9395 124.358 53.1626V67.7634C124.358 68.6102 123.78 69.3455 122.966 69.5384C115.846 71.2148 109.108 74.0402 102.934 77.9354C102.226 78.3834 101.303 78.2762 100.713 77.6781L90.5301 67.3604C88.9772 65.7891 86.4532 65.7891 84.9003 67.3604L71.087 81.3589C70.3359 82.1199 69.9212 83.1339 69.9212 84.21C69.9212 85.2862 70.3359 86.3002 71.087 87.0612L81.2697 97.3789C81.8621 97.977 81.9658 98.9117 81.5236 99.6298C77.6794 105.885 74.891 112.713 73.2365 119.927C73.0482 120.752 72.3204 121.337 71.4847 121.337H57.0748C54.8808 121.337 53.0952 123.146 53.0952 125.369V145.165C53.0952 147.388 54.8808 149.197 57.0748 149.197H71.4847C72.3204 149.197 73.0461 149.782 73.2365 150.607C74.891 157.819 77.6794 164.649 81.5236 170.904C81.9658 171.622 81.86 172.557 81.2697 173.155L71.087 183.473C70.3359 184.234 69.9212 185.248 69.9212 186.324C69.9212 187.4 70.3359 188.414 71.087 189.175L84.9003 203.171C85.6513 203.932 86.652 204.353 87.7141 204.353C88.7762 204.353 89.7769 203.932 90.528 203.171L100.711 192.854C101.058 192.502 101.519 192.32 101.982 192.32Z" fill="#003659"/>
<path d="M109.133 161.611C105.714 161.611 102.934 158.794 102.934 155.33C102.934 151.866 105.714 149.049 109.133 149.049C112.552 149.049 115.332 151.866 115.332 155.33C115.332 158.794 112.552 161.611 109.133 161.611ZM109.133 152.693C107.699 152.693 106.531 153.877 106.531 155.33C106.531 156.784 107.699 157.967 109.133 157.967C110.568 157.967 111.736 156.784 111.736 155.33C111.736 153.877 110.568 152.693 109.133 152.693Z" fill="#003659"/>
<path d="M128.445 141.023C125.026 141.023 122.246 138.206 122.246 134.742C122.246 131.278 125.026 128.461 128.445 128.461C131.864 128.461 134.644 131.278 134.644 134.742C134.644 138.206 131.864 141.023 128.445 141.023ZM128.445 132.105C127.011 132.105 125.843 133.288 125.843 134.742C125.843 136.195 127.011 137.379 128.445 137.379C129.88 137.379 131.048 136.195 131.048 134.742C131.048 133.288 129.88 132.105 128.445 132.105Z" fill="#003659"/>
<path d="M147.759 151.146C144.34 151.146 141.56 148.329 141.56 144.865C141.56 141.4 144.34 138.583 147.759 138.583C151.178 138.583 153.958 141.4 153.958 144.865C153.958 148.329 151.178 151.146 147.759 151.146ZM147.759 142.228C146.325 142.228 145.157 143.411 145.157 144.865C145.157 146.318 146.325 147.501 147.759 147.501C149.194 147.501 150.362 146.318 150.362 144.865C150.362 143.411 149.194 142.228 147.759 142.228Z" fill="#003659"/>
<path d="M167.073 125.093C163.654 125.093 160.874 122.276 160.874 118.812C160.874 115.348 163.654 112.531 167.073 112.531C170.492 112.531 173.272 115.348 173.272 118.812C173.272 122.276 170.492 125.093 167.073 125.093ZM167.073 116.175C165.639 116.175 164.471 117.358 164.471 118.812C164.471 120.265 165.639 121.449 167.073 121.449C168.508 121.449 169.676 120.265 169.676 118.812C169.676 117.358 168.508 116.175 167.073 116.175Z" fill="#003659"/>
<path d="M112.163 153.922C111.719 153.922 111.272 153.754 110.925 153.42C110.206 152.728 110.176 151.572 110.862 150.843L124.114 136.716C124.798 135.987 125.936 135.957 126.657 136.652C127.377 137.344 127.406 138.5 126.721 139.229L113.468 153.356C113.115 153.733 112.641 153.922 112.165 153.922H112.163Z" fill="#003659"/>
<path d="M143.85 144.637C143.57 144.637 143.289 144.571 143.024 144.433L131.53 138.41C130.648 137.947 130.303 136.847 130.758 135.953C131.215 135.059 132.3 134.71 133.18 135.173L144.675 141.196C145.557 141.66 145.902 142.759 145.445 143.653C145.125 144.279 144.497 144.639 143.845 144.639L143.85 144.637Z" fill="#003659"/>
<path d="M150.402 143.122C150.025 143.122 149.646 143.002 149.323 142.757C148.529 142.153 148.369 141.01 148.965 140.206L162.994 121.282C163.591 120.478 164.719 120.315 165.512 120.919C166.305 121.524 166.466 122.666 165.87 123.47L151.84 142.395C151.487 142.871 150.948 143.124 150.402 143.124V143.122Z" fill="#003659"/>
<path d="M213.743 225.046C212.751 225.046 211.945 224.229 211.945 223.224V212.16C211.945 211.155 212.751 210.338 213.743 210.338C214.736 210.338 215.542 211.155 215.542 212.16V223.224C215.542 224.229 214.736 225.046 213.743 225.046Z" fill="#003659"/>
<path d="M224.91 225.046C223.918 225.046 223.112 224.229 223.112 223.224V192.532C223.112 191.527 223.918 190.71 224.91 190.71C225.902 190.71 226.708 191.527 226.708 192.532V223.224C226.708 224.229 225.902 225.046 224.91 225.046Z" fill="#003659"/>
<path d="M236.076 225.046C235.084 225.046 234.278 224.229 234.278 223.224V202.756C234.278 201.75 235.084 200.933 236.076 200.933C237.069 200.933 237.875 201.75 237.875 202.756V223.224C237.875 224.229 237.069 225.046 236.076 225.046Z" fill="#003659"/>
<path d="M247.245 225.046C246.253 225.046 245.447 224.229 245.447 223.224V193.593C245.447 192.588 246.253 191.771 247.245 191.771C248.237 191.771 249.043 192.588 249.043 193.593V223.224C249.043 224.229 248.237 225.046 247.245 225.046Z" fill="#003659"/>
<path d="M258.412 225.046C257.419 225.046 256.613 224.229 256.613 223.224V174.002C256.613 172.996 257.419 172.18 258.412 172.18C259.404 172.18 260.21 172.996 260.21 174.002V223.224C260.21 224.229 259.404 225.046 258.412 225.046Z" fill="#003659"/>
<path d="M244.463 152.693C243.471 152.693 242.665 151.877 242.665 150.871V53.3213C242.665 52.3159 243.471 51.4992 244.463 51.4992H253.023L234.796 25.7703L216.57 51.4992H225.128C226.12 51.4992 226.926 52.3159 226.926 53.3213V104.535C226.926 105.54 226.12 106.357 225.128 106.357C224.136 106.357 223.329 105.54 223.329 104.535V55.1435H213.064C212.389 55.1435 211.771 54.7619 211.465 54.1531C211.156 53.5443 211.211 52.8133 211.604 52.2581L233.337 21.5836C233.675 21.1077 234.219 20.8247 234.799 20.8247C235.378 20.8247 235.922 21.1077 236.26 21.5836L257.993 52.2581C258.386 52.8133 258.439 53.5443 258.132 54.1531C257.824 54.7619 257.206 55.1435 256.533 55.1435H246.268V150.873C246.268 151.879 245.462 152.696 244.469 152.696L244.463 152.693Z" fill="#003659"/>
<path d="M198.053 61.9777C197.061 61.9777 196.255 61.1609 196.255 60.1555V48.6931H187.991C187.316 48.6931 186.698 48.3115 186.392 47.7027C186.083 47.0938 186.138 46.3628 186.531 45.8076L203.694 21.5836C204.032 21.1077 204.576 20.8247 205.156 20.8247C205.735 20.8247 206.279 21.1077 206.618 21.5836L217.433 36.8512C218.013 37.6679 217.829 38.8062 217.02 39.3936C216.214 39.981 215.091 39.7945 214.511 38.9756L205.156 25.7703L191.499 45.0487H198.058C199.05 45.0487 199.856 45.8655 199.856 46.8709V60.1555C199.856 61.1609 199.05 61.9777 198.058 61.9777H198.053Z" fill="#003659"/>
<path d="M88.0145 225.046H18.0785C17.0863 225.046 16.2802 224.229 16.2802 223.224C16.2802 222.218 17.0863 221.402 18.0785 221.402H88.0145C89.0068 221.402 89.8129 222.218 89.8129 223.224C89.8129 224.229 89.0068 225.046 88.0145 225.046Z" fill="#003659"/>
<path d="M63.8788 206.957H36.2184C35.2261 206.957 34.42 206.141 34.42 205.135C34.42 204.13 35.2261 203.313 36.2184 203.313H63.8788C64.8711 203.313 65.6771 204.13 65.6771 205.135C65.6771 206.141 64.8711 206.957 63.8788 206.957Z" fill="#003659"/>
<path d="M28.1047 206.957H18.0785C17.0863 206.957 16.2802 206.141 16.2802 205.135C16.2802 204.13 17.0863 203.313 18.0785 203.313H28.1047C29.097 203.313 29.9031 204.13 29.9031 205.135C29.9031 206.141 29.097 206.957 28.1047 206.957Z" fill="#003659"/>
<path d="M58.2405 188.869H18.0785C17.0863 188.869 16.2802 188.052 16.2802 187.047V22.6447C16.2802 21.6393 17.0863 20.8225 18.0785 20.8225H138.101C139.093 20.8225 139.9 21.6393 139.9 22.6447V37.7815C139.9 38.7869 139.093 39.6036 138.101 39.6036C137.109 39.6036 136.303 38.7869 136.303 37.7815V24.4668H19.8768V185.222H58.2405C59.2328 185.222 60.0389 186.039 60.0389 187.044C60.0389 188.05 59.2328 188.867 58.2405 188.867V188.869Z" fill="#003659"/>
<path d="M100.764 42.5769H72.2273C71.2351 42.5769 70.429 41.7602 70.429 40.7548C70.429 39.7494 71.2351 38.9326 72.2273 38.9326H100.764C101.756 38.9326 102.562 39.7494 102.562 40.7548C102.562 41.7602 101.756 42.5769 100.764 42.5769Z" fill="#003659"/>
<path d="M64.5305 42.5769H55.4182C54.4259 42.5769 53.6199 41.7602 53.6199 40.7548C53.6199 39.7494 54.4259 38.9326 55.4182 38.9326H64.5305C65.5227 38.9326 66.3288 39.7494 66.3288 40.7548C66.3288 41.7602 65.5227 42.5769 64.5305 42.5769Z" fill="#003659"/>
<path d="M34.0964 72.9514C33.6203 72.9514 33.1612 72.7585 32.8248 72.4176L28.8516 68.3917C28.1492 67.68 28.1492 66.5267 28.8516 65.815C29.554 65.1033 30.6922 65.1033 31.3946 65.815L34.0964 68.5525L39.9547 62.6165C40.6571 61.9048 41.7953 61.9048 42.4977 62.6165C43.2001 63.3283 43.2001 64.4816 42.4977 65.1933L35.3679 72.4176C35.0315 72.7585 34.5724 72.9514 34.0964 72.9514Z" fill="#003659"/>
<path d="M34.0964 106.972C33.6351 106.972 33.176 106.794 32.8248 106.438L28.8516 102.413C28.1492 101.701 28.1492 100.547 28.8516 99.8358C29.554 99.1241 30.6922 99.1241 31.3946 99.8358L34.0964 102.573L39.9547 96.6395C40.6571 95.9278 41.7953 95.9278 42.4977 96.6395C43.2001 97.3512 43.2001 98.5045 42.4977 99.2162L35.3679 106.441C35.0167 106.796 34.5576 106.974 34.0964 106.974V106.972Z" fill="#003659"/>
<path d="M34.0964 140.991C33.6351 140.991 33.176 140.813 32.8248 140.457L28.8516 136.431C28.1492 135.719 28.1492 134.566 28.8516 133.854C29.554 133.143 30.6922 133.143 31.3946 133.854L34.0964 136.592L39.9547 130.656C40.6571 129.944 41.7953 129.944 42.4977 130.656C43.2001 131.368 43.2001 132.521 42.4977 133.233L35.3679 140.457C35.0167 140.813 34.5576 140.991 34.0964 140.991Z" fill="#003659"/>
<path d="M34.0964 175.012C33.6351 175.012 33.176 174.834 32.8248 174.478L28.8516 170.452C28.1492 169.74 28.1492 168.587 28.8516 167.875C29.554 167.164 30.6922 167.164 31.3946 167.875L34.0964 170.613L39.9547 164.677C40.6571 163.965 41.7953 163.965 42.4977 164.677C43.2001 165.389 43.2001 166.542 42.4977 167.254L35.3679 174.478C35.0167 174.834 34.5576 175.012 34.0964 175.012Z" fill="#003659"/>
<path d="M61.4987 69.3391H51.282C50.2898 69.3391 49.4837 68.5224 49.4837 67.517C49.4837 66.5116 50.2898 65.6948 51.282 65.6948H61.4987C62.4909 65.6948 63.297 66.5116 63.297 67.517C63.297 68.5224 62.4909 69.3391 61.4987 69.3391Z" fill="#003659"/>
<path d="M65.3069 103.36H51.282C50.2898 103.36 49.4837 102.543 49.4837 101.538C49.4837 100.532 50.2898 99.7156 51.282 99.7156H65.3069C66.2992 99.7156 67.1052 100.532 67.1052 101.538C67.1052 102.543 66.2992 103.36 65.3069 103.36Z" fill="#003659"/>
<path d="M61.4987 171.399H51.282C50.2898 171.399 49.4837 170.583 49.4837 169.577C49.4837 168.572 50.2898 167.755 51.282 167.755H61.4987C62.4909 167.755 63.297 168.572 63.297 169.577C63.297 170.583 62.4909 171.399 61.4987 171.399Z" fill="#003659"/>
</svg>
