<svg width="43" height="34" viewBox="0 0 43 34" fill="none" xmlns="http://www.w3.org/2000/svg">
<path d="M18.2045 13.1544C17.6405 15.7686 17.0789 18.3835 16.5164 20.9984C16.3562 21.7427 16.1936 22.4862 16.0396 23.2312C15.9642 23.5949 16.1354 23.867 16.4622 23.9355C16.7552 23.9962 17.0152 23.8025 17.1071 23.4534C17.126 23.3819 17.1441 23.3096 17.159 23.2373C17.7599 20.4471 18.3601 17.6569 18.9602 14.8659C19.082 14.2977 19.2014 13.7296 19.3106 13.2129C19.3043 12.8969 19.1809 12.7139 18.9264 12.6293C18.5879 12.5163 18.2964 12.727 18.2045 13.1552V13.1544Z" fill="white"/>
<path d="M14.584 15.7525C14.8802 15.5033 14.9304 15.1866 14.7317 14.9444C14.529 14.6983 14.1936 14.6768 13.899 14.9198C12.7514 15.8686 11.6069 16.8204 10.4694 17.7807C10.1238 18.0729 10.1301 18.4058 10.4804 18.7003C11.6194 19.6583 12.7639 20.6109 13.9116 21.5597C14.1936 21.7927 14.5086 21.7711 14.7207 21.5351C14.9226 21.3106 14.888 20.9869 14.6209 20.747C14.4065 20.554 14.1779 20.3749 13.9556 20.1903C13.1842 19.5468 12.412 18.9033 11.6116 18.2359C11.7647 18.1067 11.8786 18.0098 11.9941 17.9137C12.8574 17.1933 13.7239 16.4752 14.584 15.7517V15.7525Z" fill="white"/>
<path d="M21.024 20.7332C20.7475 20.9662 20.7059 21.2899 20.8952 21.5197C21.0931 21.7604 21.4286 21.7973 21.7011 21.5728C22.8661 20.6117 24.0279 19.6468 25.181 18.6719C25.4976 18.4043 25.4835 18.0791 25.1763 17.7938C25.0122 17.6416 24.833 17.5032 24.6602 17.3586C23.7231 16.5759 22.786 15.7932 21.8472 15.0121C21.4647 14.6938 21.1426 14.6676 20.9117 14.9283C20.6784 15.1912 20.7546 15.5072 21.1269 15.8209C21.2495 15.9247 21.3736 16.027 21.4969 16.13C22.3272 16.8227 23.1575 17.5147 24.0137 18.229C23.9061 18.3228 23.8354 18.3866 23.7624 18.4474C22.8488 19.2085 21.9329 19.9659 21.024 20.7317V20.7332Z" fill="white"/>
<path d="M5.24109 3.4745C4.28981 3.47757 3.51449 4.24106 3.51685 5.17369C3.51842 6.10632 4.30003 6.87365 5.24581 6.87211C6.18609 6.87058 6.9779 6.09171 6.97712 5.16984C6.97633 4.24721 6.18216 3.47142 5.24109 3.4745ZM5.22931 5.79339C4.89389 5.78417 4.6166 5.50507 4.61502 5.17523C4.61424 4.83231 4.91117 4.54322 5.25602 4.55168C5.58594 4.56013 5.87266 4.84615 5.87423 5.16984C5.8758 5.5043 5.56709 5.80262 5.22931 5.79339Z" fill="white"/>
<path d="M15.903 3.51209C14.9501 3.5144 14.1771 4.27557 14.1787 5.20975C14.1811 6.14469 14.954 6.89587 15.9124 6.89356C16.8707 6.89125 17.6366 6.13853 17.6343 5.20052C17.6319 4.26635 16.8566 3.50978 15.9022 3.51209H15.903ZM15.9124 5.81638C15.5565 5.81869 15.2737 5.53882 15.28 5.19283C15.2863 4.86145 15.566 4.59158 15.9037 4.59004C16.2572 4.5885 16.5392 4.86914 16.533 5.21666C16.5275 5.55112 16.2549 5.81407 15.9116 5.81638H15.9124Z" fill="white"/>
<path d="M10.5819 3.49903C9.62199 3.49596 8.85374 4.24253 8.8506 5.18285C8.84745 6.12086 9.61413 6.87973 10.5693 6.88281C11.5214 6.88665 12.3014 6.12778 12.3046 5.19515C12.3077 4.26021 11.5379 3.50211 10.5819 3.49903ZM10.5733 5.80486C10.2331 5.80409 9.95741 5.5373 9.95113 5.20284C9.94406 4.85301 10.2229 4.57468 10.578 4.57621C10.9189 4.57698 11.1954 4.84301 11.2025 5.17593C11.2095 5.52115 10.9252 5.8064 10.5733 5.80486Z" fill="white"/>
<path d="M34.1085 3.03081C33.4793 1.69145 32.3921 0.980245 30.8949 0.863377C30.7763 0.854151 30.6569 0.855688 30.5383 0.855688C22.0506 0.855688 13.5622 0.85492 5.07449 0.855688C3.46651 0.855688 2.25207 1.52921 1.56316 2.96238C1.34478 3.41601 1.22146 3.95806 1.21988 4.46013C1.19868 11.6252 1.19868 18.7902 1.20967 25.9545C1.21282 27.982 2.85065 29.5398 4.95273 29.5467C7.92597 29.5559 10.9 29.549 13.8732 29.549C18.0004 29.549 22.1284 29.549 26.2556 29.549C26.0427 29.1907 25.8298 28.8316 25.6185 28.4726C18.7804 28.4726 11.9424 28.4726 5.10434 28.4726C3.38952 28.4726 2.30628 27.4146 2.30549 25.7408C2.30392 20.4287 2.30549 15.1166 2.30549 9.80528V9.47467H33.3261V9.83219C33.3261 11.8551 33.3261 13.8772 33.3261 15.9001H34.4259V4.02418C34.3222 3.69203 34.2562 3.34374 34.1093 3.03158L34.1085 3.03081ZM33.3096 8.36135H2.31963C2.31963 6.97201 2.26621 5.60497 2.33455 4.24408C2.40211 2.91163 3.51049 1.97746 4.91974 1.9321C4.98494 1.92979 5.04935 1.93133 5.11455 1.93133C13.581 1.93133 22.0483 1.9321 30.5147 1.92979C31.649 1.92979 32.5335 2.35113 33.052 3.36603C33.1887 3.6336 33.2931 3.94807 33.2986 4.24331C33.3246 5.60728 33.3096 6.97201 33.3096 8.36135Z" fill="white"/>
<path d="M41.2892 25.8054C41.0559 25.6101 40.8139 25.4256 40.5806 25.2303C40.059 24.7943 40.0582 24.0985 40.5775 23.6633C40.8061 23.4719 41.0441 23.2904 41.2735 23.099C41.8241 22.6408 41.9443 21.9741 41.5837 21.3567C41.1218 20.5656 40.656 19.776 40.1871 18.9886C39.8186 18.3705 39.158 18.1414 38.473 18.3882C38.191 18.4896 37.9122 18.6011 37.6278 18.6972C36.9954 18.911 36.3725 18.5481 36.2586 17.9045C36.2099 17.6308 36.1644 17.3563 36.1196 17.0826C36.0182 16.4714 35.6396 16.0716 35.0245 15.9278C35.0033 15.9224 34.9837 15.9101 34.9633 15.9009H31.6884C31.668 15.9101 31.6483 15.9224 31.6271 15.9278C31.0113 16.0731 30.6334 16.4714 30.5321 17.0826C30.4873 17.3517 30.4418 17.6201 30.3946 17.8884C30.276 18.5619 29.6499 18.9187 28.9909 18.6857C28.7081 18.5858 28.4292 18.475 28.1456 18.3766C27.4937 18.1498 26.8299 18.3782 26.4803 18.961C25.9972 19.766 25.5204 20.5748 25.0491 21.3867C24.7066 21.9772 24.8346 22.6454 25.3641 23.0882C25.5974 23.2835 25.8393 23.4688 26.0726 23.6633C26.5919 24.0962 26.5911 24.7959 26.0703 25.2303C25.8409 25.4217 25.6037 25.6032 25.3743 25.7939C24.8299 26.2467 24.7058 26.9149 25.0593 27.5223C25.2447 27.8398 25.4309 28.1566 25.6178 28.4734C25.8291 28.8324 26.042 29.1915 26.2549 29.5498C26.3248 29.6674 26.3947 29.7858 26.4654 29.9042C26.833 30.5209 27.4929 30.7477 28.181 30.5009C28.463 30.3994 28.7419 30.2887 29.0262 30.1926C29.6578 29.9796 30.2792 30.344 30.3923 30.9899C30.4402 31.2636 30.4858 31.5381 30.5313 31.8118C30.646 32.4968 31.1754 32.9805 31.8494 32.9866C32.8329 32.9958 33.8164 32.9951 34.7999 32.9866C35.426 32.9812 35.9601 32.5422 36.0874 31.9417C36.1534 31.6319 36.1997 31.3182 36.2547 31.006C36.3733 30.3302 36.9962 29.9719 37.6553 30.2041C37.9436 30.3056 38.2279 30.4194 38.517 30.5178C39.1627 30.7384 39.821 30.5101 40.1682 29.9334C40.6521 29.1284 41.1281 28.3196 41.5994 27.5077C41.9427 26.9156 41.8163 26.2475 41.2892 25.8046V25.8054ZM39.4927 28.4134C39.3481 28.6587 39.1989 28.9016 39.0598 29.1507C39.0088 29.243 38.9624 29.2599 38.8603 29.2222C38.5107 29.0923 38.1635 28.9424 37.8014 28.8593C36.4134 28.5418 35.1125 29.4444 34.8957 30.8522C34.8549 31.116 34.807 31.3781 34.7606 31.6472H31.8926C31.8369 31.3335 31.7842 31.0175 31.7253 30.7031C31.6373 30.2348 31.4142 29.8304 31.1055 29.5152C30.4795 28.8763 29.5007 28.6071 28.5698 28.9347C28.3028 29.0285 28.0372 29.1254 27.7725 29.2269C27.6955 29.2561 27.6523 29.253 27.6076 29.1769C27.4701 28.9424 27.3318 28.7079 27.1944 28.4734C26.8794 27.9375 26.5636 27.4016 26.2486 26.8657C26.2431 26.8572 26.2447 26.8449 26.2407 26.8257C26.4654 26.645 26.6932 26.4612 26.9202 26.2775C28.126 25.3041 28.1284 23.5903 26.9249 22.6185C26.6971 22.4347 26.4693 22.2509 26.2274 22.0564C26.6948 21.2645 27.1535 20.4849 27.6186 19.7091C27.6374 19.6775 27.723 19.6552 27.7639 19.6691C28.0058 19.7483 28.2438 19.8398 28.4826 19.9267C29.9987 20.4787 31.5172 19.5976 31.756 18.0306C31.796 17.7685 31.8455 17.507 31.8911 17.2433H34.7583C34.8148 17.5647 34.8674 17.8822 34.9271 18.1982C35.184 19.5691 36.6341 20.4149 37.9939 19.9836C38.2908 19.8898 38.5807 19.776 38.8729 19.6683C38.9428 19.6422 38.9923 19.626 39.0402 19.7091C39.4974 20.4895 39.9585 21.2683 40.4235 22.0572C40.1957 22.2409 39.9734 22.4216 39.7503 22.6008C38.5162 23.5911 38.5147 25.3003 39.7464 26.2906C39.9703 26.4705 40.1926 26.6512 40.4227 26.8365C40.1101 27.367 39.8014 27.8913 39.4927 28.4149V28.4134Z" fill="#F8D960"/>
<path d="M34.4252 21.339C34.1165 21.2345 33.7873 21.1706 33.4433 21.1568C33.404 21.1553 33.3647 21.1553 33.3254 21.1545C31.5376 21.1422 30.0458 22.5292 29.9594 24.3253C29.8825 25.9245 31.0403 27.32 32.6397 27.6614C32.8266 27.7014 33.0199 27.7275 33.2178 27.7375C33.466 27.7444 33.708 27.7245 33.9421 27.6814C35.4566 27.4038 36.6215 26.1375 36.6938 24.5552C36.7606 23.1005 35.8054 21.8057 34.4268 21.3383L34.4252 21.339ZM34.4252 26.0775C34.1094 26.2836 33.7323 26.4043 33.3286 26.4059C33.3058 26.4059 33.2838 26.4051 33.261 26.4043C32.1951 26.3713 31.3184 25.4901 31.3223 24.4399C31.3263 23.3704 32.2296 22.4877 33.3223 22.4846C33.3223 22.4846 33.3239 22.4846 33.3247 22.4846C33.7284 22.4846 34.1078 22.6053 34.4244 22.8122C34.968 23.1666 35.3309 23.7725 35.3285 24.4499C35.3254 25.1249 34.9648 25.7254 34.4244 26.0768L34.4252 26.0775Z" fill="#F8D960"/>
</svg>
