<?xml version="1.0" encoding="utf-8"?>
<!-- Generator: Adobe Illustrator 17.0.0, SVG Export Plug-In . SVG Version: 6.00 Build 0)  -->
<!DOCTYPE svg PUBLIC "-//W3C//DTD SVG 1.1//EN" "http://www.w3.org/Graphics/SVG/1.1/DTD/svg11.dtd">
<svg version="1.1" id="Layer_1" xmlns="http://www.w3.org/2000/svg" xmlns:xlink="http://www.w3.org/1999/xlink" x="0px" y="0px"
	 width="140px" height="140px" viewBox="0 0 140 140" enable-background="new 0 0 140 140" xml:space="preserve">
<g>
	<g>
		<path fill="#FFFFFF" d="M26.555,44.827c0.25-0.764,0.499-1.527,0.727-2.224c9.108,9.027,18.17,18.009,27.243,27
			c-9.105,9.018-18.172,17.998-27.268,27.008c-0.181-0.539-0.441-1.313-0.701-2.088C26.555,77.957,26.555,61.392,26.555,44.827z"/>
		<path fill="#FFFFFF" d="M116.783,94.523c-0.25,0.763-0.499,1.527-0.727,2.224c-9.108-9.027-18.17-18.009-27.243-27
			c9.105-9.018,18.172-17.998,27.268-27.008c0.181,0.539,0.441,1.313,0.701,2.088C116.783,61.392,116.783,77.957,116.783,94.523z"/>
		<path fill="#FFFFFF" d="M31.102,38.59c1.103-0.235,2.005-0.446,2.915-0.611c0.342-0.062,0.703-0.025,1.055-0.025
			c24.401-0.001,48.803,0.001,73.204-0.004c1.302,0,2.567,0.128,3.988,1.021c-0.283,0.159-0.621,0.264-0.843,0.486
			c-12.406,12.427-24.801,24.864-37.199,37.3c-1.721,1.726-3.389,1.725-5.112-0.004C56.713,64.317,44.317,51.881,31.92,39.444
			C31.715,39.239,31.518,39.025,31.102,38.59z"/>
		<path fill="#FFFFFF" d="M84.712,73.567c9.184,9.097,18.248,18.074,27.469,27.206c-1.042,0.221-1.943,0.432-2.853,0.597
			c-0.342,0.062-0.703,0.025-1.055,0.025c-24.406,0.001-48.813-0.001-73.219,0.005c-1.302,0-2.565-0.134-3.805-0.76
			c9.097-9.008,18.147-17.97,27.259-26.993c0.055,0.051,0.291,0.256,0.51,0.476c2.178,2.183,4.348,4.374,6.531,6.553
			c3.527,3.519,8.645,3.546,12.191,0.047c2.195-2.166,4.359-4.363,6.528-6.556C84.492,73.938,84.654,73.647,84.712,73.567z"/>
	</g>
</g>
</svg>
