<svg width="104" height="154" viewBox="0 0 104 154" fill="none" xmlns="http://www.w3.org/2000/svg">
<path d="M31.1438 146.281C29.6066 146.281 28.1203 145.042 28.1203 143.515V67.7607H12.5394C7.37174 67.7607 4.64434 62.7488 7.32389 58.9282L42.0264 9.37705C44.7269 5.55056 49.7391 5.53868 52.4994 9.44538L87.202 58.8005C89.9473 62.7221 87.0046 67.7577 81.9894 67.7577H63.7888V79.0054C63.7888 80.5324 62.6045 81.7713 61.0674 81.7713C59.5302 81.7713 58.346 80.5324 58.346 79.0054V65.1819C58.346 63.6549 59.0996 62.3537 60.6367 62.3537H81.9864C82.444 62.3537 82.6593 62.1873 82.6862 62.116L47.9418 12.8856C47.7205 12.5737 46.8981 12.4014 46.5871 12.847L11.8905 62.1041C11.8606 62.1754 12.055 62.3566 12.5424 62.3566H30.9554C32.4925 62.3566 34.1702 63.6579 34.1702 65.1849V143.515C34.1702 145.042 32.6839 146.281 31.1468 146.281H31.1438Z" fill="#0D3C58"/>
<path d="M64.0729 115.17C57.4249 115.17 52.012 109.796 52.012 103.191C52.012 96.587 57.4219 91.2097 64.0729 91.2097C70.7239 91.2097 76.1309 96.584 76.1309 103.191C76.1309 109.798 70.721 115.17 64.0729 115.17ZM64.0729 96.7415C60.4932 96.7415 57.5804 99.6351 57.5804 103.191C57.5804 106.747 60.4932 109.641 64.0729 109.641C67.6526 109.641 70.5654 106.747 70.5654 103.191C70.5654 99.6351 67.6526 96.7415 64.0729 96.7415Z" fill="#8CC4F2"/>
<path d="M85.6618 147.353C79.0138 147.353 73.6038 141.979 73.6038 135.375C73.6038 128.771 79.0138 123.396 85.6618 123.396C92.3098 123.396 97.7228 128.771 97.7228 135.375C97.7228 141.979 92.3128 147.353 85.6618 147.353ZM85.6618 128.922C82.0821 128.922 79.1693 131.816 79.1693 135.372C79.1693 138.928 82.0821 141.822 85.6618 141.822C89.2415 141.822 92.1543 138.928 92.1543 135.372C92.1543 131.816 89.2415 128.922 85.6618 128.922Z" fill="#8CC4F2"/>
<path d="M53.0736 146.759C51.8684 145.814 51.6591 144.076 52.613 142.876L92.7554 92.2643C93.7064 91.0641 95.4559 90.8591 96.6641 91.8039C97.8693 92.7486 98.0787 94.4866 97.1277 95.6868L56.9853 146.299C56.0373 147.493 54.2908 147.707 53.0766 146.756L53.0736 146.759Z" fill="#8CC4F2"/>
</svg>
