<svg width="212" height="214" viewBox="0 0 212 214" fill="none" xmlns="http://www.w3.org/2000/svg">
<path d="M96.8758 162.953C98.6543 162.953 100.096 161.515 100.096 159.742C100.096 157.968 98.6543 156.531 96.8758 156.531C95.0973 156.531 93.6555 157.968 93.6555 159.742C93.6555 161.515 95.0973 162.953 96.8758 162.953Z" fill="#003659"/>
<path d="M9.92886 172.586H81.2447L78.7675 180.614H66.9403C64.3359 180.614 61.9964 182.126 60.9812 184.465L53.9184 200.741C53.0843 202.662 53.2759 204.857 54.432 206.612C55.6283 208.428 57.6643 209.513 59.8783 209.513H133.875C136.089 209.513 138.123 208.427 139.32 206.612C140.476 204.858 140.67 202.663 139.836 200.743L132.772 184.463C131.758 182.126 129.418 180.614 126.813 180.614H114.985L112.508 172.586H183.824C187.376 172.586 190.265 169.706 190.265 166.164V88.3306C188.202 89.4207 186.051 90.3656 183.826 91.1531L183.828 146.898H9.92886V52.1716H119.86C119.577 50.0692 119.418 47.9282 119.418 45.7495H9.92886C6.37772 45.7495 3.48834 48.6298 3.48834 52.1716V166.164C3.48834 169.706 6.37772 172.586 9.92886 172.586ZM111.51 191.19C111.935 192.572 113.21 193.459 114.586 193.459C114.9 193.459 115.219 193.412 115.534 193.315C117.233 192.794 118.188 190.997 117.664 189.302L116.959 187.017L126.86 187.013L133.836 203.09L59.9217 203.079L66.9403 187.035L76.787 187.031L76.0866 189.302C75.5641 190.996 76.5173 192.794 78.2168 193.314C79.9187 193.839 81.7197 192.886 82.2421 191.19L87.9831 172.585H105.769L111.51 191.19V191.19ZM183.828 153.32V166.164H108.148H9.92886V153.32H183.827H183.828Z" fill="#003659"/>
<path d="M132.299 122.815C134.077 122.815 135.519 121.377 135.519 119.604V103.548H138.739C140.518 103.548 141.959 102.111 141.959 100.337V87.4931C141.959 85.7198 140.518 84.2821 138.739 84.2821H135.519V81.6113C133.261 79.5939 131.198 77.367 129.354 74.9644C129.179 75.3601 129.078 75.7944 129.078 76.2544V84.2821H125.858C124.08 84.2821 122.638 85.7198 122.638 87.4931V100.337C122.638 102.111 124.08 103.548 125.858 103.548H129.078V119.604C129.078 121.377 130.52 122.815 132.299 122.815ZM129.078 90.7042H135.519V97.1263H129.078V90.7042Z" fill="#003659"/>
<path d="M167.721 142.081C169.5 142.081 170.942 140.644 170.942 138.87V127.632H174.162C175.94 127.632 177.382 126.194 177.382 124.42V95.521C177.382 94.5713 176.96 93.7268 176.303 93.1392C173.516 93.6401 170.651 93.9154 167.721 93.9154C164.792 93.9154 161.927 93.6393 159.139 93.1392C158.482 93.7268 158.061 94.5713 158.061 95.521V124.42C158.061 126.194 159.503 127.632 161.281 127.632H164.501V138.87C164.501 140.644 165.943 142.081 167.721 142.081ZM164.501 98.732H170.942V121.209H164.501V98.732Z" fill="#003659"/>
<path d="M26.0302 142.081C27.8085 142.081 29.2504 140.643 29.2504 138.87V132.448H32.4707C34.2491 132.448 35.6909 131.01 35.6909 129.237V87.4931C35.6909 85.7198 34.2491 84.282 32.4707 84.282H29.2504V66.6212C29.2504 64.8479 27.8085 63.4102 26.0302 63.4102C24.2518 63.4102 22.8099 64.8479 22.8099 66.6212V84.282H19.5896C17.8113 84.282 16.3694 85.7198 16.3694 87.4931V129.237C16.3694 131.01 17.8113 132.448 19.5896 132.448H22.8099V138.87C22.8099 140.643 24.2518 142.081 26.0302 142.081ZM22.8099 90.7042H29.2504V126.026H22.8099V90.7042Z" fill="#003659"/>
<path d="M71.1137 98.7321V69.8325C71.1137 68.0592 69.6719 66.6215 67.8935 66.6215H64.6732V60.1993C64.6732 58.426 63.2314 56.9883 61.453 56.9883C59.6746 56.9883 58.2327 58.426 58.2327 60.1993V66.6215H55.0125C53.2341 66.6215 51.7922 68.0592 51.7922 69.8325V98.7321C51.7922 100.505 53.2341 101.943 55.0125 101.943H58.3462C58.2794 102.201 58.2327 102.467 58.2327 102.746V112.379C58.2327 114.152 59.6746 115.59 61.453 115.59C63.2314 115.59 64.6732 114.152 64.6732 112.379V102.746C64.6732 102.467 64.6265 102.201 64.5597 101.943H67.8935C69.6719 101.943 71.1137 100.505 71.1137 98.7321ZM64.6732 95.521H58.2327V73.0436H64.6732V95.521Z" fill="#003659"/>
<path d="M96.8758 142.081C98.6542 142.081 100.096 140.643 100.096 138.87V124.42H103.316C105.095 124.42 106.537 122.982 106.537 121.209V79.4653C106.537 77.692 105.095 76.2543 103.316 76.2543H100.096V69.8322C100.096 68.0588 98.6542 66.6211 96.8758 66.6211C95.0974 66.6211 93.6555 68.0588 93.6555 69.8322V76.2543H90.4353C88.6569 76.2543 87.215 77.692 87.215 79.4653V121.209C87.215 122.982 88.6569 124.42 90.4353 124.42H93.6555V138.87C93.6555 140.643 95.0974 142.081 96.8758 142.081ZM93.6555 82.6764H100.096V117.998H93.6555V82.6764Z" fill="#003659"/>
<path d="M125.858 45.7496C125.858 68.7681 144.637 87.4934 167.721 87.4934C190.806 87.4934 209.585 68.7681 209.585 45.7496C209.585 22.7312 190.806 4.00586 167.721 4.00586C144.637 4.00586 125.858 22.7312 125.858 45.7496ZM203.144 45.7496C203.144 65.2263 187.254 81.0713 167.721 81.0713C148.189 81.0713 132.299 65.2263 132.299 45.7496C132.299 26.273 148.189 10.428 167.721 10.428C187.254 10.428 203.144 26.273 203.144 45.7496Z" fill="#003659"/>
<path d="M164.501 23.2721V45.7495C164.501 47.5228 165.943 48.9606 167.721 48.9606H180.602C182.381 48.9606 183.823 47.5228 183.823 45.7495C183.823 43.9762 182.381 42.5385 180.602 42.5385H170.942V23.2721C170.942 21.4988 169.5 20.061 167.721 20.061C165.943 20.061 164.501 21.4988 164.501 23.2721Z" fill="#003659"/>
</svg>
