<svg width="300" height="300" viewBox="0 0 300 300" fill="none" xmlns="http://www.w3.org/2000/svg">
<path d="M261.634 67.0822C261.39 67.0822 261.143 67.1002 260.899 67.1354C259.561 67.3297 258.377 68.0332 257.568 69.1169C256.759 70.2007 256.42 71.5342 256.614 72.8729C257.023 75.6967 257.231 78.5864 257.231 81.4612C257.231 114.164 230.624 140.77 197.921 140.77C165.218 140.77 138.612 114.164 138.612 81.4612C138.612 48.7582 165.218 22.1519 197.921 22.1519C205.93 22.1519 213.697 23.7194 221.006 26.8102C224.884 28.4504 228.6 30.5159 232.052 32.9497C232.911 33.5549 233.918 33.8752 234.964 33.8752C236.612 33.8752 238.16 33.0727 239.108 31.7287C240.717 29.4464 240.169 26.2814 237.887 24.6727C233.845 21.8234 229.492 19.4039 224.951 17.4832C216.387 13.8614 207.293 12.0247 197.921 12.0247C188.55 12.0247 179.456 13.8614 170.892 17.4832C162.623 20.9804 155.198 25.9867 148.823 32.3617C142.448 38.7367 137.441 46.1624 133.944 54.4312C130.322 62.9947 128.486 72.0892 128.486 81.4604C128.486 90.8317 130.322 99.9262 133.944 108.49C137.441 116.759 142.448 124.184 148.823 130.559C155.198 136.935 162.623 141.94 170.892 145.438C179.456 149.06 188.55 150.897 197.921 150.897C207.293 150.897 216.387 149.06 224.951 145.438C233.22 141.94 240.645 136.934 247.02 130.559C253.395 124.184 258.401 116.758 261.899 108.49C265.521 99.9262 267.358 90.8317 267.358 81.4604C267.358 78.0997 267.115 74.7209 266.636 71.4194C266.278 68.9467 264.127 67.0814 261.634 67.0814V67.0822Z" fill="#0D3C58"/>
<path d="M276.077 15.786C275.148 14.9565 273.951 14.499 272.707 14.499C271.265 14.499 269.888 15.1155 268.928 16.1895L194.946 99.0285L172.881 72.5955C171.917 71.4398 170.498 70.7768 168.99 70.7768C167.809 70.7768 166.658 71.1945 165.749 71.9535C163.606 73.743 163.318 76.9425 165.107 79.086L190.929 110.021C191.873 111.152 193.259 111.814 194.732 111.839H194.816C196.257 111.839 197.633 111.223 198.593 110.149L276.481 22.9358C278.341 20.853 278.159 17.646 276.077 15.786Z" fill="#0D3C58"/>
<path d="M285.454 158.785C277.805 149.534 264.055 148.232 254.804 155.882L230.501 176.068C228.204 177.966 227.883 181.367 229.78 183.661C231.679 185.957 235.078 186.279 237.373 184.38L261.68 164.194C266.345 160.336 273.283 160.992 277.142 165.659C281.003 170.325 280.344 177.263 275.677 181.121L202.38 241.822C201.568 242.494 200.672 243.043 199.719 243.452C198.279 244.072 196.692 244.372 195.109 244.332L117.049 230.469C116.851 230.431 116.647 230.4 116.44 230.383C110.776 229.936 105.242 231.685 100.859 235.31L96.6577 238.788L62.9512 198.028L95.5972 170.886C100.347 166.959 106.318 165.08 112.447 165.565L196.819 183.318C196.822 183.319 196.825 183.319 196.828 183.319C196.834 183.319 196.835 183.322 196.838 183.322C202.684 184.531 206.546 190.208 205.445 195.98C204.91 198.784 203.291 201.214 200.887 202.819C198.457 204.442 195.519 205.031 192.614 204.477C192.586 204.472 192.559 204.47 192.532 204.464C192.499 204.46 192.471 204.451 192.439 204.446L151.467 197.996C148.525 197.533 145.764 199.543 145.301 202.485C145.051 204.075 145.522 205.612 146.473 206.761C147.283 207.74 148.438 208.438 149.79 208.65L190.762 215.101C190.768 215.101 190.774 215.101 190.78 215.102C196.421 216.131 202.13 214.959 206.878 211.789C211.705 208.565 214.958 203.668 216.04 198C218.238 186.487 210.621 175.177 199.058 172.767C199.052 172.766 199.046 172.764 199.039 172.762L114.789 155.035C114.483 154.949 114.166 154.884 113.837 154.853C104.709 153.988 95.7892 156.729 88.7122 162.583L56.0767 189.716L52.4925 185.383C50.5942 183.088 47.1945 182.765 44.8995 184.663L11.5177 212.269C9.22199 214.168 8.90099 217.567 10.7992 219.862L44.604 260.74C46.5022 263.035 49.902 263.357 52.197 261.459C54.492 259.56 54.8145 256.161 52.9162 253.865L22.5487 217.144L47.6175 196.412L95.4525 254.256L70.3837 274.987L68.889 273.18C66.9907 270.883 63.5917 270.562 61.296 272.461C59.001 274.359 58.6785 277.759 60.5767 280.053L65.508 286.016C67.4062 288.312 70.806 288.634 73.101 286.735L106.483 259.131C108.778 257.233 109.1 253.832 107.202 251.537L103.531 247.099L107.735 243.62C109.892 241.837 112.602 240.961 115.387 241.129L193.607 255.02C193.617 255.022 193.627 255.022 193.635 255.025C193.737 255.042 193.839 255.052 193.942 255.062C194.032 255.074 194.122 255.086 194.211 255.091C194.233 255.092 194.253 255.097 194.275 255.097C197.591 255.267 200.947 254.665 203.983 253.359C205.877 252.544 207.651 251.458 209.254 250.134L282.551 189.433C291.8 181.783 293.103 168.034 285.453 158.784L285.454 158.785Z" fill="#0D3C58"/>
</svg>
