<svg width="516" height="516" viewBox="0 0 516 516" fill="none" xmlns="http://www.w3.org/2000/svg">
<path d="M408.942 187.814C450.934 181.137 481.537 205.358 485.74 281.286C488.869 337.796 459.403 393.57 412.313 419.64C349.747 454.28 256.475 443.51 225.754 387.227C207.422 353.642 209.938 301.237 235.438 280.184C261.003 259.079 289.525 295.086 336.114 275.042C387.918 252.755 375.074 193.199 408.94 187.816L408.942 187.814Z" fill="white"/>
<path d="M332.57 440.068C317.315 440.068 302.172 438.045 287.938 433.911C258.883 425.469 237.205 409.423 225.242 387.506C216.243 371.021 211.993 349.681 213.577 328.96C215.211 307.602 223.044 289.66 235.067 279.734C247.637 269.358 260.958 272.553 276.384 276.254C293.065 280.256 311.976 284.793 335.885 274.506C363.512 262.619 372.467 240.392 380.37 220.78C387.074 204.146 392.862 189.781 408.849 187.238C427.89 184.21 443.739 187.675 455.962 197.537C473.828 211.954 484.043 240.12 486.32 281.255C489.471 338.174 459.843 393.991 412.594 420.15C388.95 433.24 360.583 440.065 332.568 440.065L332.57 440.068ZM254.918 273.897C248.217 273.897 241.897 275.608 235.81 280.632C224.031 290.357 216.351 308.005 214.741 329.049C213.172 349.551 217.374 370.653 226.266 386.946C238.076 408.583 259.515 424.437 288.262 432.79C328.349 444.437 375.774 439.203 412.03 419.13C458.895 393.184 488.283 337.8 485.158 281.319C482.9 240.528 472.831 212.646 455.232 198.445C443.277 188.8 427.731 185.417 409.035 188.39C393.7 190.827 388.024 204.91 381.454 221.215C373.466 241.036 364.414 263.503 336.347 275.577C312.079 286.019 292.97 281.433 276.114 277.389C268.584 275.583 261.564 273.899 254.918 273.899V273.897Z" fill="black"/>
<path d="M408.078 349.163C407.846 349.163 407.628 349.024 407.537 348.795C401.469 333.58 381.052 330.605 380.845 330.576C380.527 330.533 380.302 330.238 380.348 329.92C380.391 329.602 380.684 329.377 381.004 329.423C381.217 329.452 402.298 332.512 408.62 348.364C408.74 348.663 408.594 349.002 408.294 349.121C408.224 349.15 408.15 349.163 408.078 349.163Z" fill="black"/>
<path d="M379.386 358.903C379.365 358.903 379.347 358.903 379.326 358.901C379.006 358.868 378.773 358.581 378.806 358.261C380.319 343.481 371.974 333.771 371.891 333.674C371.679 333.433 371.704 333.064 371.945 332.851C372.187 332.638 372.556 332.663 372.769 332.905C372.855 333.006 381.532 343.099 379.968 358.378C379.937 358.678 379.683 358.903 379.388 358.903H379.386Z" fill="black"/>
<path d="M293.664 414.744C292.345 413.411 284.723 389.698 284.723 389.698L269.662 400.445L286.174 422.637L293.664 414.744Z" fill="white"/>
<path d="M286.172 423.221C286.159 423.221 286.149 423.221 286.136 423.221C285.965 423.211 285.806 423.126 285.703 422.988L269.191 400.796C269.098 400.67 269.059 400.513 269.084 400.358C269.108 400.203 269.193 400.065 269.321 399.974L284.382 389.227C284.533 389.12 284.727 389.089 284.904 389.149C285.082 389.206 285.22 389.347 285.276 389.524C288.188 398.585 293.154 413.332 294.079 414.34C294.285 414.565 294.295 414.926 294.085 415.149L286.595 423.042C286.483 423.157 286.33 423.223 286.172 423.223V423.221ZM270.483 400.573L286.227 421.733L292.929 414.67C291.197 411.487 285.998 395.553 284.411 390.635L270.483 400.573Z" fill="black"/>
<path d="M266.52 444.726L276.537 444.666C283.164 444.627 289.327 441.26 292.941 435.704L302.845 420.024C305.581 415.69 304.05 409.95 299.524 407.543C295.389 405.347 291.059 403.207 290.044 403.301C287.984 403.498 287.15 413.246 287.15 413.246L278.225 413.588C278.225 413.588 273.816 431.921 269.938 434.006C267.113 435.525 265.139 437.754 263.812 439.787C262.423 441.919 263.973 444.738 266.516 444.724L266.52 444.726Z" fill="#0D3C58"/>
<path d="M267.527 441.397C267.245 441.397 266.995 441.19 266.952 440.901C266.904 440.583 267.123 440.286 267.441 440.239L281.142 438.175C284.054 437.737 286.59 436.037 288.103 433.51L300.209 413.285C300.374 413.008 300.733 412.92 301.008 413.085C301.284 413.25 301.373 413.609 301.208 413.884L289.102 434.109C287.41 436.934 284.572 438.837 281.313 439.329L267.612 441.393C267.583 441.397 267.552 441.399 267.525 441.399L267.527 441.397Z" fill="white"/>
<path d="M284.44 426.187C284.388 426.187 284.337 426.181 284.287 426.166L276.654 424.088C276.343 424.003 276.161 423.683 276.246 423.372C276.33 423.06 276.652 422.878 276.962 422.963L284.595 425.042C284.906 425.126 285.088 425.446 285.003 425.758C284.933 426.018 284.698 426.187 284.442 426.187H284.44Z" fill="white"/>
<path d="M280.465 430.107C280.419 430.107 280.372 430.1 280.326 430.09L275.208 428.837C274.894 428.761 274.704 428.445 274.78 428.133C274.857 427.82 275.177 427.63 275.484 427.706L280.603 428.959C280.917 429.035 281.106 429.351 281.03 429.663C280.964 429.929 280.727 430.107 280.465 430.107Z" fill="white"/>
<path d="M242.268 410.22L224.782 427.791L215.513 424.385L231.632 401.906L242.268 410.22Z" fill="white"/>
<path d="M224.782 428.373C224.714 428.373 224.646 428.36 224.582 428.338L215.312 424.932C215.141 424.87 215.009 424.73 214.955 424.557C214.902 424.383 214.933 424.193 215.04 424.045L231.16 401.566C231.253 401.436 231.393 401.351 231.55 401.328C231.709 401.306 231.868 401.349 231.991 401.446L242.629 409.76C242.759 409.863 242.842 410.016 242.852 410.183C242.863 410.35 242.801 410.513 242.683 410.631L225.197 428.202C225.085 428.313 224.937 428.373 224.784 428.373H224.782ZM216.431 424.102L224.631 427.114L241.391 410.274L231.75 402.74L216.431 424.102Z" fill="black"/>
<path d="M230.307 425.042C230.307 425.042 231.154 432.515 229.719 439.122C228.955 442.641 225.783 445.118 222.181 445.118H179.265C176.197 445.118 174.806 441.289 177.157 439.318C184.788 432.924 198.827 423.163 216.086 420.296L220.9 427.033L230.309 425.04L230.307 425.042Z" fill="#0D3C58"/>
<path d="M225.781 439.799H181.304C180.982 439.799 180.722 439.539 180.722 439.217C180.722 438.895 180.982 438.635 181.304 438.635H225.781C226.103 438.635 226.363 438.895 226.363 439.217C226.363 439.539 226.103 439.799 225.781 439.799Z" fill="white"/>
<path d="M206.121 431.898C205.892 431.898 205.675 431.762 205.583 431.537L203.228 425.826C203.106 425.529 203.246 425.188 203.545 425.064C203.843 424.942 204.183 425.083 204.307 425.38L206.662 431.091C206.784 431.388 206.644 431.729 206.344 431.853C206.272 431.882 206.196 431.896 206.121 431.896V431.898Z" fill="white"/>
<path d="M198.379 433.399C198.134 433.399 197.907 433.244 197.826 432.998L196.123 427.847C196.022 427.541 196.187 427.211 196.495 427.11C196.8 427.009 197.131 427.176 197.232 427.479L198.934 432.631C199.036 432.936 198.871 433.267 198.563 433.368C198.503 433.388 198.441 433.397 198.379 433.397V433.399Z" fill="white"/>
<path d="M334.832 287.27C334.832 287.27 254.912 277.967 231.147 298.539C207.382 319.111 268.663 407.576 268.663 407.576L288.042 393.204L269.66 330.678L343.538 309.697L334.834 287.27H334.832Z" fill="#0D3C58"/>
<path d="M378.818 327.988C367.208 331.672 346.438 336.436 317.404 336.04C309.154 335.928 301.54 340.486 297.792 347.834C289.193 364.698 270.58 395.062 240.262 414.744L225.781 406.942L262.739 323.749C266.114 316.153 272.423 310.25 280.227 307.387L353.472 280.529C353.472 280.529 376.185 274.18 387.32 294.456C389.308 298.077 393.002 291.604 393.881 294.527C396.897 304.543 388.789 324.824 378.818 327.988Z" fill="#0D3C58"/>
<path d="M246.037 361.927C245.959 361.927 245.878 361.91 245.802 361.877C245.507 361.747 245.374 361.402 245.507 361.107L262.208 323.513C265.626 315.817 272.122 309.74 280.029 306.842L315.107 293.98C315.41 293.868 315.744 294.025 315.854 294.326C315.965 294.628 315.811 294.964 315.507 295.074L280.429 307.936C272.817 310.727 266.564 316.578 263.273 323.986L246.572 361.58C246.475 361.796 246.262 361.927 246.039 361.927H246.037Z" fill="white"/>
<path d="M265.538 394.245C265.393 394.245 265.247 394.191 265.133 394.082C264.902 393.859 264.894 393.489 265.117 393.258C268.452 389.788 271.736 386.061 274.875 382.181C275.078 381.931 275.443 381.892 275.695 382.094C275.944 382.296 275.984 382.664 275.781 382.913C272.621 386.82 269.315 390.571 265.957 394.065C265.843 394.185 265.69 394.245 265.536 394.245H265.538Z" fill="white"/>
<path d="M275.329 383.13C275.201 383.13 275.071 383.087 274.964 383C274.714 382.798 274.675 382.43 274.877 382.181C276.425 380.265 277.963 378.284 279.447 376.294C279.639 376.036 280.004 375.982 280.262 376.174C280.52 376.366 280.574 376.732 280.382 376.99C278.89 378.994 277.344 380.985 275.785 382.913C275.67 383.056 275.503 383.13 275.331 383.13H275.329Z" fill="white"/>
<path d="M316.673 222.718C316.673 222.718 309.643 286.547 262.442 290.723L316.673 291.493C316.673 291.493 336.754 250.803 337.569 234.96C338.385 219.116 316.673 222.718 316.673 222.718Z" fill="white"/>
<path d="M316.675 292.077H316.667L262.436 291.307C262.126 291.303 261.872 291.055 261.862 290.745C261.849 290.436 262.085 290.169 262.392 290.143C286.498 288.011 299.808 269.806 306.731 254.908C314.26 238.704 316.077 222.813 316.095 222.654C316.124 222.394 316.322 222.185 316.578 222.142C317.068 222.062 328.653 220.212 334.686 225.599C337.192 227.837 338.358 230.997 338.153 234.991C337.34 250.772 318.021 290.085 317.198 291.751C317.101 291.949 316.896 292.075 316.675 292.075V292.077ZM269.286 290.236L316.312 290.904C318.219 286.995 336.226 249.721 336.985 234.929C337.171 231.306 336.137 228.46 333.908 226.468C328.915 222.008 319.332 222.953 317.195 223.23C316.838 225.954 314.684 240.553 307.786 255.397C298.875 274.572 285.656 286.491 269.284 290.233L269.286 290.236Z" fill="black"/>
<path d="M383.854 182.152C374.696 179.999 370.878 179.97 337.592 181.176C329.456 181.471 320.405 194.206 319.447 202.291C322.034 210.045 333.34 245.806 312.508 275.719C309.552 279.963 305.534 284.619 300.017 289.082C303.117 291.59 307.932 294.851 314.401 296.772C325.14 299.961 330.539 296.514 339.194 296.772C362.085 297.455 370.48 322.95 385.266 319.749C389.215 318.894 394.447 315.815 399.353 305.484C402.133 296.919 404.608 286.861 405.987 275.492C409.723 244.679 403.611 219.021 398.152 202.92C396.529 197.836 394.647 184.691 383.852 182.154L383.854 182.152Z" fill="white"/>
<path d="M382.68 320.613C376.604 320.613 371.557 316.108 365.827 310.991C358.851 304.762 350.944 297.703 339.179 297.352C336.11 297.261 333.404 297.649 330.787 298.027C326.085 298.704 321.226 299.404 314.238 297.327C309.053 295.788 304.145 293.164 299.652 289.532C299.515 289.42 299.435 289.255 299.435 289.078C299.435 288.9 299.515 288.735 299.652 288.624C304.45 284.741 308.615 280.287 312.031 275.381C331.061 248.056 323.171 215.29 318.896 202.47C318.869 202.39 318.859 202.303 318.869 202.216C319.809 194.288 328.938 180.901 337.571 180.588C371.404 179.362 374.876 179.436 383.989 181.578C393.625 183.843 396.366 194.101 398.003 200.227C398.263 201.201 398.488 202.041 398.709 202.734C406.864 226.784 409.51 251.288 406.569 275.554C405.337 285.711 403.097 295.839 399.91 305.656C399.902 305.68 399.894 305.703 399.881 305.726C395.861 314.192 390.986 319.099 385.392 320.31C384.463 320.51 383.559 320.605 382.68 320.605V320.613ZM338.261 296.174C338.574 296.174 338.892 296.178 339.212 296.188C351.402 296.551 359.477 303.761 366.601 310.122C372.926 315.767 378.383 320.642 385.144 319.179C390.36 318.05 394.959 313.369 398.812 305.268C401.97 295.534 404.189 285.492 405.409 275.422C408.329 251.331 405.702 226.999 397.601 203.106C397.367 202.377 397.14 201.523 396.876 200.534C395.306 194.658 392.678 184.825 383.72 182.718C374.75 180.608 371.301 180.538 337.613 181.758C329.557 182.049 321.018 194.662 320.044 202.231C324.384 215.304 332.259 248.382 312.987 276.052C309.643 280.855 305.594 285.232 300.946 289.074C305.164 292.378 309.744 294.778 314.568 296.211C321.315 298.215 325.835 297.563 330.62 296.873C333.016 296.529 335.485 296.174 338.261 296.174Z" fill="black"/>
<path d="M310.471 229.87C310.471 229.87 319.458 185.419 334.971 181.735L327.804 239.798L310.471 229.868V229.87Z" fill="white"/>
<path d="M327.804 240.382C327.703 240.382 327.604 240.357 327.516 240.305L310.182 230.375C309.963 230.252 309.85 230 309.899 229.754C310.269 227.923 319.14 184.895 334.834 181.17C335.15 181.095 335.462 181.289 335.536 181.603C335.611 181.917 335.416 182.231 335.105 182.305C320.913 185.675 312.087 225.096 311.127 229.577L327.332 238.858L328.51 229.304C328.55 228.984 328.845 228.759 329.161 228.796C329.48 228.836 329.707 229.127 329.668 229.447L328.382 239.872C328.358 240.066 328.24 240.235 328.065 240.322C327.982 240.363 327.893 240.384 327.804 240.384V240.382Z" fill="black"/>
<path d="M356.546 160.881L355.441 176.253C355.198 178.253 353.757 179.9 351.809 180.408L346.409 181.816L349.914 184.484C357.681 190.4 368.441 191.609 376.218 185.71L381.762 181.682L375.054 180.006C373.126 179.574 371.644 176.829 371.295 174.885L368.333 154.544L356.552 160.881H356.546Z" fill="white"/>
<path d="M364.405 190.189C359.363 190.189 354.129 188.431 349.557 184.949L346.054 182.28C345.877 182.144 345.792 181.921 345.836 181.702C345.879 181.483 346.044 181.31 346.261 181.252L351.66 179.845C353.39 179.395 354.647 177.956 354.861 176.183L355.964 160.839C355.978 160.641 356.094 160.462 356.269 160.369L368.05 154.032C368.218 153.941 368.418 153.939 368.589 154.024C368.758 154.109 368.876 154.272 368.905 154.462L371.869 174.802C372.174 176.493 373.497 179.062 375.179 179.438L381.902 181.116C382.121 181.172 382.29 181.347 382.333 181.57C382.377 181.793 382.288 182.02 382.104 182.152L376.56 186.181C373.027 188.862 368.791 190.189 364.41 190.189H364.405ZM347.714 182.078L350.263 184.02C358.385 190.206 368.674 190.697 375.861 185.244L380.403 181.942L374.907 180.569C372.622 180.059 371.076 176.996 370.715 174.986L367.869 155.45L357.103 161.242L356.021 176.294C355.745 178.575 354.149 180.4 351.953 180.972L347.714 182.076V182.078Z" fill="black"/>
<path d="M339.078 139.487C342.775 137.533 339.798 143.621 351.953 133.101C356.793 128.911 356.967 136.732 358.226 135.648C362.874 131.648 362.711 131.778 365.644 131.27C367.586 130.934 370.182 133.613 370.954 136.148C371.974 139.495 369.749 141.498 370.509 149.207C371.043 154.62 372.746 157.279 371.186 158.819C369.609 160.375 367.039 158.472 365.19 160.04C362.793 162.071 365.528 166.585 363.759 169.787C362.645 171.805 358.981 174.179 351.274 173.995C350.025 173.964 348.967 173.046 348.764 171.809C348.504 170.224 348.184 168.22 348.04 166.282C347.351 157.039 349.34 153.968 347.381 152.389C344.378 149.968 339.276 154.478 337.111 152.352C334.861 150.144 334.021 142.166 339.08 139.489L339.078 139.487Z" fill="black"/>
<path d="M357.464 144.668L357.311 147.192C357.239 148.381 357.249 149.574 357.34 150.763C357.514 152.992 357.782 156.829 357.768 158.988C357.749 162.16 347.945 162.779 347.945 162.779L346.7 161.394L345.549 161.442C345.326 161.452 345.099 161.415 344.901 161.312C344.405 161.054 344.16 160.523 344.244 160.012C344.709 157.211 345.52 151.025 344.622 146.216C344.622 146.216 350.073 141.789 357.462 144.668H357.464Z" fill="white"/>
<path d="M347.945 163.364C347.78 163.364 347.623 163.293 347.512 163.17L346.451 161.989L345.576 162.026C345.233 162.041 344.907 161.972 344.634 161.83C343.93 161.463 343.545 160.693 343.672 159.917C344.085 157.425 344.948 151.118 344.052 146.323C344.013 146.113 344.091 145.898 344.259 145.764C344.492 145.574 350.063 141.159 357.679 144.125C357.914 144.218 358.065 144.451 358.048 144.703L357.896 147.227C357.825 148.387 357.834 149.562 357.924 150.717C358.092 152.866 358.368 156.8 358.354 158.992C358.333 162.53 349.712 163.252 347.984 163.361C347.972 163.361 347.959 163.361 347.947 163.361L347.945 163.364ZM346.7 160.812C346.866 160.812 347.022 160.883 347.134 161.006L348.189 162.179C352.011 161.898 357.175 160.753 357.186 158.986C357.2 156.835 356.925 152.94 356.76 150.808C356.665 149.599 356.657 148.371 356.729 147.157L356.857 145.062C350.899 142.934 346.395 145.669 345.262 146.468C346.056 151.202 345.334 157.015 344.822 160.107C344.777 160.385 344.917 160.662 345.173 160.796C345.264 160.843 345.388 160.866 345.526 160.86L346.676 160.812C346.676 160.812 346.692 160.812 346.7 160.812Z" fill="black"/>
<path d="M359.185 152.449C359.185 152.449 359.547 146.377 362.269 147.145C364.992 147.912 364.426 154.585 359.185 152.449Z" fill="white"/>
<path d="M333.503 296.809H224.349C222.34 296.809 220.71 295.179 220.71 293.171V290.558H337.142V293.171C337.142 295.179 335.511 296.809 333.503 296.809Z" fill="white"/>
<path d="M332.502 297.391H225.35C222.47 297.391 220.128 295.049 220.128 292.17V290.558C220.128 290.236 220.388 289.975 220.71 289.975H337.142C337.464 289.975 337.724 290.236 337.724 290.558V292.17C337.724 295.049 335.381 297.391 332.5 297.391H332.502ZM221.294 291.142V292.17C221.294 294.407 223.114 296.227 225.35 296.227H332.502C334.739 296.227 336.56 294.407 336.56 292.17V291.142H221.294Z" fill="black"/>
<path d="M220.708 290.671H287.331L266.163 228.363C264.896 226.413 262.689 225.232 260.318 225.232H204C201.444 225.232 199.799 227.711 200.633 229.901C200.965 230.772 201.323 231.632 201.614 232.516L220.71 290.671H220.708Z" fill="white"/>
<path d="M287.331 291.253H220.708C220.456 291.253 220.233 291.092 220.154 290.853L201.058 232.697C200.856 232.078 200.613 231.455 200.377 230.852C200.28 230.605 200.183 230.357 200.088 230.107C199.628 228.898 199.799 227.525 200.549 226.437C201.333 225.3 202.59 224.648 204 224.648H260.318C262.902 224.648 265.271 225.917 266.652 228.045C266.679 228.086 266.7 228.13 266.716 228.175L287.885 290.483C287.945 290.661 287.916 290.857 287.806 291.01C287.697 291.162 287.521 291.253 287.334 291.253H287.331ZM221.131 290.087H286.518L265.637 228.619C264.464 226.86 262.483 225.812 260.318 225.812H204C202.98 225.812 202.072 226.28 201.508 227.098C200.976 227.87 200.852 228.84 201.176 229.69C201.269 229.936 201.366 230.181 201.461 230.425C201.702 231.042 201.952 231.682 202.165 232.33L221.129 290.085L221.131 290.087Z" fill="black"/>
<path d="M245.432 257.108C246.227 259.742 245.013 262.438 242.722 263.129C240.431 263.82 237.932 262.246 237.137 259.61C236.342 256.976 237.556 254.279 239.847 253.589C242.138 252.898 244.638 254.473 245.432 257.108Z" fill="black"/>
<path d="M405.237 241.306C405.237 241.306 401.97 282.702 392.721 298.374C381.677 317.09 325.959 291.883 325.959 291.883L319.478 288.213C315.094 285.73 309.87 285.199 305.078 286.745L294.611 290.122C294.611 290.122 303.255 279.757 310.607 275.794C314.054 273.936 318.523 275.693 322.298 278.083C328.791 282.194 336.432 284.124 344.114 283.895L366.279 283.237C370.001 283.125 373.051 280.246 373.373 276.537L376.713 229.977L405.24 241.304L405.237 241.306Z" fill="white"/>
<path d="M375.834 305.901C355.846 305.901 327.371 293.162 325.718 292.413L319.191 288.721C314.962 286.326 309.883 285.808 305.255 287.301L294.787 290.677C294.541 290.758 294.271 290.665 294.124 290.448C293.98 290.233 293.994 289.949 294.159 289.748C294.514 289.321 302.96 279.251 310.327 275.28C313.423 273.612 317.553 274.39 322.605 277.589C328.882 281.565 336.306 283.54 344.094 283.313L366.259 282.654C369.685 282.553 372.492 279.901 372.789 276.487L376.129 229.936C376.141 229.75 376.242 229.583 376.401 229.484C376.558 229.385 376.752 229.366 376.926 229.436L405.452 240.764C405.69 240.858 405.838 241.096 405.817 241.352C405.683 243.048 402.435 283.061 393.223 298.669C390.094 303.974 383.603 305.899 375.834 305.899V305.901ZM310.597 285.296C313.782 285.296 316.95 286.112 319.767 287.705L326.248 291.375C326.754 291.6 381.568 316.133 392.222 298.077C400.796 283.546 404.241 246.122 404.622 241.688L377.237 230.815L373.953 276.582C373.605 280.595 370.313 283.703 366.296 283.823L344.131 284.481C336.108 284.721 328.459 282.677 321.986 278.578C318.774 276.543 314.242 274.5 310.886 276.31C305.425 279.253 299.15 285.887 296.432 288.925L304.9 286.192C306.756 285.594 308.679 285.298 310.599 285.298L310.597 285.296Z" fill="black"/>
<path d="M410.418 244.231C410.418 244.231 413.908 217.558 410.061 208.163C401.085 186.251 387.363 183.18 385.167 182.526L372.517 236.689L410.418 244.229V244.231Z" fill="white"/>
<path d="M410.418 244.815C410.381 244.815 410.342 244.811 410.305 244.805L372.403 237.265C372.249 237.234 372.112 237.141 372.028 237.009C371.943 236.877 371.914 236.714 371.949 236.561L374.531 225.502C374.604 225.189 374.919 224.995 375.231 225.067C375.545 225.141 375.739 225.453 375.667 225.767L373.221 236.237L409.917 243.538C410.404 239.49 412.944 216.743 409.52 208.386C405.638 198.906 398.288 186.839 385.324 183.18L385.002 183.087C384.694 182.996 384.517 182.67 384.61 182.363C384.703 182.055 385.023 181.878 385.334 181.97L385.642 182.059C396.261 185.056 404.893 194.008 410.602 207.946C414.464 217.374 411.141 243.216 410.998 244.309C410.977 244.47 410.891 244.613 410.761 244.708C410.66 244.78 410.542 244.817 410.42 244.817L410.418 244.815Z" fill="black"/>
<path d="M218.142 491.765C206.346 491.765 195.044 489.826 184.425 485.971C184.121 485.861 183.964 485.527 184.076 485.224C184.187 484.92 184.522 484.763 184.823 484.875C198.344 489.783 212.997 491.546 228.367 490.117C233.961 489.597 239.564 488.98 245.026 488.28C245.346 488.241 245.637 488.466 245.678 488.784C245.719 489.104 245.492 489.395 245.174 489.436C239.701 490.136 234.082 490.755 228.477 491.277C224.995 491.601 221.548 491.762 218.144 491.762L218.142 491.765Z" fill="black"/>
<path d="M30.7619 303.206C28.0828 303.206 25.9032 301.026 25.9032 298.347C25.9032 295.668 28.0828 293.488 30.7619 293.488C33.4409 293.488 35.6184 295.668 35.6184 298.347C35.6184 301.026 33.4389 303.206 30.7619 303.206ZM30.7619 294.657C28.7267 294.657 27.0694 296.312 27.0694 298.349C27.0694 300.386 28.7267 302.042 30.7619 302.042C32.797 302.042 34.4543 300.386 34.4543 298.349C34.4543 296.312 32.799 294.657 30.7619 294.657Z" fill="black"/>
<path d="M35.9177 277.129C35.5957 277.129 35.3357 276.869 35.3357 276.547V272.027C35.3357 271.705 35.5957 271.445 35.9177 271.445C36.2397 271.445 36.4998 271.705 36.4998 272.027V276.547C36.4998 276.869 36.2397 277.129 35.9177 277.129Z" fill="black"/>
<path d="M35.9177 287.66C35.5957 287.66 35.3357 287.4 35.3357 287.078V282.557C35.3357 282.235 35.5957 281.975 35.9177 281.975C36.2397 281.975 36.4998 282.235 36.4998 282.557V287.078C36.4998 287.4 36.2397 287.66 35.9177 287.66Z" fill="black"/>
<path d="M32.9105 280.134H28.3903C28.0683 280.134 27.8083 279.874 27.8083 279.552C27.8083 279.23 28.0683 278.97 28.3903 278.97H32.9105C33.2325 278.97 33.4925 279.23 33.4925 279.552C33.4925 279.874 33.2325 280.134 32.9105 280.134Z" fill="black"/>
<path d="M43.4431 280.134H38.9229C38.6009 280.134 38.3409 279.874 38.3409 279.552C38.3409 279.23 38.6009 278.97 38.9229 278.97H43.4431C43.7651 278.97 44.0251 279.23 44.0251 279.552C44.0251 279.874 43.7651 280.134 43.4431 280.134Z" fill="black"/>
<path d="M432.369 110.026C432.123 110.026 431.894 109.869 431.814 109.621L430.967 106.99C430.868 106.684 431.038 106.354 431.345 106.257C431.651 106.158 431.981 106.327 432.078 106.632L432.924 109.264C433.023 109.57 432.854 109.9 432.546 109.997C432.486 110.015 432.427 110.026 432.369 110.026Z" fill="black"/>
<path d="M435.326 119.235C435.081 119.235 434.852 119.078 434.771 118.831L433.925 116.199C433.826 115.892 433.995 115.563 434.303 115.466C434.608 115.369 434.936 115.537 435.035 115.844L435.882 118.476C435.981 118.783 435.812 119.111 435.504 119.208C435.444 119.227 435.384 119.237 435.326 119.237V119.235Z" fill="black"/>
<path d="M427.506 115.223C427.26 115.223 427.031 115.066 426.951 114.818C426.852 114.513 427.021 114.183 427.326 114.086L429.958 113.237C430.264 113.138 430.594 113.307 430.693 113.613C430.792 113.918 430.623 114.249 430.317 114.346L427.686 115.194C427.626 115.212 427.566 115.223 427.506 115.223Z" fill="black"/>
<path d="M436.714 112.255C436.468 112.255 436.239 112.098 436.158 111.85C436.059 111.545 436.228 111.215 436.534 111.118L439.166 110.269C439.471 110.17 439.801 110.339 439.9 110.645C439.999 110.95 439.83 111.281 439.525 111.378L436.895 112.226C436.835 112.244 436.775 112.255 436.716 112.255H436.714Z" fill="black"/>
<path d="M402.038 84.2133C401.906 84.2133 401.772 84.1678 401.663 84.075C399.002 81.8231 396.261 79.6023 393.518 77.4743C393.264 77.2761 393.217 76.9108 393.415 76.6569C393.613 76.4031 393.978 76.3556 394.232 76.5537C396.988 78.692 399.741 80.9232 402.414 83.1854C402.66 83.3938 402.691 83.7612 402.482 84.0069C402.366 84.1431 402.201 84.2133 402.036 84.2133H402.038Z" fill="black"/>
<path d="M393.875 77.5961C393.751 77.5961 393.625 77.5569 393.518 77.4743C355.278 47.796 309.68 30.8527 265.125 29.7649C264.803 29.7567 264.549 29.4904 264.555 29.1685C264.564 28.8506 264.824 28.5988 265.137 28.5988C265.141 28.5988 265.146 28.5988 265.152 28.5988C287.666 29.1478 310.26 33.5937 332.306 41.8105C354.211 49.9756 375.047 61.6641 394.232 76.5538C394.486 76.7519 394.534 77.1172 394.335 77.3711C394.22 77.5197 394.049 77.5961 393.875 77.5961Z" fill="black"/>
<path d="M375.648 79.0161C375.537 79.0161 375.423 78.9831 375.324 78.917C346.279 59.4205 313.709 47.5339 281.133 44.5411C280.813 44.5122 280.578 44.2274 280.607 43.9075C280.636 43.5876 280.923 43.3523 281.241 43.3812C314.009 46.3905 346.768 58.3452 375.974 77.949C376.24 78.1286 376.313 78.4898 376.133 78.7581C376.022 78.9253 375.836 79.0161 375.648 79.0161Z" fill="black"/>
<path d="M410.466 95.7345C409.966 95.7345 409.462 95.6499 408.975 95.4806C406.612 94.6612 405.359 92.0709 406.179 89.7097C406.998 87.3485 409.584 86.0915 411.95 86.913C414.311 87.7324 415.566 90.3227 414.746 92.6839C414.35 93.8274 413.531 94.75 412.441 95.2784C411.815 95.5818 411.143 95.7345 410.466 95.7345ZM410.466 87.8294C409.07 87.8294 407.762 88.7025 407.279 90.0936C406.67 91.848 407.603 93.7716 409.357 94.3805C410.208 94.6757 411.12 94.622 411.931 94.2299C412.74 93.8377 413.349 93.1525 413.644 92.3021C414.253 90.5477 413.32 88.624 411.566 88.0152C411.2 87.8892 410.829 87.8294 410.464 87.8294H410.466Z" fill="black"/>
<path d="M257.977 33.7629C257.936 33.7629 257.895 33.7588 257.853 33.7505L250.037 32.0457C249.841 32.0023 249.68 31.862 249.612 31.6721C249.544 31.4822 249.581 31.2717 249.707 31.1127C252.021 28.2128 254.601 25.4945 254.625 25.4677C254.762 25.3232 254.964 25.2592 255.158 25.2964C255.352 25.3335 255.515 25.4677 255.589 25.6514L258.52 32.9641C258.601 33.1643 258.563 33.3934 258.425 33.5565C258.314 33.6886 258.151 33.7629 257.979 33.7629H257.977ZM251.207 31.1065L257.026 32.3759L254.846 26.9373C254.058 27.7938 252.627 29.3769 251.207 31.1065Z" fill="black"/>
<path d="M475.923 498.217H363.223C356.457 498.217 351.396 492.008 352.758 485.381L369.856 402.263C371.295 395.275 377.448 390.257 384.583 390.257H481.253L475.921 498.217H475.923Z" fill="white"/>
<path d="M475.925 498.799H363.225C359.823 498.799 356.643 497.288 354.492 494.652C352.343 492.016 351.503 488.594 352.189 485.263L369.287 402.146C370.773 394.92 377.208 389.675 384.585 389.675H481.255C481.414 389.675 481.566 389.741 481.678 389.857C481.787 389.972 481.845 390.127 481.837 390.288L476.505 498.248C476.491 498.557 476.233 498.801 475.923 498.801L475.925 498.799ZM384.585 390.839C377.757 390.839 371.805 395.692 370.428 402.379L353.33 485.496C352.715 488.483 353.468 491.55 355.394 493.913C357.32 496.276 360.174 497.63 363.223 497.63H475.368L480.642 390.837H384.583L384.585 390.839Z" fill="black"/>
<path d="M490.355 498.217H468.485C461.719 498.217 456.658 492.008 458.02 485.381L476.852 393.832C477.279 391.751 479.112 390.257 481.238 390.257H486.863C489.195 390.257 491.135 392.046 491.325 394.371L499.028 488.805C499.441 493.874 495.438 498.215 490.353 498.215L490.355 498.217Z" fill="white"/>
<path d="M490.355 498.799H468.485C465.085 498.799 461.903 497.288 459.752 494.652C457.603 492.016 456.763 488.594 457.448 485.263L476.28 393.714C476.761 391.374 478.846 389.673 481.236 389.673H486.86C489.476 389.673 491.692 391.714 491.905 394.321L499.608 488.755C499.818 491.333 498.933 493.901 497.181 495.804C495.428 497.705 492.939 498.797 490.353 498.797L490.355 498.799ZM481.238 390.839C479.399 390.839 477.793 392.148 477.424 393.949L458.592 485.498C457.977 488.485 458.73 491.552 460.656 493.915C462.582 496.278 465.436 497.632 468.485 497.632H490.355C492.65 497.632 494.77 496.704 496.326 495.015C497.88 493.327 498.634 491.139 498.448 488.852L490.745 394.418C490.582 392.412 488.877 390.841 486.863 390.841H481.238V390.839Z" fill="black"/>
<path d="M460.569 434.47H372.327C372.005 434.47 371.745 434.21 371.745 433.888C371.745 433.566 372.005 433.306 372.327 433.306H460.569C462.926 433.306 464.951 431.704 465.494 429.411L473.273 396.575C473.347 396.261 473.661 396.067 473.975 396.141C474.289 396.216 474.483 396.529 474.408 396.843L466.629 429.679C465.96 432.501 463.469 434.47 460.571 434.47H460.569Z" fill="black"/>
<path d="M426.511 433.888L424.038 443.859C423.638 445.545 422.133 446.736 420.4 446.736H402.922C401.019 446.736 399.64 444.922 400.15 443.089L402.709 433.888H426.509H426.511Z" fill="white"/>
<path d="M420.4 447.318H402.922C401.83 447.318 400.827 446.821 400.166 445.952C399.506 445.083 399.295 443.983 399.588 442.932L402.148 433.731C402.218 433.479 402.447 433.304 402.709 433.304H426.509C426.689 433.304 426.858 433.386 426.969 433.527C427.081 433.667 427.12 433.853 427.077 434.026L424.604 443.997C424.142 445.95 422.412 447.318 420.4 447.318ZM403.155 434.47L400.713 443.244C400.519 443.94 400.66 444.67 401.097 445.246C401.535 445.822 402.201 446.152 402.924 446.152H420.402C421.871 446.152 423.134 445.153 423.475 443.723L425.768 434.47H403.157H403.155Z" fill="black"/>
<path d="M452.516 490.448H358.771C358.449 490.448 358.189 490.188 358.189 489.866C358.189 489.544 358.449 489.284 358.771 489.284H452.516C452.837 489.284 453.098 489.544 453.098 489.866C453.098 490.188 452.837 490.448 452.516 490.448Z" fill="black"/>
<path d="M406.852 386.484H399.535C397.557 386.484 395.956 388.086 395.956 390.063H410.433C410.433 388.086 408.831 386.484 406.854 386.484H406.852Z" fill="#0D3C58"/>
<path d="M410.433 390.647H395.956C395.634 390.647 395.374 390.387 395.374 390.065C395.374 387.77 397.242 385.902 399.537 385.902H406.854C409.149 385.902 411.017 387.77 411.017 390.065C411.017 390.387 410.757 390.647 410.435 390.647H410.433ZM396.596 389.481H409.793C409.52 388.106 408.307 387.068 406.854 387.068H399.537C398.084 387.068 396.87 388.108 396.598 389.481H396.596Z" fill="black"/>
<path d="M465.498 386.484H458.181C456.204 386.484 454.602 388.086 454.602 390.063H469.079C469.079 388.086 467.477 386.484 465.5 386.484H465.498Z" fill="#0D3C58"/>
<path d="M469.077 390.647H454.6C454.278 390.647 454.018 390.387 454.018 390.065C454.018 387.77 455.886 385.902 458.181 385.902H465.498C467.793 385.902 469.661 387.77 469.661 390.065C469.661 390.387 469.401 390.647 469.079 390.647H469.077ZM455.24 389.481H468.437C468.165 388.106 466.951 387.068 465.498 387.068H458.181C456.728 387.068 455.512 388.108 455.24 389.481Z" fill="black"/>
<path d="M463.589 386.292L464.767 379.289C465.603 374.321 462.256 370.294 457.287 370.294H413.409C408.441 370.294 403.737 374.321 402.901 379.289L401.723 386.292H405.081L405.999 380.841C406.649 376.975 410.311 373.842 414.177 373.842H455.327C459.193 373.842 461.799 376.975 461.149 380.841L460.231 386.292H463.589Z" fill="white"/>
<path d="M463.589 386.874H460.231C460.059 386.874 459.896 386.798 459.785 386.668C459.673 386.538 459.626 386.364 459.655 386.195L460.573 380.744C460.862 379.027 460.466 377.425 459.457 376.232C458.47 375.066 457.003 374.424 455.327 374.424H414.175C410.587 374.424 407.176 377.347 406.571 380.938L405.652 386.389C405.605 386.67 405.361 386.876 405.077 386.876H401.718C401.547 386.876 401.384 386.8 401.273 386.67C401.161 386.54 401.114 386.366 401.143 386.197L402.321 379.194C403.2 373.966 408.173 369.714 413.405 369.714H457.283C459.837 369.714 462.082 370.707 463.607 372.511C465.162 374.348 465.777 376.789 465.339 379.388L464.161 386.391C464.113 386.672 463.87 386.878 463.585 386.878L463.589 386.874ZM460.92 385.708H463.096L464.192 379.19C464.571 376.936 464.049 374.829 462.72 373.258C461.42 371.72 459.49 370.874 457.285 370.874H413.407C408.719 370.874 404.263 374.69 403.473 379.382L402.408 385.706H404.583L405.419 380.74C406.115 376.612 410.04 373.254 414.173 373.254H455.325C457.349 373.254 459.133 374.042 460.344 375.475C461.579 376.934 462.068 378.872 461.721 380.932L460.918 385.704L460.92 385.708Z" fill="black"/>
<path d="M455.108 367.394H416.563C415.009 367.394 413.539 368.653 413.277 370.207L412.709 373.574C412.447 375.128 413.496 376.387 415.048 376.387H453.593C455.147 376.387 456.617 375.128 456.879 373.574L457.446 370.207C457.709 368.653 456.66 367.394 455.108 367.394Z" fill="#0D3C58"/>
<path d="M453.593 376.969H415.048C414.129 376.969 413.318 376.608 412.765 375.953C412.201 375.287 411.979 374.408 412.133 373.477L412.701 370.11C413.006 368.292 414.738 366.812 416.563 366.812H455.106C456.024 366.812 456.835 367.173 457.391 367.83C457.954 368.496 458.177 369.376 458.02 370.304L457.455 373.671C457.147 375.489 455.415 376.969 453.593 376.969ZM416.563 367.976C415.283 367.976 414.067 369.02 413.853 370.302L413.285 373.669C413.186 374.255 413.318 374.798 413.657 375.198C413.985 375.586 414.48 375.801 415.05 375.801H453.595C454.875 375.801 456.09 374.756 456.307 373.475L456.873 370.108C456.972 369.522 456.84 368.979 456.501 368.579C456.173 368.189 455.678 367.976 455.108 367.976H416.565H416.563Z" fill="black"/>
<path d="M468.276 490.448C468.074 490.448 467.876 490.342 467.768 490.153C467.61 489.872 467.707 489.517 467.987 489.358L482.801 480.918V396.707C482.801 396.385 483.061 396.125 483.383 396.125C483.705 396.125 483.965 396.385 483.965 396.707V481.257C483.965 481.465 483.853 481.659 483.67 481.762L468.561 490.371C468.47 490.423 468.371 490.448 468.272 490.448H468.276Z" fill="black"/>
<path d="M75.9511 453.31C75.9511 453.31 81.2246 480.171 91.0245 479.352C91.0245 479.352 96.0627 477.492 98.4404 481.176C100.368 484.163 99.0803 487.476 94.9894 487.795C91.2618 488.086 85.4888 488.73 80.5972 484.086C75.1792 478.941 61.6414 465.768 63.2988 459.345C64.0748 456.34 75.9511 453.312 75.9511 453.312V453.31Z" fill="white"/>
<path d="M91.1793 488.584C87.7943 488.584 83.7757 487.907 80.1967 484.507C67.2307 472.194 61.5196 463.915 62.7353 459.197C63.5547 456.018 73.7674 453.263 75.8066 452.745C75.9593 452.705 76.1265 452.73 76.2628 452.817C76.399 452.903 76.4919 453.04 76.5228 453.197C76.5744 453.459 81.8046 479.405 90.9068 478.776C91.6107 478.545 96.5065 477.106 98.9296 480.858C100.003 482.52 100.199 484.316 99.4724 485.787C98.7294 487.29 97.1525 488.208 95.0348 488.375L94.6406 488.406C93.6107 488.489 92.4383 488.582 91.1793 488.582V488.584ZM75.5032 454.028C71.0181 455.23 64.3432 457.628 63.8643 459.488C63.1171 462.383 65.4825 468.926 80.9976 483.661C85.5301 487.965 90.9564 487.531 94.5457 487.244L94.944 487.213C96.6344 487.081 97.8728 486.392 98.4281 485.271C98.9688 484.177 98.7954 482.801 97.9513 481.492C95.8501 478.237 91.2722 479.882 91.2268 479.899C91.1772 479.917 91.1256 479.927 91.074 479.934C90.911 479.948 90.75 479.954 90.589 479.954C81.4228 479.954 76.3639 458.088 75.5053 454.03L75.5032 454.028Z" fill="black"/>
<path d="M56.7559 396.35C81.7963 387.169 96.9316 390.946 110.414 396.449C123.898 401.952 140.682 394.265 140.682 394.265C144.494 392.154 147.365 386.713 147.365 386.713L168.474 393.898C167.867 403.857 161.88 418.559 157.33 429.824C152.781 441.089 165.997 447.372 168.812 451.488C171.63 455.603 164.48 464.27 169.246 469.252C174.012 474.235 172.711 483.118 166.429 479.868C160.146 476.619 159.712 462.319 160.146 459.285C160.579 456.253 143.681 446.121 141.297 446.07C138.913 446.018 136.399 479.42 141.947 478.351C149.328 476.926 153.863 487.665 146.28 487.882C138.697 488.099 134.148 488.099 131.535 482.683C128.922 477.267 124.761 450.119 123.264 446.032C121.766 441.948 115.776 441.13 106.244 439.36C96.7128 437.589 92.3557 444.398 86.5002 449.845C80.6446 455.292 66.3432 459.62 67.563 464.724C68.5516 468.856 74.2668 474.59 76.4093 476.623C76.8592 477.05 77.4908 477.209 78.0976 477.085C82.7024 476.14 90.1328 482.586 85.7427 485.81C81.0595 489.251 71.1151 487.585 69.563 486.586C68.0088 485.587 43.9261 457.508 54.6919 452.404C65.4577 447.3 63.4205 441.197 63.4205 441.197C63.0242 438.226 49.0902 430.728 48.7703 419.419C48.4483 408.001 44.4359 407.892 44.4359 407.892C22.0249 403.952 -2.87309 355.033 41.6536 336.76C57.0118 330.457 57.1522 334.448 57.1522 334.448C58.6754 341.043 39.377 341.994 30.9352 352.162C22.4935 362.327 24.7659 375.045 35.3935 387.233C46.3492 399.797 56.7579 396.342 56.7579 396.342L56.7559 396.35Z" fill="white"/>
<path d="M93.4187 414.398C83.4207 413.318 55.4349 414.352 62.8901 394.3C84.3371 387.826 98.071 391.409 110.416 396.447C118.323 399.675 127.363 398.366 133.491 396.732C137.186 400.546 139.786 404.319 139.786 407.386C139.786 418.007 131.386 426.309 122.606 428.352C113.825 430.398 103.697 415.504 93.4187 414.395V414.398Z" fill="#0D3C58"/>
<path d="M151.326 435.83C147.954 431.582 151.605 428.796 150.833 425.908C150.061 423.023 144.488 420.036 148.816 414.61C152.538 409.945 161.588 411.735 164.055 412.329C161.977 418.352 159.176 424.358 157.333 429.824C155.619 434.903 156.707 437.391 157.584 439.378C155.537 439.252 151.931 436.592 151.326 435.828V435.83Z" fill="#0D3C58"/>
<path d="M46.7248 409.747C50.6691 408.038 57.9633 404.951 61.6434 411.498C65.5877 418.515 56.438 423.673 65.3751 424.674C81.2411 426.451 71.8334 441.388 61.9551 439.066C61.7177 438.823 61.4535 438.565 61.1728 438.297C58.8529 435.646 54.2337 432.107 51.4741 427.731C49.9405 425.25 48.859 422.478 48.7723 419.43C48.6237 414.158 47.6887 411.302 46.7248 409.747Z" fill="#0D3C58"/>
<path d="M142.666 488.541C137.303 488.541 133.351 487.787 131.014 482.941C129.419 479.636 127.351 468.867 125.524 459.366C124.335 453.18 123.31 447.838 122.721 446.239C121.442 442.749 116.405 441.824 108.065 440.295L106.141 439.94C98.5581 438.532 94.3289 442.825 89.8501 447.372C88.9027 448.334 87.9202 449.331 86.9006 450.278C84.6116 452.408 81.1028 454.346 77.7096 456.222C72.6817 459.001 67.4825 461.874 68.1347 464.596C69.1027 468.642 75.0243 474.507 76.8138 476.208C77.1131 476.493 77.5507 476.611 77.9841 476.522C81.4372 475.814 85.978 478.763 87.2721 481.676C88.0688 483.469 87.6374 485.151 86.0915 486.287C81.2432 489.849 71.0078 488.212 69.2513 487.083C67.8375 486.175 50.7311 466.536 51.3688 456.617C51.5133 454.377 52.5474 452.784 54.4442 451.884C64.6259 447.056 62.8901 441.444 62.8694 441.388C62.8571 441.353 62.8488 441.318 62.8447 441.281C62.7435 440.517 61.0428 438.949 59.2409 437.287C54.9272 433.308 48.4111 427.296 48.1882 419.442C47.891 408.893 44.44 408.482 44.407 408.48C44.3884 408.48 44.3554 408.476 44.3368 408.472C31.3377 406.187 18.3634 389.663 16.5739 373.111C15.5419 363.569 17.3995 346.089 41.4327 336.226C49.6144 332.867 54.8219 331.844 56.9065 333.189C57.5588 333.611 57.6971 334.145 57.726 334.352C58.5825 338.172 53.7713 340.145 47.6846 342.638C42.2253 344.876 35.4327 347.66 31.3831 352.537C23.3707 362.187 24.9496 374.372 35.831 386.853C46.2997 398.86 56.2646 395.89 56.566 395.795C82.721 386.21 98.1886 390.825 110.635 395.906C123.722 401.248 140.276 393.809 140.441 393.733C144.02 391.747 146.823 386.492 146.849 386.439C146.984 386.185 147.281 386.067 147.553 386.16L168.662 393.345C168.912 393.429 169.073 393.671 169.056 393.933C168.451 403.848 162.691 418.111 158.061 429.572L157.871 430.043C154.618 438.098 160.942 443.533 165.56 447.5C167.161 448.877 168.544 450.066 169.293 451.159C170.697 453.211 169.944 456.074 169.145 459.104C168.212 462.652 167.246 466.32 169.667 468.85C173.035 472.373 173.44 477.426 171.694 479.756C170.497 481.356 168.48 481.585 166.16 480.386C159.541 476.962 159.087 462.573 159.568 459.205C159.578 459.139 159.586 458.765 158.831 457.876C155.384 453.816 143.479 446.953 141.392 446.664C139.914 448.352 137.654 470.427 140.581 476.681C141.157 477.911 141.671 477.814 141.836 477.781C144.68 477.232 147.469 478.309 149.297 480.664C150.717 482.491 151.155 484.687 150.414 486.258C149.768 487.626 148.307 488.411 146.296 488.468C145.023 488.506 143.809 488.538 142.664 488.538L142.666 488.541ZM103.235 438.493C104.213 438.493 105.25 438.588 106.354 438.794L108.275 439.149C117.025 440.755 122.306 441.723 123.815 445.838C124.434 447.527 125.468 452.912 126.668 459.145C128.391 468.109 130.536 479.267 132.063 482.435C134.465 487.418 138.368 487.529 146.265 487.304C147.836 487.259 148.907 486.726 149.361 485.762C149.917 484.586 149.531 482.867 148.379 481.383C146.825 479.383 144.466 478.464 142.059 478.928C141.518 479.032 140.726 478.959 140.018 478.016C136.575 473.426 138.218 450.28 140.245 446.336C140.354 446.123 140.705 445.479 141.312 445.494C143.533 445.541 156.251 453.036 159.723 457.124C160.497 458.035 160.814 458.751 160.726 459.374C160.344 462.043 160.717 476.262 166.699 479.356C167.964 480.01 169.696 480.489 170.765 479.063C172.226 477.11 171.71 472.673 168.827 469.661C165.956 466.658 167.052 462.491 168.02 458.813C168.749 456.047 169.436 453.434 168.334 451.822C167.671 450.854 166.342 449.711 164.802 448.39C160.191 444.429 153.225 438.441 156.792 429.611L156.982 429.141C161.51 417.931 167.128 404.02 167.863 394.311L147.64 387.425C146.858 388.79 144.286 392.938 140.967 394.777C140.232 395.116 123.757 402.525 110.195 396.99C97.9492 391.991 82.7272 387.45 56.9561 396.899C56.952 396.899 56.9458 396.903 56.9396 396.905C56.4999 397.052 46.0334 400.336 34.9518 387.625C23.8144 374.851 22.1859 361.792 30.4853 351.798C34.7227 346.698 41.6639 343.852 47.2429 341.565C52.8322 339.274 57.2492 337.464 56.5825 334.589C56.5742 334.552 56.5701 334.517 56.5681 334.479C56.5681 334.49 56.5495 334.321 56.1883 334.124C55.3441 333.662 52.2605 333.047 41.8744 337.309C18.5471 346.882 16.7349 363.774 17.7318 372.992C19.4697 389.064 31.9755 405.095 44.5019 407.322C45.1583 407.37 49.0324 408.125 49.3523 419.413C49.5608 426.775 55.8601 432.588 60.0294 436.435C62.2895 438.52 63.7941 439.909 63.9902 441.077C64.1925 441.76 65.6352 447.869 54.9416 452.941C53.4514 453.647 52.665 454.854 52.5329 456.629C51.8683 465.638 68.5269 485.199 69.8788 486.105C71.1626 486.931 80.8304 488.702 85.398 485.348C86.5105 484.53 86.783 483.453 86.203 482.148C85.1049 479.674 81.1214 477.067 78.2153 477.663C77.4083 477.828 76.5847 477.601 76.0089 477.052C73.6373 474.801 68.0109 469.104 66.9974 464.866C66.1409 461.281 71.4846 458.328 77.1441 455.201C80.4754 453.36 83.9202 451.457 86.1039 449.424C87.1049 448.493 88.075 447.506 89.0162 446.553C93.0843 442.423 96.9564 438.493 103.233 438.493H103.235Z" fill="black"/>
<path d="M163.659 368.125C161.198 367.885 155.26 367.47 151.258 368.542C150.676 368.696 150.057 368.529 149.617 368.119C148.158 366.756 144.887 363.491 142.208 359.266C138.643 353.644 136.723 357.896 136.038 361.186C135.433 364.092 135.648 369.6 137.283 374.688C137.7 375.984 137.989 377.322 138.146 378.674C138.769 384.03 139.826 398.232 158.746 398.232C158.746 398.232 176.348 399.027 176.348 375.993C176.348 375.993 178.255 358.994 174.978 355.289C173.209 353.289 167.192 363.852 165.339 367.233C165.006 367.84 164.348 368.189 163.659 368.123V368.125Z" fill="white"/>
<path d="M158.992 398.823C158.839 398.823 158.746 398.818 158.717 398.818C139.842 398.818 138.284 385.087 137.619 379.223L137.566 378.746C137.413 377.429 137.13 376.125 136.726 374.87C135 369.508 134.862 363.958 135.464 361.07C135.83 359.32 136.73 356.331 138.66 355.98C139.956 355.745 141.277 356.717 142.699 358.956C145.382 363.188 148.709 366.478 150.014 367.695C150.311 367.972 150.73 368.081 151.107 367.98C155.215 366.88 161.293 367.309 163.714 367.545C164.183 367.59 164.606 367.357 164.827 366.957C167.873 361.4 171.983 354.725 174.274 354.469C174.709 354.42 175.12 354.575 175.413 354.907C178.782 358.713 177.05 374.959 176.93 376.03C176.924 384.048 174.819 390.123 170.674 394.086C166.001 398.552 160.315 398.825 158.994 398.825L158.992 398.823ZM139.023 357.111C138.971 357.111 138.92 357.115 138.868 357.126C137.989 357.285 137.101 358.925 136.606 361.305C136.016 364.135 136.249 369.58 137.836 374.511C138.263 375.838 138.56 377.217 138.723 378.608L138.779 379.089C139.409 384.643 140.884 397.65 158.744 397.65C158.835 397.652 165.042 397.863 169.88 393.225C173.783 389.485 175.762 383.687 175.762 375.993C175.762 375.972 175.762 375.949 175.766 375.929C176.288 371.272 177.085 358.554 174.538 355.677C174.497 355.631 174.474 355.619 174.402 355.625C173.104 355.77 169.667 360.548 165.849 367.514C165.405 368.325 164.517 368.791 163.601 368.703C161.242 368.474 155.333 368.05 151.409 369.103C150.647 369.307 149.807 369.093 149.219 368.544C147.881 367.295 144.47 363.922 141.714 359.578C140.699 357.976 139.751 357.109 139.025 357.109L139.023 357.111Z" fill="black"/>
<path d="M187.669 75.5609C203.624 75.5609 216.557 62.6275 216.557 46.6732C216.557 30.7189 203.624 17.7855 187.669 17.7855C171.715 17.7855 158.781 30.7189 158.781 46.6732C158.781 62.6275 171.715 75.5609 187.669 75.5609Z" fill="white"/>
<path d="M187.706 76.143C187.141 76.143 186.577 76.1265 186.008 76.0955C178.148 75.6518 170.932 72.1739 165.69 66.3039C160.447 60.4318 157.803 52.8714 158.247 45.0117C158.691 37.152 162.169 29.9362 168.039 24.6937C173.909 19.4491 181.463 16.8071 189.331 17.2509C197.19 17.6947 204.406 21.1725 209.649 27.0425C214.891 32.9146 217.535 40.475 217.092 48.3347C216.648 56.1944 213.17 63.4102 207.3 68.6528C201.853 73.5176 194.951 76.143 187.706 76.1451V76.143ZM187.632 18.3675C180.674 18.3675 174.045 20.8897 168.815 25.5626C163.176 30.5988 159.836 37.5297 159.409 45.0777C158.984 52.6258 161.522 59.889 166.559 65.5279C171.595 71.1667 178.526 74.5063 186.074 74.9335C193.618 75.3587 200.885 72.82 206.524 67.7838C212.163 62.7477 215.502 55.8167 215.93 48.2687C216.355 40.7206 213.816 33.4574 208.78 27.8186C203.744 22.1797 196.813 18.8402 189.265 18.4129C188.72 18.382 188.175 18.3675 187.634 18.3675H187.632Z" fill="black"/>
<path d="M206.128 65.1314C216.322 54.9373 216.322 38.4096 206.128 28.2156C195.934 18.0216 179.406 18.0216 169.212 28.2156C159.018 38.4096 159.018 54.9373 169.212 65.1314C179.406 75.3254 195.934 75.3254 206.128 65.1314Z" fill="white"/>
<path d="M203.997 63.0005C213.014 53.9833 213.014 39.3636 203.997 30.3464C194.98 21.3292 180.36 21.3292 171.343 30.3464C162.326 39.3636 162.326 53.9833 171.343 63.0005C180.36 72.0177 194.98 72.0177 203.997 63.0005Z" fill="white"/>
<path d="M187.7 71.078C187.234 71.078 186.765 71.0656 186.293 71.0387C179.785 70.6714 173.809 67.7921 169.467 62.9293C165.124 58.0686 162.936 51.8064 163.304 45.2986C163.322 44.9766 163.593 44.7331 163.919 44.7496C164.241 44.7682 164.486 45.0427 164.468 45.3647C164.119 51.5608 166.202 57.5237 170.338 62.1532C174.472 66.7828 180.162 69.5258 186.361 69.8747C192.551 70.2235 198.52 68.1409 203.149 64.0046C207.779 59.8704 210.52 54.18 210.871 47.9818C211.219 41.7836 209.137 35.8228 205.001 31.1932C200.866 26.5637 195.176 23.8227 188.978 23.4718C181.252 23.0342 173.849 26.4543 169.161 32.6153C168.965 32.8713 168.6 32.9208 168.344 32.7268C168.088 32.5328 168.039 32.1654 168.233 31.9094C173.155 25.4409 180.936 21.8516 189.042 22.3077C195.55 22.6751 201.525 25.5544 205.868 30.4172C210.21 35.2779 212.398 41.5401 212.031 48.0479C211.663 54.5556 208.784 60.5309 203.921 64.8736C199.411 68.9025 193.696 71.0759 187.696 71.078H187.7Z" fill="black"/>
<path d="M186.484 60.5103L186.305 57.3111C184.043 57.3379 181.822 56.8549 180.499 56.1862L181.287 52.1903C182.745 52.8838 184.771 53.4803 186.959 53.3564C188.879 53.2491 190.15 52.4338 190.074 51.086C190.002 49.8064 188.879 49.0592 186.34 48.3595C182.67 47.3502 180.117 45.8063 179.931 42.5411C179.764 39.5792 181.721 37.1375 185.283 36.2273L185.104 33.0281L188.402 32.8423L188.569 35.8042C190.831 35.7774 192.373 36.1633 193.514 36.6401L192.753 40.4998C191.857 40.1799 190.264 39.4926 187.841 39.6288C185.653 39.7526 184.998 40.7351 185.052 41.6783C185.114 42.7888 186.334 43.4307 189.256 44.345C193.343 45.5318 195.062 47.2924 195.234 50.3224C195.403 53.3193 193.426 55.9963 189.593 56.8879L189.787 60.3224L186.487 60.5082L186.484 60.5103Z" fill="black"/>
<path d="M105.376 181.894C116.351 170.919 116.351 153.125 105.376 142.15C94.4013 131.174 76.6072 131.174 65.6322 142.15C54.6571 153.125 54.6571 170.919 65.6322 181.894C76.6072 192.869 94.4013 192.869 105.376 181.894Z" fill="white"/>
<path d="M85.5528 190.703C75.658 190.703 66.0212 185.589 60.7022 176.435C52.7538 162.759 57.4164 145.167 71.0924 137.219C77.7158 133.369 85.4434 132.329 92.8511 134.292C100.257 136.255 106.457 140.984 110.306 147.609C118.255 161.285 113.592 178.877 99.9162 186.825C95.394 189.452 90.4404 190.703 85.5528 190.703ZM85.4599 134.49C80.6653 134.49 75.9346 135.753 71.6786 138.228C58.5577 145.853 54.0871 162.73 61.7115 175.851C69.336 188.972 86.2112 193.442 99.3341 185.818C112.455 178.193 116.926 161.316 109.301 148.195C105.609 141.84 99.6603 137.301 92.5539 135.419C90.2071 134.798 87.8253 134.49 85.4599 134.49Z" fill="black"/>
<path d="M80.7109 179.291L102.751 166.484C104.418 165.515 104.984 163.377 104.015 161.71L95.4448 146.96C94.4757 145.292 92.3383 144.726 90.6707 145.695L68.631 158.502C66.9634 159.471 66.397 161.608 67.3661 163.276L75.9368 178.026C76.9058 179.693 79.0432 180.26 80.7109 179.291Z" fill="white"/>
<path d="M79.3133 179.995C77.5755 179.995 75.883 179.097 74.95 177.49L67.3463 164.402C66.6693 163.238 66.4876 161.882 66.8323 160.581C67.177 159.281 68.0068 158.193 69.1708 157.516L89.5487 145.675C91.9512 144.28 95.039 145.097 96.4342 147.5L104.038 160.587C104.715 161.752 104.897 163.108 104.552 164.408C104.207 165.708 103.378 166.796 102.213 167.473L81.8376 179.314C81.043 179.776 80.174 179.995 79.3154 179.995H79.3133ZM92.0709 146.16C91.4104 146.16 90.7438 146.329 90.1328 146.684L69.755 158.526C68.8612 159.046 68.2235 159.882 67.9593 160.881C67.6951 161.88 67.8354 162.922 68.3535 163.818L75.9573 176.905C76.4774 177.799 77.3133 178.437 78.3123 178.703C79.3133 178.967 80.3557 178.827 81.2494 178.309L101.625 166.468C102.519 165.948 103.157 165.112 103.421 164.113C103.687 163.114 103.545 162.071 103.027 161.178L95.4229 148.09C94.7046 146.856 93.4043 146.164 92.0689 146.164L92.0709 146.16Z" fill="black"/>
<path d="M86.1183 164.065C86.0316 164.065 85.9429 164.045 85.8583 164.003C85.5693 163.859 85.4537 163.51 85.5982 163.221L91.1793 152.069C91.3237 151.782 91.6726 151.665 91.9615 151.809C92.2505 151.954 92.3661 152.303 92.2216 152.592L86.6405 163.743C86.5373 163.948 86.333 164.065 86.1183 164.065Z" fill="black"/>
<path d="M86.0564 164.1C86.0461 164.1 86.0358 164.1 86.0255 164.1L73.5734 163.428C73.2514 163.411 73.0058 163.137 73.0223 162.815C73.0408 162.493 73.3236 162.247 73.6353 162.263L86.0874 162.936C86.4094 162.953 86.655 163.227 86.6385 163.549C86.622 163.861 86.364 164.1 86.0564 164.1Z" fill="black"/>
<path d="M124.393 101.247C134.944 90.6968 134.944 73.5914 124.393 63.0411C113.843 52.4908 96.7377 52.4908 86.1874 63.0411C75.6371 73.5914 75.6371 90.6968 86.1874 101.247C96.7377 111.797 113.843 111.797 124.393 101.247Z" fill="white"/>
<path d="M105.347 109.753C103.386 109.753 101.413 109.543 99.4497 109.12C92.2443 107.559 86.0791 103.287 82.0873 97.0885C78.0956 90.8903 76.756 83.5094 78.3164 76.304C79.8768 69.0986 84.1493 62.9334 90.3475 58.9416C96.5457 54.9499 103.929 53.6103 111.132 55.1707C118.337 56.7311 124.503 61.0036 128.494 67.2018C136.734 79.9965 133.029 97.1091 120.234 105.349C115.724 108.253 110.585 109.753 105.347 109.753ZM105.237 55.7032C100.218 55.7032 95.299 57.1398 90.977 59.922C85.0409 63.7446 80.9501 69.6497 79.4557 76.5517C77.9614 83.4516 79.2431 90.5208 83.0677 96.4569C86.8903 102.393 92.7954 106.486 99.6974 107.978C106.597 109.472 113.667 108.191 119.605 104.366C131.859 96.4755 135.407 80.0853 127.516 67.8313C123.693 61.8952 117.788 57.8023 110.886 56.31C109.008 55.9034 107.115 55.7032 105.239 55.7032H105.237Z" fill="black"/>
<path d="M108.721 96.8409C109.532 94.9273 108.637 92.7192 106.724 91.9089C104.81 91.0986 102.602 91.993 101.792 93.9066C100.981 95.8201 101.876 98.0283 103.789 98.8386C105.703 99.6489 107.911 98.7545 108.721 96.8409Z" fill="black"/>
<path d="M111.918 90.6261C112.401 90.6199 112.878 90.4115 113.21 90.011C113.813 89.2866 113.714 88.2092 112.99 87.6065C110.626 85.6395 107.949 84.6178 105.254 84.6508C102.556 84.6839 99.9079 85.7736 97.5942 87.7984C96.8842 88.4197 96.8119 89.4971 97.4332 90.2071C98.0544 90.9171 99.1319 90.9894 99.8419 90.3681C101.561 88.8635 103.396 88.0895 105.295 88.0647C107.194 88.0399 109.049 88.7685 110.806 90.2298C111.13 90.5002 111.526 90.6302 111.918 90.624V90.6261Z" fill="black"/>
<path d="M94.7087 84.6859C95.0988 84.6818 95.4869 84.5435 95.8047 84.269C98.7438 81.722 101.906 80.4093 105.2 80.368C108.494 80.3267 111.687 81.559 114.69 84.0316C115.419 84.6302 116.494 84.527 117.093 83.7984C117.691 83.0698 117.588 81.9945 116.86 81.3959C113.268 78.4382 109.221 76.9026 105.157 76.9542C101.091 77.0058 97.0844 78.6425 93.5673 81.689C92.8553 82.3061 92.7768 83.3856 93.394 84.0977C93.7366 84.494 94.2216 84.6921 94.7067 84.688L94.7087 84.6859Z" fill="black"/>
<path d="M90.6777 78.5785C91.0719 78.5744 91.4662 78.432 91.784 78.1513C95.9409 74.4856 100.422 72.5971 105.101 72.5372C109.78 72.4794 114.306 74.2545 118.554 77.8149C119.277 78.4217 120.354 78.3267 120.959 77.6043C121.565 76.8819 121.471 75.8045 120.748 75.1998C118.383 73.2163 115.877 71.693 113.299 70.6734C110.614 69.6105 107.842 69.0883 105.058 69.1234C102.275 69.1584 99.5158 69.7488 96.8573 70.8778C94.3062 71.9614 91.8398 73.5465 89.5239 75.5899C88.816 76.2132 88.7499 77.2927 89.3733 78.0006C89.7159 78.3887 90.1947 78.5847 90.6757 78.5785H90.6777Z" fill="black"/>
<path d="M105.371 340.418C105.109 340.418 104.849 340.416 104.587 340.409C104.265 340.403 104.009 340.137 104.015 339.815C104.021 339.497 104.282 339.243 104.597 339.243C104.601 339.243 104.604 339.243 104.608 339.243C106.859 339.284 109.175 339.14 111.491 338.816C111.809 338.771 112.104 338.993 112.149 339.311C112.195 339.629 111.972 339.924 111.652 339.97C109.545 340.265 107.431 340.416 105.371 340.416V340.418ZM97.654 339.668C97.6169 339.668 97.5777 339.664 97.5384 339.656C95.1504 339.173 92.8697 338.461 90.7561 337.536C90.461 337.406 90.3268 337.064 90.4569 336.768C90.5848 336.473 90.9274 336.339 91.2247 336.469C93.2618 337.361 95.4641 338.048 97.7717 338.515C98.0875 338.579 98.2918 338.886 98.2278 339.202C98.1721 339.478 97.9285 339.67 97.6561 339.67L97.654 339.668ZM118.405 338.504C118.154 338.504 117.92 338.339 117.846 338.085C117.755 337.776 117.933 337.452 118.242 337.363C120.447 336.719 122.626 335.912 124.719 334.962C125.012 334.83 125.357 334.96 125.491 335.253C125.623 335.547 125.493 335.891 125.2 336.025C123.058 336.995 120.824 337.821 118.569 338.482C118.515 338.498 118.459 338.504 118.405 338.504ZM84.9852 334.04C84.8614 334.04 84.7354 334.001 84.6281 333.918C82.7416 332.455 81.0595 330.75 79.625 328.849C79.431 328.593 79.4826 328.226 79.7385 328.032C79.9965 327.838 80.3598 327.889 80.5558 328.145C81.9284 329.963 83.5383 331.596 85.3443 332.995C85.5982 333.194 85.6457 333.559 85.4475 333.813C85.3319 333.961 85.1606 334.038 84.9873 334.038L84.9852 334.04ZM131.107 332.748C130.915 332.748 130.728 332.653 130.616 332.479C130.443 332.209 130.521 331.848 130.794 331.674C132.754 330.422 134.61 329.026 136.311 327.532C136.55 327.319 136.92 327.342 137.134 327.584C137.347 327.825 137.324 328.195 137.081 328.407C135.336 329.943 133.431 331.371 131.421 332.657C131.324 332.719 131.215 332.75 131.107 332.75V332.748ZM141.603 323.575C141.464 323.575 141.326 323.526 141.215 323.427C140.975 323.212 140.953 322.845 141.167 322.603C142.686 320.898 144.164 319.088 145.562 317.226C145.756 316.968 146.121 316.917 146.379 317.111C146.637 317.305 146.688 317.67 146.494 317.926C145.076 319.815 143.576 321.65 142.038 323.379C141.923 323.509 141.764 323.575 141.603 323.575ZM76.6281 323.028C76.401 323.028 76.1843 322.894 76.0914 322.671C75.206 320.566 74.5228 318.279 74.0584 315.87C73.9985 315.555 74.2049 315.249 74.5207 315.187C74.8386 315.125 75.142 315.334 75.2039 315.65C75.6518 317.978 76.3123 320.188 77.1668 322.219C77.2906 322.517 77.1523 322.857 76.8551 322.983C76.7808 323.014 76.7044 323.028 76.6281 323.028ZM73.8912 309.4C73.5775 309.4 73.3174 309.15 73.3091 308.832C73.2988 308.446 73.2947 308.064 73.2926 307.687C73.2926 305.66 73.4433 303.666 73.7385 301.759C73.788 301.441 74.0852 301.222 74.4031 301.272C74.7209 301.321 74.9397 301.619 74.8902 301.936C74.6033 303.784 74.4588 305.718 74.4588 307.685C74.4588 308.054 74.465 308.426 74.4753 308.801C74.4836 309.123 74.2297 309.392 73.9077 309.4C73.9015 309.4 73.8974 309.4 73.8912 309.4ZM76.0935 295.685C76.0233 295.685 75.9531 295.672 75.885 295.645C75.5837 295.53 75.4351 295.193 75.5506 294.892C76.4093 292.652 77.5218 290.533 78.851 288.593C79.0347 288.326 79.3959 288.258 79.6621 288.442C79.9284 288.624 79.9944 288.987 79.8128 289.253C78.5331 291.119 77.466 293.156 76.6384 295.311C76.5496 295.542 76.3288 295.685 76.0935 295.685ZM83.9367 284.264C83.7757 284.264 83.6168 284.198 83.5032 284.07C83.2886 283.831 83.3092 283.461 83.5486 283.247C85.2989 281.678 87.2535 280.299 89.3567 279.148C89.6395 278.993 89.9925 279.096 90.1473 279.379C90.3021 279.662 90.1989 280.015 89.9161 280.169C87.8892 281.28 86.0089 282.607 84.3247 284.116C84.2133 284.215 84.075 284.264 83.9367 284.264ZM129.256 283.777C129.136 283.777 129.014 283.74 128.911 283.664C127.056 282.297 125.078 281.092 123.035 280.079C122.746 279.936 122.628 279.585 122.771 279.298C122.913 279.009 123.262 278.892 123.551 279.034C125.656 280.077 127.691 281.317 129.603 282.725C129.863 282.915 129.918 283.28 129.727 283.54C129.613 283.695 129.435 283.777 129.256 283.777ZM116.783 277.612C116.73 277.612 116.676 277.604 116.622 277.589C114.412 276.952 112.139 276.516 109.869 276.291C109.549 276.26 109.314 275.975 109.347 275.653C109.378 275.333 109.658 275.098 109.984 275.131C112.327 275.362 114.67 275.812 116.948 276.469C117.258 276.557 117.435 276.881 117.347 277.191C117.272 277.447 117.039 277.612 116.787 277.612H116.783ZM96.0813 277.569C95.8294 277.569 95.5983 277.406 95.5219 277.152C95.4311 276.842 95.6065 276.518 95.9161 276.427C98.1618 275.761 100.506 275.315 102.888 275.1C103.206 275.069 103.493 275.307 103.522 275.629C103.551 275.951 103.314 276.233 102.994 276.262C100.688 276.471 98.4198 276.902 96.2464 277.546C96.1906 277.563 96.1349 277.571 96.0813 277.571V277.569Z" fill="black"/>
<path d="M156.187 300.952C156.109 300.952 156.026 300.935 155.95 300.9C155.657 300.768 155.524 300.423 155.654 300.13C156.587 298.04 157.45 295.868 158.218 293.678C158.323 293.375 158.658 293.214 158.961 293.321C159.264 293.429 159.423 293.761 159.318 294.064C158.54 296.283 157.665 298.485 156.719 300.605C156.622 300.822 156.41 300.95 156.187 300.95V300.952ZM160.819 287.773C160.769 287.773 160.72 287.767 160.668 287.755C160.356 287.672 160.171 287.354 160.253 287.043C160.835 284.84 161.347 282.557 161.776 280.262C161.834 279.947 162.135 279.736 162.457 279.796C162.773 279.856 162.982 280.159 162.924 280.475C162.49 282.799 161.97 285.109 161.382 287.34C161.314 287.602 161.077 287.773 160.819 287.773ZM163.399 274.035C163.376 274.035 163.353 274.035 163.33 274.031C163.011 273.994 162.781 273.703 162.819 273.385C163.083 271.129 163.283 268.797 163.413 266.452C163.432 266.13 163.714 265.887 164.026 265.903C164.348 265.922 164.594 266.196 164.575 266.518C164.445 268.886 164.243 271.243 163.974 273.523C163.939 273.821 163.688 274.037 163.397 274.037L163.399 274.035ZM164.183 260.074C163.861 260.074 163.601 259.814 163.601 259.492C163.601 257.222 163.539 254.879 163.423 252.528C163.407 252.206 163.655 251.934 163.977 251.917C164.299 251.905 164.571 252.149 164.587 252.471C164.705 254.84 164.765 257.201 164.767 259.492C164.767 259.814 164.507 260.074 164.185 260.076L164.183 260.074ZM163.5 246.105C163.203 246.105 162.949 245.878 162.92 245.577C162.707 243.323 162.441 240.993 162.129 238.65C162.086 238.33 162.311 238.037 162.631 237.996C162.951 237.952 163.242 238.177 163.285 238.497C163.599 240.856 163.867 243.201 164.08 245.469C164.111 245.789 163.875 246.074 163.553 246.105C163.535 246.105 163.516 246.107 163.498 246.107L163.5 246.105ZM161.661 232.239C161.382 232.239 161.134 232.037 161.087 231.752C160.713 229.529 160.29 227.222 159.826 224.889C159.762 224.574 159.968 224.266 160.284 224.204C160.604 224.14 160.907 224.346 160.969 224.662C161.436 227.005 161.861 229.325 162.237 231.558C162.29 231.876 162.076 232.177 161.758 232.229C161.725 232.235 161.692 232.237 161.661 232.237V232.239ZM158.944 218.518C158.678 218.518 158.437 218.334 158.377 218.062C157.888 215.884 157.347 213.597 156.769 211.267C156.691 210.955 156.883 210.637 157.194 210.561C157.504 210.485 157.822 210.675 157.9 210.986C158.478 213.325 159.021 215.618 159.512 217.804C159.582 218.117 159.386 218.429 159.072 218.501C159.029 218.512 158.986 218.516 158.944 218.516V218.518Z" fill="black"/>
<path d="M145.611 181.764C145.392 181.764 145.184 181.64 145.083 181.43C144.131 179.415 143.07 177.324 141.931 175.219C141.778 174.936 141.883 174.581 142.166 174.429C142.449 174.276 142.804 174.381 142.957 174.664C144.104 176.79 145.176 178.897 146.137 180.93C146.274 181.221 146.15 181.568 145.859 181.706C145.778 181.743 145.694 181.762 145.609 181.762L145.611 181.764ZM138.979 169.446C138.781 169.446 138.587 169.345 138.48 169.163C137.314 167.219 136.071 165.229 134.781 163.248C134.606 162.978 134.682 162.616 134.951 162.441C135.221 162.265 135.582 162.342 135.758 162.612C137.056 164.604 138.307 166.606 139.479 168.563C139.644 168.839 139.555 169.196 139.279 169.362C139.184 169.417 139.083 169.444 138.979 169.444V169.446ZM131.353 157.714C131.169 157.714 130.988 157.628 130.874 157.465C129.566 155.595 128.189 153.69 126.783 151.805C126.591 151.547 126.643 151.182 126.903 150.99C127.159 150.798 127.526 150.849 127.718 151.11C129.132 153.004 130.515 154.918 131.83 156.798C132.013 157.062 131.949 157.425 131.685 157.609C131.584 157.679 131.466 157.714 131.351 157.714H131.353ZM122.985 146.492C122.812 146.492 122.643 146.416 122.527 146.272C121.097 144.466 119.615 142.643 118.123 140.86C117.916 140.612 117.949 140.245 118.195 140.038C118.441 139.832 118.81 139.865 119.016 140.111C120.517 141.902 122.007 143.733 123.442 145.547C123.642 145.799 123.598 146.166 123.347 146.366C123.239 146.451 123.111 146.492 122.985 146.492ZM114.003 135.766C113.842 135.766 113.681 135.7 113.565 135.57C112.015 133.819 110.434 132.084 108.864 130.41C108.643 130.174 108.655 129.807 108.89 129.586C109.126 129.365 109.495 129.378 109.714 129.613C111.291 131.293 112.882 133.037 114.438 134.798C114.651 135.039 114.628 135.407 114.389 135.621C114.277 135.72 114.139 135.768 114.003 135.768V135.766ZM104.422 125.565C104.273 125.565 104.123 125.508 104.009 125.394C102.317 123.704 100.628 122.073 98.9874 120.55C98.7521 120.331 98.7376 119.962 98.9564 119.726C99.1752 119.491 99.5446 119.477 99.7799 119.695C101.431 121.229 103.13 122.868 104.831 124.571C105.058 124.798 105.058 125.167 104.831 125.394C104.717 125.508 104.568 125.565 104.418 125.565H104.422Z" fill="black"/>
<path d="M107.21 284.248H103.068L102.073 288.661C101.113 288.832 100.18 289.08 99.2846 289.404L96.2196 286.083L92.6323 288.153L93.9781 292.475C93.2433 293.096 92.5621 293.779 91.9388 294.514L87.6189 293.168L85.5487 296.756L88.8696 299.821C88.5477 300.719 88.3 301.652 88.1266 302.609L83.7138 303.604V307.747L88.1266 308.741C88.2979 309.701 88.5456 310.632 88.8696 311.53L85.5487 314.595L87.6189 318.182L91.9409 316.836C92.5621 317.571 93.2453 318.252 93.9781 318.876L92.6323 323.196L96.2196 325.268L99.2846 321.947C100.182 322.269 101.115 322.517 102.073 322.69L103.068 327.103H107.21L108.205 322.69C109.165 322.519 110.098 322.271 110.994 321.947L114.059 325.268L117.646 323.196L116.3 318.874C117.035 318.252 117.716 317.569 118.339 316.836L122.659 318.182L124.732 314.595L121.411 311.53C121.733 310.632 121.98 309.699 122.154 308.741L126.567 307.747V303.604L122.154 302.609C121.982 301.649 121.735 300.717 121.411 299.821L124.732 296.756L122.659 293.168L118.339 294.514C117.718 293.779 117.035 293.098 116.3 292.475L117.646 288.153L114.059 286.083L110.994 289.404C110.096 289.082 109.163 288.834 108.205 288.661L107.21 284.248ZM115.803 305.678C115.803 311.567 111.029 316.343 105.138 316.343C99.2495 316.343 94.4734 311.569 94.4734 305.678C94.4734 299.79 99.2474 295.014 105.138 295.014C111.027 295.014 115.803 299.788 115.803 305.678Z" fill="white"/>
<path d="M107.208 327.691H103.066C102.793 327.691 102.556 327.503 102.496 327.237L101.586 323.196C100.855 323.049 100.141 322.859 99.4497 322.628L96.6427 325.668C96.4569 325.868 96.1576 325.914 95.9223 325.778L92.3351 323.705C92.0998 323.569 91.9883 323.288 92.0688 323.028L93.3011 319.072C92.75 318.585 92.2278 318.062 91.7427 317.513L87.786 318.746C87.528 318.826 87.2453 318.717 87.1091 318.481L85.0389 314.894C84.9026 314.659 84.948 314.36 85.1483 314.174L88.1885 311.367C87.9574 310.675 87.7675 309.959 87.6209 309.233L83.5817 308.322C83.3154 308.263 83.1276 308.027 83.1276 307.753V303.61C83.1276 303.338 83.3175 303.103 83.5817 303.041L87.6209 302.13C87.7675 301.402 87.9574 300.688 88.1885 299.996L85.1483 297.189C84.948 297.005 84.9026 296.706 85.0389 296.469L87.1091 292.882C87.2453 292.646 87.528 292.535 87.786 292.617L91.7427 293.85C92.2298 293.301 92.752 292.776 93.3011 292.291L92.0688 288.335C91.9883 288.075 92.0977 287.792 92.3351 287.658L95.9223 285.585C96.1576 285.449 96.4569 285.495 96.6427 285.695L99.4497 288.735C100.141 288.504 100.855 288.314 101.586 288.167L102.496 284.126C102.556 283.86 102.791 283.672 103.066 283.672H107.208C107.481 283.672 107.718 283.86 107.778 284.126L108.69 288.167C109.419 288.314 110.135 288.504 110.824 288.735L113.631 285.695C113.817 285.495 114.116 285.449 114.352 285.585L117.939 287.658C118.174 287.794 118.286 288.075 118.205 288.335L116.973 292.291C117.522 292.776 118.044 293.301 118.533 293.852L122.49 292.619C122.748 292.539 123.031 292.648 123.167 292.884L125.239 296.471C125.376 296.706 125.33 297.005 125.13 297.191L122.09 299.998C122.321 300.69 122.511 301.404 122.657 302.132L126.699 303.045C126.965 303.105 127.153 303.34 127.153 303.614V307.757C127.153 308.029 126.963 308.265 126.699 308.326L122.657 309.239C122.511 309.967 122.321 310.684 122.09 311.373L125.13 314.18C125.33 314.366 125.376 314.663 125.239 314.9L123.167 318.488C123.031 318.723 122.746 318.832 122.49 318.752L118.533 317.52C118.046 318.071 117.522 318.593 116.973 319.078L118.205 323.035C118.286 323.295 118.176 323.577 117.939 323.712L114.352 325.784C114.116 325.92 113.817 325.875 113.631 325.674L110.824 322.634C110.133 322.865 109.419 323.055 108.69 323.202L107.778 327.243C107.718 327.509 107.483 327.697 107.208 327.697V327.691ZM103.532 326.525H106.742L107.636 322.566C107.687 322.337 107.871 322.162 108.102 322.12C109.031 321.955 109.937 321.714 110.796 321.404C111.016 321.326 111.262 321.385 111.421 321.557L114.17 324.535L116.95 322.929L115.743 319.053C115.673 318.83 115.743 318.587 115.922 318.434C116.628 317.837 117.291 317.173 117.894 316.465C118.044 316.285 118.29 316.215 118.511 316.285L122.387 317.491L123.993 314.71L121.014 311.961C120.843 311.802 120.781 311.557 120.862 311.336C121.171 310.475 121.413 309.569 121.58 308.64C121.621 308.409 121.797 308.225 122.026 308.174L125.984 307.28V304.071L122.026 303.177C121.797 303.125 121.621 302.942 121.58 302.71C121.413 301.784 121.173 300.875 120.862 300.017C120.783 299.796 120.843 299.55 121.014 299.391L123.993 296.642L122.387 293.862L118.511 295.069C118.288 295.14 118.044 295.069 117.894 294.89C117.293 294.18 116.63 293.517 115.922 292.921C115.743 292.77 115.673 292.527 115.743 292.302L116.95 288.425L114.17 286.82L111.421 289.798C111.262 289.969 111.018 290.031 110.796 289.951C109.935 289.641 109.029 289.4 108.102 289.234C107.871 289.193 107.687 289.018 107.636 288.789L106.742 284.83H103.532L102.641 288.789C102.589 289.018 102.405 289.193 102.174 289.234C101.245 289.4 100.339 289.641 99.4807 289.951C99.2619 290.029 99.0142 289.969 98.8553 289.798L96.106 286.82L93.3258 288.425L94.5312 292.302C94.6014 292.525 94.5312 292.768 94.3516 292.919C93.6437 293.519 92.9811 294.182 92.3826 294.888C92.2319 295.067 91.9863 295.138 91.7634 295.067L87.8872 293.86L86.2835 296.64L89.2618 299.389C89.4331 299.548 89.495 299.794 89.4145 300.015C89.1049 300.875 88.8634 301.784 88.6983 302.708C88.657 302.939 88.4816 303.123 88.2525 303.175L84.2938 304.068V307.278L88.2525 308.172C88.4816 308.223 88.657 308.407 88.6983 308.638C88.8634 309.565 89.1049 310.471 89.4145 311.332C89.493 311.553 89.4331 311.798 89.2618 311.957L86.2835 314.706L87.8872 317.487L91.7634 316.281C91.9863 316.211 92.2298 316.281 92.3826 316.461C92.9811 317.169 93.6437 317.831 94.3516 318.43C94.5291 318.58 94.6014 318.824 94.5312 319.047L93.3258 322.923L96.106 324.529L98.8553 321.551C99.0142 321.379 99.2619 321.317 99.4807 321.398C100.339 321.707 101.247 321.949 102.176 322.114C102.407 322.155 102.591 322.331 102.643 322.56L103.534 326.519L103.532 326.525ZM105.138 316.925C98.9358 316.925 93.8914 311.881 93.8914 305.678C93.8914 299.476 98.9358 294.432 105.138 294.432C111.34 294.432 116.385 299.476 116.385 305.678C116.385 311.881 111.34 316.925 105.138 316.925ZM105.138 295.598C99.5797 295.598 95.0575 300.12 95.0575 305.678C95.0575 311.237 99.5797 315.759 105.138 315.759C110.696 315.759 115.219 311.237 115.219 305.678C115.219 300.12 110.696 295.598 105.138 295.598Z" fill="black"/>
<path d="M84.7871 209.43H77.6993L75.9965 216.982C74.3556 217.275 72.7601 217.7 71.2245 218.251L65.9799 212.569L59.8416 216.113L62.1429 223.506C60.8859 224.571 59.7198 225.738 58.6548 226.995L51.2615 224.693L47.7176 230.832L53.3998 236.076C52.8467 237.612 52.4235 239.207 52.1305 240.848L44.5783 242.551V249.639L52.1305 251.342C52.4235 252.982 52.8487 254.578 53.3998 256.113L47.7176 261.358L51.2615 267.496L58.6548 265.195C59.7198 266.452 60.8859 267.618 62.1429 268.683L59.8416 276.076L65.9799 279.62L71.2245 273.938C72.7601 274.491 74.3556 274.914 75.9965 275.208L77.6993 282.76H84.7871L86.4899 275.208C88.1307 274.914 89.7262 274.489 91.2618 273.938L96.5065 279.62L102.645 276.076L100.343 268.683C101.6 267.62 102.767 266.452 103.832 265.195L111.225 267.496L114.769 261.358L109.087 256.113C109.64 254.578 110.063 252.982 110.356 251.342L117.908 249.639V242.551L110.356 240.848C110.063 239.207 109.638 237.612 109.087 236.076L114.769 230.832L111.225 224.693L103.832 226.995C102.767 225.738 101.6 224.571 100.343 223.506L102.645 216.113L96.5065 212.569L91.2618 218.251C89.7262 217.698 88.1307 217.275 86.4899 216.982L84.7871 209.43ZM99.491 246.099C99.491 256.177 91.3217 264.347 81.2432 264.347C71.1647 264.347 62.9953 256.177 62.9953 246.099C62.9953 236.02 71.1647 227.851 81.2432 227.851C91.3217 227.851 99.491 236.02 99.491 246.099Z" fill="white"/>
<path d="M84.7871 283.352H77.6993C77.4268 283.352 77.1895 283.162 77.1296 282.898L75.5114 275.721C74.0997 275.451 72.7168 275.084 71.3896 274.626L66.4051 280.025C66.2214 280.225 65.92 280.271 65.6847 280.134L59.5464 276.59C59.3111 276.454 59.1996 276.174 59.2801 275.913L61.468 268.886C60.3988 267.957 59.3875 266.945 58.4587 265.876L51.4308 268.064C51.1707 268.145 50.89 268.035 50.7538 267.8L47.2099 261.662C47.0736 261.426 47.1191 261.127 47.3193 260.941L52.7187 255.957C52.2625 254.632 51.8931 253.249 51.6227 251.837L44.4462 250.219C44.1799 250.159 43.9921 249.924 43.9921 249.649V242.561C43.9921 242.289 44.182 242.054 44.4462 241.992L51.6227 240.373C51.8931 238.962 52.2605 237.579 52.7187 236.254L47.3193 231.269C47.1191 231.083 47.0736 230.786 47.2099 230.549L50.7538 224.41C50.89 224.175 51.1707 224.064 51.4308 224.146L58.4587 226.334C59.3875 225.265 60.3988 224.254 61.468 223.325L59.2801 216.297C59.1996 216.037 59.309 215.756 59.5464 215.62L65.6847 212.076C65.92 211.94 66.2193 211.985 66.4051 212.185L71.3896 217.585C72.7168 217.129 74.0997 216.759 75.5114 216.489L77.1296 209.312C77.1895 209.046 77.4248 208.858 77.6993 208.858H84.7871C85.0595 208.858 85.2969 209.046 85.3567 209.312L86.9749 216.489C88.3867 216.759 89.7696 217.127 91.0967 217.585L96.0813 212.185C96.267 211.985 96.5663 211.94 96.8016 212.076L102.94 215.62C103.175 215.756 103.287 216.037 103.206 216.297L101.018 223.325C102.09 224.256 103.099 225.265 104.028 226.334L111.056 224.146C111.314 224.066 111.598 224.175 111.733 224.41L115.276 230.549C115.413 230.784 115.367 231.083 115.167 231.269L109.768 236.254C110.224 237.581 110.593 238.964 110.864 240.373L118.04 241.992C118.306 242.051 118.494 242.287 118.494 242.561V249.649C118.494 249.922 118.304 250.157 118.04 250.219L110.864 251.837C110.593 253.249 110.226 254.632 109.768 255.957L115.167 260.941C115.367 261.127 115.413 261.424 115.276 261.662L111.733 267.8C111.596 268.035 111.312 268.147 111.056 268.064L104.028 265.876C103.097 266.947 102.088 267.957 101.018 268.886L103.206 275.913C103.287 276.174 103.177 276.456 102.94 276.59L96.8016 280.134C96.5663 280.271 96.267 280.225 96.0813 280.025L91.0967 274.626C89.7696 275.082 88.3867 275.451 86.9749 275.721L85.3567 282.898C85.2969 283.164 85.0616 283.352 84.7871 283.352ZM78.1657 282.186H84.3227L85.9243 275.088C85.9759 274.859 86.1596 274.683 86.3908 274.642C88.0007 274.353 89.5755 273.934 91.0678 273.397C91.2887 273.317 91.5343 273.379 91.6932 273.55L96.622 278.89L101.953 275.812L99.7903 268.863C99.7201 268.64 99.7903 268.396 99.9698 268.244C101.198 267.205 102.348 266.056 103.388 264.824C103.541 264.644 103.784 264.574 104.007 264.644L110.957 266.807L114.034 261.476L108.694 256.547C108.523 256.388 108.461 256.142 108.542 255.922C109.078 254.427 109.497 252.854 109.786 251.245C109.827 251.013 110.003 250.83 110.232 250.778L117.33 249.176V243.019L110.232 241.418C110.003 241.366 109.827 241.183 109.786 240.951C109.497 239.341 109.078 237.767 108.542 236.274C108.461 236.053 108.523 235.808 108.694 235.649L114.034 230.72L110.957 225.389L104.007 227.552C103.786 227.622 103.541 227.552 103.388 227.372C102.35 226.144 101.198 224.995 99.9678 223.952C99.7903 223.802 99.718 223.558 99.7882 223.335L101.951 216.386L96.62 213.308L91.6911 218.648C91.5322 218.819 91.2866 218.881 91.0657 218.8C89.5714 218.262 87.9986 217.845 86.3887 217.556C86.1576 217.515 85.9739 217.339 85.9223 217.11L84.3206 210.012H78.1637L76.562 217.11C76.5104 217.339 76.3267 217.515 76.0956 217.556C74.4856 217.845 72.9129 218.264 71.4185 218.8C71.1956 218.879 70.9521 218.819 70.7931 218.648L65.8643 213.308L60.533 216.386L62.6961 223.335C62.7662 223.558 62.6961 223.802 62.5165 223.952C61.2884 224.993 60.1367 226.142 59.0985 227.372C58.9478 227.552 58.7022 227.622 58.4793 227.552L51.5298 225.389L48.4524 230.72L53.792 235.649C53.9633 235.808 54.0252 236.053 53.9447 236.274C53.4081 237.769 52.9891 239.341 52.7001 240.951C52.6588 241.183 52.4834 241.366 52.2543 241.418L45.1562 243.019V249.176L52.2543 250.778C52.4834 250.83 52.6588 251.013 52.7001 251.245C52.9891 252.854 53.4081 254.429 53.9447 255.922C54.0252 256.142 53.9633 256.388 53.792 256.547L48.4524 261.476L51.5298 266.807L58.4793 264.644C58.7022 264.574 58.9458 264.644 59.0985 264.824C60.1388 266.054 61.2905 267.203 62.5165 268.244C62.694 268.394 62.7662 268.638 62.6961 268.861L60.533 275.81L65.8643 278.888L70.7931 273.548C70.9521 273.377 71.1956 273.315 71.4185 273.395C72.9129 273.932 74.4877 274.351 76.0956 274.64C76.3267 274.681 76.5104 274.857 76.562 275.086L78.1637 282.184L78.1657 282.186ZM81.2432 264.931C70.8592 264.931 62.4133 256.483 62.4133 246.101C62.4133 241.071 64.372 236.342 67.9283 232.786C71.4846 229.23 76.2132 227.271 81.2432 227.271C91.6272 227.271 100.073 235.719 100.073 246.101C100.073 256.483 91.6251 264.931 81.2432 264.931ZM81.2432 228.435C76.5249 228.435 72.0893 230.272 68.7518 233.61C65.4164 236.945 63.5774 241.383 63.5774 246.101C63.5774 255.841 71.5011 263.767 81.2432 263.767C90.9852 263.767 98.9089 255.843 98.9089 246.101C98.9089 236.359 90.9852 228.437 81.2432 228.437V228.435Z" fill="black"/>
<path d="M183.783 190.586H277.286C280.112 190.586 281.736 188.295 280.912 185.469L262.908 123.665C262.085 120.839 259.127 118.548 256.299 118.548H162.796C159.97 118.548 158.346 120.839 159.169 123.665L177.174 185.469C177.997 188.295 180.955 190.586 183.783 190.586Z" fill="white"/>
<path d="M277.286 191.17H183.783C180.72 191.17 177.504 188.685 176.614 185.632L158.61 123.828C158.148 122.24 158.358 120.748 159.203 119.623C160.005 118.554 161.283 117.966 162.798 117.966H256.301C259.364 117.966 262.58 120.451 263.47 123.504L281.474 185.308C281.936 186.895 281.726 188.387 280.882 189.512C280.079 190.581 278.803 191.172 277.288 191.172L277.286 191.17ZM162.796 119.13C161.657 119.13 160.711 119.553 160.133 120.323C159.514 121.146 159.372 122.275 159.729 123.502L177.733 185.306C178.486 187.896 181.201 190.004 183.781 190.004H277.284C278.423 190.004 279.369 189.58 279.947 188.811C280.566 187.987 280.708 186.858 280.351 185.632L262.347 123.828C261.593 121.237 258.879 119.13 256.299 119.13H162.796Z" fill="black"/>
<path d="M188.352 135.78H183.194C182.034 135.78 180.864 134.878 180.528 133.729L179.025 128.571C178.846 127.951 178.936 127.334 179.277 126.88C179.605 126.443 180.138 126.193 180.74 126.193H185.898C187.058 126.193 188.229 127.095 188.565 128.245L190.068 133.403C190.247 134.022 190.156 134.639 189.816 135.093C189.488 135.53 188.955 135.78 188.352 135.78ZM180.742 127.361C180.575 127.361 180.348 127.4 180.212 127.582C180.092 127.743 180.067 127.978 180.146 128.247L181.648 133.405C181.84 134.061 182.548 134.616 183.194 134.616H188.352C188.52 134.616 188.747 134.577 188.883 134.395C189.003 134.234 189.027 133.999 188.949 133.731L187.446 128.573C187.254 127.916 186.546 127.361 185.9 127.361H180.742Z" fill="black"/>
<path d="M177.589 135.78H172.431C171.271 135.78 170.1 134.878 169.764 133.729L168.261 128.571C168.082 127.951 168.173 127.334 168.513 126.88C168.841 126.443 169.374 126.193 169.977 126.193H175.135C176.294 126.193 177.465 127.095 177.801 128.245L179.304 133.403C179.483 134.022 179.393 134.639 179.052 135.093C178.724 135.53 178.191 135.78 177.589 135.78ZM169.977 127.361C169.809 127.361 169.582 127.4 169.446 127.582C169.326 127.743 169.302 127.978 169.38 128.247L170.883 133.405C171.075 134.061 171.783 134.616 172.429 134.616H177.587C177.754 134.616 177.981 134.577 178.117 134.395C178.237 134.234 178.261 133.999 178.183 133.731L176.68 128.573C176.488 127.916 175.781 127.361 175.135 127.361H169.977Z" fill="black"/>
<path d="M191.787 147.57H186.629C185.469 147.57 184.299 146.668 183.962 145.518L182.46 140.36C182.28 139.741 182.371 139.126 182.711 138.67C183.04 138.232 183.572 137.983 184.175 137.983H189.333C190.493 137.983 191.663 138.885 191.999 140.034L193.502 145.192C193.682 145.811 193.591 146.428 193.25 146.883C192.922 147.32 192.39 147.57 191.787 147.57ZM184.177 139.151C184.01 139.151 183.783 139.19 183.646 139.372C183.527 139.533 183.502 139.768 183.58 140.036L185.083 145.194C185.275 145.851 185.983 146.406 186.629 146.406H191.787C191.954 146.406 192.181 146.367 192.317 146.185C192.437 146.024 192.462 145.789 192.383 145.52L190.881 140.362C190.689 139.706 189.981 139.151 189.335 139.151H184.177Z" fill="black"/>
<path d="M181.023 147.57H175.865C174.705 147.57 173.535 146.668 173.198 145.518L171.696 140.36C171.516 139.741 171.607 139.124 171.948 138.67C172.276 138.232 172.808 137.983 173.411 137.983H178.569C179.729 137.983 180.899 138.885 181.236 140.034L182.738 145.192C182.918 145.811 182.827 146.428 182.486 146.883C182.158 147.32 181.626 147.57 181.023 147.57ZM173.411 139.151C173.244 139.151 173.017 139.19 172.881 139.372C172.761 139.533 172.736 139.768 172.815 140.036L174.317 145.194C174.509 145.851 175.217 146.406 175.863 146.406H181.021C181.188 146.406 181.415 146.367 181.551 146.185C181.671 146.024 181.696 145.789 181.618 145.52L180.115 140.362C179.923 139.706 179.215 139.151 178.569 139.151H173.411Z" fill="black"/>
<path d="M187.611 150.356H192.769C193.671 150.356 194.612 151.087 194.877 151.987L196.379 157.145C196.641 158.047 196.123 158.775 195.223 158.775H190.065C189.166 158.775 188.222 158.045 187.958 157.145L186.456 151.987C186.193 151.087 186.711 150.356 187.611 150.356Z" fill="white"/>
<path d="M176.846 150.356H182.003C182.903 150.356 183.847 151.087 184.111 151.987L185.613 157.145C185.876 158.047 185.357 158.775 184.458 158.775H179.3C178.4 158.775 177.456 158.045 177.192 157.145L175.69 151.987C175.428 151.087 175.946 150.356 176.846 150.356Z" fill="white"/>
<path d="M191.046 162.146H196.204C197.106 162.146 198.047 162.876 198.311 163.776L199.814 168.934C200.076 169.834 199.558 170.565 198.658 170.565H193.5C192.6 170.565 191.657 169.834 191.393 168.934L189.89 163.776C189.628 162.874 190.146 162.146 191.046 162.146Z" fill="white"/>
<path d="M180.28 162.146H185.438C186.338 162.146 187.281 162.876 187.545 163.776L189.048 168.934C189.31 169.834 188.792 170.565 187.892 170.565H182.734C181.834 170.565 180.891 169.834 180.627 168.934L179.124 163.776C178.862 162.874 179.38 162.146 180.28 162.146Z" fill="white"/>
<path d="M194.48 173.935H199.638C200.54 173.935 201.481 174.666 201.746 175.566L203.248 180.724C203.51 181.624 202.992 182.354 202.092 182.354H196.934C196.035 182.354 195.091 181.624 194.827 180.724L193.325 175.566C193.062 174.666 193.58 173.935 194.48 173.935Z" fill="white"/>
<path d="M183.715 173.935H188.872C189.772 173.935 190.716 174.666 190.98 175.566L192.482 180.724C192.745 181.624 192.226 182.354 191.327 182.354H186.169C185.269 182.354 184.325 181.624 184.061 180.724L182.559 175.566C182.297 174.666 182.815 173.935 183.715 173.935Z" fill="white"/>
<path d="M270.722 182.939H210.049C209.791 182.939 209.562 182.767 209.49 182.52L193.3 126.942C193.248 126.767 193.283 126.577 193.393 126.428C193.502 126.28 193.675 126.195 193.859 126.195H254.532C254.79 126.195 255.02 126.366 255.092 126.614L271.282 182.191C271.333 182.367 271.298 182.557 271.189 182.703C271.08 182.85 270.906 182.936 270.722 182.936V182.939ZM210.487 181.772H269.944L254.093 127.361H194.635L210.487 181.772Z" fill="black"/>
<path d="M260.027 168.123C259.903 168.123 259.777 168.084 259.67 168.001L246.231 157.58C245.195 156.777 243.934 156.416 242.77 156.587C241.847 156.724 241.059 157.194 240.551 157.91L237.102 162.763C236.648 163.403 235.95 163.822 235.141 163.941C234.194 164.082 233.172 163.797 232.349 163.157L216.916 151.19C215.88 150.387 214.621 150.024 213.455 150.197C212.532 150.333 211.744 150.804 211.236 151.518L210.32 152.808C210.132 153.07 209.768 153.132 209.506 152.947C209.244 152.761 209.182 152.395 209.368 152.133L210.284 150.843C210.98 149.865 212.045 149.227 213.283 149.043C214.759 148.825 216.342 149.273 217.628 150.27L233.061 162.237C233.634 162.682 234.33 162.883 234.968 162.788C235.317 162.736 235.804 162.573 236.148 162.086L239.597 157.231C240.291 156.253 241.358 155.615 242.596 155.432C244.072 155.213 245.657 155.661 246.941 156.658L260.38 167.079C260.634 167.277 260.681 167.642 260.483 167.896C260.367 168.045 260.196 168.121 260.023 168.121L260.027 168.123Z" fill="black"/>
<path d="M242.972 149.304C238.96 149.304 234.745 146.047 233.579 142.042C232.978 139.983 233.248 138.047 234.338 136.596C235.372 135.217 237.024 134.457 238.986 134.457C242.999 134.457 247.214 137.714 248.38 141.718C248.98 143.778 248.71 145.714 247.62 147.165C246.586 148.544 244.935 149.304 242.972 149.304ZM238.986 135.623C237.399 135.623 236.08 136.218 235.271 137.295C234.406 138.447 234.204 140.018 234.699 141.718C235.731 145.258 239.443 148.139 242.972 148.139C244.559 148.139 245.878 147.545 246.687 146.468C247.552 145.316 247.754 143.745 247.259 142.044C246.227 138.505 242.516 135.623 238.984 135.623H238.986Z" fill="black"/>
<path d="M147.006 143.865H219.919C222.619 143.865 225.445 146.053 226.231 148.752L240.516 197.791C241.302 200.491 239.752 202.679 237.052 202.679H164.14C161.44 202.679 158.614 200.491 157.828 197.791L143.543 148.752C142.757 146.053 144.307 143.865 147.006 143.865Z" fill="white"/>
<path d="M237.052 203.263H164.14C161.203 203.263 158.121 200.881 157.269 197.954L142.984 148.916C142.54 147.392 142.742 145.958 143.553 144.876C144.325 143.848 145.551 143.281 147.008 143.281H219.921C222.858 143.281 225.94 145.663 226.792 148.589L241.077 197.628C241.521 199.151 241.319 200.586 240.508 201.667C239.736 202.695 238.51 203.263 237.052 203.263ZM147.006 144.447C145.927 144.447 145.031 144.847 144.484 145.576C143.898 146.356 143.764 147.427 144.102 148.589L158.387 197.628C159.105 200.092 161.685 202.097 164.14 202.097H237.052C238.132 202.097 239.028 201.696 239.575 200.968C240.161 200.187 240.295 199.116 239.956 197.954L225.672 148.916C224.953 146.451 222.373 144.447 219.919 144.447H147.006Z" fill="black"/>
<path d="M226.776 199.783C226.524 199.783 226.291 199.618 226.216 199.364L211.11 147.506C211.019 147.196 211.197 146.872 211.506 146.783C211.814 146.693 212.138 146.872 212.229 147.18L227.335 199.038C227.426 199.347 227.248 199.671 226.939 199.76C226.885 199.777 226.829 199.783 226.776 199.783Z" fill="black"/>
<path d="M165.293 194.063H219.539C220.415 194.063 220.916 193.356 220.66 192.48L209.469 154.063C209.215 153.188 208.299 152.48 207.426 152.48H153.18C152.305 152.48 151.803 153.188 152.059 154.063L163.25 192.48C163.504 193.356 164.42 194.063 165.293 194.063Z" fill="black"/>
<path d="M227.575 177.717C225.164 177.717 222.726 175.836 222.027 173.434C221.669 172.21 221.841 171.007 222.497 170.133C223.131 169.289 224.134 168.825 225.325 168.825C227.736 168.825 230.173 170.705 230.873 173.108C231.23 174.332 231.059 175.535 230.404 176.408C229.771 177.252 228.768 177.717 227.577 177.717H227.575ZM223.145 173.108C223.698 175.007 225.686 176.55 227.575 176.55C228.39 176.55 229.063 176.251 229.469 175.708C229.909 175.122 230.008 174.315 229.752 173.434C229.199 171.535 227.211 169.991 225.323 169.991C224.51 169.991 223.837 170.29 223.428 170.833C222.988 171.419 222.887 172.226 223.145 173.108Z" fill="black"/>
<path d="M224.117 156.75C223.866 156.75 223.632 156.585 223.558 156.329L222.497 152.684C222.336 152.131 221.717 151.646 221.174 151.646H218.328C218.006 151.646 217.746 151.386 217.746 151.064C217.746 150.742 218.006 150.482 218.328 150.482H221.174C222.237 150.482 223.31 151.308 223.616 152.36L224.677 156.007C224.768 156.317 224.59 156.639 224.28 156.73C224.227 156.746 224.171 156.753 224.117 156.753V156.75Z" fill="black"/>
<path d="M225.399 166.154H222.553C221.49 166.154 220.417 165.328 220.111 164.276L217.797 156.329C217.707 156.02 217.884 155.698 218.194 155.607C218.503 155.516 218.827 155.696 218.916 156.003L221.23 163.95C221.391 164.503 222.01 164.988 222.553 164.988H225.399C225.533 164.988 225.717 164.957 225.824 164.815C225.919 164.687 225.938 164.497 225.874 164.276C225.783 163.966 225.961 163.642 226.27 163.553C226.58 163.463 226.904 163.642 226.993 163.95C227.16 164.521 227.073 165.093 226.757 165.514C226.452 165.921 225.956 166.154 225.399 166.154Z" fill="black"/>
<path d="M222.66 156.75H219.814C219.492 156.75 219.232 156.49 219.232 156.168C219.232 155.846 219.492 155.586 219.814 155.586H222.66C222.982 155.586 223.242 155.846 223.242 156.168C223.242 156.49 222.982 156.75 222.66 156.75Z" fill="black"/>
<path d="M223.459 159.494H220.613C220.291 159.494 220.031 159.233 220.031 158.911C220.031 158.59 220.291 158.329 220.613 158.329H223.459C223.781 158.329 224.041 158.59 224.041 158.911C224.041 159.233 223.781 159.494 223.459 159.494Z" fill="black"/>
<path d="M234.111 196.061H231.265C230.202 196.061 229.131 195.236 228.823 194.183L228.188 191.999C228.097 191.69 228.274 191.366 228.584 191.277C228.891 191.186 229.215 191.366 229.306 191.673L229.942 193.857C230.103 194.41 230.722 194.895 231.265 194.895H234.111C234.433 194.895 234.693 195.155 234.693 195.477C234.693 195.799 234.433 196.059 234.111 196.059V196.061Z" fill="black"/>
<path d="M234.349 191.872C234.097 191.872 233.864 191.706 233.789 191.453L231.207 182.594C231.046 182.041 230.427 181.556 229.884 181.556H227.038C226.904 181.556 226.72 181.587 226.613 181.729C226.518 181.857 226.499 182.047 226.563 182.268L227.067 183.993C227.158 184.303 226.98 184.627 226.671 184.716C226.361 184.806 226.037 184.627 225.948 184.319L225.445 182.594C225.277 182.022 225.364 181.45 225.68 181.029C225.985 180.623 226.481 180.389 227.038 180.389H229.884C230.947 180.389 232.018 181.215 232.326 182.268L234.906 191.126C234.997 191.436 234.819 191.76 234.51 191.849C234.456 191.865 234.4 191.872 234.347 191.872H234.349Z" fill="black"/>
<path d="M230.652 184.189H226.827C226.505 184.189 226.245 183.929 226.245 183.607C226.245 183.285 226.505 183.025 226.827 183.025H230.652C230.974 183.025 231.234 183.285 231.234 183.607C231.234 183.929 230.974 184.189 230.652 184.189Z" fill="black"/>
<path d="M231.692 187.756H227.868C227.546 187.756 227.286 187.496 227.286 187.174C227.286 186.852 227.546 186.592 227.868 186.592H231.692C232.014 186.592 232.274 186.852 232.274 187.174C232.274 187.496 232.014 187.756 231.692 187.756Z" fill="black"/>
<path d="M247.036 108.509H274.745C276.394 108.509 278.118 109.844 278.599 111.493L283.689 128.965C284.169 130.614 283.222 131.949 281.573 131.949H253.864C252.215 131.949 250.489 130.614 250.01 128.965L244.92 111.493C244.44 109.844 245.387 108.509 247.036 108.509Z" fill="white"/>
<path d="M281.573 132.534H253.864C251.944 132.534 250.006 131.039 249.451 129.13L244.361 111.658C244.074 110.672 244.215 109.7 244.745 108.992C245.259 108.304 246.074 107.927 247.036 107.927H274.745C276.663 107.927 278.603 109.421 279.158 111.33L284.248 128.802C284.535 129.788 284.394 130.761 283.864 131.469C283.35 132.154 282.537 132.534 281.573 132.534ZM247.036 109.091C246.45 109.091 245.967 109.303 245.678 109.689C245.364 110.106 245.294 110.69 245.48 111.33L250.57 128.802C250.974 130.193 252.483 131.365 253.864 131.365H281.573C282.159 131.365 282.642 131.153 282.931 130.767C283.245 130.348 283.315 129.766 283.129 129.126L278.039 111.654C277.635 110.265 276.126 109.091 274.745 109.091H247.036Z" fill="black"/>
<path d="M282.425 115.966C282.174 115.966 281.94 115.801 281.866 115.547L281.443 114.092C281.352 113.782 281.53 113.46 281.839 113.369C282.149 113.279 282.471 113.458 282.562 113.766L282.985 115.221C283.076 115.53 282.898 115.854 282.588 115.943C282.535 115.96 282.479 115.966 282.425 115.966Z" fill="black"/>
<path d="M248.105 113.761C247.853 113.761 247.62 113.596 247.546 113.34L246.27 108.961C245.983 107.974 246.124 107.002 246.654 106.294C247.168 105.607 247.981 105.229 248.945 105.229H276.654C278.572 105.229 280.512 106.723 281.067 108.632L281.975 111.753C282.066 112.063 281.889 112.387 281.579 112.476C281.27 112.566 280.945 112.387 280.857 112.079L279.949 108.959C279.544 107.569 278.035 106.395 276.654 106.395H248.945C248.359 106.395 247.876 106.608 247.587 106.994C247.273 107.411 247.203 107.995 247.391 108.635L248.667 113.014C248.757 113.324 248.58 113.648 248.27 113.737C248.217 113.753 248.161 113.759 248.107 113.759L248.105 113.761Z" fill="black"/>
<path d="M250.159 120.812C249.907 120.812 249.674 120.647 249.6 120.393L248.4 116.28C248.309 115.97 248.487 115.646 248.797 115.557C249.104 115.466 249.428 115.646 249.519 115.953L250.718 120.067C250.809 120.377 250.632 120.701 250.322 120.789C250.268 120.806 250.213 120.812 250.159 120.812Z" fill="black"/>
<path d="M213.884 186.711C213.735 186.711 213.585 186.654 213.471 186.54L187.256 160.325C187.029 160.098 187.029 159.729 187.256 159.502C187.483 159.275 187.853 159.275 188.08 159.502L214.295 185.717C214.522 185.944 214.522 186.313 214.295 186.54C214.181 186.654 214.033 186.711 213.882 186.711H213.884Z" fill="white"/>
<path d="M194.48 174.517C194.332 174.517 194.181 174.46 194.068 174.346L178.897 159.176C178.67 158.949 178.67 158.579 178.897 158.352C179.124 158.125 179.494 158.125 179.721 158.352L194.891 173.523C195.118 173.75 195.118 174.119 194.891 174.346C194.778 174.46 194.629 174.517 194.478 174.517H194.48Z" fill="white"/>
<path d="M303.266 141.669C303.022 141.669 302.793 141.514 302.712 141.27C300.066 133.32 291.453 126.851 283.515 126.851H273.802C265.399 126.851 256.293 120.026 253.498 111.636C253.397 111.33 253.562 111 253.868 110.899C254.173 110.798 254.504 110.963 254.605 111.268C257.251 119.219 265.864 125.687 273.802 125.687H283.515C291.918 125.687 301.026 132.513 303.819 140.903C303.92 141.209 303.755 141.539 303.449 141.64C303.387 141.661 303.325 141.671 303.266 141.671V141.669Z" fill="black"/>
<path d="M253.253 112.211C254.177 112.905 255.3 112.905 255.763 112.211C256.225 111.518 255.851 110.395 254.927 109.702C254.002 109.008 252.879 109.008 252.417 109.702C251.955 110.395 252.328 111.518 253.253 112.211Z" fill="white"/>
<path d="M254.677 113.316C254.083 113.316 253.455 113.093 252.902 112.678C251.717 111.788 251.29 110.339 251.932 109.378C252.196 108.981 252.619 108.715 253.123 108.63C253.818 108.511 254.605 108.732 255.278 109.235C256.462 110.125 256.89 111.574 256.248 112.535C255.983 112.932 255.56 113.198 255.057 113.283C254.933 113.303 254.805 113.314 254.677 113.314V113.316ZM253.505 109.764C253.441 109.764 253.381 109.768 253.321 109.778C253.131 109.811 252.991 109.894 252.904 110.024C252.652 110.401 252.879 111.2 253.606 111.745C254.016 112.053 254.491 112.199 254.863 112.133C255.053 112.1 255.193 112.017 255.28 111.887C255.531 111.51 255.304 110.711 254.578 110.166C254.231 109.906 253.843 109.761 253.505 109.761V109.764Z" fill="black"/>
<path d="M302.51 142.278C303.435 142.971 304.558 142.971 305.02 142.278C305.482 141.584 305.109 140.461 304.184 139.768C303.259 139.074 302.137 139.074 301.674 139.768C301.212 140.461 301.585 141.584 302.51 142.278Z" fill="white"/>
<path d="M303.934 143.382C303.34 143.382 302.712 143.159 302.159 142.744C300.975 141.855 300.547 140.406 301.189 139.444C301.453 139.048 301.877 138.781 302.38 138.697C303.076 138.577 303.862 138.798 304.533 139.301C305.72 140.191 306.145 141.64 305.505 142.602C305.241 142.998 304.818 143.264 304.314 143.349C304.19 143.37 304.062 143.38 303.934 143.38V143.382ZM302.76 139.83C302.696 139.83 302.636 139.834 302.576 139.844C302.386 139.877 302.246 139.96 302.159 140.09C301.907 140.468 302.135 141.266 302.859 141.809C303.27 142.117 303.742 142.263 304.116 142.197C304.306 142.164 304.446 142.082 304.533 141.952C304.785 141.574 304.558 140.775 303.831 140.23C303.484 139.97 303.096 139.826 302.758 139.826L302.76 139.83Z" fill="black"/>
<path d="M274.89 125.409L276.906 122.453C277.259 121.935 278.083 121.912 278.747 122.401L282.537 125.196C283.199 125.685 283.451 126.503 283.098 127.019L281.082 129.974C280.729 130.492 279.905 130.515 279.241 130.026L275.451 127.231C274.789 126.742 274.537 125.925 274.89 125.409Z" fill="white"/>
<path d="M280.24 130.963C279.783 130.963 279.307 130.8 278.896 130.496L275.108 127.702C274.182 127.019 273.876 125.867 274.411 125.08L276.427 122.125C276.656 121.788 277.016 121.565 277.443 121.493C277.986 121.4 278.59 121.561 279.096 121.935L282.884 124.73C283.81 125.413 284.116 126.564 283.581 127.351L281.565 130.307C281.336 130.643 280.976 130.866 280.551 130.938C280.45 130.955 280.347 130.963 280.242 130.963H280.24ZM275.373 125.737C275.22 125.96 275.371 126.447 275.8 126.763L279.587 129.557C279.835 129.741 280.122 129.828 280.353 129.786C280.467 129.768 280.549 129.72 280.599 129.646L282.615 126.69C282.768 126.467 282.617 125.98 282.188 125.665L278.401 122.87C278.153 122.686 277.868 122.602 277.635 122.641C277.521 122.659 277.439 122.707 277.387 122.781L275.371 125.737H275.373Z" fill="black"/>
<path d="M283.899 154.038H292.213C292.605 154.038 292.884 153.807 292.925 153.448L294.828 147.157C294.857 146.891 294.752 146.585 294.537 146.323L279.849 126.701C279.239 125.951 278.171 125.951 278.06 126.701L276.44 146.323C276.401 146.585 276.498 146.891 276.704 147.157L282.795 153.448C283.073 153.807 283.507 154.038 283.899 154.038ZM281.668 144.637C281.069 142.837 282.041 141.378 283.841 141.378C285.641 141.378 287.587 142.837 288.186 144.637C288.785 146.437 287.812 147.896 286.013 147.896C284.213 147.896 282.266 146.437 281.668 144.637Z" fill="white"/>
<path d="M292.215 154.623H283.901C283.338 154.623 282.747 154.321 282.357 153.834L276.285 147.564C276.271 147.549 276.256 147.533 276.244 147.516C275.938 147.124 275.8 146.658 275.864 146.239L277.48 126.653C277.558 126.117 277.893 125.741 278.378 125.607C279.03 125.429 279.804 125.718 280.304 126.331L295.005 145.974C295.303 146.338 295.455 146.8 295.41 147.221C295.406 147.256 295.398 147.291 295.389 147.326L293.501 153.574C293.404 154.195 292.884 154.623 292.217 154.623H292.215ZM277.146 146.777L283.214 153.044C283.228 153.058 283.243 153.075 283.255 153.091C283.422 153.306 283.686 153.456 283.899 153.456H292.213C292.337 153.456 292.341 153.417 292.345 153.384C292.349 153.349 292.357 153.314 292.366 153.279L294.248 147.056C294.244 146.969 294.2 146.833 294.083 146.691L279.381 127.05C279.152 126.767 278.832 126.69 278.683 126.732C278.644 126.742 278.642 126.746 278.636 126.787L277.02 146.373C277.005 146.482 277.032 146.622 277.146 146.779V146.777ZM286.013 148.478C283.949 148.478 281.798 146.87 281.115 144.821C280.76 143.751 280.871 142.697 281.424 141.931C281.953 141.198 282.811 140.794 283.841 140.794C285.905 140.794 288.056 142.402 288.739 144.451C289.094 145.52 288.983 146.575 288.43 147.341C287.901 148.073 287.043 148.478 286.011 148.478H286.013ZM282.221 144.451C282.737 146.001 284.473 147.312 286.013 147.312C286.659 147.312 287.181 147.081 287.484 146.66C287.821 146.193 287.872 145.541 287.633 144.821C287.117 143.271 285.381 141.96 283.841 141.96C283.195 141.96 282.673 142.191 282.37 142.612C282.033 143.079 281.982 143.731 282.221 144.451Z" fill="black"/>
<path d="M287.032 160.899H293.651C294.865 160.899 295.521 159.915 295.117 158.703L294.861 157.937C294.456 156.724 293.146 155.741 291.932 155.741H285.313C284.099 155.741 283.443 156.726 283.847 157.937L284.103 158.703C284.508 159.917 285.819 160.899 287.032 160.899Z" fill="black"/>
<path d="M282.964 139.326C282.721 139.326 282.493 139.173 282.413 138.93C279.734 131.051 278.471 127.005 278.624 126.792L279.098 127.13L279.67 127.033C279.775 127.499 282.029 134.179 283.515 138.554C283.618 138.86 283.455 139.19 283.152 139.293C283.09 139.314 283.026 139.324 282.964 139.324V139.326Z" fill="black"/>
</svg>
