<svg width="590" height="352" viewBox="0 0 590 352" fill="none" xmlns="http://www.w3.org/2000/svg">
<mask id="path-1-inside-1_1_522" fill="white">
<path fill-rule="evenodd" clip-rule="evenodd" d="M12 0.370117C5.37258 0.370117 0 5.74269 0 12.3701V306.335C0 312.962 5.3726 318.335 12 318.335H447.629C447.744 318.478 447.875 318.614 448.023 318.742L484.536 350.362C486.479 352.044 489.5 350.664 489.5 348.094L489.5 318.335H578C584.627 318.335 590 312.962 590 306.335V12.3701C590 5.7427 584.627 0.370117 578 0.370117H12Z"/>
</mask>
<path fill-rule="evenodd" clip-rule="evenodd" d="M12 0.370117C5.37258 0.370117 0 5.74269 0 12.3701V306.335C0 312.962 5.3726 318.335 12 318.335H447.629C447.744 318.478 447.875 318.614 448.023 318.742L484.536 350.362C486.479 352.044 489.5 350.664 489.5 348.094L489.5 318.335H578C584.627 318.335 590 312.962 590 306.335V12.3701C590 5.7427 584.627 0.370117 578 0.370117H12Z" fill="#F2F9FF"/>
<path d="M447.629 318.335L448.407 317.707L448.107 317.335H447.629V318.335ZM448.023 318.742L448.677 317.986L448.023 318.742ZM484.536 350.362L483.881 351.118L484.536 350.362ZM489.5 348.094H488.5H489.5ZM489.5 318.335V317.335H488.5V318.335H489.5ZM1 12.3701C1 6.29498 5.92487 1.37012 12 1.37012V-0.629883C4.8203 -0.629883 -1 5.19041 -1 12.3701H1ZM1 306.335V12.3701H-1V306.335H1ZM12 317.335C5.92488 317.335 1 312.41 1 306.335H-1C-1 313.515 4.82032 319.335 12 319.335V317.335ZM447.629 317.335H12V319.335H447.629V317.335ZM448.677 317.986C448.574 317.896 448.484 317.803 448.407 317.707L446.85 318.963C447.003 319.152 447.176 319.331 447.368 319.498L448.677 317.986ZM485.191 349.606L448.677 317.986L447.368 319.498L483.881 351.118L485.191 349.606ZM488.5 348.094C488.5 349.807 486.486 350.727 485.191 349.606L483.881 351.118C486.472 353.361 490.5 351.521 490.5 348.094H488.5ZM488.5 318.335L488.5 348.094H490.5L490.5 318.335H488.5ZM578 317.335H489.5V319.335H578V317.335ZM589 306.335C589 312.41 584.075 317.335 578 317.335V319.335C585.18 319.335 591 313.515 591 306.335H589ZM589 12.3701V306.335H591V12.3701H589ZM578 1.37012C584.075 1.37012 589 6.29499 589 12.3701H591C591 5.19041 585.18 -0.629883 578 -0.629883V1.37012ZM12 1.37012H578V-0.629883H12V1.37012Z" fill="#0D3C58" mask="url(#path-1-inside-1_1_522)"/>
</svg>
