<svg width="271" height="294" viewBox="0 0 271 294" fill="none" xmlns="http://www.w3.org/2000/svg">
<path d="M133.675 266.521L124.175 257.021C126.057 254.714 127.234 251.809 127.234 248.605C127.234 241.217 121.224 235.209 113.836 235.209C106.448 235.209 100.441 241.217 100.441 248.605C100.441 255.993 106.448 262.001 113.836 262.001C116.253 262.001 118.49 261.307 120.451 260.184L130.231 269.965L133.675 266.521ZM105.313 248.604C105.313 243.904 109.139 240.079 113.836 240.079C118.537 240.079 122.362 243.903 122.362 248.604C122.362 253.303 118.537 257.128 113.836 257.128C109.139 257.129 105.313 253.303 105.313 248.604Z" fill="white"/>
<path d="M164.186 267.89L163.946 266.776C225.028 253.532 269.364 198.484 269.364 135.886C269.366 127.854 268.648 119.796 267.23 111.943L268.354 111.742C269.782 119.662 270.506 127.785 270.503 135.887C270.503 166.918 259.72 197.224 240.139 221.221C220.832 244.884 193.859 261.458 164.186 267.89ZM75.0083 256.722C28.9643 233.652 0.361328 187.35 0.361328 135.886C0.361328 124.603 1.75535 113.39 4.50235 102.563L5.60632 102.843C2.88332 113.579 1.49933 124.696 1.49933 135.886C1.49933 186.916 29.8613 232.828 75.5183 255.701L75.0083 256.722ZM223.031 34.571C198.724 13.537 167.614 1.95508 135.432 1.95508C106.187 1.95708 78.4013 11.2171 55.0833 28.7271L54.3963 27.814C77.9153 10.154 105.936 0.817918 135.432 0.815918C167.889 0.815918 199.264 12.497 223.777 33.707L223.031 34.571Z" fill="#24A24D"/>
<path d="M135.384 253.663L133.73 253.651L133.794 249.088L135.384 249.1C197.594 249.1 248.207 198.49 248.207 136.28C248.207 75.594 200.747 26.0801 140.156 23.5581L140.347 19C203.386 21.623 252.77 73.138 252.77 136.281C252.77 201.004 200.111 253.663 135.384 253.663ZM50.646 217.509C29.595 195.555 18 166.707 18 136.28C18 103.838 31.617 72.5371 55.357 50.4041L58.468 53.741C35.651 75.015 22.564 105.099 22.564 136.281C22.564 165.527 33.705 193.253 53.939 214.353L50.646 217.509Z" fill="#24A24D"/>
<path d="M101.766 293.585C124.22 293.585 142.422 275.383 142.422 252.929C142.422 230.475 124.22 212.273 101.766 212.273C79.3127 212.273 61.1104 230.475 61.1104 252.929C61.1104 275.383 79.3127 293.585 101.766 293.585Z" fill="#24A24D"/>
<path d="M102.482 128L95.9194 104H98.8726L103.888 123.547H104.123L109.232 104H112.513L117.623 123.547H117.857L122.873 104H125.826L119.263 128H116.263L110.966 108.875H110.779L105.482 128H102.482ZM134.708 128.375C133.083 128.375 131.658 127.988 130.431 127.215C129.212 126.441 128.259 125.359 127.572 123.969C126.892 122.578 126.552 120.953 126.552 119.094C126.552 117.219 126.892 115.582 127.572 114.184C128.259 112.785 129.212 111.699 130.431 110.926C131.658 110.152 133.083 109.766 134.708 109.766C136.333 109.766 137.755 110.152 138.974 110.926C140.201 111.699 141.154 112.785 141.833 114.184C142.521 115.582 142.865 117.219 142.865 119.094C142.865 120.953 142.521 122.578 141.833 123.969C141.154 125.359 140.201 126.441 138.974 127.215C137.755 127.988 136.333 128.375 134.708 128.375ZM134.708 125.891C135.943 125.891 136.958 125.574 137.755 124.941C138.552 124.309 139.142 123.477 139.525 122.445C139.908 121.414 140.099 120.297 140.099 119.094C140.099 117.891 139.908 116.77 139.525 115.73C139.142 114.691 138.552 113.852 137.755 113.211C136.958 112.57 135.943 112.25 134.708 112.25C133.474 112.25 132.458 112.57 131.662 113.211C130.865 113.852 130.275 114.691 129.892 115.73C129.509 116.77 129.318 117.891 129.318 119.094C129.318 120.297 129.509 121.414 129.892 122.445C130.275 123.477 130.865 124.309 131.662 124.941C132.458 125.574 133.474 125.891 134.708 125.891ZM147.086 128V110H149.758V112.719H149.946C150.274 111.828 150.868 111.105 151.727 110.551C152.586 109.996 153.555 109.719 154.633 109.719C154.836 109.719 155.09 109.723 155.395 109.73C155.7 109.738 155.93 109.75 156.086 109.766V112.578C155.993 112.555 155.778 112.52 155.442 112.473C155.114 112.418 154.766 112.391 154.399 112.391C153.524 112.391 152.743 112.574 152.055 112.941C151.375 113.301 150.836 113.801 150.438 114.441C150.047 115.074 149.852 115.797 149.852 116.609V128H147.086ZM161.943 121.437L161.896 118.016H162.458L170.333 110H173.755L165.365 118.484H165.13L161.943 121.437ZM159.365 128V104H162.13V128H159.365ZM170.802 128L163.771 119.094L165.74 117.172L174.318 128H170.802ZM104.37 156C104.37 158.531 103.913 160.719 102.999 162.562C102.085 164.406 100.831 165.828 99.2373 166.828C97.6436 167.828 95.8232 168.328 93.7764 168.328C91.7295 168.328 89.9092 167.828 88.3154 166.828C86.7217 165.828 85.4678 164.406 84.5537 162.562C83.6396 160.719 83.1826 158.531 83.1826 156C83.1826 153.469 83.6396 151.281 84.5537 149.438C85.4678 147.594 86.7217 146.172 88.3154 145.172C89.9092 144.172 91.7295 143.672 93.7764 143.672C95.8232 143.672 97.6436 144.172 99.2373 145.172C100.831 146.172 102.085 147.594 102.999 149.438C103.913 151.281 104.37 153.469 104.37 156ZM101.558 156C101.558 153.922 101.21 152.168 100.515 150.738C99.8271 149.309 98.8936 148.227 97.7139 147.492C96.542 146.758 95.2295 146.391 93.7764 146.391C92.3232 146.391 91.0068 146.758 89.8271 147.492C88.6553 148.227 87.7217 149.309 87.0264 150.738C86.3389 152.168 85.9951 153.922 85.9951 156C85.9951 158.078 86.3389 159.832 87.0264 161.262C87.7217 162.691 88.6553 163.773 89.8271 164.508C91.0068 165.242 92.3232 165.609 93.7764 165.609C95.2295 165.609 96.542 165.242 97.7139 164.508C98.8936 163.773 99.8271 162.691 100.515 161.262C101.21 159.832 101.558 158.078 101.558 156ZM120.226 160.641V150H122.991V168H120.226V164.953H120.038C119.616 165.867 118.96 166.645 118.069 167.285C117.179 167.918 116.054 168.234 114.694 168.234C113.569 168.234 112.569 167.988 111.694 167.496C110.819 166.996 110.132 166.246 109.632 165.246C109.132 164.238 108.882 162.969 108.882 161.437V150H111.647V161.25C111.647 162.562 112.015 163.609 112.749 164.391C113.491 165.172 114.437 165.562 115.585 165.562C116.272 165.562 116.972 165.387 117.683 165.035C118.401 164.684 119.003 164.145 119.487 163.418C119.979 162.691 120.226 161.766 120.226 160.641ZM135.885 150V152.344H126.557V150H135.885ZM129.275 145.687H132.041V162.844C132.041 163.625 132.154 164.211 132.381 164.602C132.615 164.984 132.912 165.242 133.271 165.375C133.639 165.5 134.025 165.562 134.432 165.562C134.736 165.562 134.986 165.547 135.182 165.516C135.377 165.477 135.533 165.445 135.65 165.422L136.213 167.906C136.025 167.977 135.764 168.047 135.428 168.117C135.092 168.195 134.666 168.234 134.15 168.234C133.369 168.234 132.604 168.066 131.854 167.73C131.111 167.395 130.494 166.883 130.002 166.195C129.518 165.508 129.275 164.641 129.275 163.594V145.687ZM140.045 174.75V150H142.717V152.859H143.045C143.248 152.547 143.529 152.148 143.889 151.664C144.256 151.172 144.779 150.734 145.459 150.352C146.146 149.961 147.076 149.766 148.248 149.766C149.764 149.766 151.1 150.145 152.256 150.902C153.412 151.66 154.314 152.734 154.963 154.125C155.611 155.516 155.936 157.156 155.936 159.047C155.936 160.953 155.611 162.605 154.963 164.004C154.314 165.395 153.416 166.473 152.268 167.238C151.119 167.996 149.795 168.375 148.295 168.375C147.139 168.375 146.213 168.184 145.518 167.801C144.822 167.41 144.287 166.969 143.912 166.477C143.537 165.977 143.248 165.562 143.045 165.234H142.811V174.75H140.045ZM142.764 159C142.764 160.359 142.963 161.559 143.361 162.598C143.76 163.629 144.342 164.437 145.107 165.023C145.873 165.602 146.811 165.891 147.92 165.891C149.076 165.891 150.041 165.586 150.814 164.977C151.596 164.359 152.182 163.531 152.572 162.492C152.971 161.445 153.17 160.281 153.17 159C153.17 157.734 152.975 156.594 152.584 155.578C152.201 154.555 151.619 153.746 150.838 153.152C150.064 152.551 149.092 152.25 147.92 152.25C146.795 152.25 145.85 152.535 145.084 153.105C144.318 153.668 143.74 154.457 143.35 155.473C142.959 156.48 142.764 157.656 142.764 159ZM171.498 160.641V150H174.264V168H171.498V164.953H171.311C170.889 165.867 170.232 166.645 169.342 167.285C168.451 167.918 167.326 168.234 165.967 168.234C164.842 168.234 163.842 167.988 162.967 167.496C162.092 166.996 161.404 166.246 160.904 165.246C160.404 164.238 160.154 162.969 160.154 161.437V150H162.92V161.25C162.92 162.562 163.287 163.609 164.021 164.391C164.764 165.172 165.709 165.562 166.857 165.562C167.545 165.562 168.244 165.387 168.955 165.035C169.674 164.684 170.275 164.145 170.76 163.418C171.252 162.691 171.498 161.766 171.498 160.641ZM187.157 150V152.344H177.829V150H187.157ZM180.548 145.687H183.313V162.844C183.313 163.625 183.427 164.211 183.653 164.602C183.888 164.984 184.185 165.242 184.544 165.375C184.911 165.5 185.298 165.562 185.704 165.562C186.009 165.562 186.259 165.547 186.454 165.516C186.649 165.477 186.806 165.445 186.923 165.422L187.485 167.906C187.298 167.977 187.036 168.047 186.7 168.117C186.364 168.195 185.938 168.234 185.423 168.234C184.642 168.234 183.876 168.066 183.126 167.73C182.384 167.395 181.767 166.883 181.274 166.195C180.79 165.508 180.548 164.641 180.548 163.594V145.687Z" fill="#171F2A"/>
<path d="M110.218 243.662V245.016V246.36V257.988H94.4196V246.36V245.016V243.662H84.1846V262.301H85.5326H86.8796H117.757H119.107H120.455V243.662H110.218Z" fill="white"/>
<path d="M120.457 264.997H119.106H85.5327H84.1817H80.3057V273.336H124.332V264.997H120.457ZM103.251 269.979H101.389V268.117H103.251V269.979Z" fill="white"/>
<path d="M102.319 229.417L92.9736 242.24H97.1356V243.663V245.015V246.361V252.621H107.503V246.361V245.015V243.663V242.24H111.663L102.319 229.417Z" fill="white"/>
</svg>
