<svg width="272" height="294" viewBox="0 0 272 294" fill="none" xmlns="http://www.w3.org/2000/svg">
<path d="M164.773 267.89L164.533 266.776C225.615 253.532 269.951 198.484 269.951 135.886C269.953 127.854 269.234 119.796 267.816 111.943L268.94 111.742C270.368 119.662 271.092 127.785 271.089 135.887C271.089 166.918 260.306 197.224 240.725 221.221C221.419 244.884 194.446 261.458 164.773 267.89ZM75.5952 256.722C29.5512 233.652 0.948242 187.35 0.948242 135.886C0.948242 124.603 2.34223 113.39 5.08923 102.563L6.19324 102.843C3.47024 113.579 2.08624 124.696 2.08624 135.886C2.08624 186.916 30.4482 232.828 76.1052 255.701L75.5952 256.722ZM223.617 34.571C199.31 13.537 168.201 1.95508 136.018 1.95508C106.773 1.95708 78.9873 11.2171 55.6693 28.7271L54.9822 27.814C78.5012 10.154 106.522 0.817918 136.018 0.815918C168.475 0.815918 199.85 12.497 224.363 33.707L223.617 34.571Z" fill="#24A24D"/>
<path d="M136.384 253.663L134.73 253.651L134.794 249.088L136.384 249.1C198.594 249.1 249.207 198.49 249.207 136.28C249.207 75.594 201.747 26.0801 141.156 23.5581L141.347 19C204.386 21.623 253.77 73.138 253.77 136.281C253.77 201.004 201.111 253.663 136.384 253.663ZM51.646 217.509C30.595 195.555 19 166.707 19 136.28C19 103.838 32.617 72.5371 56.357 50.4041L59.468 53.741C36.651 75.015 23.564 105.099 23.564 136.281C23.564 165.527 34.705 193.253 54.939 214.353L51.646 217.509Z" fill="#24A24D"/>
<path d="M102.352 293.585C124.806 293.585 143.008 275.383 143.008 252.929C143.008 230.475 124.806 212.273 102.352 212.273C79.8986 212.273 61.6963 230.475 61.6963 252.929C61.6963 275.383 79.8986 293.585 102.352 293.585Z" fill="#24A24D"/>
<path d="M62.064 128H59.0171L67.8296 104H70.8296L79.6421 128H76.5952L69.4233 107.797H69.2358L62.064 128ZM63.189 118.625H75.4702V121.203H63.189V118.625ZM89.8022 128.375C88.3022 128.375 86.978 127.996 85.8296 127.238C84.6812 126.473 83.7827 125.395 83.1343 124.004C82.4858 122.605 82.1616 120.953 82.1616 119.047C82.1616 117.156 82.4858 115.516 83.1343 114.125C83.7827 112.734 84.6851 111.66 85.8413 110.902C86.9976 110.145 88.3335 109.766 89.8491 109.766C91.021 109.766 91.9468 109.961 92.6265 110.352C93.314 110.734 93.8374 111.172 94.1968 111.664C94.564 112.148 94.8491 112.547 95.0522 112.859H95.2866V104H98.0522V128H95.3804V125.234H95.0522C94.8491 125.562 94.5601 125.977 94.1851 126.477C93.8101 126.969 93.2749 127.41 92.5796 127.801C91.8843 128.184 90.9585 128.375 89.8022 128.375ZM90.1772 125.891C91.2866 125.891 92.2241 125.602 92.9897 125.023C93.7554 124.437 94.3374 123.629 94.7358 122.598C95.1343 121.559 95.3335 120.359 95.3335 119C95.3335 117.656 95.1382 116.48 94.7476 115.473C94.3569 114.457 93.7788 113.668 93.0132 113.105C92.2476 112.535 91.3022 112.25 90.1772 112.25C89.0054 112.25 88.0288 112.551 87.2476 113.152C86.4741 113.746 85.8921 114.555 85.5015 115.578C85.1187 116.594 84.9272 117.734 84.9272 119C84.9272 120.281 85.1226 121.445 85.5132 122.492C85.9116 123.531 86.4976 124.359 87.271 124.977C88.0522 125.586 89.021 125.891 90.1772 125.891ZM118.22 110L111.564 128H108.751L102.095 110H105.095L110.064 124.344H110.251L115.22 110H118.22ZM126.62 128.422C125.479 128.422 124.444 128.207 123.514 127.777C122.584 127.34 121.846 126.711 121.299 125.891C120.752 125.063 120.479 124.062 120.479 122.891C120.479 121.859 120.682 121.023 121.088 120.383C121.495 119.734 122.038 119.227 122.717 118.859C123.397 118.492 124.147 118.219 124.967 118.039C125.795 117.852 126.627 117.703 127.463 117.594C128.557 117.453 129.444 117.348 130.124 117.277C130.811 117.199 131.311 117.07 131.624 116.891C131.944 116.711 132.104 116.398 132.104 115.953V115.859C132.104 114.703 131.788 113.805 131.155 113.164C130.53 112.523 129.581 112.203 128.307 112.203C126.987 112.203 125.952 112.492 125.202 113.07C124.452 113.648 123.924 114.266 123.62 114.922L120.995 113.984C121.463 112.891 122.088 112.039 122.87 111.43C123.659 110.812 124.518 110.383 125.448 110.141C126.385 109.891 127.307 109.766 128.213 109.766C128.792 109.766 129.456 109.836 130.206 109.977C130.963 110.109 131.694 110.387 132.397 110.809C133.108 111.23 133.698 111.867 134.167 112.719C134.635 113.57 134.87 114.711 134.87 116.141V128H132.104V125.562H131.963C131.776 125.953 131.463 126.371 131.026 126.816C130.588 127.262 130.006 127.641 129.28 127.953C128.553 128.266 127.667 128.422 126.62 128.422ZM127.042 125.938C128.135 125.938 129.057 125.723 129.807 125.293C130.565 124.863 131.135 124.309 131.518 123.629C131.909 122.949 132.104 122.234 132.104 121.484V118.953C131.987 119.094 131.729 119.223 131.331 119.34C130.94 119.449 130.487 119.547 129.971 119.633C129.463 119.711 128.967 119.781 128.483 119.844C128.006 119.898 127.62 119.945 127.323 119.984C126.604 120.078 125.932 120.23 125.307 120.441C124.69 120.645 124.19 120.953 123.807 121.367C123.432 121.773 123.245 122.328 123.245 123.031C123.245 123.992 123.6 124.719 124.311 125.211C125.03 125.695 125.94 125.938 127.042 125.938ZM142.683 117.172V128H139.917V110H142.589V112.812H142.824C143.246 111.898 143.886 111.164 144.746 110.609C145.605 110.047 146.714 109.766 148.074 109.766C149.292 109.766 150.359 110.016 151.273 110.516C152.187 111.008 152.898 111.758 153.406 112.766C153.914 113.766 154.167 115.031 154.167 116.563V128H151.402V116.75C151.402 115.336 151.035 114.234 150.3 113.445C149.566 112.648 148.558 112.25 147.277 112.25C146.394 112.25 145.605 112.441 144.91 112.824C144.222 113.207 143.679 113.766 143.281 114.5C142.882 115.234 142.683 116.125 142.683 117.172ZM166.534 128.375C164.846 128.375 163.393 127.977 162.174 127.18C160.956 126.383 160.018 125.285 159.362 123.887C158.706 122.488 158.377 120.891 158.377 119.094C158.377 117.266 158.713 115.652 159.385 114.254C160.065 112.848 161.01 111.75 162.221 110.961C163.44 110.164 164.862 109.766 166.487 109.766C167.752 109.766 168.893 110 169.909 110.469C170.924 110.937 171.756 111.594 172.405 112.437C173.053 113.281 173.456 114.266 173.612 115.391H170.846C170.635 114.57 170.167 113.844 169.44 113.211C168.721 112.57 167.752 112.25 166.534 112.25C165.456 112.25 164.51 112.531 163.698 113.094C162.893 113.648 162.264 114.434 161.811 115.449C161.366 116.457 161.143 117.641 161.143 119C161.143 120.391 161.362 121.602 161.799 122.633C162.245 123.664 162.87 124.465 163.674 125.035C164.487 125.605 165.44 125.891 166.534 125.891C167.252 125.891 167.905 125.766 168.491 125.516C169.077 125.266 169.573 124.906 169.979 124.437C170.385 123.969 170.674 123.406 170.846 122.75H173.612C173.456 123.812 173.069 124.77 172.452 125.621C171.842 126.465 171.034 127.137 170.026 127.637C169.026 128.129 167.862 128.375 166.534 128.375ZM185.202 128.375C183.467 128.375 181.971 127.992 180.713 127.227C179.463 126.453 178.499 125.375 177.819 123.992C177.147 122.602 176.811 120.984 176.811 119.141C176.811 117.297 177.147 115.672 177.819 114.266C178.499 112.852 179.444 111.75 180.655 110.961C181.874 110.164 183.295 109.766 184.92 109.766C185.858 109.766 186.784 109.922 187.698 110.234C188.612 110.547 189.444 111.055 190.194 111.758C190.944 112.453 191.542 113.375 191.987 114.523C192.432 115.672 192.655 117.086 192.655 118.766V119.937H178.78V117.547H189.842C189.842 116.531 189.639 115.625 189.233 114.828C188.834 114.031 188.264 113.402 187.522 112.941C186.788 112.48 185.92 112.25 184.92 112.25C183.819 112.25 182.866 112.523 182.061 113.07C181.264 113.609 180.651 114.312 180.221 115.18C179.792 116.047 179.577 116.977 179.577 117.969V119.563C179.577 120.922 179.811 122.074 180.28 123.02C180.756 123.957 181.417 124.672 182.26 125.164C183.104 125.648 184.084 125.891 185.202 125.891C185.928 125.891 186.584 125.789 187.17 125.586C187.764 125.375 188.276 125.063 188.706 124.648C189.135 124.227 189.467 123.703 189.702 123.078L192.374 123.828C192.092 124.734 191.62 125.531 190.956 126.219C190.292 126.898 189.471 127.43 188.495 127.812C187.518 128.188 186.42 128.375 185.202 128.375ZM203.659 128.375C202.159 128.375 200.834 127.996 199.686 127.238C198.538 126.473 197.639 125.395 196.991 124.004C196.342 122.605 196.018 120.953 196.018 119.047C196.018 117.156 196.342 115.516 196.991 114.125C197.639 112.734 198.542 111.66 199.698 110.902C200.854 110.145 202.19 109.766 203.706 109.766C204.877 109.766 205.803 109.961 206.483 110.352C207.17 110.734 207.694 111.172 208.053 111.664C208.42 112.148 208.706 112.547 208.909 112.859H209.143V104H211.909V128H209.237V125.234H208.909C208.706 125.562 208.417 125.977 208.042 126.477C207.667 126.969 207.131 127.41 206.436 127.801C205.741 128.184 204.815 128.375 203.659 128.375ZM204.034 125.891C205.143 125.891 206.081 125.602 206.846 125.023C207.612 124.437 208.194 123.629 208.592 122.598C208.991 121.559 209.19 120.359 209.19 119C209.19 117.656 208.995 116.48 208.604 115.473C208.213 114.457 207.635 113.668 206.87 113.105C206.104 112.535 205.159 112.25 204.034 112.25C202.862 112.25 201.885 112.551 201.104 113.152C200.331 113.746 199.749 114.555 199.358 115.578C198.975 116.594 198.784 117.734 198.784 119C198.784 120.281 198.979 121.445 199.37 122.492C199.768 123.531 200.354 124.359 201.127 124.977C201.909 125.586 202.877 125.891 204.034 125.891ZM69.4438 168H66.397L75.2095 144H78.2095L87.022 168H83.9751L76.8032 147.797H76.6157L69.4438 168ZM70.5688 158.625H82.8501V161.203H70.5688V158.625ZM93.1509 157.172V168H90.3853V150H93.0571V152.812H93.2915C93.7134 151.898 94.354 151.164 95.2134 150.609C96.0728 150.047 97.1821 149.766 98.5415 149.766C99.7603 149.766 100.827 150.016 101.741 150.516C102.655 151.008 103.366 151.758 103.874 152.766C104.381 153.766 104.635 155.031 104.635 156.563V168H101.87V156.75C101.87 155.336 101.502 154.234 100.768 153.445C100.034 152.648 99.0259 152.25 97.7446 152.25C96.8618 152.25 96.0728 152.441 95.3774 152.824C94.6899 153.207 94.147 153.766 93.7485 154.5C93.3501 155.234 93.1509 156.125 93.1509 157.172ZM114.986 168.422C113.845 168.422 112.81 168.207 111.88 167.777C110.951 167.34 110.212 166.711 109.666 165.891C109.119 165.063 108.845 164.062 108.845 162.891C108.845 161.859 109.048 161.023 109.455 160.383C109.861 159.734 110.404 159.227 111.083 158.859C111.763 158.492 112.513 158.219 113.333 158.039C114.162 157.852 114.994 157.703 115.83 157.594C116.923 157.453 117.81 157.348 118.49 157.277C119.177 157.199 119.677 157.07 119.99 156.891C120.31 156.711 120.47 156.398 120.47 155.953V155.859C120.47 154.703 120.154 153.805 119.521 153.164C118.896 152.523 117.947 152.203 116.673 152.203C115.353 152.203 114.318 152.492 113.568 153.07C112.818 153.648 112.291 154.266 111.986 154.922L109.361 153.984C109.83 152.891 110.455 152.039 111.236 151.43C112.025 150.812 112.884 150.383 113.814 150.141C114.751 149.891 115.673 149.766 116.58 149.766C117.158 149.766 117.822 149.836 118.572 149.977C119.33 150.109 120.06 150.387 120.763 150.809C121.474 151.23 122.064 151.867 122.533 152.719C123.001 153.57 123.236 154.711 123.236 156.141V168H120.47V165.562H120.33C120.142 165.953 119.83 166.371 119.392 166.816C118.955 167.262 118.373 167.641 117.646 167.953C116.919 168.266 116.033 168.422 114.986 168.422ZM115.408 165.938C116.501 165.938 117.423 165.723 118.173 165.293C118.931 164.863 119.501 164.309 119.884 163.629C120.275 162.949 120.47 162.234 120.47 161.484V158.953C120.353 159.094 120.095 159.223 119.697 159.34C119.306 159.449 118.853 159.547 118.337 159.633C117.83 159.711 117.333 159.781 116.849 159.844C116.373 159.898 115.986 159.945 115.689 159.984C114.97 160.078 114.298 160.23 113.673 160.441C113.056 160.645 112.556 160.953 112.173 161.367C111.798 161.773 111.611 162.328 111.611 163.031C111.611 163.992 111.966 164.719 112.677 165.211C113.396 165.695 114.306 165.938 115.408 165.938ZM131.049 144V168H128.284V144H131.049ZM137.896 174.75C137.427 174.75 137.009 174.711 136.642 174.633C136.275 174.563 136.021 174.492 135.88 174.422L136.583 171.984C137.255 172.156 137.849 172.219 138.365 172.172C138.88 172.125 139.337 171.895 139.736 171.48C140.142 171.074 140.513 170.414 140.849 169.5L141.365 168.094L134.708 150H137.708L142.677 164.344H142.865L147.833 150H150.833L143.193 170.625C142.849 171.555 142.423 172.324 141.916 172.934C141.408 173.551 140.818 174.008 140.146 174.305C139.482 174.602 138.732 174.75 137.896 174.75ZM162.312 150V152.344H152.984V150H162.312ZM155.703 145.687H158.468V162.844C158.468 163.625 158.582 164.211 158.808 164.602C159.042 164.984 159.339 165.242 159.699 165.375C160.066 165.5 160.453 165.562 160.859 165.562C161.164 165.562 161.414 165.547 161.609 165.516C161.804 165.477 161.96 165.445 162.078 165.422L162.64 167.906C162.453 167.977 162.191 168.047 161.855 168.117C161.519 168.195 161.093 168.234 160.578 168.234C159.796 168.234 159.031 168.066 158.281 167.73C157.539 167.395 156.921 166.883 156.429 166.195C155.945 165.508 155.703 164.641 155.703 163.594V145.687ZM166.472 168V150H169.238V168H166.472ZM167.878 147C167.339 147 166.875 146.816 166.484 146.449C166.101 146.082 165.91 145.641 165.91 145.125C165.91 144.609 166.101 144.168 166.484 143.801C166.875 143.434 167.339 143.25 167.878 143.25C168.417 143.25 168.878 143.434 169.261 143.801C169.652 144.168 169.847 144.609 169.847 145.125C169.847 145.641 169.652 146.082 169.261 146.449C168.878 146.816 168.417 147 167.878 147ZM181.616 168.375C179.928 168.375 178.475 167.977 177.256 167.18C176.038 166.383 175.1 165.285 174.444 163.887C173.788 162.488 173.459 160.891 173.459 159.094C173.459 157.266 173.795 155.652 174.467 154.254C175.147 152.848 176.092 151.75 177.303 150.961C178.522 150.164 179.944 149.766 181.569 149.766C182.834 149.766 183.975 150 184.991 150.469C186.006 150.937 186.838 151.594 187.487 152.437C188.135 153.281 188.538 154.266 188.694 155.391H185.928C185.717 154.57 185.249 153.844 184.522 153.211C183.803 152.57 182.834 152.25 181.616 152.25C180.538 152.25 179.592 152.531 178.78 153.094C177.975 153.648 177.346 154.434 176.893 155.449C176.448 156.457 176.225 157.641 176.225 159C176.225 160.391 176.444 161.602 176.881 162.633C177.327 163.664 177.952 164.465 178.756 165.035C179.569 165.605 180.522 165.891 181.616 165.891C182.334 165.891 182.987 165.766 183.573 165.516C184.159 165.266 184.655 164.906 185.061 164.437C185.467 163.969 185.756 163.406 185.928 162.75H188.694C188.538 163.812 188.151 164.77 187.534 165.621C186.924 166.465 186.116 167.137 185.108 167.637C184.108 168.129 182.944 168.375 181.616 168.375ZM205.487 154.031L203.002 154.734C202.846 154.32 202.616 153.918 202.311 153.527C202.014 153.129 201.608 152.801 201.092 152.543C200.577 152.285 199.917 152.156 199.112 152.156C198.01 152.156 197.092 152.41 196.358 152.918C195.631 153.418 195.268 154.055 195.268 154.828C195.268 155.516 195.518 156.059 196.018 156.457C196.518 156.855 197.299 157.187 198.362 157.453L201.034 158.109C202.643 158.5 203.842 159.098 204.631 159.902C205.42 160.699 205.815 161.727 205.815 162.984C205.815 164.016 205.518 164.937 204.924 165.75C204.338 166.562 203.518 167.203 202.463 167.672C201.409 168.141 200.182 168.375 198.784 168.375C196.948 168.375 195.428 167.977 194.225 167.18C193.022 166.383 192.26 165.219 191.94 163.687L194.565 163.031C194.815 164 195.288 164.727 195.983 165.211C196.686 165.695 197.604 165.938 198.737 165.938C200.026 165.938 201.049 165.664 201.807 165.117C202.573 164.562 202.956 163.898 202.956 163.125C202.956 162.5 202.737 161.977 202.299 161.555C201.862 161.125 201.19 160.805 200.284 160.594L197.284 159.891C195.635 159.5 194.424 158.895 193.651 158.074C192.885 157.246 192.502 156.211 192.502 154.969C192.502 153.953 192.788 153.055 193.358 152.273C193.936 151.492 194.721 150.879 195.713 150.434C196.713 149.988 197.846 149.766 199.112 149.766C200.893 149.766 202.292 150.156 203.307 150.937C204.331 151.719 205.057 152.75 205.487 154.031Z" fill="#171F2A"/>
<path d="M116.135 265.515H89.9471C88.7891 265.515 87.8511 266.455 87.8511 267.615C87.8511 268.77 88.7881 269.708 89.9471 269.708H116.131C117.289 269.708 118.23 268.77 118.23 267.615C118.23 266.456 117.289 265.515 116.135 265.515Z" fill="white"/>
<path d="M87.3262 249.803V255.045C87.3262 255.91 88.0352 256.617 88.9012 256.617C89.7662 256.617 90.4702 255.911 90.4702 255.045V249.803C90.4702 248.939 89.7672 248.231 88.9012 248.231C88.0362 248.231 87.3262 248.939 87.3262 249.803Z" fill="white"/>
<path d="M92.5659 247.71V255.044C92.5659 255.909 93.2679 256.617 94.1359 256.617C95.0039 256.617 95.705 255.909 95.705 255.044V247.71C95.705 246.845 95.0049 246.136 94.1359 246.136C93.2669 246.136 92.5659 246.845 92.5659 247.71Z" fill="white"/>
<path d="M97.8013 245.618V255.045C97.8013 255.91 98.5062 256.617 99.3732 256.617C100.242 256.617 100.943 255.911 100.943 255.045V245.618C100.943 244.751 100.241 244.043 99.3732 244.043C98.5062 244.043 97.8013 244.751 97.8013 245.618Z" fill="white"/>
<path d="M123.988 233.046H82.0871C80.9351 233.046 79.9961 233.985 79.9961 235.141V261.33C79.9961 262.488 80.9351 263.422 82.0871 263.422H122.071C122.007 263.37 121.942 263.327 121.881 263.267L118.981 260.366C117.311 261.311 115.421 261.815 113.479 261.815C110.832 261.815 108.325 260.903 106.316 259.232H84.1851V237.237H121.892V243.137C123.712 245.194 124.72 247.803 124.72 250.574C124.72 252.515 124.211 254.402 123.271 256.073L126.083 258.887V235.139C126.084 233.985 125.142 233.046 123.988 233.046Z" fill="white"/>
<path d="M121.544 257.314C121.34 257.106 121.054 257.017 120.783 257.047L120.34 256.606C121.812 254.939 122.624 252.823 122.624 250.577C122.624 248.131 121.671 245.839 119.946 244.11C118.22 242.382 115.927 241.431 113.48 241.431C111.035 241.431 108.745 242.382 107.016 244.11C105.287 245.839 104.331 248.131 104.331 250.577C104.331 253.019 105.291 255.316 107.016 257.039C108.745 258.77 111.035 259.715 113.48 259.715C115.73 259.715 117.843 258.911 119.511 257.433L119.955 257.876C119.923 258.149 120.01 258.432 120.217 258.639L123.369 261.79C123.554 261.972 123.793 262.06 124.029 262.06C124.271 262.06 124.513 261.973 124.698 261.79C125.06 261.422 125.06 260.832 124.698 260.468L121.544 257.314ZM118.621 255.713C117.25 257.088 115.424 257.847 113.48 257.847C111.539 257.847 109.712 257.09 108.344 255.713C106.97 254.347 106.212 252.515 106.212 250.577C106.212 248.638 106.97 246.807 108.344 245.438C109.712 244.061 111.544 243.306 113.48 243.306C115.424 243.306 117.25 244.061 118.621 245.438C119.992 246.807 120.75 248.638 120.75 250.577C120.75 252.515 119.992 254.338 118.621 255.713Z" fill="white"/>
</svg>
