<svg width="271" height="293" viewBox="0 0 271 293" fill="none" xmlns="http://www.w3.org/2000/svg">
<path d="M163.826 267.074L163.586 265.96C224.668 252.716 269.004 197.668 269.004 135.07C269.006 127.038 268.288 118.98 266.87 111.127L267.994 110.926C269.422 118.846 270.146 126.969 270.143 135.071C270.143 166.102 259.36 196.408 239.779 220.405C220.471 244.068 193.498 260.642 163.826 267.074ZM74.647 255.906C28.603 232.836 0 186.534 0 135.07C0 123.787 0.727999 115.197 4.141 101.747L5.245 102.027C2.522 112.763 1.138 123.88 1.138 135.07C1.138 186.1 29.5 232.012 75.157 254.885L74.647 255.906ZM222.67 33.7551C198.363 12.7211 167.254 1.13916 135.071 1.13916C105.826 1.14116 78.04 10.4011 54.722 27.9111L54.035 26.998C77.554 9.33805 105.575 0.002 135.071 0C167.528 0 198.903 11.6811 223.416 32.8911L222.67 33.7551Z" fill="#24A24D"/>
<path d="M135.384 252.663L133.73 252.651L133.794 248.088L135.384 248.1C197.594 248.1 248.207 197.49 248.207 135.28C248.207 74.594 200.747 25.0801 140.156 22.5581L140.347 18C203.386 20.623 252.77 72.138 252.77 135.281C252.77 200.004 200.111 252.663 135.384 252.663ZM50.646 216.509C29.595 194.555 18 165.707 18 135.28C18 102.838 31.617 71.5371 55.357 49.4041L58.468 52.741C35.651 74.015 22.564 104.099 22.564 135.281C22.564 164.527 33.705 192.253 53.939 213.353L50.646 216.509Z" fill="#24A24D"/>
<path d="M101.405 292.769C123.859 292.769 142.061 274.567 142.061 252.113C142.061 229.659 123.859 211.457 101.405 211.457C78.9513 211.457 60.749 229.659 60.749 252.113C60.749 274.567 78.9513 292.769 101.405 292.769Z" fill="#24A24D"/>
<path d="M102.482 127L95.9194 103H98.8726L103.888 122.547H104.123L109.232 103H112.513L117.623 122.547H117.857L122.873 103H125.826L119.263 127H116.263L110.966 107.875H110.779L105.482 127H102.482ZM134.708 127.375C133.083 127.375 131.658 126.988 130.431 126.215C129.212 125.441 128.259 124.359 127.572 122.969C126.892 121.578 126.552 119.953 126.552 118.094C126.552 116.219 126.892 114.582 127.572 113.184C128.259 111.785 129.212 110.699 130.431 109.926C131.658 109.152 133.083 108.766 134.708 108.766C136.333 108.766 137.755 109.152 138.974 109.926C140.201 110.699 141.154 111.785 141.833 113.184C142.521 114.582 142.865 116.219 142.865 118.094C142.865 119.953 142.521 121.578 141.833 122.969C141.154 124.359 140.201 125.441 138.974 126.215C137.755 126.988 136.333 127.375 134.708 127.375ZM134.708 124.891C135.943 124.891 136.958 124.574 137.755 123.941C138.552 123.309 139.142 122.477 139.525 121.445C139.908 120.414 140.099 119.297 140.099 118.094C140.099 116.891 139.908 115.77 139.525 114.73C139.142 113.691 138.552 112.852 137.755 112.211C136.958 111.57 135.943 111.25 134.708 111.25C133.474 111.25 132.458 111.57 131.662 112.211C130.865 112.852 130.275 113.691 129.892 114.73C129.509 115.77 129.318 116.891 129.318 118.094C129.318 119.297 129.509 120.414 129.892 121.445C130.275 122.477 130.865 123.309 131.662 123.941C132.458 124.574 133.474 124.891 134.708 124.891ZM147.086 127V109H149.758V111.719H149.946C150.274 110.828 150.868 110.105 151.727 109.551C152.586 108.996 153.555 108.719 154.633 108.719C154.836 108.719 155.09 108.723 155.395 108.73C155.7 108.738 155.93 108.75 156.086 108.766V111.578C155.993 111.555 155.778 111.52 155.442 111.473C155.114 111.418 154.766 111.391 154.399 111.391C153.524 111.391 152.743 111.574 152.055 111.941C151.375 112.301 150.836 112.801 150.438 113.441C150.047 114.074 149.852 114.797 149.852 115.609V127H147.086ZM161.943 120.437L161.896 117.016H162.458L170.333 109H173.755L165.365 117.484H165.13L161.943 120.437ZM159.365 127V103H162.13V127H159.365ZM170.802 127L163.771 118.094L165.74 116.172L174.318 127H170.802ZM98.1475 145.578V143H116.147V145.578H108.601V167H105.694V145.578H98.1475ZM120.258 167V149H123.023V167H120.258ZM121.664 146C121.125 146 120.66 145.816 120.27 145.449C119.887 145.082 119.695 144.641 119.695 144.125C119.695 143.609 119.887 143.168 120.27 142.801C120.66 142.434 121.125 142.25 121.664 142.25C122.203 142.25 122.664 142.434 123.047 142.801C123.438 143.168 123.633 143.609 123.633 144.125C123.633 144.641 123.438 145.082 123.047 145.449C122.664 145.816 122.203 146 121.664 146ZM128.089 167V149H130.761V151.812H130.995C131.37 150.852 131.976 150.105 132.812 149.574C133.647 149.035 134.651 148.766 135.823 148.766C137.011 148.766 137.999 149.035 138.788 149.574C139.585 150.105 140.206 150.852 140.651 151.812H140.839C141.3 150.883 141.991 150.145 142.913 149.598C143.835 149.043 144.94 148.766 146.229 148.766C147.839 148.766 149.155 149.27 150.179 150.277C151.202 151.277 151.714 152.836 151.714 154.953V167H148.948V154.953C148.948 153.625 148.585 152.676 147.858 152.105C147.132 151.535 146.276 151.25 145.292 151.25C144.026 151.25 143.046 151.633 142.351 152.398C141.655 153.156 141.308 154.117 141.308 155.281V167H138.495V154.672C138.495 153.648 138.163 152.824 137.499 152.199C136.835 151.566 135.979 151.25 134.933 151.25C134.214 151.25 133.542 151.441 132.917 151.824C132.3 152.207 131.8 152.738 131.417 153.418C131.042 154.09 130.854 154.867 130.854 155.75V167H128.089ZM164.317 167.375C162.583 167.375 161.087 166.992 159.829 166.227C158.579 165.453 157.614 164.375 156.935 162.992C156.263 161.602 155.927 159.984 155.927 158.141C155.927 156.297 156.263 154.672 156.935 153.266C157.614 151.852 158.56 150.75 159.771 149.961C160.989 149.164 162.411 148.766 164.036 148.766C164.974 148.766 165.899 148.922 166.813 149.234C167.728 149.547 168.56 150.055 169.31 150.758C170.06 151.453 170.657 152.375 171.103 153.523C171.548 154.672 171.771 156.086 171.771 157.766V158.937H157.896V156.547H168.958C168.958 155.531 168.755 154.625 168.349 153.828C167.95 153.031 167.38 152.402 166.638 151.941C165.903 151.48 165.036 151.25 164.036 151.25C162.935 151.25 161.981 151.523 161.177 152.07C160.38 152.609 159.767 153.312 159.337 154.18C158.907 155.047 158.692 155.977 158.692 156.969V158.563C158.692 159.922 158.927 161.074 159.396 162.02C159.872 162.957 160.532 163.672 161.376 164.164C162.22 164.648 163.2 164.891 164.317 164.891C165.044 164.891 165.7 164.789 166.286 164.586C166.88 164.375 167.392 164.063 167.821 163.648C168.251 163.227 168.583 162.703 168.817 162.078L171.489 162.828C171.208 163.734 170.735 164.531 170.071 165.219C169.407 165.898 168.587 166.43 167.61 166.812C166.634 167.188 165.536 167.375 164.317 167.375Z" fill="#171F2A"/>
<path d="M115.459 241.362L117.563 238.389C117.95 237.849 117.821 237.098 117.281 236.717L114.103 234.469C113.562 234.084 112.82 234.214 112.434 234.754L110.278 237.801C108.685 237.055 106.97 236.52 105.178 236.24V234.996C105.178 234.206 105.828 233.551 106.621 233.551H107.422C108.212 233.551 108.861 232.905 108.861 232.112V227.722C108.861 226.931 108.212 226.277 107.422 226.277H96.8684C96.0754 226.277 95.4254 226.932 95.4254 227.722V232.112C95.4254 232.905 96.0754 233.551 96.8684 233.551H97.6654C98.4594 233.551 99.1084 234.206 99.1084 234.996V236.24C97.1884 236.545 95.3564 237.134 93.6714 237.962L91.5314 234.943C91.1494 234.406 90.4044 234.279 89.8614 234.661L86.6874 236.911C86.1444 237.292 86.0184 238.036 86.4014 238.581L88.5574 241.622C85.0654 245.111 82.9004 249.923 82.9004 255.236C82.9004 265.845 91.5354 274.477 102.144 274.477C112.754 274.477 121.384 265.844 121.384 255.236C121.384 249.789 119.11 244.864 115.459 241.362ZM102.144 269.86C94.0804 269.86 87.5224 263.302 87.5224 255.235C87.5224 247.172 94.0804 240.61 102.144 240.61C110.204 240.61 116.769 247.172 116.769 255.235C116.768 263.302 110.204 269.86 102.144 269.86Z" fill="white"/>
<path d="M114.197 255.143C114.146 248.537 108.76 243.183 102.145 243.183C102.113 243.183 102.08 243.184 102.048 243.184V255.143V267.292H102.145C108.794 267.292 114.205 261.886 114.205 255.235C114.205 255.202 114.197 255.175 114.197 255.143Z" fill="white"/>
</svg>
