<svg width="7" height="40" viewBox="0 0 7 40" fill="none" xmlns="http://www.w3.org/2000/svg">
<path d="M0.335629 39.6461C0.234666 39.587 1.47059 37.7104 2.66126 34.3195C3.88326 30.9494 4.9486 26.0684 5.46038 20.6094C6.00697 15.147 5.92342 10.165 5.78416 6.56858C5.7006 4.77214 5.61704 3.31689 5.53696 2.31074C5.46385 1.30459 5.44297 0.747549 5.48127 0.740586C5.51957 0.737105 5.61355 1.28718 5.75281 2.28637C5.89904 3.28555 6.04527 4.74081 6.18105 6.54422C6.42127 10.1476 6.57097 15.1574 6.02089 20.6581C5.50563 26.1554 4.36719 31.0747 3.03726 34.4518C2.38971 36.1473 1.72126 37.4598 1.20948 38.3336C0.676818 39.197 0.370447 39.6635 0.339114 39.6427L0.335629 39.6461Z" fill="#1A2E35"/>
</svg>
