<svg width="23" height="16" viewBox="0 0 23 16" fill="none" xmlns="http://www.w3.org/2000/svg">
<path d="M21.8284 2.47493C22.0819 2.26129 22.2286 1.96082 22.2286 1.64004C22.2286 1.31927 22.0819 1.01879 21.8284 0.805156C21.3457 0.398281 20.5928 0.398281 20.1101 0.805156L6.26688 12.4734L3.36023 10.0234C2.87752 9.61652 2.12458 9.61652 1.64187 10.0234C1.3884 10.237 1.2417 10.5375 1.2417 10.8583C1.2417 11.1791 1.3884 11.4795 1.64187 11.6932L5.40769 14.8673C5.64787 15.0698 5.95788 15.1725 6.26688 15.1725C6.57588 15.1725 6.88589 15.0698 7.12606 14.8673L21.8284 2.47493Z" fill="#1E90FF" stroke="white" stroke-linecap="round" stroke-linejoin="round"/>
</svg>
