<svg width="49" height="12" viewBox="0 0 49 12" fill="none" xmlns="http://www.w3.org/2000/svg">
<path d="M48.439 11.5289C48.439 11.5498 48.2684 11.5741 47.9412 11.609C47.5478 11.6438 47.0708 11.6856 46.5033 11.7343C45.8767 11.7865 45.1107 11.8387 44.2195 11.8527C43.3282 11.8736 42.3151 11.9223 41.1906 11.8875C38.945 11.8805 36.2747 11.7273 33.3224 11.414C30.3736 11.0693 27.1463 10.5471 23.8076 9.77074C20.4723 8.97348 17.3494 8.00215 14.5573 6.99252C11.7756 5.95504 9.31415 4.90014 7.30185 3.90444C6.28178 3.43444 5.39748 2.93659 4.60719 2.52229C3.81689 2.11148 3.15193 1.72504 2.61578 1.39778C2.12837 1.09837 1.72104 0.851186 1.38333 0.645779C1.10481 0.468223 0.962075 0.367258 0.97252 0.349851C0.982964 0.332443 1.14311 0.402075 1.43904 0.548298C1.79067 0.729335 2.21192 0.945184 2.72022 1.20978C3.27029 1.5057 3.94571 1.8643 4.74993 2.24726C5.55067 2.63371 6.44193 3.10718 7.46897 3.54933C9.49171 4.4963 11.9531 5.50593 14.7278 6.51208C17.513 7.48689 20.6185 8.43734 23.9329 9.23111C27.2507 10.0005 30.4537 10.5332 33.3816 10.9057C36.313 11.2434 38.9659 11.4384 41.201 11.4941C42.3186 11.5533 43.3282 11.5324 44.216 11.5428C45.1038 11.5602 45.8697 11.5428 46.4929 11.5219C47.0639 11.515 47.5408 11.508 47.9342 11.5045C48.265 11.5045 48.439 11.515 48.439 11.5359V11.5289Z" fill="white"/>
</svg>
