<svg width="21" height="22" viewBox="0 0 21 22" fill="none" xmlns="http://www.w3.org/2000/svg">
<path d="M19.0061 3.16651H15.3736C14.3263 1.59155 12.5359 0.551331 10.5068 0.551331C8.4778 0.551331 6.68742 1.59155 5.64012 3.16651H2.00755C0.949999 3.16651 0.0895996 4.02691 0.0895996 5.08446V15.5451C0.0895996 16.6027 0.949999 17.4631 2.00755 17.4631H7.28128V20.165H5.9303C5.5932 20.165 5.31991 20.4383 5.31991 20.7754C5.31991 21.1125 5.5932 21.3858 5.9303 21.3858H15.0834C15.4205 21.3858 15.6938 21.1125 15.6938 20.7754C15.6938 20.4383 15.4205 20.165 15.0834 20.165H13.7324V17.4631H19.0061C20.0637 17.4631 20.9241 16.6027 20.9241 15.5451V5.08446C20.9241 4.02691 20.0637 3.16651 19.0061 3.16651ZM10.5068 1.7721C13.0543 1.7721 15.1268 3.8446 15.1268 6.39203C15.1268 8.93945 13.0543 11.012 10.5068 11.012C7.95938 11.012 5.88692 8.93945 5.88692 6.39203C5.88692 3.8446 7.95938 1.7721 10.5068 1.7721ZM12.5116 20.165H8.50209V17.4631H12.5116V20.165ZM19.7033 15.5451C19.7033 15.9295 19.3906 16.2423 19.0061 16.2423H2.00755C1.62313 16.2423 1.31037 15.9295 1.31037 15.5451V5.08446C1.31037 4.70004 1.62313 4.38728 2.00755 4.38728H5.02062C4.79132 5.0128 4.66611 5.68809 4.66611 6.39207C4.66611 9.61267 7.28625 12.2328 10.5068 12.2328C11.8977 12.2328 13.1763 11.7438 14.1806 10.9291L17.2669 14.0154C17.5052 14.2537 17.8917 14.2537 18.1301 14.0154C18.3684 13.777 18.3684 13.3905 18.1301 13.1522L15.0438 10.0659C15.8585 9.06165 16.3475 7.78297 16.3475 6.39207C16.3475 5.68809 16.2223 5.0128 15.993 4.38728H19.0061C19.3905 4.38728 19.7032 4.70004 19.7032 5.08446V15.5451H19.7033Z" fill="black"/>
</svg>
