<svg width="70" height="58" viewBox="0 0 70 58" fill="none" xmlns="http://www.w3.org/2000/svg">
<path d="M69.5404 0.25459C69.5404 0.25459 69.4569 0.278959 69.2932 0.296366C69.0948 0.313773 68.8546 0.334663 68.5621 0.362515C67.9215 0.428663 66.9711 0.449551 65.7596 0.595774C63.3295 0.815107 59.8201 1.29555 55.5727 2.28429C51.3253 3.26607 46.3573 4.85711 41.1281 7.28022C35.8989 9.69288 30.4469 13.0038 25.3012 17.2164C20.1904 21.4673 15.9047 26.1951 12.5416 30.8707C9.16806 35.5464 6.66488 40.121 4.89629 44.1039C3.12073 48.0867 1.98229 51.4393 1.30688 53.7824C0.934363 54.9452 0.73244 55.8747 0.547921 56.491C0.467847 56.773 0.398212 57.0027 0.345989 57.1942C0.297249 57.3509 0.265915 57.431 0.258952 57.431C0.248508 57.431 0.258951 57.3439 0.290284 57.1838C0.332062 56.9888 0.380811 56.7521 0.439996 56.4666C0.593181 55.8399 0.756805 54.9034 1.09799 53.7267C1.71421 51.3558 2.79695 47.9718 4.53421 43.9472C6.26799 39.9226 8.75029 35.2957 12.1238 30.5713C15.487 25.847 19.7935 21.0704 24.9461 16.7847C30.1301 12.5407 35.6343 9.2194 40.9122 6.8137C46.1901 4.40103 51.2035 2.83785 55.4822 1.90133C59.7644 0.957848 63.2947 0.536588 65.7387 0.383403C66.9572 0.271996 67.9111 0.285923 68.5552 0.25459C68.8476 0.251108 69.0879 0.247622 69.2898 0.244141C69.4534 0.244141 69.5404 0.251107 69.5404 0.25807V0.25459Z" fill="white"/>
</svg>
