<svg width="87" height="88" viewBox="0 0 87 88" fill="none" xmlns="http://www.w3.org/2000/svg">
<g filter="url(#filter0_d_1_482)">
<path d="M58.1705 39.9496C58.8598 39.9496 59.4186 39.3909 59.4186 38.7015V34.0212C59.4186 33.4825 59.073 33.0046 58.5614 32.8359L43.8027 27.9683C43.5483 27.8844 43.2737 27.8846 43.0194 27.9689L28.3231 32.8364C27.8123 33.0056 27.4674 33.4831 27.4674 34.0212V38.7015C27.4674 39.3909 28.0262 39.9496 28.7155 39.9496H29.6516V52.3682H28.7155C28.0262 52.3682 27.4674 52.9269 27.4674 53.6162V58.6086C27.4674 59.2979 28.0262 59.8567 28.7155 59.8567H48.6226C50.2786 59.7908 50.2773 57.4259 48.6226 57.3605H29.9636V54.8643H45.8768C46.5661 54.8643 47.1249 54.3056 47.1249 53.6162V39.9496H53.4902V42.3179C48.5476 43.8856 49.5283 51.0557 54.7695 51.1825C57.4591 51.2932 57.4602 55.1275 54.7695 55.2388C53.9719 55.2388 53.2452 54.7685 52.918 54.0407C52.6354 53.412 51.8966 53.1313 51.268 53.4139C50.6393 53.6965 50.3587 54.4353 50.6413 55.064C51.1902 56.2853 52.2441 57.1812 53.4902 57.5497V58.6086C53.5561 60.2646 55.921 60.2633 55.9863 58.6086V57.5687C60.9864 56.0573 60.0471 48.8174 54.7694 48.6863C52.0799 48.5755 52.0787 44.7413 54.7695 44.63C55.5854 44.63 56.3187 45.1154 56.6377 45.8665C56.907 46.501 57.6398 46.7969 58.2742 46.5277C58.9087 46.2584 59.2047 45.5255 58.9353 44.8911C58.3877 43.6012 57.2922 42.6629 55.9863 42.2995V39.9496H58.1705ZM29.9636 34.9226L43.4126 30.4681L56.9224 34.9238V37.4534H29.9636V34.9226ZM39.6363 39.9496V52.3682H37.1401V39.9496H39.6363ZM32.1478 39.9496H34.6439V52.3682H32.1478V39.9496ZM44.6287 52.3682H42.1325V39.9496H44.6287V52.3682ZM44.6287 34.3956C44.6287 35.0849 44.0699 35.6437 43.3806 35.6437C41.725 35.578 41.7255 33.213 43.3806 33.1475C44.0699 33.1475 44.6287 33.7063 44.6287 34.3956Z" fill="#00ED85"/>
</g>
<defs>
<filter id="filter0_d_1_482" x="0.0674076" y="0.505518" width="86.7512" height="86.7512" filterUnits="userSpaceOnUse" color-interpolation-filters="sRGB">
<feFlood flood-opacity="0" result="BackgroundImageFix"/>
<feColorMatrix in="SourceAlpha" type="matrix" values="0 0 0 0 0 0 0 0 0 0 0 0 0 0 0 0 0 0 127 0" result="hardAlpha"/>
<feOffset/>
<feGaussianBlur stdDeviation="13.7"/>
<feComposite in2="hardAlpha" operator="out"/>
<feColorMatrix type="matrix" values="0 0 0 0 0 0 0 0 0 0.929412 0 0 0 0 0.521569 0 0 0 0.38 0"/>
<feBlend mode="normal" in2="BackgroundImageFix" result="effect1_dropShadow_1_482"/>
<feBlend mode="normal" in="SourceGraphic" in2="effect1_dropShadow_1_482" result="shape"/>
</filter>
</defs>
</svg>
