<svg width="42" height="35" viewBox="0 0 42 35" fill="none" xmlns="http://www.w3.org/2000/svg">
<path d="M2.89917 30.7352C3.1116 31.1454 3.45148 31.2589 3.89086 31.2554C6.12022 31.2417 8.34958 31.2497 10.5801 31.2474C10.7287 31.2474 10.8797 31.2474 11.0239 31.2188C11.3493 31.1557 11.5717 30.8498 11.5639 30.5049C11.5572 30.176 11.3347 29.8873 11.0228 29.8265C10.8786 29.799 10.7265 29.799 10.5789 29.799C8.64697 29.7979 6.7139 29.799 4.78194 29.799C4.64665 29.799 4.51137 29.799 4.33025 29.799C4.33025 29.6295 4.33025 29.4942 4.33025 29.3579C4.33025 27.3779 4.33025 25.3967 4.32913 23.4167C4.32913 23.2769 4.32242 23.1359 4.3023 22.9973C4.24863 22.6398 4.03062 22.4312 3.69074 22.3842C3.37769 22.3418 3.14066 22.4931 2.98302 22.7727C2.95507 22.822 2.92824 22.8724 2.90029 22.9216C2.90029 25.525 2.90029 28.1295 2.90029 30.7329L2.89917 30.7352Z" fill="#F8D960"/>
<path d="M2.89907 10.3963C3.0623 10.7309 3.28702 10.9829 3.68952 10.9371C4.09201 10.8913 4.32344 10.5819 4.32679 10.0789C4.3335 9.15302 4.32903 8.22718 4.32903 7.30133C4.32903 6.06038 4.32903 4.81942 4.32903 3.52002C4.48332 3.52002 4.61525 3.52002 4.74606 3.52002C6.69031 3.52002 8.63345 3.52002 10.5777 3.52002C10.7264 3.52002 10.8773 3.52002 11.0216 3.49252C11.3469 3.4295 11.5694 3.12471 11.5627 2.77981C11.556 2.45095 11.3346 2.16105 11.0227 2.10146C10.8785 2.07396 10.7264 2.07396 10.5788 2.07282C8.34947 2.07167 6.119 2.07969 3.88964 2.0648C3.45026 2.0625 3.11038 2.17479 2.89795 2.58501V10.3963H2.89907Z" fill="#F8D960"/>
<path d="M36.6267 29.799C36.4613 29.799 36.3271 29.799 36.1929 29.799C34.2599 29.799 32.3257 29.799 30.3926 29.799C30.2439 29.799 30.093 29.799 29.9487 29.8242C29.62 29.8827 29.392 30.1794 29.3931 30.5255C29.3942 30.8704 29.6234 31.1626 29.9543 31.2222C30.0773 31.2439 30.2048 31.2462 30.33 31.2462C32.5839 31.2474 34.8379 31.2485 37.0918 31.2462C37.8286 31.2462 38.0578 31.0102 38.0578 30.2608C38.0578 27.9508 38.0578 25.6407 38.0578 23.3307C38.0578 23.2024 38.0578 23.0706 38.031 22.9468C37.9594 22.6019 37.6743 22.3636 37.3501 22.3613C37.027 22.359 36.7441 22.5905 36.6692 22.9388C36.6379 23.0855 36.629 23.2402 36.629 23.3914C36.6267 25.3852 36.6267 27.3778 36.6267 29.3716V29.7967V29.799Z" fill="#F8D960"/>
<path d="M36.6266 3.52119V3.95088C36.6266 5.94352 36.6266 7.93615 36.6266 9.92764C36.6266 10.5945 36.8894 10.96 37.3578 10.9486C37.8162 10.9371 38.0566 10.5899 38.0566 9.93451C38.0566 7.63708 38.0566 5.3408 38.0566 3.04337C38.0566 2.31346 37.8241 2.07169 37.1119 2.07169C34.8479 2.07054 32.5838 2.07169 30.3198 2.07169C30.1946 2.07169 30.0672 2.07398 29.9442 2.0969C29.6166 2.15992 29.3896 2.45555 29.3919 2.80159C29.3941 3.14764 29.6244 3.43869 29.9553 3.49483C30.1007 3.52004 30.2516 3.5189 30.3992 3.5189C32.32 3.52004 34.2419 3.5189 36.1627 3.5189C36.2979 3.5189 36.4332 3.5189 36.6255 3.5189L36.6266 3.52119Z" fill="#F8D960"/>
<path d="M36.1984 17.3391C33.8461 19.8336 31.1628 21.864 28.0994 23.3456C26.2166 24.2554 24.2411 24.8673 22.1649 25.0953C19.504 25.3875 16.9415 24.92 14.4684 23.9334C10.8392 22.4851 7.74899 20.2025 5.02658 17.3746C4.4944 16.8223 4.4944 16.5037 5.02658 15.9423C7.38563 13.4569 10.0667 11.4207 13.139 9.95519C15.4958 8.83112 17.9656 8.15277 20.5851 8.14475C22.7172 8.14132 24.7654 8.60195 26.7388 9.39373C30.3757 10.8535 33.4816 13.1292 36.1984 15.9835C36.6881 16.498 36.6859 16.8211 36.1984 17.3391ZM6.3425 16.6607C9.15883 19.3936 12.2446 21.5947 15.9095 22.8643C12.7868 19.4658 12.6739 13.9943 15.9129 10.4536C12.2457 11.7187 9.15883 13.9244 6.3425 16.6619V16.6607ZM23.9303 11.203C21.863 9.35477 18.8712 9.48998 16.9258 11.5204C15.5819 12.9229 14.9916 14.6394 14.9268 16.679C14.967 18.6923 15.592 20.5658 17.1583 22.0164C19.2547 23.9575 22.1962 23.8773 24.2143 21.8491C27.0395 19.0109 26.902 13.8603 23.9303 11.203ZM25.2954 10.4685C26.8517 12.2435 27.6734 14.3117 27.6712 16.6802C27.669 19.0338 26.8483 21.0883 25.3054 22.8529C28.9771 21.6005 32.0472 19.397 34.859 16.6687C32.0707 13.9267 28.9827 11.7278 25.2965 10.4685H25.2954Z" fill="white"/>
<path d="M20.6029 19.5356C19.0779 19.5322 17.8078 18.2305 17.8023 16.6653C17.7978 15.1046 19.0589 13.8018 20.5929 13.7846C22.1179 13.7674 23.4304 15.1115 23.4114 16.6722C23.3924 18.2454 22.1246 19.5391 20.6029 19.5345V19.5356ZM20.5772 15.2502C19.8225 15.2628 19.2266 15.8976 19.2345 16.6802C19.2423 17.4571 19.8583 18.0747 20.6186 18.069C21.3733 18.0632 21.9871 17.4284 21.9859 16.6561C21.9837 15.8701 21.3509 15.2376 20.5783 15.2502H20.5772Z" fill="white"/>
</svg>
