<?xml version="1.0" encoding="utf-8"?>
<!-- Generator: Adobe Illustrator 17.0.0, SVG Export Plug-In . SVG Version: 6.00 Build 0)  -->
<!DOCTYPE svg PUBLIC "-//W3C//DTD SVG 1.1//EN" "http://www.w3.org/Graphics/SVG/1.1/DTD/svg11.dtd">
<svg version="1.1" id="Layer_1" xmlns="http://www.w3.org/2000/svg" xmlns:xlink="http://www.w3.org/1999/xlink" x="0px" y="0px"
	 width="84px" height="74px" viewBox="0 0 84 74" enable-background="new 0 0 84 74" xml:space="preserve">
<path fill="#FFFFFF" d="M29.627,15.814c0.591,0.134,1.141,0.35,1.568,0.801c0.483,0.51,0.729,1.119,0.747,1.823
	c0.038,1.444,0.163,2.879,0.506,4.286c0.144,0.59,0.326,1.171,0.472,1.761c0.218,0.88,0.002,1.655-0.553,2.369
	c-0.924,1.189-1.824,2.397-2.725,3.604c-0.052,0.069-0.057,0.226-0.015,0.305c1.632,3.069,3.779,5.685,6.726,7.587
	c0.699,0.451,1.423,0.863,2.13,1.303c0.165,0.103,0.275,0.08,0.423-0.034c1.22-0.936,2.443-1.87,3.674-2.791
	c0.654-0.489,1.401-0.62,2.189-0.442c0.946,0.214,1.875,0.514,2.829,0.68c0.922,0.161,1.866,0.274,2.801,0.273
	c1.505-0.002,2.724,0.651,3.086,2.335c0,2.223,0,4.447,0,6.67c-0.183,0.422-0.316,0.877-0.561,1.259
	c-0.398,0.622-1.05,0.89-1.748,1.05c-0.534,0-1.069,0-1.603,0c-0.104-0.016-0.209-0.036-0.314-0.048
	c-1.187-0.134-2.383-0.219-3.561-0.41c-3.284-0.533-6.383-1.628-9.295-3.232c-4.612-2.54-8.335-6.037-11.141-10.497
	c-2.444-3.884-3.912-8.112-4.424-12.671c-0.077-0.687-0.129-1.378-0.193-2.067c0-0.534,0-1.069,0-1.603
	c0.183-0.422,0.316-0.877,0.561-1.259c0.398-0.62,1.049-0.892,1.748-1.05C25.18,15.814,27.403,15.814,29.627,15.814z"/>
</svg>
