<?xml version="1.0" encoding="utf-8"?>
<!-- Generator: Adobe Illustrator 17.0.0, SVG Export Plug-In . SVG Version: 6.00 Build 0)  -->
<!DOCTYPE svg PUBLIC "-//W3C//DTD SVG 1.1//EN" "http://www.w3.org/Graphics/SVG/1.1/DTD/svg11.dtd">
<svg version="1.1" id="Layer_1" xmlns="http://www.w3.org/2000/svg" xmlns:xlink="http://www.w3.org/1999/xlink" x="0px" y="0px"
	 width="84px" height="74px" viewBox="0 0 84 74" enable-background="new 0 0 84 74" xml:space="preserve">
<g>
	<g>
		<path fill="#FFFFFF" d="M21.265,24.536c0.117-0.359,0.235-0.719,0.342-1.047c4.287,4.249,8.553,8.477,12.824,12.709
			c-4.286,4.245-8.554,8.472-12.836,12.713c-0.085-0.254-0.208-0.618-0.33-0.983C21.265,40.131,21.265,32.334,21.265,24.536z"/>
		<path fill="#FFFFFF" d="M63.738,47.929c-0.117,0.359-0.235,0.719-0.342,1.047c-4.287-4.249-8.553-8.477-12.824-12.709
			c4.286-4.245,8.554-8.472,12.836-12.713c0.085,0.254,0.208,0.618,0.33,0.983C63.738,32.334,63.738,40.131,63.738,47.929z"/>
		<path fill="#FFFFFF" d="M23.406,21.601c0.519-0.111,0.944-0.21,1.372-0.288c0.161-0.029,0.331-0.012,0.497-0.012
			c11.486,0,22.972,0,34.459-0.002c0.613,0,1.208,0.06,1.877,0.48c-0.133,0.075-0.293,0.124-0.397,0.229
			c-5.84,5.85-11.674,11.704-17.51,17.558c-0.81,0.813-1.595,0.812-2.407-0.002c-5.836-5.854-11.671-11.708-17.506-17.562
			C23.694,21.906,23.602,21.805,23.406,21.601z"/>
		<path fill="#FFFFFF" d="M48.641,38.065c4.323,4.282,8.59,8.508,12.93,12.806c-0.49,0.104-0.915,0.203-1.343,0.281
			c-0.161,0.029-0.331,0.012-0.497,0.012c-11.489,0-22.977,0-34.466,0.002c-0.613,0-1.207-0.063-1.791-0.358
			c4.282-4.24,8.542-8.459,12.832-12.706c0.026,0.024,0.137,0.12,0.24,0.224c1.025,1.028,2.047,2.059,3.074,3.085
			c1.66,1.657,4.07,1.669,5.739,0.022c1.033-1.02,2.052-2.054,3.073-3.086C48.538,38.239,48.614,38.102,48.641,38.065z"/>
	</g>
</g>
</svg>
