<svg width="188" height="189" viewBox="0 0 188 189" fill="none" xmlns="http://www.w3.org/2000/svg">
<path d="M173.04 87.8918C173.04 86.8343 172.629 85.8403 171.881 85.0953L168.941 82.1555C167.4 80.6139 164.89 80.6139 163.346 82.1555L159.586 85.9155L159.231 85.5606C156.27 82.5996 151.448 82.5996 148.487 85.5606L99.5366 134.511C99.1723 134.875 98.9444 135.352 98.888 135.865L96.7894 155.273C96.7142 155.964 96.9633 156.653 97.4615 157.137C97.8869 157.548 98.4509 157.774 99.0337 157.774C99.1371 157.774 99.2405 157.767 99.3439 157.753L118.24 155.137C118.727 155.069 119.18 154.846 119.528 154.498L163.689 110.337C163.689 110.337 163.689 110.337 163.692 110.334C163.694 110.332 163.692 110.334 163.694 110.332L168.476 105.55C169.912 104.114 170.702 102.208 170.702 100.178C170.702 98.1472 169.912 96.2414 168.476 94.8055L168.121 94.4507L171.881 90.6907C172.629 89.9434 173.04 88.9493 173.04 87.8942V87.8918ZM123.269 144.369L109.667 130.768L145.298 95.1369L158.9 108.739L123.269 144.369ZM116.87 150.768L101.593 152.883L103.297 137.141L106.476 133.961L120.078 147.563L116.873 150.768H116.87ZM165.285 102.354L162.096 105.543L148.494 91.9409L151.683 88.7519C152.884 87.5511 154.839 87.5511 156.04 88.7519L165.285 97.9968C165.868 98.5796 166.187 99.3528 166.187 100.175C166.187 100.998 165.868 101.773 165.285 102.354ZM164.928 91.2547L162.782 89.1068L166.145 85.7439L168.293 87.8918L164.93 91.2547H164.928Z" fill="#8CC4F2"/>
<path d="M128.569 21.3796H58.7383C58.6631 21.3796 58.5879 21.3867 58.5127 21.3914C58.4422 21.3843 58.3693 21.3796 58.2965 21.3796C57.6502 21.3796 57.0674 21.6522 56.6562 22.0893C56.5387 22.181 56.4212 22.2773 56.3154 22.3854L33.558 45.1428C33.4969 45.2039 33.4405 45.2697 33.3841 45.3332C32.8765 45.7468 32.5522 46.3766 32.5522 47.0816C32.5522 47.1615 32.5569 47.239 32.564 47.3166C32.5569 47.3988 32.5522 47.4834 32.5522 47.5657V104.882C32.5522 106.13 33.5627 107.141 34.8106 107.141C36.0584 107.141 37.0689 106.13 37.0689 104.882V49.3399H53.103C57.2108 49.3399 60.5548 45.9959 60.5548 41.8881V25.8963H128.569C131.938 25.8963 134.681 28.6388 134.681 32.0087V86.5663C134.681 87.8141 135.691 88.8246 136.939 88.8246C138.187 88.8246 139.198 87.8141 139.198 86.5663V32.0087C139.198 26.1478 134.429 21.3796 128.569 21.3796ZM53.103 44.8232H40.2626L56.0381 29.0477V41.8881C56.0381 43.5072 54.7221 44.8232 53.103 44.8232Z" fill="#0D3C58"/>
<path d="M136.939 145.302C135.691 145.302 134.681 146.313 134.681 147.561V159.792C134.681 163.162 131.938 165.905 128.569 165.905H43.1813C39.8114 165.905 37.0689 163.162 37.0689 159.792C37.0689 158.545 36.0584 157.534 34.8106 157.534C33.5627 157.534 32.5522 158.545 32.5522 159.792C32.5522 165.653 37.3204 170.421 43.1813 170.421H128.569C134.429 170.421 139.198 165.653 139.198 159.792V147.561C139.198 146.313 138.187 145.302 136.939 145.302Z" fill="#0D3C58"/>
<path d="M144.165 27.3416C142.918 27.3416 141.907 28.3521 141.907 29.5999V79.34C141.907 80.5878 142.918 81.5984 144.165 81.5984C145.413 81.5984 146.424 80.5878 146.424 79.34V29.5999C146.424 28.3521 145.413 27.3416 144.165 27.3416Z" fill="#0D3C58"/>
<path d="M144.165 138.076C142.918 138.076 141.907 139.086 141.907 140.334V159.792C141.907 161.04 142.918 162.051 144.165 162.051C145.413 162.051 146.424 161.04 146.424 159.792V140.334C146.424 139.086 145.413 138.076 144.165 138.076Z" fill="#0D3C58"/>
<path d="M151.392 30.5024C150.144 30.5024 149.133 31.5129 149.133 32.7608V73.9187C149.133 75.1665 150.144 76.177 151.392 76.177C152.64 76.177 153.65 75.1665 153.65 73.9187V32.7608C153.65 31.5129 152.64 30.5024 151.392 30.5024Z" fill="#0D3C58"/>
<path d="M151.392 130.85C150.144 130.85 149.133 131.86 149.133 133.108V156.178C149.133 157.426 150.144 158.436 151.392 158.436C152.64 158.436 153.65 157.426 153.65 156.178V133.108C153.65 131.86 152.64 130.85 151.392 130.85Z" fill="#0D3C58"/>
<path d="M90.7217 89.0362V103.385C90.7217 104.633 91.7322 105.644 92.9801 105.644H107.329C108.577 105.644 109.588 104.633 109.588 103.385V89.0362C109.588 87.7883 108.577 86.7778 107.329 86.7778H92.9801C91.7322 86.7778 90.7217 87.7883 90.7217 89.0362ZM95.2361 91.2945H105.068V101.127H95.2361V91.2945Z" fill="#0D3C58"/>
<path d="M62.1646 96.6737C62.1646 102.257 66.7071 106.8 72.2907 106.8C77.8743 106.8 82.4168 102.257 82.4168 96.6737C82.4168 91.0901 77.8743 86.5452 72.2907 86.5452C66.7071 86.5452 62.1646 91.0877 62.1646 96.6737ZM72.2907 91.0642C75.3833 91.0642 77.9001 93.5811 77.9001 96.676C77.9001 99.771 75.3833 102.285 72.2907 102.285C69.1981 102.285 66.6813 99.7686 66.6813 96.676C66.6813 93.5834 69.1981 91.0642 72.2907 91.0642Z" fill="#0D3C58"/>
<path d="M70.0323 75.009V80.5645C70.0323 81.8123 71.0428 82.8228 72.2907 82.8228C73.5385 82.8228 74.549 81.8123 74.549 80.5645V77.2674H97.8939V80.5645C97.8939 81.8123 98.9044 82.8228 100.152 82.8228C101.4 82.8228 102.411 81.8123 102.411 80.5645V75.009C102.411 73.7612 101.4 72.7507 100.152 72.7507H88.4798V66.7229C88.4798 65.4751 87.4693 64.4646 86.2215 64.4646C84.9736 64.4646 83.9631 65.4751 83.9631 66.7229V72.7507H72.2907C71.0428 72.7507 70.0323 73.7612 70.0323 75.009Z" fill="#0D3C58"/>
<path d="M84.9878 60.4391C85.3638 60.6835 85.7938 60.808 86.2239 60.808C86.6539 60.808 87.084 60.6858 87.46 60.4391L99.0314 52.8768C99.6706 52.4585 100.054 51.7488 100.054 50.9874C100.054 50.226 99.6682 49.5139 99.0314 49.098L87.46 41.5357C87.0934 41.296 86.6633 41.1667 86.2239 41.1667C85.7758 41.1667 84.7614 41.683 83.1806 42.7154L73.4164 49.0956C72.7772 49.5139 72.3941 50.2236 72.3941 50.985C72.3941 51.7464 72.7795 52.4585 73.4164 52.8744L84.9878 60.4367V60.4391ZM86.2215 46.1229L93.664 50.9874L86.2192 55.8519L78.7767 50.9874C81.1714 49.4223 84.459 47.2744 86.2192 46.1229H86.2215Z" fill="#0D3C58"/>
<path d="M71.44 132.424C71.44 119.443 60.8791 108.882 47.8977 108.882C34.9163 108.882 24.3554 119.443 24.3554 132.424C24.3554 145.406 34.9163 155.966 47.8977 155.966C60.8791 155.966 71.44 145.406 71.44 132.424ZM28.8698 132.424C28.8698 121.934 37.405 113.399 47.8954 113.399C58.3858 113.399 66.921 121.934 66.921 132.424C66.921 142.915 58.3858 151.45 47.8954 151.45C37.405 151.45 28.8698 142.915 28.8698 132.424Z" fill="#0D3C58"/>
<path d="M50.1561 143.067V131.19C50.1561 129.943 49.1456 128.932 47.8977 128.932C46.6499 128.932 45.6394 129.943 45.6394 131.19V143.067C45.6394 144.315 46.6499 145.326 47.8977 145.326C49.1456 145.326 50.1561 144.315 50.1561 143.067Z" fill="#0D3C58"/>
<path d="M47.8977 125.438C49.1456 125.438 50.1561 124.427 50.1561 123.179V121.783C50.1561 120.536 49.1456 119.525 47.8977 119.525C46.6499 119.525 45.6394 120.536 45.6394 121.783V123.179C45.6394 124.427 46.6499 125.438 47.8977 125.438Z" fill="#0D3C58"/>
</svg>
