<?xml version="1.0" encoding="utf-8"?>
<!-- Generator: Adobe Illustrator 17.0.0, SVG Export Plug-In . SVG Version: 6.00 Build 0)  -->
<!DOCTYPE svg PUBLIC "-//W3C//DTD SVG 1.1//EN" "http://www.w3.org/Graphics/SVG/1.1/DTD/svg11.dtd">
<svg version="1.1" id="Layer_1" xmlns="http://www.w3.org/2000/svg" xmlns:xlink="http://www.w3.org/1999/xlink" x="0px" y="0px"
	 width="140px" height="140px" viewBox="0 0 140 140" enable-background="new 0 0 140 140" xml:space="preserve">
<path fill="#FFFFFF" d="M52.28,27.882c1.513,0.343,2.922,0.896,4.016,2.051c1.237,1.307,1.866,2.866,1.913,4.668
	c0.096,3.698,0.418,7.371,1.296,10.975c0.368,1.512,0.835,2.999,1.209,4.51c0.558,2.253,0.005,4.237-1.416,6.065
	c-2.366,3.045-4.671,6.137-6.977,9.228c-0.133,0.178-0.146,0.579-0.038,0.781c4.179,7.858,9.676,14.558,17.223,19.428
	c1.79,1.155,3.645,2.21,5.453,3.337c0.422,0.263,0.703,0.204,1.084-0.088c3.124-2.398,6.255-4.788,9.408-7.148
	c1.674-1.253,3.588-1.589,5.605-1.132c2.422,0.549,4.802,1.315,7.244,1.74c2.362,0.411,4.779,0.703,7.172,0.7
	c3.854-0.005,6.975,1.667,7.902,5.978c0,5.693,0,11.387,0,17.08c-0.469,1.081-0.809,2.245-1.436,3.225
	c-1.018,1.592-2.689,2.279-4.476,2.687c-1.369,0-2.737,0-4.106,0c-0.268-0.042-0.534-0.093-0.803-0.123
	c-3.04-0.344-6.101-0.561-9.118-1.051c-8.408-1.365-16.346-4.17-23.8-8.276c-11.809-6.505-21.342-15.459-28.527-26.88
	c-6.257-9.946-10.016-20.772-11.327-32.447c-0.198-1.76-0.331-3.528-0.493-5.292c0-1.369,0-2.737,0-4.106
	c0.469-1.081,0.809-2.245,1.438-3.223c1.02-1.589,2.686-2.284,4.475-2.689C40.893,27.882,46.586,27.882,52.28,27.882z"/>
</svg>
