<?xml version="1.0" encoding="UTF-8"?>
<svg id="Layer_1" xmlns="http://www.w3.org/2000/svg" version="1.1" viewBox="0 0 200 57">
  <!-- Generator: Adobe Illustrator 29.2.1, SVG Export Plug-In . SVG Version: 2.1.0 Build 116)  -->
  <defs>
    <style>
      .st0 {
        fill: #026d9d;
      }

      .st1 {
        fill: #34934e;
        fill-rule: evenodd;
      }
    </style>
  </defs>
  <path class="st0" d="M16.21,22.29c0-.77-.21-1.49-.64-2.18-.4-.63-.95-1.1-1.67-1.41-.74-.28-2.01-.43-3.8-.43h-4.23v8.07l4.01.09c.91-.03,1.69-.08,2.35-.15.65-.07,1.18-.19,1.58-.36.74-.26,1.32-.73,1.75-1.41.43-.63.64-1.37.64-2.22M18.68,17.33c1.11,1.34,1.67,2.99,1.67,4.95s-.54,3.61-1.62,4.95c-1.02,1.28-2.48,2.16-4.36,2.65-1.25.28-3.64.43-7.17.43h-1.32v12.85H1.82V14.3h6.15c3.24,0,5.42.14,6.53.43,1.74.43,3.13,1.3,4.18,2.6Z"/>
  <path class="st0" d="M31.88,26.43c.57,0,.97-.04,1.2-.13.23-.09.54-.23.94-.43.37-.2.62-.4.75-.6.13-.2.31-.46.53-.77.43-.68.64-1.44.64-2.26,0-.77-.21-1.48-.64-2.14-.23-.34-.47-.63-.73-.88-.26-.24-.5-.43-.73-.58-.43-.26-1.04-.38-1.84-.38h-4.23v8.11l4.1.04ZM43.32,43.17h-5.04l-9.91-12.81h-.6v12.81h-4.06V14.3h6.15c.77,0,1.39.01,1.88.04.48.03.88.06,1.17.11.3.04.53.09.68.13.16.04.31.08.45.11,1.79.43,3.23,1.3,4.31,2.6,1.14,1.34,1.71,3,1.71,5,0,1.62-.38,3.05-1.15,4.27-.4.65-.88,1.22-1.43,1.69-.56.47-1.19.86-1.9,1.17-.48.23-.88.41-1.17.53-.3.13-.65.25-1.05.36l9.95,12.85Z"/>
  <polygon class="st0" points="90.61 14.3 94.67 14.3 94.67 43.17 90.61 43.17 90.61 29.84 77.84 29.84 77.84 43.17 73.83 43.17 73.83 14.3 77.84 14.3 77.84 25.87 90.61 25.87 90.61 14.3"/>
  <polygon class="st0" points="145.04 14.3 149.06 14.3 149.06 43.17 147.52 43.17 130.23 23.35 130.23 43.17 126.09 43.17 126.09 14.3 127.62 14.3 145.04 34.37 145.04 14.3"/>
  <path class="st0" d="M179.6,37.32l-.38.51c-1.42,1.82-3.22,3.25-5.38,4.27-2.16,1-4.55,1.49-7.17,1.49-5.01,0-8.98-1.68-11.91-5.04-2.45-2.87-3.67-6.3-3.67-10.29,0-4.21,1.48-7.76,4.44-10.63,2.96-2.87,6.66-4.31,11.1-4.31,1.34,0,2.61.13,3.82.38,1.21.26,2.36.65,3.44,1.2,2.19,1.08,3.97,2.58,5.34,4.48l.38.51-3.2,2.43-.38-.51c-1.11-1.45-2.48-2.58-4.1-3.37-1.59-.77-3.34-1.15-5.25-1.15-2.08,0-4.01.51-5.81,1.54-1.79,1-3.16,2.33-4.1,4.01-1,1.68-1.49,3.57-1.49,5.68,0,1.54.27,3,.81,4.4.57,1.34,1.39,2.53,2.48,3.59.54.54,1.12,1,1.73,1.39.61.38,1.26.72,1.94,1,1.48.54,3.02.81,4.61.81,1.82,0,3.5-.37,5.04-1.11,1.51-.68,2.9-1.77,4.18-3.25l.38-.43,3.16,2.39Z"/>
  <polygon class="st0" points="198.18 18.32 185.12 18.32 185.12 25.66 185.12 26.79 198.18 26.79 198.18 30.76 185.12 30.76 185.12 39.24 198.05 39.24 198.05 43.21 181.06 43.21 181.06 14.35 198.18 14.35 198.18 18.32"/>
  <path class="st0" d="M67.93,28.52c0-2.08-.47-3.96-1.41-5.64-.97-1.65-2.33-2.99-4.1-4.01-1.76-1-3.63-1.49-5.59-1.49s-3.73.5-5.47,1.49c-1.71,1.02-3.06,2.38-4.06,4.06-.97,1.68-1.45,3.59-1.45,5.72,0,1.59.27,3.03.81,4.31.51,1.28,1.31,2.46,2.39,3.54,1.08,1.08,2.28,1.88,3.59,2.39,1.25.54,2.65.81,4.18.81,1.99,0,3.87-.48,5.64-1.45,1.74-1,3.07-2.35,4.01-4.06.97-1.65,1.45-3.54,1.45-5.68M67.68,17.76c2.93,2.93,4.4,6.52,4.4,10.76s-1.47,7.83-4.4,10.76c-2.93,2.93-6.5,4.4-10.72,4.4s-7.86-1.47-10.85-4.4c-2.93-2.93-4.4-6.48-4.4-10.63,0-2.76.67-5.32,2.01-7.69,1.34-2.36,3.17-4.21,5.51-5.55,2.28-1.34,4.77-2.01,7.47-2.01,4.36,0,8.01,1.45,10.97,4.36Z"/>
  <polygon class="st1" points="124.54 43.14 120.08 43.15 109.65 23.11 100.2 43.15 95.89 43.17 109.58 14.41 124.54 43.14"/>
</svg>