<svg width="156" height="157" viewBox="0 0 156 157" fill="none" xmlns="http://www.w3.org/2000/svg">
<path d="M36.0057 75.7H23.72C16.6568 75.7 10.9097 81.447 10.9097 88.5102V116.669C10.9097 119.508 13.2194 121.817 16.0582 121.817H18.9589V145.185C18.9589 148.419 21.1701 151.205 24.2161 151.809C26.1643 152.195 28.1571 151.698 29.6819 150.447C29.7425 150.396 29.8036 150.344 29.8633 150.292C29.923 150.345 29.985 150.397 30.0469 150.448C31.2316 151.421 32.6998 151.937 34.2095 151.937C34.6418 151.937 35.0782 151.895 35.5114 151.809C38.5565 151.203 40.7664 148.416 40.7664 145.183V121.817H43.668C46.5067 121.817 48.8155 119.508 48.8155 116.669V88.5102C48.8155 81.447 43.0685 75.7 36.0052 75.7H36.0057ZM44.3677 116.669C44.3677 117.055 44.054 117.368 43.6684 117.368H40.7668V103.063C40.7668 101.834 39.7711 100.839 38.5427 100.839C37.3143 100.839 36.3186 101.834 36.3186 103.063V145.183C36.3186 146.283 35.5988 147.256 34.6449 147.445C33.7718 147.621 33.158 147.246 32.8692 147.01C32.3718 146.602 32.0874 146.006 32.0874 145.374V131.141C32.0874 129.912 31.0917 128.916 29.8633 128.916C28.6349 128.916 27.6392 129.912 27.6392 131.141V145.374C27.6392 146.006 27.3548 146.602 26.8583 147.009C26.5704 147.248 25.9557 147.623 25.0808 147.445C24.1274 147.256 23.4071 146.284 23.4071 145.184V119.597C23.4071 119.597 23.408 119.594 23.408 119.592C23.408 119.59 23.4071 119.589 23.4071 119.587V103.063C23.4071 101.834 22.4114 100.839 21.183 100.839C19.9546 100.839 18.9589 101.834 18.9589 103.063V117.368H16.0582C15.6718 117.368 15.3575 117.055 15.3575 116.669V88.5102C15.3575 83.8993 19.1087 80.1482 23.7196 80.1482H36.0052C40.6162 80.1482 44.3673 83.8993 44.3673 88.5102V116.669H44.3677Z" fill="#0D3C58"/>
<path d="M18.4597 60.0011C18.4597 66.2888 23.5756 71.4047 29.8633 71.4047C36.151 71.4047 41.266 66.2888 41.266 60.0011C41.266 53.7134 36.151 48.5984 29.8633 48.5984C23.5756 48.5984 18.4597 53.7134 18.4597 60.0011ZM36.8182 60.0011C36.8182 63.8369 33.6982 66.9569 29.8637 66.9569C26.0293 66.9569 22.9079 63.8369 22.9079 60.0011C22.9079 56.1653 26.0279 53.0466 29.8637 53.0466C33.6996 53.0466 36.8182 56.1666 36.8182 60.0011Z" fill="#0D3C58"/>
<path d="M78.8723 75.7H66.5866C59.5234 75.7 53.7763 81.447 53.7763 88.5102V116.669C53.7763 119.508 56.0851 121.817 58.9239 121.817H61.8246V145.185C61.8246 148.419 64.0358 151.205 67.0827 151.809C69.0287 152.195 71.0215 151.698 72.5462 150.447C72.6082 150.396 72.6688 150.345 72.7285 150.292C72.7883 150.345 72.8502 150.397 72.9122 150.448C74.0969 151.421 75.5651 151.937 77.0747 151.937C77.507 151.937 77.9434 151.895 78.3766 151.809C81.4226 151.203 83.6325 148.416 83.6325 145.183V121.817H86.5332C89.372 121.817 91.6816 119.508 91.6816 116.669V88.5102C91.6816 81.447 85.9346 75.7 78.8714 75.7H78.8723ZM87.2343 116.669C87.2343 117.055 86.9205 117.368 86.5336 117.368H83.6329V103.063C83.6329 101.834 82.6372 100.839 81.4088 100.839C80.1804 100.839 79.1847 101.834 79.1847 103.063V119.587C79.1847 119.587 79.1838 119.59 79.1838 119.592C79.1838 119.594 79.1847 119.596 79.1847 119.597V145.183C79.1847 146.283 78.4649 147.255 77.5102 147.445C76.6348 147.621 76.0224 147.245 75.7344 147.009C75.237 146.601 74.9527 146.006 74.9527 145.374V131.14C74.9527 129.912 73.9569 128.916 72.7285 128.916C71.5001 128.916 70.5044 129.912 70.5044 131.14V145.374C70.5044 146.005 70.2201 146.601 69.7235 147.008C69.4356 147.247 68.8232 147.622 67.9469 147.445C66.9922 147.256 66.2724 146.284 66.2724 145.184V119.597C66.2724 119.597 66.2733 119.593 66.2733 119.592C66.2733 119.59 66.2724 119.588 66.2724 119.586V103.062C66.2724 101.834 65.2766 100.838 64.0483 100.838C62.8199 100.838 61.8241 101.834 61.8241 103.062V117.368H58.9234C58.5379 117.368 58.2241 117.054 58.2241 116.669V88.5098C58.2241 83.8989 61.9752 80.1477 66.5862 80.1477H78.8718C83.4827 80.1477 87.2339 83.8989 87.2339 88.5098V116.669L87.2343 116.669Z" fill="#0D3C58"/>
<path d="M72.729 48.5989C66.4413 48.5989 61.3263 53.7139 61.3263 60.0016C61.3263 66.2893 66.4413 71.4052 72.729 71.4052C79.0167 71.4052 84.1326 66.2893 84.1326 60.0016C84.1326 53.7139 79.0167 48.5989 72.729 48.5989ZM72.729 66.957C68.8945 66.957 65.7745 63.837 65.7745 60.0011C65.7745 56.1653 68.8945 53.0467 72.729 53.0467C76.5635 53.0467 79.6848 56.1667 79.6848 60.0011C79.6848 63.8356 76.5648 66.957 72.729 66.957Z" fill="#0D3C58"/>
<path d="M115.594 71.4052C121.882 71.4052 126.998 66.2893 126.998 60.0016C126.998 53.7139 121.882 48.5989 115.594 48.5989C109.307 48.5989 104.191 53.7139 104.191 60.0016C104.191 66.2893 109.307 71.4052 115.594 71.4052ZM115.594 53.0467C119.43 53.0467 122.55 56.1667 122.55 60.0011C122.55 63.8356 119.43 66.957 115.594 66.957C111.758 66.957 108.64 63.837 108.64 60.0011C108.64 56.1653 111.76 53.0467 115.594 53.0467Z" fill="#8CC4F2"/>
<path d="M148.932 131.511L134.548 111.045V88.5098C134.548 81.4465 128.801 75.6995 121.737 75.6995H109.705L94.8948 54.6275C94.1888 53.6242 92.7999 53.3817 91.7953 54.0868C90.7907 54.7937 90.5486 56.1803 91.2546 57.1863L104.872 76.5611C100.067 78.4094 96.642 83.0618 96.642 88.5098V116.669C96.642 119.507 98.9508 121.816 101.79 121.816H104.691V145.184C104.691 148.418 106.902 151.205 109.948 151.808C111.897 152.195 113.888 151.697 115.412 150.447C115.474 150.395 115.534 150.344 115.594 150.292C115.654 150.345 115.716 150.397 115.778 150.447C116.964 151.421 118.431 151.937 119.941 151.937C120.374 151.937 120.81 151.894 121.243 151.808C124.288 151.202 126.498 148.416 126.498 145.183V121.816H129.4C131.647 121.816 133.542 120.36 134.242 118.348L145.292 134.069C145.725 134.684 146.414 135.014 147.114 135.014C147.556 135.014 148.002 134.882 148.391 134.61C149.395 133.903 149.637 132.516 148.931 131.511L148.932 131.511ZM121.737 80.1482C126.348 80.1482 130.1 83.8993 130.1 88.5102V104.716L112.832 80.1482H121.737ZM120.377 147.445C119.504 147.621 118.889 147.248 118.6 147.009C118.103 146.602 117.818 146.006 117.818 145.374V131.141C117.818 129.912 116.823 128.916 115.594 128.916C114.366 128.916 113.37 129.912 113.37 131.141V145.374C113.37 146.006 113.086 146.602 112.589 147.009C112.299 147.248 111.687 147.623 110.813 147.445C109.859 147.256 109.139 146.284 109.139 145.184V119.597C109.139 119.597 109.14 119.594 109.14 119.592C109.14 119.59 109.139 119.589 109.139 119.587V103.063C109.139 101.834 108.143 100.839 106.915 100.839C105.686 100.839 104.691 101.834 104.691 103.063V117.368H101.789C101.404 117.368 101.09 117.055 101.09 116.669V88.5102C101.09 84.5527 103.86 81.2464 107.558 80.384L122.551 101.715C122.255 102.092 122.05 102.547 122.05 103.063V119.587C122.05 119.587 122.049 119.591 122.049 119.593C122.049 119.594 122.05 119.596 122.05 119.598V145.183C122.05 146.283 121.331 147.256 120.377 147.445ZM130.1 116.669C130.1 117.055 129.786 117.368 129.4 117.368H126.499V107.331L130.1 112.454V116.669Z" fill="#8CC4F2"/>
<path d="M81.2626 39.8088C80.3939 40.6775 80.3939 42.0859 81.2626 42.9537C81.6972 43.3883 82.2659 43.6054 82.8351 43.6054C83.4043 43.6054 83.973 43.3883 84.4076 42.9537L92.2152 35.1453C92.4197 34.9407 92.5829 34.6947 92.6957 34.4228C92.8084 34.1509 92.8677 33.8621 92.8677 33.5719C92.8677 33.5697 92.8664 33.5674 92.8664 33.5652C92.8655 33.2782 92.8075 32.992 92.6961 32.7224C92.5851 32.4549 92.4251 32.2147 92.225 32.0119C92.2219 32.0083 92.2205 32.0034 92.2174 32.0003H92.217C92.217 32.0003 92.2161 31.999 92.2161 31.9985L84.4214 24.1923C83.5536 23.3223 82.1465 23.3223 81.2765 24.1901C80.4078 25.0579 80.4064 26.4663 81.2742 27.335L85.2785 31.346C35.843 31.3095 10.7787 6.03924 10.5313 5.78429C9.67869 4.90356 8.27023 4.8786 7.38727 5.73125C6.50431 6.58479 6.47846 7.99013 7.33066 8.87309C8.38879 9.97222 33.8422 35.7581 85.2758 35.7947L81.2622 39.8088H81.2626Z" fill="#0D3C58"/>
</svg>
