<svg width="150" height="151" viewBox="0 0 150 151" fill="none" xmlns="http://www.w3.org/2000/svg">
<path d="M30.3656 115.917C23.3531 115.917 17.6494 110.212 17.6494 103.199C17.6494 96.1868 23.355 90.4812 30.3656 90.4812C37.3763 90.4812 43.0819 96.1868 43.0819 103.199C43.0819 110.212 37.3763 115.917 30.3656 115.917ZM30.3656 94.7956C25.7325 94.7956 21.9638 98.5662 21.9638 103.197C21.9638 107.829 25.7325 111.599 30.3656 111.599C34.9988 111.599 38.7675 107.829 38.7675 103.197C38.7675 98.5662 34.9988 94.7956 30.3656 94.7956Z" fill="#0D3C58"/>
<path d="M48.45 136.813C47.2575 136.813 46.2919 135.847 46.2919 134.654V126.564C46.2919 123.598 43.8731 121.184 40.9031 121.184H19.8281C16.8563 121.184 14.4394 123.598 14.4394 126.564V134.654C14.4394 135.847 13.4738 136.813 12.2813 136.813C11.0888 136.813 10.1231 135.847 10.1231 134.654V126.564C10.1231 121.218 14.4769 116.868 19.8281 116.868H40.9031C46.2544 116.868 50.6081 121.218 50.6081 126.564V134.654C50.6081 135.847 49.6425 136.813 48.45 136.813Z" fill="#0D3C58"/>
<path d="M75.0938 115.917C68.0813 115.917 62.3775 110.212 62.3775 103.199C62.3775 96.1868 68.0831 90.4812 75.0938 90.4812C82.1044 90.4812 87.8119 96.1868 87.8119 103.199C87.8119 110.212 82.1063 115.917 75.0938 115.917ZM75.0938 94.7956C70.4606 94.7956 66.6919 98.5662 66.6919 103.197C66.6919 107.829 70.4606 111.599 75.0938 111.599C79.7269 111.599 83.4956 107.829 83.4956 103.197C83.4956 98.5662 79.725 94.7956 75.0938 94.7956Z" fill="#0D3C58"/>
<path d="M93.1781 136.813C91.9856 136.813 91.02 135.847 91.02 134.654V126.564C91.02 123.598 88.6012 121.184 85.6312 121.184H64.5544C61.5825 121.184 59.1656 123.598 59.1656 126.564V134.654C59.1656 135.847 58.2 136.813 57.0075 136.813C55.815 136.813 54.8494 135.847 54.8494 134.654V126.564C54.8494 121.218 59.2031 116.868 64.5544 116.868H85.6312C90.9825 116.868 95.3362 121.218 95.3362 126.564V134.654C95.3362 135.847 94.3706 136.813 93.1781 136.813Z" fill="#0D3C58"/>
<path d="M119.824 115.917C112.811 115.917 107.106 110.212 107.106 103.199C107.106 96.1868 112.811 90.4812 119.824 90.4812C126.836 90.4812 132.54 96.1868 132.54 103.199C132.54 110.212 126.834 115.917 119.824 115.917ZM119.824 94.7956C115.191 94.7956 111.422 98.5662 111.422 103.197C111.422 107.829 115.193 111.599 119.824 111.599C124.455 111.599 128.226 107.829 128.226 103.197C128.226 98.5662 124.457 94.7956 119.824 94.7956Z" fill="#0D3C58"/>
<path d="M137.906 136.813C136.714 136.813 135.748 135.847 135.748 134.654V126.564C135.748 123.598 133.329 121.184 130.359 121.184H109.284C106.313 121.184 103.894 123.598 103.894 126.564V134.654C103.894 135.847 102.928 136.813 101.736 136.813C100.543 136.813 99.5775 135.847 99.5775 134.654V126.564C99.5775 121.218 103.931 116.868 109.283 116.868H130.358C135.709 116.868 140.063 121.218 140.063 126.564V134.654C140.063 135.847 139.097 136.813 137.904 136.813H137.906Z" fill="#0D3C58"/>
<path d="M126.3 14.1875H23.8875C22.695 14.1875 21.7294 15.1531 21.7294 16.3456V77.5344C21.7294 78.7269 22.695 79.6925 23.8875 79.6925H126.3C127.492 79.6925 128.458 78.7269 128.458 77.5344V16.3456C128.458 15.1531 127.492 14.1875 126.3 14.1875ZM124.142 75.3763H26.0456V18.5037H124.142V75.3763Z" fill="#8CC4F2"/>
<path d="M55.6744 65.9056C60.825 65.9056 65.5012 63.8412 68.9212 60.4981C68.9775 60.4531 69.0319 60.4025 69.0844 60.35C69.1369 60.2975 69.1856 60.2431 69.2325 60.1869C72.5756 56.765 74.64 52.0906 74.64 46.94C74.64 36.4831 66.1312 27.9744 55.6744 27.9744C45.2175 27.9744 36.7087 36.4831 36.7087 46.94C36.7087 57.3969 45.2175 65.9056 55.6744 65.9056ZM70.3237 46.94C70.3237 50.2025 69.2512 53.2175 67.4419 55.655L57.8325 46.0456V32.45C64.89 33.4962 70.3237 39.5937 70.3237 46.94ZM53.5162 32.45V46.9437C53.5162 47.0131 53.52 47.0825 53.5275 47.1519C53.5312 47.1856 53.5369 47.2175 53.5425 47.2494C53.5481 47.2869 53.5519 47.3225 53.5594 47.36C53.5669 47.3975 53.5762 47.435 53.5875 47.4706C53.595 47.5025 53.6025 47.5325 53.6119 47.5644C53.6231 47.6019 53.6362 47.6375 53.6494 47.6731C53.6606 47.7031 53.67 47.7331 53.6831 47.7631C53.6981 47.7987 53.715 47.8306 53.73 47.8644C53.745 47.8944 53.7581 47.9244 53.7731 47.9544C53.7919 47.9881 53.8125 48.02 53.8312 48.0537C53.8481 48.08 53.8631 48.1081 53.88 48.1344C53.9062 48.1737 53.9344 48.2094 53.9625 48.2469C53.9775 48.2656 53.9906 48.2844 54.0056 48.3031C54.0525 48.3594 54.1012 48.4137 54.1537 48.4662L64.3931 58.7056C61.9556 60.5169 58.9406 61.5894 55.6781 61.5894C47.6006 61.5894 41.0269 55.0175 41.0269 46.9381C41.0269 39.5937 46.4606 33.4962 53.52 32.4481H53.5162V32.45Z" fill="#8CC4F2"/>
<path d="M83.1337 35.9076H111.322C112.515 35.9076 113.481 34.9419 113.481 33.7494C113.481 32.5569 112.515 31.5913 111.322 31.5913H83.1337C81.9412 31.5913 80.9756 32.5569 80.9756 33.7494C80.9756 34.9419 81.9412 35.9076 83.1337 35.9076Z" fill="#8CC4F2"/>
<path d="M83.1337 49.0963H111.322C112.515 49.0963 113.481 48.1307 113.481 46.9382C113.481 45.7457 112.515 44.78 111.322 44.78H83.1337C81.9412 44.78 80.9756 45.7457 80.9756 46.9382C80.9756 48.1307 81.9412 49.0963 83.1337 49.0963Z" fill="#8CC4F2"/>
<path d="M83.1337 62.2887H99.3862C100.579 62.2887 101.544 61.323 101.544 60.1305C101.544 58.938 100.579 57.9724 99.3862 57.9724H83.1337C81.9412 57.9724 80.9756 58.938 80.9756 60.1305C80.9756 61.323 81.9412 62.2887 83.1337 62.2887Z" fill="#8CC4F2"/>
</svg>
