<svg width="146" height="147" viewBox="0 0 146 147" fill="none" xmlns="http://www.w3.org/2000/svg">
<path d="M50.9359 117.63H59.6381V100.102C59.6381 98.9834 60.545 98.0776 61.6622 98.0776C62.7794 98.0776 63.6869 98.984 63.6869 100.102V119.654C63.6869 120.772 62.78 121.678 61.6622 121.678H55.9711L72.9994 138.006L90.0271 121.678H84.336C83.2182 121.678 82.3113 120.772 82.3113 119.654V100.102C82.3113 98.9834 83.2182 98.0776 84.336 98.0776C85.4538 98.0776 86.3601 98.984 86.3601 100.102V117.63H95.0623C95.8887 117.63 96.6321 118.132 96.9405 118.899C97.2488 119.666 97.0602 120.543 96.4633 121.115L74.3998 142.272C73.6167 143.023 72.3809 143.023 71.5978 142.272L49.5337 121.115C48.9368 120.544 48.7482 119.666 49.0566 118.899C49.3649 118.132 50.1083 117.63 50.9347 117.63H50.9359Z" fill="#8CC4F2"/>
<path d="M20.7892 108.114H17.8278L29.2374 119.049L40.6458 108.114H37.6843C36.5666 108.114 35.6602 107.207 35.6602 106.09V89.8176C35.6602 88.6992 36.5672 87.7934 37.6843 87.7934C38.8015 87.7934 39.7085 88.6998 39.7085 89.8176V104.065H45.6828C46.5092 104.065 47.2526 104.568 47.561 105.334C47.8693 106.101 47.6807 106.979 47.0838 107.551L30.6384 123.315C29.8552 124.064 28.6189 124.064 27.8363 123.315L11.3897 107.551C10.7929 106.98 10.6043 106.102 10.9126 105.335C11.221 104.568 11.9644 104.065 12.7908 104.065H18.7651V49.2693C18.7651 48.1509 19.672 47.2451 20.7892 47.2451C21.9064 47.2451 22.8134 48.1515 22.8134 49.2693V106.09C22.8134 107.208 21.9064 108.114 20.7892 108.114Z" fill="#8CC4F2"/>
<path d="M134.61 107.551L118.164 123.315C117.38 124.064 116.145 124.064 115.362 123.315L98.9162 107.551C98.3193 106.98 98.1307 106.102 98.439 105.334C98.7474 104.568 99.4908 104.065 100.317 104.065H106.292V89.8176C106.292 88.6992 107.198 87.7934 108.316 87.7934C109.433 87.7934 110.34 88.6998 110.34 89.8176V106.09C110.34 107.208 109.433 108.114 108.316 108.114H105.354L116.763 119.049L128.172 108.114H125.211C124.093 108.114 123.186 107.207 123.186 106.09V49.2693C123.186 48.1509 124.093 47.2451 125.211 47.2451C126.329 47.2451 127.235 48.1515 127.235 49.2693V104.065H133.209C134.036 104.065 134.779 104.568 135.087 105.335C135.396 106.101 135.207 106.979 134.61 107.551Z" fill="#8CC4F2"/>
<path d="M98.3824 23.0694C83.7491 9.07439 60.4621 9.59007 46.4654 24.221C39.6962 31.2973 36.0877 40.6005 36.3067 50.4163C36.5257 60.2316 40.5436 69.3654 47.6199 76.1351C54.4942 82.711 63.4709 86.3043 72.9749 86.3043C73.254 86.3043 73.5338 86.3008 73.8147 86.295C83.6282 86.0777 92.7614 82.0598 99.5305 74.9835C106.301 67.9066 109.909 58.604 109.692 48.7881C109.476 38.9729 105.459 29.8385 98.383 23.0688L98.3824 23.0694ZM96.6047 72.1849C90.5831 78.4805 82.4579 82.0534 73.7236 82.2473C65.029 82.4429 56.7151 79.2321 50.4196 73.2087C44.1235 67.1871 40.5494 59.0595 40.3544 50.3258C40.1605 41.5915 43.3696 33.3151 49.3918 27.0201C55.7994 20.3211 64.3971 16.9479 73.007 16.9479C81.1293 16.9479 89.2656 19.9502 95.5838 25.9952C101.879 32.0168 105.453 40.1432 105.645 48.8781C105.837 57.6124 102.628 65.8894 96.6053 72.1849H96.6047Z" fill="#0D3C58"/>
<path d="M104.427 16.7533C86.3129 -0.574017 57.4784 0.0637116 40.1488 18.1782C31.7678 26.94 27.3014 38.4576 27.5712 50.6107C27.8416 62.7631 32.8155 74.0711 41.5773 82.4527C50.3706 90.864 61.6867 95.0402 72.9895 95.0402C84.9696 95.0402 96.9329 90.3454 105.848 81.0271C114.229 72.2654 118.696 60.7477 118.429 48.5953C118.16 36.4422 113.187 25.1337 104.427 16.7527V16.7533ZM102.922 78.228C87.1392 94.7254 60.8761 95.31 44.377 79.5268C36.3966 71.8934 31.8654 61.5922 31.6195 50.5207C31.373 39.4493 35.4418 28.9577 43.0752 20.9779C50.7087 12.9976 61.0099 8.46806 72.0837 8.22219C72.4002 8.21577 72.715 8.21168 73.0298 8.21168C83.7526 8.21168 93.8762 12.2635 101.628 19.6791C109.609 27.312 114.137 37.6132 114.382 48.6846C114.626 59.7561 110.556 70.2477 102.922 78.228H102.922Z" fill="#0D3C58"/>
<path d="M74.4051 42.9937C73.8958 42.8856 73.3819 42.8383 72.8733 42.8477L66.6221 24.2665C66.2647 23.2083 65.1259 22.6366 64.0572 22.9934C62.9972 23.3497 62.4284 24.4978 62.7841 25.5583L69.0329 44.1342C68.7777 44.3193 68.533 44.5226 68.3023 44.7445C67.3364 45.6754 66.6759 46.8714 66.3938 48.2041C66.3926 48.2047 66.3926 48.2053 66.3926 48.2064C66.0159 49.9882 66.3844 51.7572 67.2838 53.1903L59.6749 62.1348C58.9501 62.9863 59.0541 64.2641 59.9055 64.9883C60.2863 65.3124 60.7518 65.4707 61.2155 65.4707C61.7889 65.4707 62.3578 65.2289 62.759 64.7576L70.3621 55.8206C70.7533 55.9865 71.1651 56.1185 71.5961 56.2102C72.0627 56.3089 72.5334 56.3579 72.9994 56.3579C74.731 56.3579 76.417 55.6898 77.6954 54.4576C78.6654 53.5232 79.3253 52.3266 79.6062 50.9986C80.3771 47.3573 78.0434 43.7663 74.4045 42.9937H74.4051ZM75.6449 50.1599C75.5328 50.6937 75.2694 51.1714 74.8857 51.5417C74.2322 52.1724 73.3148 52.4352 72.4382 52.2495C70.9805 51.9405 70.0461 50.5027 70.3545 49.0439C70.4689 48.5055 70.7312 48.0266 71.1108 47.6598C71.7642 47.0303 72.6858 46.7663 73.5624 46.9532C75.02 47.2621 75.9544 48.6999 75.6449 50.1593V50.1599Z" fill="#0D3C58"/>
</svg>
