<svg width="168" height="169" viewBox="0 0 168 169" fill="none" xmlns="http://www.w3.org/2000/svg">
<path d="M117.476 25.6585C115.862 21.842 113.551 18.4152 110.609 15.4723C107.666 12.5298 104.239 10.2193 100.423 8.60485C96.4706 6.93325 92.2732 6.08569 87.948 6.08569C83.6228 6.08569 79.4254 6.93325 75.4732 8.60485C71.6566 10.2189 68.2298 12.5298 65.2869 15.4723C62.3444 18.4148 60.034 21.842 58.4195 25.6585C56.7479 29.6107 55.9003 33.8078 55.9003 38.1334C55.9003 42.459 56.7479 46.656 58.4195 50.6082C60.0335 54.4248 62.3444 57.8515 65.2869 60.7941C68.2294 63.7366 71.6566 66.047 75.4732 67.6611C79.4254 69.3327 83.6224 70.1802 87.948 70.1802C92.2736 70.1802 96.4706 69.3327 100.423 67.6611C104.239 66.047 107.666 63.7366 110.609 60.7941C113.551 57.8515 115.862 54.4243 117.476 50.6082C119.148 46.656 119.995 42.4585 119.995 38.1334C119.995 33.8082 119.148 29.6107 117.476 25.6585ZM87.948 66.0898C72.5327 66.0898 59.9915 53.5486 59.9915 38.1334C59.9915 22.7181 72.5327 10.1769 87.948 10.1769C103.363 10.1769 115.904 22.7181 115.904 38.1334C115.904 53.5486 103.363 66.0898 87.948 66.0898Z" fill="#0D3C58"/>
<path d="M95.0435 38.5592C93.6298 37.3811 91.8838 36.5949 89.9938 36.2648V26.8173C90.7994 27.0412 91.544 27.3977 92.1803 27.8723C93.0859 28.5477 94.3677 28.3612 95.0431 27.4557C95.7184 26.5502 95.5319 25.2683 94.6264 24.593C93.2963 23.6009 91.6982 22.9289 89.9938 22.6286V19.041C89.9938 17.9112 89.0778 16.9956 87.9484 16.9956C86.819 16.9956 85.903 17.9116 85.903 19.041V22.627C84.0126 22.9571 82.2671 23.7433 80.8534 24.9214C78.8332 26.6048 77.721 28.8753 77.721 31.3142C77.721 33.7532 78.8336 36.0241 80.8534 37.7075C82.2671 38.8856 84.013 39.6718 85.903 40.0019V49.4494C85.0975 49.2256 84.3528 48.869 83.7165 48.3944C82.811 47.719 81.5291 47.9055 80.8538 48.811C80.1784 49.7165 80.3649 50.9984 81.2704 51.6737C82.6006 52.6658 84.1987 53.3378 85.903 53.6377V57.2253C85.903 58.3551 86.819 59.2707 87.9484 59.2707C89.0778 59.2707 89.9938 58.3547 89.9938 57.2253V53.6393C91.8838 53.3092 93.6298 52.523 95.0435 51.3449C97.0637 49.6615 98.1763 47.391 98.1763 44.9516C98.1763 42.5123 97.0637 40.2422 95.0435 38.5588V38.5592ZM81.8114 31.3151C81.8114 30.1118 82.4011 28.9572 83.4721 28.0651C84.1613 27.491 84.9912 27.0676 85.9026 26.8152V35.8154C84.9908 35.563 84.1609 35.1396 83.4721 34.5655C82.4015 33.6734 81.8114 32.5188 81.8114 31.3155V31.3151ZM92.4244 48.2024C91.7351 48.7766 90.9052 49.1999 89.9938 49.4524V40.4522C90.9056 40.705 91.7351 41.128 92.4244 41.7021C93.4954 42.5946 94.085 43.7488 94.085 44.9521C94.085 46.1554 93.4954 47.3099 92.4244 48.202V48.2024Z" fill="#8CC4F2"/>
<path d="M160.301 74.3532C159.904 73.9605 159.365 73.7471 158.805 73.7622C158.351 73.7748 147.518 74.0995 135.005 76.8043C127.607 78.4036 121.174 80.5095 115.884 83.0631C109.106 86.3358 104.16 90.3774 101.184 95.0747C97.054 101.596 96.684 109.301 100.076 117.998C96.096 122.223 92.7234 126.553 89.9934 130.94V68.1355C89.9934 67.0057 89.0774 66.0901 87.948 66.0901C86.8186 66.0901 85.9026 67.0061 85.9026 68.1355V130.94C83.1726 126.553 79.8 122.223 75.8197 117.998C79.2124 109.301 78.8424 101.596 74.7117 95.0751C71.7364 90.3778 66.7905 86.3366 60.0117 83.0635C54.7222 80.5099 48.2891 78.4041 40.8908 76.8047C28.3781 74.0999 17.5455 73.7748 17.0906 73.7626C16.532 73.7484 15.9923 73.9609 15.5954 74.3536C15.1985 74.7463 14.9797 75.2843 14.9894 75.8429C15.149 85.0825 18.0592 95.0655 23.1832 103.952C28.3781 112.962 35.4241 120.072 43.0227 123.971C47.5024 126.27 52.0758 127.432 56.6353 127.432C57.0091 127.432 57.3833 127.424 57.7567 127.408C63.1142 127.184 68.3218 125.347 73.235 121.947C73.3681 121.855 73.487 121.75 73.5911 121.634C78.4396 126.904 82.8391 132.901 85.9026 139.497V160.869C85.9026 161.998 86.8186 162.914 87.948 162.914C89.0774 162.914 89.9934 161.998 89.9934 160.869V139.497C93.0569 132.901 97.4564 126.904 102.305 121.634C102.409 121.75 102.528 121.855 102.661 121.947C107.574 125.347 112.782 127.184 118.139 127.408C118.513 127.424 118.886 127.432 119.261 127.432C123.82 127.432 128.394 126.27 132.873 123.971C140.472 120.072 147.518 112.962 152.713 103.952C157.837 95.0655 160.747 85.0825 160.907 75.8429C160.916 75.2847 160.697 74.7467 160.301 74.3536V74.3532ZM44.8904 120.331C31.3043 113.359 20.3204 95.0735 19.1726 77.9605C22.9471 78.1915 31.1245 78.8791 40.0264 80.8035C51.0224 83.1807 65.3663 87.9658 71.2555 97.2642C74.3782 102.195 74.8381 108.07 72.6348 114.766C68.1366 110.392 62.9845 106.14 57.2741 102.094C45.5822 93.8084 35.7214 89.3026 35.3073 89.1149C34.2787 88.6487 33.0666 89.104 32.6 90.1326C32.1334 91.1612 32.5886 92.3737 33.6172 92.8403C33.7155 92.8848 43.5935 97.4036 54.9755 105.479C59.8416 108.931 65.4578 113.384 70.7591 118.684C60.4607 125.725 51.014 123.473 44.8904 120.331V120.331ZM131.006 120.331C124.882 123.473 115.435 125.726 105.137 118.684C110.438 113.384 116.054 108.932 120.921 105.479C132.287 97.4149 142.154 92.8979 142.278 92.8412C143.307 92.3745 143.763 91.1624 143.296 90.1334C142.83 89.1044 141.618 88.6487 140.589 89.1153C140.175 89.3031 130.314 93.8088 118.622 102.094C112.912 106.141 107.759 110.392 103.261 114.766C101.058 108.072 101.518 102.197 104.639 97.2675C110.519 87.9805 124.833 83.1963 135.806 80.8178C144.721 78.8858 152.937 78.1941 156.724 77.9618C155.576 95.0747 144.592 113.36 131.006 120.332L131.006 120.331Z" fill="#0D3C58"/>
</svg>
