<svg width="622" height="324" viewBox="0 0 622 324" fill="none" xmlns="http://www.w3.org/2000/svg">
<mask id="path-1-inside-1_1_2169" fill="white">
<path fill-rule="evenodd" clip-rule="evenodd" d="M12 0.48291C5.37258 0.48291 0 5.85548 0 12.4829V263.5C0 270.128 5.3726 275.5 12 275.5H507.525L561.758 322.465C563.701 324.147 566.722 322.767 566.722 320.197L566.722 275.5H609.5C616.127 275.5 621.5 270.128 621.5 263.5V12.4829C621.5 5.85549 616.127 0.48291 609.5 0.48291H12Z"/>
</mask>
<path fill-rule="evenodd" clip-rule="evenodd" d="M12 0.48291C5.37258 0.48291 0 5.85548 0 12.4829V263.5C0 270.128 5.3726 275.5 12 275.5H507.525L561.758 322.465C563.701 324.147 566.722 322.767 566.722 320.197L566.722 275.5H609.5C616.127 275.5 621.5 270.128 621.5 263.5V12.4829C621.5 5.85549 616.127 0.48291 609.5 0.48291H12Z" fill="white"/>
<path d="M507.525 275.5L508.18 274.744L507.898 274.5H507.525V275.5ZM561.758 322.465L561.103 323.221H561.103L561.758 322.465ZM566.722 320.197H565.722H566.722ZM566.722 275.5V274.5H565.722V275.5H566.722ZM1 12.4829C1 6.40777 5.92487 1.48291 12 1.48291V-0.51709C4.8203 -0.51709 -1 5.3032 -1 12.4829H1ZM1 263.5V12.4829H-1V263.5H1ZM12 274.5C5.92488 274.5 1 269.575 1 263.5H-1C-1 270.68 4.82031 276.5 12 276.5V274.5ZM507.525 274.5H12V276.5H507.525V274.5ZM562.412 321.709L508.18 274.744L506.87 276.256L561.103 323.221L562.412 321.709ZM565.722 320.197C565.722 321.91 563.708 322.83 562.412 321.709L561.103 323.221C563.694 325.464 567.722 323.624 567.722 320.197H565.722ZM565.722 275.5L565.722 320.197H567.722L567.722 275.5H565.722ZM609.5 274.5H566.722V276.5H609.5V274.5ZM620.5 263.5C620.5 269.575 615.575 274.5 609.5 274.5V276.5C616.68 276.5 622.5 270.68 622.5 263.5H620.5ZM620.5 12.4829V263.5H622.5V12.4829H620.5ZM609.5 1.48291C615.575 1.48291 620.5 6.40778 620.5 12.4829H622.5C622.5 5.30321 616.68 -0.51709 609.5 -0.51709V1.48291ZM12 1.48291H609.5V-0.51709H12V1.48291Z" fill="#0D3C58" mask="url(#path-1-inside-1_1_2169)"/>
</svg>
