<svg width="271" height="294" viewBox="0 0 271 294" fill="none" xmlns="http://www.w3.org/2000/svg">
<path d="M164.534 267.89L164.294 266.776C225.376 253.532 269.712 198.484 269.712 135.886C269.714 127.854 268.995 119.796 267.577 111.943L268.701 111.742C270.129 119.662 270.853 127.785 270.85 135.887C270.85 166.918 260.067 197.224 240.486 221.221C221.18 244.884 194.207 261.458 164.534 267.89ZM75.355 256.722C29.311 233.652 0.708008 187.35 0.708008 135.886C0.708008 124.603 2.102 113.39 4.849 102.563L5.953 102.843C3.23 113.579 1.84595 124.696 1.84595 135.886C1.84595 186.916 30.208 232.828 75.865 255.701L75.355 256.722ZM223.378 34.571C199.071 13.537 167.962 1.95508 135.779 1.95508C106.534 1.95708 78.7481 11.2171 55.4301 28.7271L54.743 27.814C78.262 10.154 106.283 0.817918 135.779 0.815918C168.236 0.815918 199.611 12.497 224.124 33.707L223.378 34.571Z" fill="#24A24D"/>
<path d="M135.384 253.663L133.73 253.651L133.794 249.088L135.384 249.1C197.594 249.1 248.207 198.49 248.207 136.28C248.207 75.594 200.747 26.0801 140.156 23.5581L140.347 19C203.386 21.623 252.77 73.138 252.77 136.281C252.77 201.004 200.111 253.663 135.384 253.663ZM50.646 217.509C29.595 195.555 18 166.707 18 136.28C18 103.838 31.6171 72.5371 55.3571 50.4041L58.468 53.741C35.65 75.015 22.564 105.099 22.564 136.281C22.564 165.527 33.705 193.253 53.939 214.353L50.646 217.509Z" fill="#24A24D"/>
<path d="M102.113 293.585C124.567 293.585 142.769 275.383 142.769 252.929C142.769 230.475 124.567 212.273 102.113 212.273C79.6593 212.273 61.457 230.475 61.457 252.929C61.457 275.383 79.6593 293.585 102.113 293.585Z" fill="#24A24D"/>
<path d="M96.5684 110C96.4277 108.812 95.8574 107.891 94.8574 107.234C93.8574 106.578 92.6309 106.25 91.1777 106.25C90.1152 106.25 89.1855 106.422 88.3887 106.766C87.5996 107.109 86.9824 107.582 86.5371 108.184C86.0996 108.785 85.8809 109.469 85.8809 110.234C85.8809 110.875 86.0332 111.426 86.3379 111.887C86.6504 112.34 87.0488 112.719 87.5332 113.023C88.0176 113.32 88.5254 113.566 89.0566 113.762C89.5879 113.949 90.0762 114.102 90.5215 114.219L92.959 114.875C93.584 115.039 94.2793 115.266 95.0449 115.555C95.8184 115.844 96.5566 116.238 97.2598 116.738C97.9707 117.23 98.5566 117.863 99.0176 118.637C99.4785 119.41 99.709 120.359 99.709 121.484C99.709 122.781 99.3691 123.953 98.6895 125C98.0176 126.047 97.0332 126.879 95.7363 127.496C94.4473 128.113 92.8809 128.422 91.0371 128.422C89.3184 128.422 87.8301 128.145 86.5723 127.59C85.3223 127.035 84.3379 126.262 83.6191 125.27C82.9082 124.277 82.5059 123.125 82.4121 121.812H85.4121C85.4902 122.719 85.7949 123.469 86.3262 124.062C86.8652 124.648 87.5449 125.086 88.3652 125.375C89.1934 125.656 90.084 125.797 91.0371 125.797C92.1465 125.797 93.1426 125.617 94.0254 125.258C94.9082 124.891 95.6074 124.383 96.123 123.734C96.6387 123.078 96.8965 122.313 96.8965 121.437C96.8965 120.641 96.6738 119.992 96.2285 119.492C95.7832 118.992 95.1973 118.586 94.4707 118.273C93.7441 117.961 92.959 117.687 92.1152 117.453L89.1621 116.609C87.2871 116.07 85.8027 115.301 84.709 114.301C83.6152 113.301 83.0684 111.992 83.0684 110.375C83.0684 109.031 83.4316 107.859 84.1582 106.859C84.8926 105.852 85.877 105.07 87.1113 104.516C88.3535 103.953 89.7402 103.672 91.2715 103.672C92.8184 103.672 94.1934 103.949 95.3965 104.504C96.5996 105.051 97.5527 105.801 98.2559 106.754C98.9668 107.707 99.3418 108.789 99.3809 110H96.5684ZM111.425 128.375C109.737 128.375 108.284 127.977 107.065 127.18C105.847 126.383 104.909 125.285 104.253 123.887C103.597 122.488 103.269 120.891 103.269 119.094C103.269 117.266 103.604 115.652 104.276 114.254C104.956 112.848 105.901 111.75 107.112 110.961C108.331 110.164 109.753 109.766 111.378 109.766C112.644 109.766 113.784 110 114.8 110.469C115.815 110.937 116.647 111.594 117.296 112.437C117.944 113.281 118.347 114.266 118.503 115.391H115.737C115.526 114.57 115.058 113.844 114.331 113.211C113.612 112.57 112.644 112.25 111.425 112.25C110.347 112.25 109.401 112.531 108.589 113.094C107.784 113.648 107.155 114.434 106.702 115.449C106.257 116.457 106.034 117.641 106.034 119C106.034 120.391 106.253 121.602 106.69 122.633C107.136 123.664 107.761 124.465 108.565 125.035C109.378 125.605 110.331 125.891 111.425 125.891C112.144 125.891 112.796 125.766 113.382 125.516C113.968 125.266 114.464 124.906 114.87 124.437C115.276 123.969 115.565 123.406 115.737 122.75H118.503C118.347 123.812 117.96 124.77 117.343 125.621C116.733 126.465 115.925 127.137 114.917 127.637C113.917 128.129 112.753 128.375 111.425 128.375ZM122.546 128V110H125.218V112.719H125.405C125.733 111.828 126.327 111.105 127.187 110.551C128.046 109.996 129.015 109.719 130.093 109.719C130.296 109.719 130.55 109.723 130.854 109.73C131.159 109.738 131.39 109.75 131.546 109.766V112.578C131.452 112.555 131.237 112.52 130.901 112.473C130.573 112.418 130.226 112.391 129.858 112.391C128.983 112.391 128.202 112.574 127.515 112.941C126.835 113.301 126.296 113.801 125.897 114.441C125.507 115.074 125.312 115.797 125.312 116.609V128H122.546ZM141.823 128.375C140.089 128.375 138.593 127.992 137.335 127.227C136.085 126.453 135.12 125.375 134.44 123.992C133.769 122.602 133.433 120.984 133.433 119.141C133.433 117.297 133.769 115.672 134.44 114.266C135.12 112.852 136.065 111.75 137.276 110.961C138.495 110.164 139.917 109.766 141.542 109.766C142.479 109.766 143.405 109.922 144.319 110.234C145.233 110.547 146.065 111.055 146.815 111.758C147.565 112.453 148.163 113.375 148.608 114.523C149.054 115.672 149.276 117.086 149.276 118.766V119.937H135.401V117.547H146.464C146.464 116.531 146.261 115.625 145.854 114.828C145.456 114.031 144.886 113.402 144.144 112.941C143.409 112.48 142.542 112.25 141.542 112.25C140.44 112.25 139.487 112.523 138.683 113.07C137.886 113.609 137.272 114.312 136.843 115.18C136.413 116.047 136.198 116.977 136.198 117.969V119.563C136.198 120.922 136.433 122.074 136.901 123.02C137.378 123.957 138.038 124.672 138.882 125.164C139.726 125.648 140.706 125.891 141.823 125.891C142.55 125.891 143.206 125.789 143.792 125.586C144.386 125.375 144.897 125.063 145.327 124.648C145.757 124.227 146.089 123.703 146.323 123.078L148.995 123.828C148.714 124.734 148.241 125.531 147.577 126.219C146.913 126.898 146.093 127.43 145.116 127.812C144.14 128.188 143.042 128.375 141.823 128.375ZM161.03 128.375C159.296 128.375 157.8 127.992 156.542 127.227C155.292 126.453 154.327 125.375 153.647 123.992C152.976 122.602 152.64 120.984 152.64 119.141C152.64 117.297 152.976 115.672 153.647 114.266C154.327 112.852 155.272 111.75 156.483 110.961C157.702 110.164 159.124 109.766 160.749 109.766C161.687 109.766 162.612 109.922 163.526 110.234C164.44 110.547 165.272 111.055 166.022 111.758C166.772 112.453 167.37 113.375 167.815 114.523C168.261 115.672 168.483 117.086 168.483 118.766V119.937H154.608V117.547H165.671C165.671 116.531 165.468 115.625 165.062 114.828C164.663 114.031 164.093 113.402 163.351 112.941C162.616 112.48 161.749 112.25 160.749 112.25C159.647 112.25 158.694 112.523 157.89 113.07C157.093 113.609 156.479 114.312 156.05 115.18C155.62 116.047 155.405 116.977 155.405 117.969V119.563C155.405 120.922 155.64 122.074 156.108 123.02C156.585 123.957 157.245 124.672 158.089 125.164C158.933 125.648 159.913 125.891 161.03 125.891C161.757 125.891 162.413 125.789 162.999 125.586C163.593 125.375 164.104 125.063 164.534 124.648C164.964 124.227 165.296 123.703 165.53 123.078L168.202 123.828C167.921 124.734 167.448 125.531 166.784 126.219C166.12 126.898 165.3 127.43 164.323 127.812C163.347 128.188 162.249 128.375 161.03 128.375ZM175.456 117.172V128H172.69V110H175.362V112.812H175.597C176.019 111.898 176.659 111.164 177.519 110.609C178.378 110.047 179.487 109.766 180.847 109.766C182.065 109.766 183.132 110.016 184.046 110.516C184.96 111.008 185.671 111.758 186.179 112.766C186.687 113.766 186.94 115.031 186.94 116.563V128H184.175V116.75C184.175 115.336 183.808 114.234 183.073 113.445C182.339 112.648 181.331 112.25 180.05 112.25C179.167 112.25 178.378 112.441 177.683 112.824C176.995 113.207 176.452 113.766 176.054 114.5C175.655 115.234 175.456 116.125 175.456 117.172ZM59.0479 168V144H67.1572C69.0322 144 70.5713 144.32 71.7744 144.961C72.9775 145.594 73.8682 146.465 74.4463 147.574C75.0244 148.684 75.3135 149.945 75.3135 151.359C75.3135 152.773 75.0244 154.027 74.4463 155.121C73.8682 156.215 72.9814 157.074 71.7861 157.699C70.5908 158.316 69.0635 158.625 67.2041 158.625H60.6416V156H67.1104C68.3916 156 69.4229 155.812 70.2041 155.437C70.9932 155.062 71.5635 154.531 71.915 153.844C72.2744 153.148 72.4541 152.32 72.4541 151.359C72.4541 150.398 72.2744 149.559 71.915 148.84C71.5557 148.121 70.9814 147.566 70.1924 147.176C69.4033 146.777 68.3604 146.578 67.0635 146.578H61.9541V168H59.0479ZM70.3447 157.219L76.251 168H72.876L67.0635 157.219H70.3447ZM87.1348 168.375C85.4004 168.375 83.9043 167.992 82.6465 167.227C81.3965 166.453 80.4316 165.375 79.752 163.992C79.0801 162.602 78.7441 160.984 78.7441 159.141C78.7441 157.297 79.0801 155.672 79.752 154.266C80.4316 152.852 81.377 151.75 82.5879 150.961C83.8066 150.164 85.2285 149.766 86.8535 149.766C87.791 149.766 88.7168 149.922 89.6309 150.234C90.5449 150.547 91.377 151.055 92.127 151.758C92.877 152.453 93.4746 153.375 93.9199 154.523C94.3652 155.672 94.5879 157.086 94.5879 158.766V159.937H80.7129V157.547H91.7754C91.7754 156.531 91.5723 155.625 91.166 154.828C90.7676 154.031 90.1973 153.402 89.4551 152.941C88.7207 152.48 87.8535 152.25 86.8535 152.25C85.752 152.25 84.7988 152.523 83.9941 153.07C83.1973 153.609 82.584 154.312 82.1543 155.18C81.7246 156.047 81.5098 156.977 81.5098 157.969V159.563C81.5098 160.922 81.7441 162.074 82.2129 163.02C82.6895 163.957 83.3496 164.672 84.1934 165.164C85.0371 165.648 86.0176 165.891 87.1348 165.891C87.8613 165.891 88.5176 165.789 89.1035 165.586C89.6973 165.375 90.209 165.063 90.6387 164.648C91.0684 164.227 91.4004 163.703 91.6348 163.078L94.3066 163.828C94.0254 164.734 93.5527 165.531 92.8887 166.219C92.2246 166.898 91.4043 167.43 90.4277 167.812C89.4512 168.188 88.3535 168.375 87.1348 168.375ZM106.107 168.375C104.42 168.375 102.967 167.977 101.748 167.18C100.529 166.383 99.5918 165.285 98.9355 163.887C98.2793 162.488 97.9512 160.891 97.9512 159.094C97.9512 157.266 98.2871 155.652 98.959 154.254C99.6387 152.848 100.584 151.75 101.795 150.961C103.014 150.164 104.436 149.766 106.061 149.766C107.326 149.766 108.467 150 109.482 150.469C110.498 150.937 111.33 151.594 111.979 152.437C112.627 153.281 113.029 154.266 113.186 155.391H110.42C110.209 154.57 109.74 153.844 109.014 153.211C108.295 152.57 107.326 152.25 106.107 152.25C105.029 152.25 104.084 152.531 103.271 153.094C102.467 153.648 101.838 154.434 101.385 155.449C100.939 156.457 100.717 157.641 100.717 159C100.717 160.391 100.936 161.602 101.373 162.633C101.818 163.664 102.443 164.465 103.248 165.035C104.061 165.605 105.014 165.891 106.107 165.891C106.826 165.891 107.479 165.766 108.064 165.516C108.65 165.266 109.146 164.906 109.553 164.437C109.959 163.969 110.248 163.406 110.42 162.75H113.186C113.029 163.812 112.643 164.77 112.025 165.621C111.416 166.465 110.607 167.137 109.6 167.637C108.6 168.129 107.436 168.375 106.107 168.375ZM124.541 168.375C122.916 168.375 121.49 167.988 120.264 167.215C119.045 166.441 118.092 165.359 117.404 163.969C116.725 162.578 116.385 160.953 116.385 159.094C116.385 157.219 116.725 155.582 117.404 154.184C118.092 152.785 119.045 151.699 120.264 150.926C121.49 150.152 122.916 149.766 124.541 149.766C126.166 149.766 127.588 150.152 128.807 150.926C130.033 151.699 130.986 152.785 131.666 154.184C132.354 155.582 132.697 157.219 132.697 159.094C132.697 160.953 132.354 162.578 131.666 163.969C130.986 165.359 130.033 166.441 128.807 167.215C127.588 167.988 126.166 168.375 124.541 168.375ZM124.541 165.891C125.775 165.891 126.791 165.574 127.588 164.941C128.385 164.309 128.975 163.477 129.357 162.445C129.74 161.414 129.932 160.297 129.932 159.094C129.932 157.891 129.74 156.77 129.357 155.73C128.975 154.691 128.385 153.852 127.588 153.211C126.791 152.57 125.775 152.25 124.541 152.25C123.307 152.25 122.291 152.57 121.494 153.211C120.697 153.852 120.107 154.691 119.725 155.73C119.342 156.77 119.15 157.891 119.15 159.094C119.15 160.297 119.342 161.414 119.725 162.445C120.107 163.477 120.697 164.309 121.494 164.941C122.291 165.574 123.307 165.891 124.541 165.891ZM136.919 168V150H139.591V152.719H139.778C140.106 151.828 140.7 151.105 141.56 150.551C142.419 149.996 143.388 149.719 144.466 149.719C144.669 149.719 144.923 149.723 145.228 149.73C145.532 149.738 145.763 149.75 145.919 149.766V152.578C145.825 152.555 145.61 152.52 145.274 152.473C144.946 152.418 144.599 152.391 144.231 152.391C143.356 152.391 142.575 152.574 141.888 152.941C141.208 153.301 140.669 153.801 140.271 154.441C139.88 155.074 139.685 155.797 139.685 156.609V168H136.919ZM155.446 168.375C153.946 168.375 152.622 167.996 151.474 167.238C150.325 166.473 149.427 165.395 148.778 164.004C148.13 162.605 147.806 160.953 147.806 159.047C147.806 157.156 148.13 155.516 148.778 154.125C149.427 152.734 150.329 151.66 151.485 150.902C152.642 150.145 153.978 149.766 155.493 149.766C156.665 149.766 157.591 149.961 158.271 150.352C158.958 150.734 159.481 151.172 159.841 151.664C160.208 152.148 160.493 152.547 160.696 152.859H160.931V144H163.696V168H161.024V165.234H160.696C160.493 165.562 160.204 165.977 159.829 166.477C159.454 166.969 158.919 167.41 158.224 167.801C157.528 168.184 156.603 168.375 155.446 168.375ZM155.821 165.891C156.931 165.891 157.868 165.602 158.634 165.023C159.399 164.437 159.981 163.629 160.38 162.598C160.778 161.559 160.978 160.359 160.978 159C160.978 157.656 160.782 156.48 160.392 155.473C160.001 154.457 159.423 153.668 158.657 153.105C157.892 152.535 156.946 152.25 155.821 152.25C154.649 152.25 153.673 152.551 152.892 153.152C152.118 153.746 151.536 154.555 151.146 155.578C150.763 156.594 150.571 157.734 150.571 159C150.571 160.281 150.767 161.445 151.157 162.492C151.556 163.531 152.142 164.359 152.915 164.977C153.696 165.586 154.665 165.891 155.821 165.891ZM169.146 168V150H171.911V168H169.146ZM170.552 147C170.013 147 169.548 146.816 169.157 146.449C168.774 146.082 168.583 145.641 168.583 145.125C168.583 144.609 168.774 144.168 169.157 143.801C169.548 143.434 170.013 143.25 170.552 143.25C171.091 143.25 171.552 143.434 171.935 143.801C172.325 144.168 172.521 144.609 172.521 145.125C172.521 145.641 172.325 146.082 171.935 146.449C171.552 146.816 171.091 147 170.552 147ZM179.742 157.172V168H176.977V150H179.648V152.812H179.883C180.305 151.898 180.945 151.164 181.805 150.609C182.664 150.047 183.773 149.766 185.133 149.766C186.352 149.766 187.418 150.016 188.332 150.516C189.246 151.008 189.957 151.758 190.465 152.766C190.973 153.766 191.227 155.031 191.227 156.563V168H188.461V156.75C188.461 155.336 188.094 154.234 187.359 153.445C186.625 152.648 185.617 152.25 184.336 152.25C183.453 152.25 182.664 152.441 181.969 152.824C181.281 153.207 180.738 153.766 180.34 154.5C179.941 155.234 179.742 156.125 179.742 157.172ZM203.546 175.125C202.21 175.125 201.062 174.953 200.101 174.609C199.14 174.273 198.339 173.828 197.698 173.273C197.065 172.727 196.562 172.141 196.187 171.516L198.39 169.969C198.64 170.297 198.956 170.672 199.339 171.094C199.722 171.523 200.245 171.895 200.909 172.207C201.581 172.527 202.46 172.687 203.546 172.687C204.999 172.687 206.198 172.336 207.144 171.633C208.089 170.93 208.562 169.828 208.562 168.328V164.672H208.327C208.124 165 207.835 165.406 207.46 165.891C207.093 166.367 206.562 166.793 205.866 167.168C205.179 167.535 204.249 167.719 203.077 167.719C201.624 167.719 200.319 167.375 199.163 166.688C198.015 166 197.104 165 196.433 163.687C195.769 162.375 195.437 160.781 195.437 158.906C195.437 157.062 195.761 155.457 196.409 154.09C197.058 152.715 197.96 151.652 199.116 150.902C200.272 150.145 201.608 149.766 203.124 149.766C204.296 149.766 205.226 149.961 205.913 150.352C206.608 150.734 207.14 151.172 207.507 151.664C207.882 152.148 208.171 152.547 208.374 152.859H208.655V150H211.327V168.516C211.327 170.062 210.976 171.32 210.272 172.289C209.577 173.266 208.64 173.98 207.46 174.434C206.288 174.895 204.983 175.125 203.546 175.125ZM203.452 165.234C204.562 165.234 205.499 164.98 206.265 164.473C207.03 163.965 207.612 163.234 208.011 162.281C208.409 161.328 208.608 160.187 208.608 158.859C208.608 157.562 208.413 156.418 208.022 155.426C207.632 154.434 207.054 153.656 206.288 153.094C205.522 152.531 204.577 152.25 203.452 152.25C202.28 152.25 201.304 152.547 200.522 153.141C199.749 153.734 199.167 154.531 198.776 155.531C198.394 156.531 198.202 157.641 198.202 158.859C198.202 160.109 198.397 161.215 198.788 162.176C199.187 163.129 199.772 163.879 200.546 164.426C201.327 164.965 202.296 165.234 203.452 165.234Z" fill="#171F2A"/>
<path d="M117.232 265.572C117.232 266.531 116.831 267.419 116.189 268.058C115.542 268.703 114.66 269.107 113.7 269.107H108.357V271.272H113.739C115.306 271.234 116.711 270.593 117.754 269.547C118.797 268.503 119.403 267.097 119.403 265.532V259.828H117.233L117.232 265.572Z" fill="white"/>
<path d="M117.232 265.572C117.232 266.531 116.831 267.419 116.189 268.058C115.542 268.703 114.66 269.107 113.7 269.107H108.357V271.272H113.739C115.306 271.234 116.711 270.593 117.754 269.547C118.797 268.503 119.403 267.097 119.403 265.532V259.828H117.233L117.232 265.572Z" fill="white"/>
<path d="M117.232 265.572C117.232 266.531 116.831 267.419 116.189 268.058C115.542 268.703 114.66 269.107 113.7 269.107H108.357V271.272H113.739C115.306 271.234 116.711 270.593 117.754 269.547C118.797 268.503 119.403 267.097 119.403 265.532V259.828H117.233L117.232 265.572Z" fill="white"/>
<path d="M119.401 241.557C119.401 239.991 118.759 238.589 117.753 237.541C116.71 236.499 115.304 235.899 113.738 235.899H108.355V238.067H113.738C114.703 238.067 115.585 238.464 116.226 239.11C116.869 239.749 117.273 240.633 117.273 241.599V247.342H119.438V241.558H119.401V241.557Z" fill="white"/>
<path d="M119.401 241.557C119.401 239.991 118.759 238.589 117.753 237.541C116.71 236.499 115.304 235.899 113.738 235.899H108.355V238.067H113.738C114.703 238.067 115.585 238.464 116.226 239.11C116.869 239.749 117.273 240.633 117.273 241.599V247.342H119.438V241.558H119.401V241.557Z" fill="white"/>
<path d="M119.401 241.557C119.401 239.991 118.759 238.589 117.753 237.541C116.71 236.499 115.304 235.899 113.738 235.899H108.355V238.067H113.738C114.703 238.067 115.585 238.464 116.226 239.11C116.869 239.749 117.273 240.633 117.273 241.599V247.342H119.438V241.558H119.401V241.557Z" fill="white"/>
<path d="M87.9591 268.019C87.3171 267.38 86.9152 266.496 86.9152 265.533V259.829H84.7471V265.573C84.7471 267.136 85.3901 268.545 86.3931 269.585C87.4781 270.593 88.8831 271.233 90.4491 271.233H95.8291V269.063H90.4491C89.4841 269.063 88.6001 268.662 87.9591 268.019Z" fill="white"/>
<path d="M87.9591 268.019C87.3171 267.38 86.9152 266.496 86.9152 265.533V259.829H84.7471V265.573C84.7471 267.136 85.3901 268.545 86.3931 269.585C87.4781 270.593 88.8831 271.233 90.4491 271.233H95.8291V269.063H90.4491C89.4841 269.063 88.6001 268.662 87.9591 268.019Z" fill="white"/>
<path d="M87.9591 268.019C87.3171 267.38 86.9152 266.496 86.9152 265.533V259.829H84.7471V265.573C84.7471 267.136 85.3901 268.545 86.3931 269.585C87.4781 270.593 88.8831 271.233 90.4491 271.233H95.8291V269.063H90.4491C89.4841 269.063 88.6001 268.662 87.9591 268.019Z" fill="white"/>
<path d="M86.9541 241.557C86.9541 240.594 87.3542 239.71 87.9982 239.067C88.6412 238.424 89.5242 238.026 90.4872 238.026H95.8691V235.898H90.4501C88.8831 235.898 87.4771 236.539 86.4331 237.54C85.3901 238.588 84.7881 239.99 84.7881 241.556V247.297H86.9551L86.9541 241.557Z" fill="white"/>
<path d="M86.9541 241.557C86.9541 240.594 87.3542 239.71 87.9982 239.067C88.6412 238.424 89.5242 238.026 90.4872 238.026H95.8691V235.898H90.4501C88.8831 235.898 87.4771 236.539 86.4331 237.54C85.3901 238.588 84.7881 239.99 84.7881 241.556V247.297H86.9551L86.9541 241.557Z" fill="white"/>
<path d="M86.9541 241.557C86.9541 240.594 87.3542 239.71 87.9982 239.067C88.6412 238.424 89.5242 238.026 90.4872 238.026H95.8691V235.898H90.4501C88.8831 235.898 87.4771 236.539 86.4331 237.54C85.3901 238.588 84.7881 239.99 84.7881 241.556V247.297H86.9551L86.9541 241.557Z" fill="white"/>
<path d="M109.643 262.719C110.244 262.719 110.726 262.238 110.726 261.637C110.726 259.269 109.76 257.102 108.197 255.531C107.475 254.812 106.588 254.207 105.667 253.804C105.747 253.722 105.829 253.686 105.909 253.606C106.869 252.638 107.475 251.279 107.475 249.792C107.475 248.305 106.869 246.938 105.909 245.974C104.941 245.015 103.579 244.409 102.095 244.409C100.608 244.409 99.2409 245.015 98.2789 245.974C97.3139 246.938 96.7098 248.305 96.7098 249.792C96.7098 251.279 97.3129 252.638 98.2789 253.606C98.3579 253.686 98.4379 253.722 98.5199 253.804C97.5549 254.248 96.7109 254.811 95.9899 255.531C94.4229 257.102 93.4609 259.269 93.4609 261.637C93.4609 262.238 93.9399 262.719 94.5459 262.719C95.1449 262.719 95.6289 262.238 95.6289 261.637C95.6289 259.873 96.3509 258.223 97.5159 257.058C98.6829 255.893 100.327 255.172 102.095 255.172C103.86 255.172 105.504 255.893 106.666 257.058C107.835 258.223 108.557 259.829 108.557 261.637C108.558 262.237 109.04 262.719 109.643 262.719ZM104.382 252.078C103.779 252.681 102.975 253.041 102.095 253.041C101.21 253.041 100.407 252.681 99.8019 252.078C99.2009 251.472 98.8429 250.675 98.8429 249.791C98.8429 248.906 99.2019 248.107 99.8019 247.498C100.408 246.897 101.21 246.538 102.095 246.538C102.975 246.538 103.779 246.898 104.382 247.498C104.985 248.108 105.345 248.906 105.345 249.791C105.345 250.676 104.985 251.473 104.382 252.078Z" fill="white"/>
<path d="M109.643 262.719C110.244 262.719 110.726 262.238 110.726 261.637C110.726 259.269 109.76 257.102 108.197 255.531C107.475 254.812 106.588 254.207 105.667 253.804C105.747 253.722 105.829 253.686 105.909 253.606C106.869 252.638 107.475 251.279 107.475 249.792C107.475 248.305 106.869 246.938 105.909 245.974C104.941 245.015 103.579 244.409 102.095 244.409C100.608 244.409 99.2409 245.015 98.2789 245.974C97.3139 246.938 96.7098 248.305 96.7098 249.792C96.7098 251.279 97.3129 252.638 98.2789 253.606C98.3579 253.686 98.4379 253.722 98.5199 253.804C97.5549 254.248 96.7109 254.811 95.9899 255.531C94.4229 257.102 93.4609 259.269 93.4609 261.637C93.4609 262.238 93.9399 262.719 94.5459 262.719C95.1449 262.719 95.6289 262.238 95.6289 261.637C95.6289 259.873 96.3509 258.223 97.5159 257.058C98.6829 255.893 100.327 255.172 102.095 255.172C103.86 255.172 105.504 255.893 106.666 257.058C107.835 258.223 108.557 259.829 108.557 261.637C108.558 262.237 109.04 262.719 109.643 262.719ZM104.382 252.078C103.779 252.681 102.975 253.041 102.095 253.041C101.21 253.041 100.407 252.681 99.8019 252.078C99.2009 251.472 98.8429 250.675 98.8429 249.791C98.8429 248.906 99.2019 248.107 99.8019 247.498C100.408 246.897 101.21 246.538 102.095 246.538C102.975 246.538 103.779 246.898 104.382 247.498C104.985 248.108 105.345 248.906 105.345 249.791C105.345 250.676 104.985 251.473 104.382 252.078Z" fill="white"/>
<path d="M109.643 262.719C110.244 262.719 110.726 262.238 110.726 261.637C110.726 259.269 109.76 257.102 108.197 255.531C107.475 254.812 106.588 254.207 105.667 253.804C105.747 253.722 105.829 253.686 105.909 253.606C106.869 252.638 107.475 251.279 107.475 249.792C107.475 248.305 106.869 246.938 105.909 245.974C104.941 245.015 103.579 244.409 102.095 244.409C100.608 244.409 99.2409 245.015 98.2789 245.974C97.3139 246.938 96.7098 248.305 96.7098 249.792C96.7098 251.279 97.3129 252.638 98.2789 253.606C98.3579 253.686 98.4379 253.722 98.5199 253.804C97.5549 254.248 96.7109 254.811 95.9899 255.531C94.4229 257.102 93.4609 259.269 93.4609 261.637C93.4609 262.238 93.9399 262.719 94.5459 262.719C95.1449 262.719 95.6289 262.238 95.6289 261.637C95.6289 259.873 96.3509 258.223 97.5159 257.058C98.6829 255.893 100.327 255.172 102.095 255.172C103.86 255.172 105.504 255.893 106.666 257.058C107.835 258.223 108.557 259.829 108.557 261.637C108.558 262.237 109.04 262.719 109.643 262.719ZM104.382 252.078C103.779 252.681 102.975 253.041 102.095 253.041C101.21 253.041 100.407 252.681 99.8019 252.078C99.2009 251.472 98.8429 250.675 98.8429 249.791C98.8429 248.906 99.2019 248.107 99.8019 247.498C100.408 246.897 101.21 246.538 102.095 246.538C102.975 246.538 103.779 246.898 104.382 247.498C104.985 248.108 105.345 248.906 105.345 249.791C105.345 250.676 104.985 251.473 104.382 252.078Z" fill="white"/>
<path d="M105.684 249.641C105.684 251.558 104.13 253.118 102.209 253.118C100.29 253.118 98.7344 251.558 98.7344 249.641C98.7344 247.718 100.29 246.159 102.209 246.159C104.13 246.16 105.684 247.718 105.684 249.641Z" fill="white"/>
<path d="M105.684 249.641C105.684 251.558 104.13 253.118 102.209 253.118C100.29 253.118 98.7344 251.558 98.7344 249.641C98.7344 247.718 100.29 246.159 102.209 246.159C104.13 246.16 105.684 247.718 105.684 249.641Z" fill="white"/>
<path d="M105.684 249.641C105.684 251.558 104.13 253.118 102.209 253.118C100.29 253.118 98.7344 251.558 98.7344 249.641C98.7344 247.718 100.29 246.159 102.209 246.159C104.13 246.16 105.684 247.718 105.684 249.641Z" fill="white"/>
</svg>
