<svg width="271" height="294" viewBox="0 0 271 294" fill="none" xmlns="http://www.w3.org/2000/svg">
<path d="M164.36 267.89L164.12 266.776C225.202 253.532 269.538 198.484 269.538 135.886C269.54 127.854 268.822 119.796 267.404 111.943L268.528 111.742C269.956 119.662 270.68 127.785 270.677 135.887C270.677 166.918 259.894 197.224 240.313 221.221C221.006 244.884 194.033 261.458 164.36 267.89ZM75.1822 256.722C29.1382 233.652 0.535156 187.35 0.535156 135.886C0.535156 124.603 1.92921 113.39 4.67621 102.563L5.78021 102.843C3.05721 113.579 1.67316 124.696 1.67316 135.886C1.67316 186.916 30.0352 232.828 75.6922 255.701L75.1822 256.722ZM223.204 34.571C198.897 13.537 167.787 1.95508 135.605 1.95508C106.36 1.95708 78.5742 11.2171 55.2562 28.7271L54.5692 27.814C78.0882 10.154 106.109 0.817918 135.605 0.815918C168.062 0.815918 199.437 12.497 223.95 33.707L223.204 34.571Z" fill="#24A24D"/>
<path d="M135.384 253.663L133.73 253.651L133.794 249.088L135.384 249.1C197.594 249.1 248.207 198.49 248.207 136.28C248.207 75.594 200.747 26.0801 140.156 23.5581L140.348 19C203.387 21.623 252.771 73.138 252.771 136.281C252.77 201.004 200.111 253.663 135.384 253.663ZM50.646 217.509C29.595 195.555 18 166.707 18 136.28C18 103.838 31.617 72.5371 55.357 50.4041L58.468 53.741C35.65 75.015 22.564 105.099 22.564 136.281C22.564 165.527 33.705 193.253 53.939 214.353L50.646 217.509Z" fill="#24A24D"/>
<path d="M101.939 293.585C124.393 293.585 142.595 275.383 142.595 252.929C142.595 230.475 124.393 212.273 101.939 212.273C79.4855 212.273 61.2832 230.475 61.2832 252.929C61.2832 275.383 79.4855 293.585 101.939 293.585Z" fill="#24A24D"/>
<path d="M70.1753 128L63.6128 104H66.5659L71.5815 123.547H71.8159L76.9253 104H80.2065L85.3159 123.547H85.5503L90.5659 104H93.519L86.9565 128H83.9565L78.6597 108.875H78.4722L73.1753 128H70.1753ZM102.402 128.375C100.777 128.375 99.3511 127.988 98.1245 127.215C96.9058 126.441 95.9526 125.359 95.2651 123.969C94.5854 122.578 94.2456 120.953 94.2456 119.094C94.2456 117.219 94.5854 115.582 95.2651 114.184C95.9526 112.785 96.9058 111.699 98.1245 110.926C99.3511 110.152 100.777 109.766 102.402 109.766C104.027 109.766 105.449 110.152 106.667 110.926C107.894 111.699 108.847 112.785 109.527 114.184C110.214 115.582 110.558 117.219 110.558 119.094C110.558 120.953 110.214 122.578 109.527 123.969C108.847 125.359 107.894 126.441 106.667 127.215C105.449 127.988 104.027 128.375 102.402 128.375ZM102.402 125.891C103.636 125.891 104.652 125.574 105.449 124.941C106.246 124.309 106.835 123.477 107.218 122.445C107.601 121.414 107.792 120.297 107.792 119.094C107.792 117.891 107.601 116.77 107.218 115.73C106.835 114.691 106.246 113.852 105.449 113.211C104.652 112.57 103.636 112.25 102.402 112.25C101.167 112.25 100.152 112.57 99.355 113.211C98.5581 113.852 97.9683 114.691 97.5854 115.73C97.2026 116.77 97.0112 117.891 97.0112 119.094C97.0112 120.297 97.2026 121.414 97.5854 122.445C97.9683 123.477 98.5581 124.309 99.355 124.941C100.152 125.574 101.167 125.891 102.402 125.891ZM114.78 128V110H117.452V112.719H117.639C117.967 111.828 118.561 111.105 119.42 110.551C120.28 109.996 121.249 109.719 122.327 109.719C122.53 109.719 122.784 109.723 123.088 109.73C123.393 109.738 123.624 109.75 123.78 109.766V112.578C123.686 112.555 123.471 112.52 123.135 112.473C122.807 112.418 122.459 112.391 122.092 112.391C121.217 112.391 120.436 112.574 119.749 112.941C119.069 113.301 118.53 113.801 118.131 114.441C117.741 115.074 117.545 115.797 117.545 116.609V128H114.78ZM129.636 121.437L129.589 118.016H130.152L138.027 110H141.449L133.058 118.484H132.824L129.636 121.437ZM127.058 128V104H129.824V128H127.058ZM138.496 128L131.464 119.094L133.433 117.172L142.011 128H138.496ZM153.024 110V112.344H143.321V110H153.024ZM146.227 128V107.516C146.227 106.484 146.469 105.625 146.954 104.937C147.438 104.25 148.067 103.734 148.84 103.391C149.614 103.047 150.43 102.875 151.29 102.875C151.969 102.875 152.524 102.93 152.954 103.039C153.383 103.148 153.704 103.25 153.915 103.344L153.118 105.734C152.977 105.687 152.782 105.629 152.532 105.559C152.29 105.488 151.969 105.453 151.571 105.453C150.657 105.453 149.997 105.684 149.59 106.145C149.192 106.605 148.993 107.281 148.993 108.172V128H146.227ZM159.666 104V128H156.9V104H159.666ZM172.043 128.375C170.418 128.375 168.993 127.988 167.766 127.215C166.547 126.441 165.594 125.359 164.907 123.969C164.227 122.578 163.887 120.953 163.887 119.094C163.887 117.219 164.227 115.582 164.907 114.184C165.594 112.785 166.547 111.699 167.766 110.926C168.993 110.152 170.418 109.766 172.043 109.766C173.668 109.766 175.09 110.152 176.309 110.926C177.536 111.699 178.489 112.785 179.168 114.184C179.856 115.582 180.2 117.219 180.2 119.094C180.2 120.953 179.856 122.578 179.168 123.969C178.489 125.359 177.536 126.441 176.309 127.215C175.09 127.988 173.668 128.375 172.043 128.375ZM172.043 125.891C173.278 125.891 174.293 125.574 175.09 124.941C175.887 124.309 176.477 123.477 176.86 122.445C177.243 121.414 177.434 120.297 177.434 119.094C177.434 117.891 177.243 116.77 176.86 115.73C176.477 114.691 175.887 113.852 175.09 113.211C174.293 112.57 173.278 112.25 172.043 112.25C170.809 112.25 169.793 112.57 168.997 113.211C168.2 113.852 167.61 114.691 167.227 115.73C166.844 116.77 166.653 117.891 166.653 119.094C166.653 120.297 166.844 121.414 167.227 122.445C167.61 123.477 168.2 124.309 168.997 124.941C169.793 125.574 170.809 125.891 172.043 125.891ZM187.887 128L182.403 110H185.309L189.2 123.781H189.387L193.231 110H196.184L199.981 123.734H200.168L204.059 110H206.965L201.481 128H198.762L194.825 114.172H194.543L190.606 128H187.887ZM36.2319 144H39.7007L47.8569 163.922H48.1382L56.2944 144H59.7632V168H57.0444V149.766H56.8101L49.3101 168H46.6851L39.1851 149.766H38.9507V168H36.2319V144ZM70.5122 168.422C69.3716 168.422 68.3364 168.207 67.4067 167.777C66.4771 167.34 65.7388 166.711 65.1919 165.891C64.645 165.063 64.3716 164.062 64.3716 162.891C64.3716 161.859 64.5747 161.023 64.981 160.383C65.3872 159.734 65.9302 159.227 66.6099 158.859C67.2896 158.492 68.0396 158.219 68.8599 158.039C69.688 157.852 70.52 157.703 71.356 157.594C72.4497 157.453 73.3364 157.348 74.0161 157.277C74.7036 157.199 75.2036 157.07 75.5161 156.891C75.8364 156.711 75.9966 156.398 75.9966 155.953V155.859C75.9966 154.703 75.6802 153.805 75.0474 153.164C74.4224 152.523 73.4731 152.203 72.1997 152.203C70.8794 152.203 69.8442 152.492 69.0942 153.07C68.3442 153.648 67.8169 154.266 67.5122 154.922L64.8872 153.984C65.356 152.891 65.981 152.039 66.7622 151.43C67.5513 150.812 68.4106 150.383 69.3403 150.141C70.2778 149.891 71.1997 149.766 72.106 149.766C72.6841 149.766 73.3481 149.836 74.0981 149.977C74.856 150.109 75.5864 150.387 76.2896 150.809C77.0005 151.23 77.5903 151.867 78.0591 152.719C78.5278 153.57 78.7622 154.711 78.7622 156.141V168H75.9966V165.562H75.856C75.6685 165.953 75.356 166.371 74.9185 166.816C74.481 167.262 73.8989 167.641 73.1724 167.953C72.4458 168.266 71.5591 168.422 70.5122 168.422ZM70.9341 165.938C72.0278 165.938 72.9497 165.723 73.6997 165.293C74.4575 164.863 75.0278 164.309 75.4106 163.629C75.8013 162.949 75.9966 162.234 75.9966 161.484V158.953C75.8794 159.094 75.6216 159.223 75.2231 159.34C74.8325 159.449 74.3794 159.547 73.8638 159.633C73.356 159.711 72.8599 159.781 72.3755 159.844C71.8989 159.898 71.5122 159.945 71.2153 159.984C70.4966 160.078 69.8247 160.23 69.1997 160.441C68.5825 160.645 68.0825 160.953 67.6997 161.367C67.3247 161.773 67.1372 162.328 67.1372 163.031C67.1372 163.992 67.4927 164.719 68.2036 165.211C68.9224 165.695 69.8325 165.938 70.9341 165.938ZM86.5757 157.172V168H83.8101V150H86.4819V152.812H86.7163C87.1382 151.898 87.7788 151.164 88.6382 150.609C89.4976 150.047 90.6069 149.766 91.9663 149.766C93.1851 149.766 94.2515 150.016 95.1655 150.516C96.0796 151.008 96.7905 151.758 97.2983 152.766C97.8062 153.766 98.0601 155.031 98.0601 156.563V168H95.2944V156.75C95.2944 155.336 94.9272 154.234 94.1929 153.445C93.4585 152.648 92.4507 152.25 91.1694 152.25C90.2866 152.25 89.4976 152.441 88.8022 152.824C88.1147 153.207 87.5718 153.766 87.1733 154.5C86.7749 155.234 86.5757 156.125 86.5757 157.172ZM108.411 168.422C107.27 168.422 106.235 168.207 105.305 167.777C104.375 167.34 103.637 166.711 103.09 165.891C102.543 165.063 102.27 164.062 102.27 162.891C102.27 161.859 102.473 161.023 102.879 160.383C103.286 159.734 103.829 159.227 104.508 158.859C105.188 158.492 105.938 158.219 106.758 158.039C107.586 157.852 108.418 157.703 109.254 157.594C110.348 157.453 111.235 157.348 111.915 157.277C112.602 157.199 113.102 157.07 113.415 156.891C113.735 156.711 113.895 156.398 113.895 155.953V155.859C113.895 154.703 113.579 153.805 112.946 153.164C112.321 152.523 111.372 152.203 110.098 152.203C108.778 152.203 107.743 152.492 106.993 153.07C106.243 153.648 105.715 154.266 105.411 154.922L102.786 153.984C103.254 152.891 103.879 152.039 104.661 151.43C105.45 150.812 106.309 150.383 107.239 150.141C108.176 149.891 109.098 149.766 110.004 149.766C110.583 149.766 111.247 149.836 111.997 149.977C112.754 150.109 113.485 150.387 114.188 150.809C114.899 151.23 115.489 151.867 115.958 152.719C116.426 153.57 116.661 154.711 116.661 156.141V168H113.895V165.562H113.754C113.567 165.953 113.254 166.371 112.817 166.816C112.379 167.262 111.797 167.641 111.071 167.953C110.344 168.266 109.458 168.422 108.411 168.422ZM108.833 165.938C109.926 165.938 110.848 165.723 111.598 165.293C112.356 164.863 112.926 164.309 113.309 163.629C113.7 162.949 113.895 162.234 113.895 161.484V158.953C113.778 159.094 113.52 159.223 113.122 159.34C112.731 159.449 112.278 159.547 111.762 159.633C111.254 159.711 110.758 159.781 110.274 159.844C109.797 159.898 109.411 159.945 109.114 159.984C108.395 160.078 107.723 160.23 107.098 160.441C106.481 160.645 105.981 160.953 105.598 161.367C105.223 161.773 105.036 162.328 105.036 163.031C105.036 163.992 105.391 164.719 106.102 165.211C106.821 165.695 107.731 165.938 108.833 165.938ZM128.974 175.125C127.638 175.125 126.49 174.953 125.529 174.609C124.568 174.273 123.767 173.828 123.126 173.273C122.494 172.727 121.99 172.141 121.615 171.516L123.818 169.969C124.068 170.297 124.384 170.672 124.767 171.094C125.15 171.523 125.673 171.895 126.337 172.207C127.009 172.527 127.888 172.687 128.974 172.687C130.427 172.687 131.626 172.336 132.572 171.633C133.517 170.93 133.99 169.828 133.99 168.328V164.672H133.755C133.552 165 133.263 165.406 132.888 165.891C132.521 166.367 131.99 166.793 131.294 167.168C130.607 167.535 129.677 167.719 128.505 167.719C127.052 167.719 125.748 167.375 124.591 166.688C123.443 166 122.533 165 121.861 163.687C121.197 162.375 120.865 160.781 120.865 158.906C120.865 157.062 121.189 155.457 121.837 154.09C122.486 152.715 123.388 151.652 124.544 150.902C125.701 150.145 127.037 149.766 128.552 149.766C129.724 149.766 130.654 149.961 131.341 150.352C132.037 150.734 132.568 151.172 132.935 151.664C133.31 152.148 133.599 152.547 133.802 152.859H134.083V150H136.755V168.516C136.755 170.062 136.404 171.32 135.701 172.289C135.005 173.266 134.068 173.98 132.888 174.434C131.716 174.895 130.412 175.125 128.974 175.125ZM128.88 165.234C129.99 165.234 130.927 164.98 131.693 164.473C132.458 163.965 133.041 163.234 133.439 162.281C133.837 161.328 134.037 160.187 134.037 158.859C134.037 157.562 133.841 156.418 133.451 155.426C133.06 154.434 132.482 153.656 131.716 153.094C130.951 152.531 130.005 152.25 128.88 152.25C127.708 152.25 126.732 152.547 125.951 153.141C125.177 153.734 124.595 154.531 124.205 155.531C123.822 156.531 123.63 157.641 123.63 158.859C123.63 160.109 123.826 161.215 124.216 162.176C124.615 163.129 125.201 163.879 125.974 164.426C126.755 164.965 127.724 165.234 128.88 165.234ZM149.365 168.375C147.63 168.375 146.134 167.992 144.876 167.227C143.626 166.453 142.662 165.375 141.982 163.992C141.31 162.602 140.974 160.984 140.974 159.141C140.974 157.297 141.31 155.672 141.982 154.266C142.662 152.852 143.607 151.75 144.818 150.961C146.037 150.164 147.458 149.766 149.083 149.766C150.021 149.766 150.947 149.922 151.861 150.234C152.775 150.547 153.607 151.055 154.357 151.758C155.107 152.453 155.705 153.375 156.15 154.523C156.595 155.672 156.818 157.086 156.818 158.766V159.937H142.943V157.547H154.005C154.005 156.531 153.802 155.625 153.396 154.828C152.998 154.031 152.427 153.402 151.685 152.941C150.951 152.48 150.083 152.25 149.083 152.25C147.982 152.25 147.029 152.523 146.224 153.07C145.427 153.609 144.814 154.312 144.384 155.18C143.955 156.047 143.74 156.977 143.74 157.969V159.563C143.74 160.922 143.974 162.074 144.443 163.02C144.919 163.957 145.58 164.672 146.423 165.164C147.267 165.648 148.248 165.891 149.365 165.891C150.091 165.891 150.748 165.789 151.333 165.586C151.927 165.375 152.439 165.063 152.869 164.648C153.298 164.227 153.63 163.703 153.865 163.078L156.537 163.828C156.255 164.734 155.783 165.531 155.119 166.219C154.455 166.898 153.634 167.43 152.658 167.812C151.681 168.188 150.583 168.375 149.365 168.375ZM161.025 168V150H163.697V152.812H163.931C164.306 151.852 164.912 151.105 165.748 150.574C166.583 150.035 167.587 149.766 168.759 149.766C169.947 149.766 170.935 150.035 171.724 150.574C172.521 151.105 173.142 151.852 173.587 152.812H173.775C174.236 151.883 174.927 151.145 175.849 150.598C176.771 150.043 177.876 149.766 179.166 149.766C180.775 149.766 182.091 150.27 183.115 151.277C184.138 152.277 184.65 153.836 184.65 155.953V168H181.884V155.953C181.884 154.625 181.521 153.676 180.794 153.105C180.068 152.535 179.212 152.25 178.228 152.25C176.962 152.25 175.982 152.633 175.287 153.398C174.591 154.156 174.244 155.117 174.244 156.281V168H171.431V155.672C171.431 154.648 171.099 153.824 170.435 153.199C169.771 152.566 168.916 152.25 167.869 152.25C167.15 152.25 166.478 152.441 165.853 152.824C165.236 153.207 164.736 153.738 164.353 154.418C163.978 155.09 163.791 155.867 163.791 156.75V168H161.025ZM197.253 168.375C195.519 168.375 194.023 167.992 192.765 167.227C191.515 166.453 190.55 165.375 189.871 163.992C189.199 162.602 188.863 160.984 188.863 159.141C188.863 157.297 189.199 155.672 189.871 154.266C190.55 152.852 191.496 151.75 192.707 150.961C193.925 150.164 195.347 149.766 196.972 149.766C197.91 149.766 198.835 149.922 199.75 150.234C200.664 150.547 201.496 151.055 202.246 151.758C202.996 152.453 203.593 153.375 204.039 154.523C204.484 155.672 204.707 157.086 204.707 158.766V159.937H190.832V157.547H201.894C201.894 156.531 201.691 155.625 201.285 154.828C200.886 154.031 200.316 153.402 199.574 152.941C198.839 152.48 197.972 152.25 196.972 152.25C195.871 152.25 194.917 152.523 194.113 153.07C193.316 153.609 192.703 154.312 192.273 155.18C191.843 156.047 191.628 156.977 191.628 157.969V159.563C191.628 160.922 191.863 162.074 192.332 163.02C192.808 163.957 193.468 164.672 194.312 165.164C195.156 165.648 196.136 165.891 197.253 165.891C197.98 165.891 198.636 165.789 199.222 165.586C199.816 165.375 200.328 165.063 200.757 164.648C201.187 164.227 201.519 163.703 201.753 163.078L204.425 163.828C204.144 164.734 203.671 165.531 203.007 166.219C202.343 166.898 201.523 167.43 200.546 167.812C199.57 168.188 198.472 168.375 197.253 168.375ZM211.679 157.172V168H208.914V150H211.585V152.812H211.82C212.242 151.898 212.882 151.164 213.742 150.609C214.601 150.047 215.71 149.766 217.07 149.766C218.289 149.766 219.355 150.016 220.269 150.516C221.183 151.008 221.894 151.758 222.402 152.766C222.91 153.766 223.164 155.031 223.164 156.563V168H220.398V156.75C220.398 155.336 220.031 154.234 219.296 153.445C218.562 152.648 217.554 152.25 216.273 152.25C215.39 152.25 214.601 152.441 213.906 152.824C213.218 153.207 212.675 153.766 212.277 154.5C211.878 155.234 211.679 156.125 211.679 157.172ZM236.045 150V152.344H226.717V150H236.045ZM229.436 145.687H232.202V162.844C232.202 163.625 232.315 164.211 232.542 164.602C232.776 164.984 233.073 165.242 233.432 165.375C233.799 165.5 234.186 165.562 234.592 165.562C234.897 165.562 235.147 165.547 235.342 165.516C235.538 165.477 235.694 165.445 235.811 165.422L236.374 167.906C236.186 167.977 235.924 168.047 235.588 168.117C235.252 168.195 234.827 168.234 234.311 168.234C233.53 168.234 232.764 168.066 232.014 167.73C231.272 167.395 230.655 166.883 230.163 166.195C229.678 165.508 229.436 164.641 229.436 163.594V145.687Z" fill="#171F2A"/>
<path d="M123.471 266.961H114.945H97.2559C96.5169 266.961 95.9209 267.557 95.9209 268.296V269.123C95.9209 269.856 96.5169 270.455 97.2559 270.455H114.945H123.471H127.891V266.961H123.471Z" fill="white"/>
<path d="M94.475 231.153C98.558 231.153 101.867 234.463 101.867 238.544C101.867 242.627 98.557 245.944 94.475 245.944C90.394 245.944 87.084 242.627 87.084 238.544C87.084 234.462 90.394 231.153 94.475 231.153Z" fill="white"/>
<path d="M112.517 256.682L95.5759 256.671L95.1738 256.668V254.7L95.1569 253.058C95.1569 249.127 91.9729 245.943 88.0349 245.943C87.9059 245.943 87.7769 245.946 87.6389 245.948L87.6299 245.943C83.9229 245.943 80.9219 248.942 80.9219 252.649V271.601H95.1738V263.528L94.9799 263.514C94.9679 263.511 94.9639 263.514 94.9569 263.514C93.9949 263.514 93.0738 263.109 92.4188 262.401L86.6359 256.084C86.4469 255.884 86.4638 255.569 86.6638 255.384C86.8638 255.198 87.1798 255.215 87.3608 255.415L93.1469 261.728C93.6159 262.243 94.2789 262.557 94.9769 262.566C95.0199 262.566 95.6599 262.577 95.6599 262.577H112.517C114.146 262.577 115.465 261.262 115.465 259.626C115.465 257.999 114.146 256.682 112.517 256.682Z" fill="white"/>
<path d="M130.038 246.215C129.347 245.975 128.594 246.344 128.365 247.035L122.761 263.379H102.731C102.003 263.379 101.411 263.969 101.411 264.702C101.411 265.433 102.002 266.02 102.731 266.02H123.688C124.143 266.02 124.532 265.795 124.775 265.447C124.859 265.346 124.927 265.22 124.975 265.081L130.86 247.89C131.097 247.204 130.726 246.453 130.038 246.215Z" fill="white"/>
</svg>
