<svg width="271" height="294" viewBox="0 0 271 294" fill="none" xmlns="http://www.w3.org/2000/svg">
<path d="M163.947 267.89L163.707 266.776C224.789 253.532 269.125 198.484 269.125 135.886C269.127 127.854 268.409 119.796 266.991 111.943L268.115 111.742C269.543 119.662 270.267 127.785 270.264 135.887C270.264 166.918 259.481 197.224 239.9 221.221C220.593 244.884 193.62 261.458 163.947 267.89ZM74.7692 256.722C28.7252 233.652 0.12207 187.35 0.12207 135.886C0.12207 124.603 1.51606 113.39 4.26306 102.563L5.36707 102.843C2.64407 113.579 1.26013 124.696 1.26013 135.886C1.26013 186.916 29.6222 232.828 75.2792 255.701L74.7692 256.722ZM222.791 34.571C198.484 13.537 167.374 1.95508 135.192 1.95508C105.947 1.95708 78.1611 11.2171 54.8431 28.7271L54.1561 27.814C77.6751 10.154 105.696 0.817918 135.192 0.815918C167.649 0.815918 199.024 12.497 223.537 33.707L222.791 34.571Z" fill="#24A24D"/>
<path d="M135.384 253.663L133.73 253.651L133.794 249.088L135.384 249.1C197.594 249.1 248.207 198.49 248.207 136.28C248.207 75.594 200.747 26.0801 140.156 23.5581L140.347 19C203.386 21.623 252.77 73.138 252.77 136.281C252.77 201.004 200.111 253.663 135.384 253.663ZM50.646 217.509C29.595 195.555 18 166.707 18 136.28C18 103.838 31.6171 72.5371 55.3571 50.4041L58.468 53.741C35.65 75.015 22.5641 105.099 22.5641 136.281C22.5641 165.527 33.7051 193.253 53.9391 214.353L50.646 217.509Z" fill="#24A24D"/>
<path d="M101.526 293.585C123.98 293.585 142.182 275.383 142.182 252.929C142.182 230.475 123.98 212.273 101.526 212.273C79.0724 212.273 60.8701 230.475 60.8701 252.929C60.8701 275.383 79.0724 293.585 101.526 293.585Z" fill="#24A24D"/>
<path d="M94.9014 128H91.8545L100.667 104H103.667L112.479 128H109.433L102.261 107.797H102.073L94.9014 128ZM96.0264 118.625H108.308V121.203H96.0264V118.625ZM128.593 114.031L126.108 114.734C125.952 114.32 125.722 113.918 125.417 113.527C125.12 113.129 124.714 112.801 124.198 112.543C123.683 112.285 123.022 112.156 122.218 112.156C121.116 112.156 120.198 112.41 119.464 112.918C118.737 113.418 118.374 114.055 118.374 114.828C118.374 115.516 118.624 116.059 119.124 116.457C119.624 116.855 120.405 117.187 121.468 117.453L124.14 118.109C125.749 118.5 126.948 119.098 127.737 119.902C128.526 120.699 128.921 121.727 128.921 122.984C128.921 124.016 128.624 124.937 128.03 125.75C127.444 126.562 126.624 127.203 125.569 127.672C124.515 128.141 123.288 128.375 121.89 128.375C120.054 128.375 118.534 127.977 117.331 127.18C116.128 126.383 115.366 125.219 115.046 123.687L117.671 123.031C117.921 124 118.394 124.727 119.089 125.211C119.792 125.695 120.71 125.938 121.843 125.938C123.132 125.938 124.155 125.664 124.913 125.117C125.679 124.562 126.062 123.898 126.062 123.125C126.062 122.5 125.843 121.977 125.405 121.555C124.968 121.125 124.296 120.805 123.39 120.594L120.39 119.891C118.741 119.5 117.53 118.895 116.757 118.074C115.991 117.246 115.608 116.211 115.608 114.969C115.608 113.953 115.894 113.055 116.464 112.273C117.042 111.492 117.827 110.879 118.819 110.434C119.819 109.988 120.952 109.766 122.218 109.766C123.999 109.766 125.397 110.156 126.413 110.937C127.437 111.719 128.163 112.75 128.593 114.031ZM145.834 114.031L143.35 114.734C143.193 114.32 142.963 113.918 142.658 113.527C142.361 113.129 141.955 112.801 141.439 112.543C140.924 112.285 140.264 112.156 139.459 112.156C138.357 112.156 137.439 112.41 136.705 112.918C135.979 113.418 135.615 114.055 135.615 114.828C135.615 115.516 135.865 116.059 136.365 116.457C136.865 116.855 137.646 117.187 138.709 117.453L141.381 118.109C142.99 118.5 144.189 119.098 144.979 119.902C145.768 120.699 146.162 121.727 146.162 122.984C146.162 124.016 145.865 124.937 145.271 125.75C144.686 126.562 143.865 127.203 142.811 127.672C141.756 128.141 140.529 128.375 139.131 128.375C137.295 128.375 135.775 127.977 134.572 127.18C133.369 126.383 132.607 125.219 132.287 123.687L134.912 123.031C135.162 124 135.635 124.727 136.33 125.211C137.033 125.695 137.951 125.938 139.084 125.938C140.373 125.938 141.396 125.664 142.154 125.117C142.92 124.562 143.303 123.898 143.303 123.125C143.303 122.5 143.084 121.977 142.646 121.555C142.209 121.125 141.537 120.805 140.631 120.594L137.631 119.891C135.982 119.5 134.771 118.895 133.998 118.074C133.232 117.246 132.85 116.211 132.85 114.969C132.85 113.953 133.135 113.055 133.705 112.273C134.283 111.492 135.068 110.879 136.061 110.434C137.061 109.988 138.193 109.766 139.459 109.766C141.24 109.766 142.639 110.156 143.654 110.937C144.678 111.719 145.404 112.75 145.834 114.031ZM157.872 128.375C156.138 128.375 154.642 127.992 153.384 127.227C152.134 126.453 151.169 125.375 150.489 123.992C149.817 122.602 149.481 120.984 149.481 119.141C149.481 117.297 149.817 115.672 150.489 114.266C151.169 112.852 152.114 111.75 153.325 110.961C154.544 110.164 155.966 109.766 157.591 109.766C158.528 109.766 159.454 109.922 160.368 110.234C161.282 110.547 162.114 111.055 162.864 111.758C163.614 112.453 164.212 113.375 164.657 114.523C165.103 115.672 165.325 117.086 165.325 118.766V119.937H151.45V117.547H162.513C162.513 116.531 162.31 115.625 161.903 114.828C161.505 114.031 160.935 113.402 160.192 112.941C159.458 112.48 158.591 112.25 157.591 112.25C156.489 112.25 155.536 112.523 154.731 113.07C153.935 113.609 153.321 114.312 152.892 115.18C152.462 116.047 152.247 116.977 152.247 117.969V119.563C152.247 120.922 152.481 122.074 152.95 123.02C153.427 123.957 154.087 124.672 154.931 125.164C155.774 125.648 156.755 125.891 157.872 125.891C158.599 125.891 159.255 125.789 159.841 125.586C160.435 125.375 160.946 125.063 161.376 124.648C161.806 124.227 162.138 123.703 162.372 123.078L165.044 123.828C164.763 124.734 164.29 125.531 163.626 126.219C162.962 126.898 162.142 127.43 161.165 127.812C160.188 128.188 159.091 128.375 157.872 128.375ZM177.36 110V112.344H168.032V110H177.36ZM170.751 105.687H173.517V122.844C173.517 123.625 173.63 124.211 173.856 124.602C174.091 124.984 174.388 125.242 174.747 125.375C175.114 125.5 175.501 125.562 175.907 125.562C176.212 125.562 176.462 125.547 176.657 125.516C176.853 125.477 177.009 125.445 177.126 125.422L177.688 127.906C177.501 127.977 177.239 128.047 176.903 128.117C176.567 128.195 176.142 128.234 175.626 128.234C174.845 128.234 174.079 128.066 173.329 127.73C172.587 127.395 171.97 126.883 171.478 126.195C170.993 125.508 170.751 124.641 170.751 123.594V105.687ZM76.0547 144H78.9609V159.891C78.9609 161.531 78.5742 162.996 77.8008 164.285C77.0352 165.566 75.9531 166.578 74.5547 167.32C73.1563 168.055 71.5156 168.422 69.6328 168.422C67.75 168.422 66.1094 168.055 64.7109 167.32C63.3125 166.578 62.2266 165.566 61.4531 164.285C60.6875 162.996 60.3047 161.531 60.3047 159.891V144H63.2109V159.656C63.2109 160.828 63.4688 161.871 63.9844 162.785C64.5 163.691 65.2344 164.406 66.1875 164.93C67.1484 165.445 68.2969 165.703 69.6328 165.703C70.9688 165.703 72.1172 165.445 73.0781 164.93C74.0391 164.406 74.7734 163.691 75.2813 162.785C75.7969 161.871 76.0547 160.828 76.0547 159.656V144ZM92.2178 150V152.344H82.8896V150H92.2178ZM85.6084 145.687H88.374V162.844C88.374 163.625 88.4873 164.211 88.7139 164.602C88.9482 164.984 89.2451 165.242 89.6045 165.375C89.9717 165.5 90.3584 165.562 90.7646 165.562C91.0693 165.562 91.3193 165.547 91.5146 165.516C91.71 165.477 91.8662 165.445 91.9834 165.422L92.5459 167.906C92.3584 167.977 92.0967 168.047 91.7607 168.117C91.4248 168.195 90.999 168.234 90.4834 168.234C89.7021 168.234 88.9365 168.066 88.1865 167.73C87.4443 167.395 86.8271 166.883 86.335 166.195C85.8506 165.508 85.6084 164.641 85.6084 163.594V145.687ZM96.3779 168V150H99.1436V168H96.3779ZM97.7842 147C97.2451 147 96.7803 146.816 96.3896 146.449C96.0068 146.082 95.8154 145.641 95.8154 145.125C95.8154 144.609 96.0068 144.168 96.3896 143.801C96.7803 143.434 97.2451 143.25 97.7842 143.25C98.3232 143.25 98.7842 143.434 99.167 143.801C99.5576 144.168 99.7529 144.609 99.7529 145.125C99.7529 145.641 99.5576 146.082 99.167 146.449C98.7842 146.816 98.3232 147 97.7842 147ZM106.975 144V168H104.209V144H106.975ZM112.04 168V150H114.806V168H112.04ZM113.446 147C112.907 147 112.442 146.816 112.052 146.449C111.669 146.082 111.478 145.641 111.478 145.125C111.478 144.609 111.669 144.168 112.052 143.801C112.442 143.434 112.907 143.25 113.446 143.25C113.985 143.25 114.446 143.434 114.829 143.801C115.22 144.168 115.415 144.609 115.415 145.125C115.415 145.641 115.22 146.082 114.829 146.449C114.446 146.816 113.985 147 113.446 147ZM119.355 168V165.891L129.574 152.766V152.578H119.684V150H133.137V152.203L123.199 165.234V165.422H133.465V168H119.355ZM143.021 168.422C141.881 168.422 140.846 168.207 139.916 167.777C138.986 167.34 138.248 166.711 137.701 165.891C137.154 165.063 136.881 164.062 136.881 162.891C136.881 161.859 137.084 161.023 137.49 160.383C137.896 159.734 138.439 159.227 139.119 158.859C139.799 158.492 140.549 158.219 141.369 158.039C142.197 157.852 143.029 157.703 143.865 157.594C144.959 157.453 145.846 157.348 146.525 157.277C147.213 157.199 147.713 157.07 148.025 156.891C148.346 156.711 148.506 156.398 148.506 155.953V155.859C148.506 154.703 148.189 153.805 147.557 153.164C146.932 152.523 145.982 152.203 144.709 152.203C143.389 152.203 142.354 152.492 141.604 153.07C140.854 153.648 140.326 154.266 140.021 154.922L137.396 153.984C137.865 152.891 138.49 152.039 139.271 151.43C140.061 150.812 140.92 150.383 141.85 150.141C142.787 149.891 143.709 149.766 144.615 149.766C145.193 149.766 145.857 149.836 146.607 149.977C147.365 150.109 148.096 150.387 148.799 150.809C149.51 151.23 150.1 151.867 150.568 152.719C151.037 153.57 151.271 154.711 151.271 156.141V168H148.506V165.562H148.365C148.178 165.953 147.865 166.371 147.428 166.816C146.99 167.262 146.408 167.641 145.682 167.953C144.955 168.266 144.068 168.422 143.021 168.422ZM143.443 165.938C144.537 165.938 145.459 165.723 146.209 165.293C146.967 164.863 147.537 164.309 147.92 163.629C148.311 162.949 148.506 162.234 148.506 161.484V158.953C148.389 159.094 148.131 159.223 147.732 159.34C147.342 159.449 146.889 159.547 146.373 159.633C145.865 159.711 145.369 159.781 144.885 159.844C144.408 159.898 144.021 159.945 143.725 159.984C143.006 160.078 142.334 160.23 141.709 160.441C141.092 160.645 140.592 160.953 140.209 161.367C139.834 161.773 139.646 162.328 139.646 163.031C139.646 163.992 140.002 164.719 140.713 165.211C141.432 165.695 142.342 165.938 143.443 165.938ZM164.147 150V152.344H154.819V150H164.147ZM157.538 145.687H160.304V162.844C160.304 163.625 160.417 164.211 160.644 164.602C160.878 164.984 161.175 165.242 161.534 165.375C161.901 165.5 162.288 165.562 162.694 165.562C162.999 165.562 163.249 165.547 163.444 165.516C163.64 165.477 163.796 165.445 163.913 165.422L164.476 167.906C164.288 167.977 164.026 168.047 163.69 168.117C163.354 168.195 162.929 168.234 162.413 168.234C161.632 168.234 160.866 168.066 160.116 167.73C159.374 167.395 158.757 166.883 158.265 166.195C157.78 165.508 157.538 164.641 157.538 163.594V145.687ZM168.308 168V150H171.073V168H168.308ZM169.714 147C169.175 147 168.71 146.816 168.319 146.449C167.937 146.082 167.745 145.641 167.745 145.125C167.745 144.609 167.937 144.168 168.319 143.801C168.71 143.434 169.175 143.25 169.714 143.25C170.253 143.25 170.714 143.434 171.097 143.801C171.487 144.168 171.683 144.609 171.683 145.125C171.683 145.641 171.487 146.082 171.097 146.449C170.714 146.816 170.253 147 169.714 147ZM183.451 168.375C181.826 168.375 180.4 167.988 179.174 167.215C177.955 166.441 177.002 165.359 176.314 163.969C175.635 162.578 175.295 160.953 175.295 159.094C175.295 157.219 175.635 155.582 176.314 154.184C177.002 152.785 177.955 151.699 179.174 150.926C180.4 150.152 181.826 149.766 183.451 149.766C185.076 149.766 186.498 150.152 187.717 150.926C188.943 151.699 189.896 152.785 190.576 154.184C191.264 155.582 191.607 157.219 191.607 159.094C191.607 160.953 191.264 162.578 190.576 163.969C189.896 165.359 188.943 166.441 187.717 167.215C186.498 167.988 185.076 168.375 183.451 168.375ZM183.451 165.891C184.686 165.891 185.701 165.574 186.498 164.941C187.295 164.309 187.885 163.477 188.268 162.445C188.65 161.414 188.842 160.297 188.842 159.094C188.842 157.891 188.65 156.77 188.268 155.73C187.885 154.691 187.295 153.852 186.498 153.211C185.701 152.57 184.686 152.25 183.451 152.25C182.217 152.25 181.201 152.57 180.404 153.211C179.607 153.852 179.018 154.691 178.635 155.73C178.252 156.77 178.061 157.891 178.061 159.094C178.061 160.297 178.252 161.414 178.635 162.445C179.018 163.477 179.607 164.309 180.404 164.941C181.201 165.574 182.217 165.891 183.451 165.891ZM198.595 157.172V168H195.829V150H198.501V152.812H198.735C199.157 151.898 199.798 151.164 200.657 150.609C201.517 150.047 202.626 149.766 203.985 149.766C205.204 149.766 206.271 150.016 207.185 150.516C208.099 151.008 208.81 151.758 209.317 152.766C209.825 153.766 210.079 155.031 210.079 156.563V168H207.313V156.75C207.313 155.336 206.946 154.234 206.212 153.445C205.478 152.648 204.47 152.25 203.188 152.25C202.306 152.25 201.517 152.441 200.821 152.824C200.134 153.207 199.591 153.766 199.192 154.5C198.794 155.234 198.595 156.125 198.595 157.172Z" fill="#171F2A"/>
<path d="M121.471 232.841H84.4039C83.0059 232.841 81.8789 233.975 81.8789 235.371V267.387C81.8789 268.778 83.0059 269.912 84.4039 269.912H121.471C122.866 269.912 124 268.778 124 267.387V235.371C124 233.975 122.866 232.841 121.471 232.841ZM115.152 234.529C116.08 234.529 116.84 235.286 116.84 236.217C116.84 237.146 116.08 237.903 115.152 237.903C114.22 237.903 113.466 237.146 113.466 236.217C113.466 235.286 114.22 234.529 115.152 234.529ZM110.521 234.529C111.449 234.529 112.209 235.286 112.209 236.217C112.209 237.146 111.449 237.903 110.521 237.903C109.588 237.903 108.835 237.146 108.835 236.217C108.834 235.286 109.587 234.529 110.521 234.529ZM95.6389 267.388C96.2429 263.895 99.2769 261.234 102.941 261.234C106.599 261.234 109.634 263.895 110.233 267.388H95.6389ZM121.471 266.423C121.471 265.6 120.808 264.96 119.982 264.96H117.294C116.943 263.61 116.405 262.313 115.704 261.13L117.613 259.219C118.191 258.639 118.191 257.696 117.613 257.124L114.472 253.969C113.888 253.392 112.949 253.391 112.372 253.969L110.45 255.881C109.274 255.185 107.977 254.641 106.623 254.29V251.598C106.623 250.78 105.981 250.116 105.155 250.116H100.712C99.8919 250.116 99.2499 250.777 99.2499 251.598V254.29C97.8959 254.641 96.5949 255.186 95.4209 255.881L93.5018 253.969C92.9238 253.391 91.9849 253.391 91.4089 253.969L88.2589 257.124C87.6749 257.694 87.6749 258.635 88.2589 259.214L90.1699 261.132C89.4699 262.314 88.9308 263.615 88.5798 264.961H85.8878C85.0638 264.961 84.4019 265.602 84.4019 266.427V239.588H121.469V266.423H121.471ZM119.788 237.903C118.859 237.903 118.097 237.146 118.097 236.217C118.097 235.286 118.858 234.529 119.788 234.529C120.713 234.529 121.471 235.286 121.471 236.217C121.471 237.146 120.713 237.903 119.788 237.903Z" fill="white"/>
</svg>
