<svg width="10" height="12" viewBox="0 0 10 12" fill="none" xmlns="http://www.w3.org/2000/svg">
<path d="M9.27569 0.686961C9.25132 0.791405 8.2939 0.439777 6.74465 0.624296C5.23368 0.784444 3.06125 1.65481 1.7731 3.63229C0.509322 5.62718 0.624199 7.96674 1.10813 9.40459C1.58509 10.8912 2.30576 11.6153 2.21872 11.6815C2.19435 11.7059 1.99591 11.5492 1.69998 11.2045C1.40406 10.8598 1.03501 10.2993 0.735604 9.53689C0.126345 8.05029 -0.0825424 5.52622 1.30309 3.32941C2.72353 1.15696 5.10488 0.293554 6.70984 0.230888C7.52799 0.185629 8.18947 0.286592 8.62814 0.411925C9.0668 0.537258 9.28962 0.655628 9.27917 0.686961H9.27569Z" fill="white"/>
</svg>
