<svg width="87" height="88" viewBox="0 0 87 88" fill="none" xmlns="http://www.w3.org/2000/svg">
<g filter="url(#filter0_d_1_1080)">
<path d="M58.1705 39.7206C58.8598 39.7206 59.4186 39.1619 59.4186 38.4725V33.7922C59.4186 33.2535 59.073 32.7756 58.5614 32.6069L43.8027 27.7393C43.5483 27.6554 43.2737 27.6556 43.0194 27.7399L28.3231 32.6074C27.8123 32.7766 27.4674 33.2541 27.4674 33.7922V38.4725C27.4674 39.1619 28.0262 39.7206 28.7155 39.7206H29.6516V52.1392H28.7155C28.0262 52.1392 27.4674 52.6979 27.4674 53.3872V58.3796C27.4674 59.0689 28.0262 59.6277 28.7155 59.6277H48.6226C50.2786 59.5618 50.2773 57.1969 48.6226 57.1315H29.9636V54.6353H45.8768C46.5661 54.6353 47.1249 54.0766 47.1249 53.3872V39.7206H53.4902V42.0889C48.5476 43.6565 49.5283 50.8267 54.7695 50.9535C57.4591 51.0642 57.4602 54.8985 54.7695 55.0098C53.9719 55.0098 53.2452 54.5395 52.918 53.8117C52.6354 53.183 51.8966 52.9023 51.268 53.1849C50.6393 53.4675 50.3587 54.2063 50.6413 54.835C51.1902 56.0563 52.2441 56.9522 53.4902 57.3207V58.3796C53.5561 60.0356 55.921 60.0343 55.9863 58.3796V57.3397C60.9864 55.8283 60.0471 48.5884 54.7694 48.4573C52.0799 48.3465 52.0787 44.5123 54.7695 44.401C55.5854 44.401 56.3187 44.8864 56.6377 45.6375C56.907 46.272 57.6398 46.5679 58.2742 46.2987C58.9087 46.0294 59.2047 45.2965 58.9353 44.6621C58.3877 43.3722 57.2922 42.4339 55.9863 42.0705V39.7206H58.1705ZM29.9636 34.6936L43.4126 30.2391L56.9224 34.6948V37.2244H29.9636V34.6936ZM39.6363 39.7206V52.1392H37.1401V39.7206H39.6363ZM32.1478 39.7206H34.6439V52.1392H32.1478V39.7206ZM44.6287 52.1392H42.1325V39.7206H44.6287V52.1392ZM44.6287 34.1666C44.6287 34.8559 44.0699 35.4147 43.3806 35.4147C41.725 35.349 41.7255 32.984 43.3806 32.9185C44.0699 32.9185 44.6287 33.4773 44.6287 34.1666Z" fill="#00ED85"/>
</g>
<defs>
<filter id="filter0_d_1_1080" x="0.0674076" y="0.276514" width="86.7512" height="86.7512" filterUnits="userSpaceOnUse" color-interpolation-filters="sRGB">
<feFlood flood-opacity="0" result="BackgroundImageFix"/>
<feColorMatrix in="SourceAlpha" type="matrix" values="0 0 0 0 0 0 0 0 0 0 0 0 0 0 0 0 0 0 127 0" result="hardAlpha"/>
<feOffset/>
<feGaussianBlur stdDeviation="13.7"/>
<feComposite in2="hardAlpha" operator="out"/>
<feColorMatrix type="matrix" values="0 0 0 0 0 0 0 0 0 0.929412 0 0 0 0 0.521569 0 0 0 0.38 0"/>
<feBlend mode="normal" in2="BackgroundImageFix" result="effect1_dropShadow_1_1080"/>
<feBlend mode="normal" in="SourceGraphic" in2="effect1_dropShadow_1_1080" result="shape"/>
</filter>
</defs>
</svg>
