<svg width="23" height="93" viewBox="0 0 23 93" fill="none" xmlns="http://www.w3.org/2000/svg">
<path d="M22.5216 92.7839C22.5216 92.7839 22.4659 92.7177 22.3858 92.5784C22.2918 92.4078 22.1735 92.199 22.0342 91.9448C21.7139 91.3391 21.2787 90.5139 20.7287 89.4764C20.4467 88.9333 20.1403 88.3345 19.8026 87.6835C19.4893 87.0116 19.1515 86.2839 18.793 85.5076C18.0618 83.9478 17.2367 82.1688 16.436 80.1531C16.0252 79.1504 15.5935 78.099 15.1444 77.0058C14.7336 75.8952 14.3053 74.7393 13.8632 73.5452C12.9406 71.1673 12.1573 68.5562 11.2347 65.8407C9.54963 60.3608 7.89244 54.2752 6.44067 47.8205C5.02022 41.3554 3.93051 35.1444 3.07407 29.4766C2.28377 23.7983 1.65363 18.6736 1.31244 14.353C1.10355 12.1945 0.978223 10.2379 0.870297 8.52157C0.748445 6.8052 0.668363 5.32556 0.633548 4.114C0.595252 2.94074 0.563926 2.01118 0.543037 1.32533C0.539555 1.03637 0.536074 0.79616 0.532593 0.601197C0.532593 0.437567 0.539551 0.354004 0.549996 0.354004C0.56044 0.354004 0.574365 0.437567 0.591772 0.601197C0.609179 0.79616 0.630069 1.03637 0.657921 1.32533C0.706662 2.0077 0.772812 2.93725 0.856368 4.10703C0.925998 5.3151 1.0374 6.79125 1.1871 8.50414C1.32288 10.217 1.47955 12.1702 1.71281 14.3217C2.10622 18.6318 2.77466 23.7426 3.59281 29.407C4.4771 35.0609 5.57726 41.2545 6.99422 47.7056C8.44252 54.1464 10.0788 60.2216 11.7325 65.6945C12.6412 68.4065 13.4036 71.0176 14.3053 73.3955C14.737 74.5896 15.1513 75.7455 15.5517 76.8596C15.9869 77.9562 16.4081 79.0076 16.8085 80.0138C17.5814 82.033 18.3787 83.8225 19.0819 85.3892C19.4266 86.1725 19.7504 86.9036 20.0498 87.5825C20.3701 88.2405 20.6625 88.8463 20.9306 89.3929C21.4389 90.4478 21.8427 91.2868 22.1421 91.9031C22.264 92.1676 22.3615 92.3835 22.445 92.5645C22.5112 92.7142 22.539 92.7943 22.5321 92.7978L22.5216 92.7839Z" fill="white"/>
</svg>
